<svg width="28" height="29" viewBox="0 0 28 29" fill="none" xmlns="http://www.w3.org/2000/svg">
<path d="M12.0048 0.0124588C10.9074 0.0124588 10.0096 0.902232 10.0096 1.98973V3.37381C8.57964 3.86812 7.24947 4.65905 6.11883 5.61473L4.88842 4.92267C3.92405 4.3954 2.69365 4.72494 2.16158 5.68063L0.199588 9.14085C-0.332479 10.0965 6.25178e-05 11.3159 0.964433 11.8431L2.19484 12.5352C2.09507 13.1943 1.99531 13.8534 1.99531 14.5125C1.99531 15.2045 2.09507 15.8306 2.19484 16.4897L0.964433 17.1818C6.25178e-05 17.709 -0.332479 18.9284 0.199588 19.884L2.16158 23.3443C2.69365 24.3 3.92405 24.6295 4.88842 24.1022L6.11883 23.4431C7.24947 24.4318 8.54638 25.1897 10.0096 25.6841V27.0681C10.0096 28.1556 10.9074 29.0454 12.0048 29.0454H15.9953C17.0927 29.0454 17.9906 28.1556 17.9906 27.0681V25.6841C19.4205 25.1897 20.7174 24.3988 21.848 23.4431L23.0784 24.1022C24.0428 24.6295 25.2732 24.3 25.8053 23.3443C26.4704 22.125 27.1687 20.9056 27.7673 19.884C28.2994 18.9284 27.9336 17.709 27.0024 17.1818L25.772 16.4897C25.8718 15.8306 26.0048 15.2045 26.0048 14.5125C26.0048 13.8204 25.9051 13.1613 25.772 12.5352L27.0024 11.8431C27.9668 11.3159 28.3326 10.0965 27.7673 9.14085C27.0689 7.95449 26.3706 6.70222 25.8053 5.68063C25.2732 4.72494 24.0428 4.3954 23.0784 4.92267L21.848 5.58177C20.7174 4.59313 19.4205 3.83518 17.9906 3.34086V1.95677C17.9906 0.869265 17.0927 -0.0205078 15.9953 -0.0205078H12.0048V0.0124588ZM12.0048 1.33064H15.9953C16.3611 1.33064 16.6604 1.62723 16.6604 1.98973V3.80223C16.6604 4.06587 16.8599 4.36245 17.126 4.42836C18.7222 4.92267 20.1521 5.74655 21.3492 6.867C21.5488 7.06473 21.8813 7.09768 22.1473 6.96586L23.7435 6.07608C24.0761 5.87836 24.4751 6.01017 24.6414 6.33972L26.6034 9.79994C26.7697 10.1295 26.6699 10.525 26.3374 10.7227L24.7412 11.6124C24.5084 11.7443 24.3754 12.0409 24.4086 12.3374C24.5749 13.0624 24.6414 13.7875 24.6414 14.5454C24.6414 15.3034 24.5416 16.0284 24.4086 16.7534C24.3421 17.017 24.4751 17.3136 24.7412 17.4784L26.3374 18.3681C26.6699 18.5659 26.8029 18.9613 26.6034 19.2909L24.6414 22.7511C24.4419 23.0806 24.0761 23.1795 23.7435 23.0147L22.1473 22.125C21.9146 21.9931 21.5488 22.0261 21.3492 22.2238C20.1521 23.3443 18.7222 24.2011 17.126 24.6624C16.8599 24.7613 16.6604 25.0249 16.6604 25.2886V27.1011C16.6604 27.4636 16.3611 27.7602 15.9953 27.7602H12.0048C11.639 27.7602 11.3397 27.4636 11.3397 27.1011V25.2886C11.3397 24.992 11.1402 24.7283 10.8742 24.6624C9.27797 24.1681 7.84804 23.3443 6.65089 22.2238C6.45137 22.0261 6.11883 21.9931 5.85279 22.125L4.2566 23.0147C3.92405 23.2125 3.55826 23.0806 3.35873 22.7511C2.6604 21.5647 1.96206 20.3125 1.39674 19.2909C1.23047 18.9613 1.33023 18.5659 1.66277 18.3681L3.25897 17.4784C3.49175 17.3466 3.62477 17.05 3.59151 16.7534C3.42524 16.0284 3.35873 15.3034 3.35873 14.5454C3.35873 13.7875 3.42524 13.0295 3.59151 12.3374C3.65802 12.0738 3.525 11.7772 3.25897 11.6124L1.66277 10.6897C1.33023 10.492 1.23047 10.0965 1.39674 9.767C2.06182 8.54768 2.76016 7.32836 3.35873 6.30677C3.55826 5.97722 3.92405 5.87836 4.2566 6.04314L5.85279 6.93291C6.08557 7.06473 6.45137 7.03176 6.65089 6.83403C7.84804 5.71358 9.27797 4.85677 10.8742 4.39541C11.1402 4.3295 11.3397 4.0329 11.3397 3.76927V1.95677C11.3397 1.59427 11.639 1.33064 12.0048 1.33064ZM14.0001 7.26246C9.97631 7.26246 6.68415 10.525 6.68415 14.5125C6.68415 18.5 9.97631 21.7625 14.0001 21.7625C18.0238 21.7625 21.316 18.5 21.316 14.5125C21.316 10.492 18.0238 7.26246 14.0001 7.26246ZM14.0001 8.58064C17.3255 8.58064 19.9858 11.217 19.9858 14.5125C19.9858 17.8079 17.3255 20.4443 14.0001 20.4443C10.6746 20.4443 8.01431 17.8079 8.01431 14.5125C8.01431 11.217 10.6746 8.58064 14.0001 8.58064Z" fill="#15286D"/>
</svg>
