<svg width="160" height="42" viewBox="0 0 160 42" fill="none" xmlns="http://www.w3.org/2000/svg">
<path d="M62.7188 7.82422H65.788V34.9398H62.7188V7.82422Z" fill="white"/>
<path d="M75.9746 21.3596C75.9746 13.76 82.291 7.32959 89.7194 7.32959C97.1923 7.32959 103.42 13.715 103.42 21.3596C103.42 29.0041 97.1478 35.3895 89.7194 35.3895C82.3355 35.4345 75.9746 29.0041 75.9746 21.3596ZM100.35 21.3596C100.35 15.3339 95.502 10.2075 89.7194 10.2075C83.9368 10.2075 79.0438 15.3339 79.0438 21.3596C79.0438 27.4302 83.9368 32.5566 89.7194 32.5566C95.502 32.5566 100.35 27.4302 100.35 21.3596Z" fill="white"/>
<path d="M117.92 10.7471H108.891V7.82422H129.975V10.7471H120.945V34.9398H117.876V10.7471H117.92Z" fill="white"/>
<path d="M146.567 11.6015L136.381 34.9398H133.045L144.21 9.35313C144.61 8.4088 145.544 7.82422 146.523 7.82422C147.546 7.82422 148.436 8.4088 148.836 9.35313L160.001 34.9398H156.665L146.567 11.6015Z" fill="white"/>
<path d="M31.448 5.0364C32.8237 5.0364 33.939 3.90897 33.939 2.5182C33.939 1.12744 32.8237 0 31.448 0C30.0723 0 28.957 1.12744 28.957 2.5182C28.957 3.90897 30.0723 5.0364 31.448 5.0364Z" fill="white"/>
<path d="M34.2507 40.6062C35.6265 40.6062 36.7417 39.4788 36.7417 38.088C36.7417 36.6973 35.6265 35.5698 34.2507 35.5698C32.875 35.5698 31.7598 36.6973 31.7598 38.088C31.7598 39.4788 32.875 40.6062 34.2507 40.6062Z" fill="white"/>
<path d="M32.1609 11.332C33.3156 11.332 34.2516 10.3857 34.2516 9.21847C34.2516 8.05122 33.3156 7.10498 32.1609 7.10498C31.0063 7.10498 30.0703 8.05122 30.0703 9.21847C30.0703 10.3857 31.0063 11.332 32.1609 11.332Z" fill="white"/>
<path d="M37.7195 12.1415C38.8742 12.1415 39.8102 11.1953 39.8102 10.028C39.8102 8.86079 38.8742 7.91455 37.7195 7.91455C36.5649 7.91455 35.6289 8.86079 35.6289 10.028C35.6289 11.1953 36.5649 12.1415 37.7195 12.1415Z" fill="white"/>
<path d="M31.4492 16.6829C32.4318 16.6829 33.2284 15.8776 33.2284 14.8842C33.2284 13.8908 32.4318 13.0854 31.4492 13.0854C30.4665 13.0854 29.6699 13.8908 29.6699 14.8842C29.6699 15.8776 30.4665 16.6829 31.4492 16.6829Z" fill="white"/>
<path d="M37.0078 17.4475C37.9904 17.4475 38.787 16.6422 38.787 15.6488C38.787 14.6554 37.9904 13.8501 37.0078 13.8501C36.0251 13.8501 35.2285 14.6554 35.2285 15.6488C35.2285 16.6422 36.0251 17.4475 37.0078 17.4475Z" fill="white"/>
<path d="M41.457 19.2014C42.4397 19.2014 43.2363 18.3961 43.2363 17.4027C43.2363 16.4093 42.4397 15.604 41.457 15.604C40.4743 15.604 39.6777 16.4093 39.6777 17.4027C39.6777 18.3961 40.4743 19.2014 41.457 19.2014Z" fill="white"/>
<path d="M35.3635 21.7644C36.2233 21.7644 36.9203 21.0598 36.9203 20.1906C36.9203 19.3213 36.2233 18.6167 35.3635 18.6167C34.5037 18.6167 33.8066 19.3213 33.8066 20.1906C33.8066 21.0598 34.5037 21.7644 35.3635 21.7644Z" fill="white"/>
<path d="M29.8029 20.9998C30.6628 20.9998 31.3598 20.2952 31.3598 19.4259C31.3598 18.5567 30.6628 17.8521 29.8029 17.8521C28.9431 17.8521 28.2461 18.5567 28.2461 19.4259C28.2461 20.2952 28.9431 20.9998 29.8029 20.9998Z" fill="white"/>
<path d="M39.8557 23.5184C40.7155 23.5184 41.4125 22.8137 41.4125 21.9445C41.4125 21.0753 40.7155 20.3706 39.8557 20.3706C38.9959 20.3706 38.2988 21.0753 38.2988 21.9445C38.2988 22.8137 38.9959 23.5184 39.8557 23.5184Z" fill="white"/>
<path d="M33.1391 25.0472C33.8761 25.0472 34.4736 24.4432 34.4736 23.6982C34.4736 22.9531 33.8761 22.3491 33.1391 22.3491C32.4021 22.3491 31.8047 22.9531 31.8047 23.6982C31.8047 24.4432 32.4021 25.0472 33.1391 25.0472Z" fill="white"/>
<path d="M37.6313 26.7557C38.3683 26.7557 38.9658 26.1517 38.9658 25.4067C38.9658 24.6616 38.3683 24.0576 37.6313 24.0576C36.8943 24.0576 36.2969 24.6616 36.2969 25.4067C36.2969 26.1517 36.8943 26.7557 37.6313 26.7557Z" fill="white"/>
<path d="M27.6235 24.2376C28.3605 24.2376 28.958 23.6336 28.958 22.8886C28.958 22.1435 28.3605 21.5396 27.6235 21.5396C26.8865 21.5396 26.2891 22.1435 26.2891 22.8886C26.2891 23.6336 26.8865 24.2376 27.6235 24.2376Z" fill="white"/>
<path d="M30.6921 27.2504C31.3063 27.2504 31.8042 26.747 31.8042 26.1262C31.8042 25.5053 31.3063 25.002 30.6921 25.002C30.078 25.002 29.5801 25.5053 29.5801 26.1262C29.5801 26.747 30.078 27.2504 30.6921 27.2504Z" fill="white"/>
<path d="M32.6055 30.3536C33.146 30.3536 33.5841 29.9107 33.5841 29.3643C33.5841 28.8179 33.146 28.375 32.6055 28.375C32.0651 28.375 31.627 28.8179 31.627 29.3643C31.627 29.9107 32.0651 30.3536 32.6055 30.3536Z" fill="white"/>
<path d="M30.2479 30.9831C30.6901 30.9831 31.0486 30.6207 31.0486 30.1737C31.0486 29.7266 30.6901 29.3643 30.2479 29.3643C29.8057 29.3643 29.4473 29.7266 29.4473 30.1737C29.4473 30.6207 29.8057 30.9831 30.2479 30.9831Z" fill="white"/>
<path d="M28.1563 28.6446C28.6968 28.6446 29.1349 28.2017 29.1349 27.6553C29.1349 27.1089 28.6968 26.666 28.1563 26.666C27.6159 26.666 27.1777 27.1089 27.1777 27.6553C27.1777 28.2017 27.6159 28.6446 28.1563 28.6446Z" fill="white"/>
<path d="M25.1316 26.4862C25.7457 26.4862 26.2436 25.9829 26.2436 25.362C26.2436 24.7411 25.7457 24.2378 25.1316 24.2378C24.5174 24.2378 24.0195 24.7411 24.0195 25.362C24.0195 25.9829 24.5174 26.4862 25.1316 26.4862Z" fill="white"/>
<path d="M25.0866 18.0321C25.7008 18.0321 26.1987 17.5288 26.1987 16.9079C26.1987 16.287 25.7008 15.7837 25.0866 15.7837C24.4725 15.7837 23.9746 16.287 23.9746 16.9079C23.9746 17.5288 24.4725 18.0321 25.0866 18.0321Z" fill="white"/>
<path d="M25.5762 14.0748C26.1167 14.0748 26.5548 13.6319 26.5548 13.0855C26.5548 12.5391 26.1167 12.0962 25.5762 12.0962C25.0358 12.0962 24.5977 12.5391 24.5977 13.0855C24.5977 13.6319 25.0358 14.0748 25.5762 14.0748Z" fill="white"/>
<path d="M26.6444 10.8371C27.0866 10.8371 27.4451 10.4747 27.4451 10.0277C27.4451 9.58065 27.0866 9.21826 26.6444 9.21826C26.2022 9.21826 25.8438 9.58065 25.8438 10.0277C25.8438 10.4747 26.2022 10.8371 26.6444 10.8371Z" fill="white"/>
<path d="M24.7755 9.30818C25.3159 9.30818 25.7541 8.86526 25.7541 8.31888C25.7541 7.77251 25.3159 7.32959 24.7755 7.32959C24.235 7.32959 23.7969 7.77251 23.7969 8.31888C23.7969 8.86526 24.235 9.30818 24.7755 9.30818Z" fill="white"/>
<path d="M35.1394 28.9593C35.7535 28.9593 36.2514 28.456 36.2514 27.8351C36.2514 27.2143 35.7535 26.7109 35.1394 26.7109C34.5252 26.7109 34.0273 27.2143 34.0273 27.8351C34.0273 28.456 34.5252 28.9593 35.1394 28.9593Z" fill="white"/>
<path d="M22.2409 8.00425C22.8551 8.00425 23.353 7.50093 23.353 6.88006C23.353 6.25918 22.8551 5.75586 22.2409 5.75586C21.6268 5.75586 21.1289 6.25918 21.1289 6.88006C21.1289 7.50093 21.6268 8.00425 22.2409 8.00425Z" fill="white"/>
<path d="M22.9968 12.7709C23.611 12.7709 24.1088 12.2675 24.1088 11.6467C24.1088 11.0258 23.611 10.5225 22.9968 10.5225C22.3826 10.5225 21.8848 11.0258 21.8848 11.6467C21.8848 12.2675 22.3826 12.7709 22.9968 12.7709Z" fill="white"/>
<path d="M21.7524 17.3128C22.4894 17.3128 23.0869 16.7088 23.0869 15.9638C23.0869 15.2187 22.4894 14.6147 21.7524 14.6147C21.0154 14.6147 20.418 15.2187 20.418 15.9638C20.418 16.7088 21.0154 17.3128 21.7524 17.3128Z" fill="white"/>
<path d="M17.7033 17.3128C18.5632 17.3128 19.2602 16.6081 19.2602 15.7389C19.2602 14.8697 18.5632 14.165 17.7033 14.165C16.8435 14.165 16.1465 14.8697 16.1465 15.7389C16.1465 16.6081 16.8435 17.3128 17.7033 17.3128Z" fill="white"/>
<path d="M12.9882 18.3919C13.9709 18.3919 14.7675 17.5866 14.7675 16.5932C14.7675 15.5997 13.9709 14.7944 12.9882 14.7944C12.0056 14.7944 11.209 15.5997 11.209 16.5932C11.209 17.5866 12.0056 18.3919 12.9882 18.3919Z" fill="white"/>
<path d="M7.82891 20.955C8.98354 20.955 9.91954 20.0088 9.91954 18.8415C9.91954 17.6743 8.98354 16.728 7.82891 16.728C6.67429 16.728 5.73828 17.6743 5.73828 18.8415C5.73828 20.0088 6.67429 20.955 7.82891 20.955Z" fill="white"/>
<path d="M2.49096 25.2718C3.86669 25.2718 4.98193 24.1443 4.98193 22.7536C4.98193 21.3628 3.86669 20.2354 2.49096 20.2354C1.11524 20.2354 0 21.3628 0 22.7536C0 24.1443 1.11524 25.2718 2.49096 25.2718Z" fill="white"/>
<path d="M5.73907 15.6938C6.89369 15.6938 7.8297 14.7475 7.8297 13.5803C7.8297 12.413 6.89369 11.4668 5.73907 11.4668C4.58444 11.4668 3.64844 12.413 3.64844 13.5803C3.64844 14.7475 4.58444 15.6938 5.73907 15.6938Z" fill="white"/>
<path d="M10.8984 13.1306C11.8811 13.1306 12.6777 12.3253 12.6777 11.3319C12.6777 10.3385 11.8811 9.5332 10.8984 9.5332C9.91574 9.5332 9.11914 10.3385 9.11914 11.3319C9.11914 12.3253 9.91574 13.1306 10.8984 13.1306Z" fill="white"/>
<path d="M10.1425 8.36403C11.1252 8.36403 11.9218 7.55872 11.9218 6.56532C11.9218 5.57191 11.1252 4.7666 10.1425 4.7666C9.15988 4.7666 8.36328 5.57191 8.36328 6.56532C8.36328 7.55872 9.15988 8.36403 10.1425 8.36403Z" fill="white"/>
<path d="M14.8576 7.28496C15.7175 7.28496 16.4145 6.58031 16.4145 5.71108C16.4145 4.84185 15.7175 4.13721 14.8576 4.13721C13.9978 4.13721 13.3008 4.84185 13.3008 5.71108C13.3008 6.58031 13.9978 7.28496 14.8576 7.28496Z" fill="white"/>
<path d="M18.9048 7.28499C19.6418 7.28499 20.2392 6.681 20.2392 5.93595C20.2392 5.1909 19.6418 4.58691 18.9048 4.58691C18.1678 4.58691 17.5703 5.1909 17.5703 5.93595C17.5703 6.681 18.1678 7.28499 18.9048 7.28499Z" fill="white"/>
<path d="M19.6606 12.0516C20.3976 12.0516 20.9951 11.4476 20.9951 10.7026C20.9951 9.9575 20.3976 9.35352 19.6606 9.35352C18.9236 9.35352 18.3262 9.9575 18.3262 10.7026C18.3262 11.4476 18.9236 12.0516 19.6606 12.0516Z" fill="white"/>
<path d="M15.6135 12.0965C16.4733 12.0965 17.1703 11.3918 17.1703 10.5226C17.1703 9.65338 16.4733 8.94873 15.6135 8.94873C14.7537 8.94873 14.0566 9.65338 14.0566 10.5226C14.0566 11.3918 14.7537 12.0965 15.6135 12.0965Z" fill="white"/>
<path d="M11.2089 24.0578C11.6511 24.0578 12.0095 23.6954 12.0095 23.2484C12.0095 22.8014 11.6511 22.439 11.2089 22.439C10.7667 22.439 10.4082 22.8014 10.4082 23.2484C10.4082 23.6954 10.7667 24.0578 11.2089 24.0578Z" fill="white"/>
<path d="M14.4122 23.6529C14.9526 23.6529 15.3908 23.21 15.3908 22.6636C15.3908 22.1172 14.9526 21.6743 14.4122 21.6743C13.8717 21.6743 13.4336 22.1172 13.4336 22.6636C13.4336 23.21 13.8717 23.6529 14.4122 23.6529Z" fill="white"/>
<path d="M17.9265 22.3041C18.5407 22.3041 19.0385 21.8007 19.0385 21.1799C19.0385 20.559 18.5407 20.0557 17.9265 20.0557C17.3123 20.0557 16.8145 20.559 16.8145 21.1799C16.8145 21.8007 17.3123 22.3041 17.9265 22.3041Z" fill="white"/>
<path d="M18.7719 25.9017C19.5089 25.9017 20.1064 25.2977 20.1064 24.5526C20.1064 23.8076 19.5089 23.2036 18.7719 23.2036C18.035 23.2036 17.4375 23.8076 17.4375 24.5526C17.4375 25.2977 18.035 25.9017 18.7719 25.9017Z" fill="white"/>
<path d="M14.5007 26.7557C15.1149 26.7557 15.6127 26.2524 15.6127 25.6315C15.6127 25.0106 15.1149 24.5073 14.5007 24.5073C13.8865 24.5073 13.3887 25.0106 13.3887 25.6315C13.3887 26.2524 13.8865 26.7557 14.5007 26.7557Z" fill="white"/>
<path d="M10.7208 26.711C11.2612 26.711 11.6994 26.2681 11.6994 25.7217C11.6994 25.1753 11.2612 24.7324 10.7208 24.7324C10.1803 24.7324 9.74219 25.1753 9.74219 25.7217C9.74219 26.2681 10.1803 26.711 10.7208 26.711Z" fill="white"/>
<path d="M10.7644 29.8138C11.3785 29.8138 11.8764 29.3105 11.8764 28.6896C11.8764 28.0687 11.3785 27.5654 10.7644 27.5654C10.1502 27.5654 9.65234 28.0687 9.65234 28.6896C9.65234 29.3105 10.1502 29.8138 10.7644 29.8138Z" fill="white"/>
<path d="M15.3012 30.3983C16.0382 30.3983 16.6357 29.7943 16.6357 29.0492C16.6357 28.3042 16.0382 27.7002 15.3012 27.7002C14.5642 27.7002 13.9668 28.3042 13.9668 29.0492C13.9668 29.7943 14.5642 30.3983 15.3012 30.3983Z" fill="white"/>
<path d="M20.5959 29.8138C21.4557 29.8138 22.1528 29.1091 22.1528 28.2399C22.1528 27.3707 21.4557 26.666 20.5959 26.666C19.7361 26.666 19.0391 27.3707 19.0391 28.2399C19.0391 29.1091 19.7361 29.8138 20.5959 29.8138Z" fill="white"/>
<path d="M23.7089 33.7259C24.6916 33.7259 25.4882 32.9205 25.4882 31.9271C25.4882 30.9337 24.6916 30.1284 23.7089 30.1284C22.7263 30.1284 21.9297 30.9337 21.9297 31.9271C21.9297 32.9205 22.7263 33.7259 23.7089 33.7259Z" fill="white"/>
<path d="M17.1701 34.2654C18.03 34.2654 18.727 33.5608 18.727 32.6916C18.727 31.8223 18.03 31.1177 17.1701 31.1177C16.3103 31.1177 15.6133 31.8223 15.6133 32.6916C15.6133 33.5608 16.3103 34.2654 17.1701 34.2654Z" fill="white"/>
<path d="M13.4787 37.3235C14.3386 37.3235 15.0356 36.6189 15.0356 35.7497C15.0356 34.8804 14.3386 34.1758 13.4787 34.1758C12.6189 34.1758 11.9219 34.8804 11.9219 35.7497C11.9219 36.6189 12.6189 37.3235 13.4787 37.3235Z" fill="white"/>
<path d="M16.5468 41.2805C17.5295 41.2805 18.3261 40.4752 18.3261 39.4818C18.3261 38.4884 17.5295 37.6831 16.5468 37.6831C15.5642 37.6831 14.7676 38.4884 14.7676 39.4818C14.7676 40.4752 15.5642 41.2805 16.5468 41.2805Z" fill="white"/>
<path d="M24.7313 41.9999C25.8859 41.9999 26.8219 41.0537 26.8219 39.8864C26.8219 38.7192 25.8859 37.7729 24.7313 37.7729C23.5766 37.7729 22.6406 38.7192 22.6406 39.8864C22.6406 41.0537 23.5766 41.9999 24.7313 41.9999Z" fill="white"/>
<path d="M20.2382 38.2229C21.2209 38.2229 22.0175 37.4176 22.0175 36.4242C22.0175 35.4308 21.2209 34.6255 20.2382 34.6255C19.2556 34.6255 18.459 35.4308 18.459 36.4242C18.459 37.4176 19.2556 38.2229 20.2382 38.2229Z" fill="white"/>
<path d="M28.157 37.5033C29.3117 37.5033 30.2477 36.5571 30.2477 35.3899C30.2477 34.2226 29.3117 33.2764 28.157 33.2764C27.0024 33.2764 26.0664 34.2226 26.0664 35.3899C26.0664 36.5571 27.0024 37.5033 28.157 37.5033Z" fill="white"/>
<path d="M11.6098 33.4559C12.3468 33.4559 12.9443 32.8519 12.9443 32.1069C12.9443 31.3618 12.3468 30.7578 11.6098 30.7578C10.8728 30.7578 10.2754 31.3618 10.2754 32.1069C10.2754 32.8519 10.8728 33.4559 11.6098 33.4559Z" fill="white"/>
</svg>
