<svg width="77" height="83" viewBox="0 0 77 83" fill="none" xmlns="http://www.w3.org/2000/svg">
<path opacity="0.4" d="M58.3151 81.5399H18.4418C17.0662 81.5399 15.9473 80.4164 15.9473 79.0352V41.9862C15.9473 40.6049 17.0662 39.4814 18.4418 39.4814H58.3151C59.6907 39.4814 60.8096 40.6049 60.8096 41.9862V79.0418C60.8162 80.423 59.6973 81.5399 58.3151 81.5399Z" stroke="white" stroke-width="2" stroke-miterlimit="10"/>
<path d="M75.5299 5.76324V53.6379C75.5299 55.8846 73.6845 57.7069 71.4093 57.7069H67.0043V36.4409C67.0043 34.1549 65.1325 32.3066 62.8175 32.3066H13.9323C11.6174 32.3066 9.74558 34.1549 9.74558 36.4409V57.7004H5.34718C3.07191 57.7004 1.22656 55.8846 1.22656 53.6379V5.76324C1.22656 3.47727 3.09837 1.62891 5.41332 1.62891H71.3431C73.6581 1.62891 75.5299 3.47727 75.5299 5.76324Z" stroke="white" stroke-width="2" stroke-miterlimit="10"/>
<path d="M34.8726 70.1521V65.5895L30.6634 63.3145L26.4609 65.5895V70.1521L30.6634 72.4271L34.8726 70.1521Z" fill="white"/>
<path d="M30.6668 57.7066C32.9896 57.7066 34.8726 55.8236 34.8726 53.5008C34.8726 51.1779 32.9896 49.2949 30.6668 49.2949C28.344 49.2949 26.4609 51.1779 26.4609 53.5008C26.4609 55.8236 28.344 57.7066 30.6668 57.7066Z" fill="white"/>
<path d="M47.1371 49.2949L42.584 57.0056H51.6967L47.1371 49.2949Z" fill="white"/>
<path d="M50.9951 64.0156H43.9854V71.0254H50.9951V64.0156Z" fill="white"/>
</svg>
