<svg width="82" height="84" viewBox="0 0 82 84" fill="none" xmlns="http://www.w3.org/2000/svg">
<path d="M79.9056 63.3064L44.3029 82.1844C42.2957 83.2452 39.8946 83.2452 37.8938 82.1844L2.28472 63.3064C1.21759 62.7411 1.21759 61.2103 2.28472 60.645L14.3979 54.2168L37.8874 66.673C39.8946 67.7337 42.2957 67.7337 44.2965 66.673L67.786 54.2168L79.8992 60.645C80.9727 61.2103 80.9727 62.7411 79.9056 63.3064Z" stroke="#96A4F3" stroke-width="2" stroke-miterlimit="10"/>
<path d="M74.6201 47.9408C75.6872 48.5061 75.6872 50.0369 74.6201 50.6023L67.7917 54.2229L44.3022 66.679C42.295 67.7398 39.894 67.7398 37.8931 66.679L14.3972 54.2165L7.5689 50.5959C6.50177 50.0306 6.50177 48.4998 7.5689 47.9344L19.4534 41.6396L28.7908 46.5878L37.8868 51.4089C39.894 52.4697 42.295 52.4697 44.2959 51.4089L53.3919 46.5878L62.7292 41.6396L74.6201 47.9408Z" stroke="white" stroke-width="2" stroke-miterlimit="10"/>
<path d="M68.5997 35.8723C69.6669 36.4376 69.6669 37.9685 68.5997 38.5338L62.7369 41.6462L53.3995 46.5944L44.3035 51.4155C42.2963 52.4763 39.8953 52.4763 37.8944 51.4155L28.7984 46.5944L19.461 41.6462L13.5982 38.5338C12.5311 37.9685 12.5311 36.4376 13.5982 35.8723L23.8312 30.4414L37.8372 37.8732C39.8762 38.953 42.3217 38.953 44.3607 37.8732L58.3667 30.4414L68.5997 35.8723Z" stroke="#96A4F3" stroke-width="2" stroke-miterlimit="10"/>
<path d="M64.3371 25.1058C65.0295 25.8299 64.8453 27.0114 63.956 27.4814L58.36 30.4478L44.2396 37.9367C42.2705 38.9784 39.9139 38.9784 37.9448 37.9367L23.8244 30.4414L18.2283 27.4751C17.3454 27.005 17.1549 25.8172 17.8472 25.0994L39.8948 2.2324C40.5491 1.55274 41.6353 1.55274 42.2959 2.2324L64.3371 25.1058Z" stroke="white" stroke-width="2" stroke-miterlimit="10"/>
<path d="M41.0957 1.62891V38.4702" stroke="white" stroke-width="2" stroke-miterlimit="10"/>
</svg>
