<svg width="98" height="101" viewBox="0 0 98 101" fill="none" xmlns="http://www.w3.org/2000/svg">
<path opacity="0.4" d="M49.9048 85.5265C68.8727 85.5265 84.2491 70.15 84.2491 51.1822C84.2491 32.2144 68.8727 16.8379 49.9048 16.8379C30.937 16.8379 15.5605 32.2144 15.5605 51.1822C15.5605 70.15 30.937 85.5265 49.9048 85.5265Z" stroke="white" stroke-width="2" stroke-miterlimit="10"/>
<path d="M51.3497 19.9226H48.468C47.5568 19.9226 46.8213 19.1871 46.8213 18.2759V15.3942C46.8213 14.4831 47.5568 13.7476 48.468 13.7476H51.3497C52.2608 13.7476 52.9963 14.4831 52.9963 15.3942V18.2759C52.9963 19.1871 52.2553 19.9226 51.3497 19.9226Z" fill="white"/>
<path d="M51.3497 38.3875H48.468C47.5568 38.3875 46.8213 37.6519 46.8213 36.7408V33.8591C46.8213 32.9479 47.5568 32.2124 48.468 32.2124H51.3497C52.2608 32.2124 52.9963 32.9479 52.9963 33.8591V36.7408C52.9963 37.6465 52.2553 38.3875 51.3497 38.3875Z" fill="white"/>
<path d="M51.3497 70.5359H48.468C47.5568 70.5359 46.8213 69.8004 46.8213 68.8892V66.0075C46.8213 65.0964 47.5568 64.3608 48.468 64.3608H51.3497C52.2608 64.3608 52.9963 65.0964 52.9963 66.0075V68.8892C52.9963 69.7949 52.2553 70.5359 51.3497 70.5359Z" fill="white"/>
<path d="M51.3497 88.6111H48.468C47.5568 88.6111 46.8213 87.8756 46.8213 86.9644V84.0827C46.8213 83.1716 47.5568 82.436 48.468 82.436H51.3497C52.2608 82.436 52.9963 83.1716 52.9963 84.0827V86.9644C52.9963 87.8756 52.2553 88.6111 51.3497 88.6111Z" fill="white"/>
<path d="M81.1641 52.6202V49.7385C81.1641 48.8273 81.8996 48.0918 82.8107 48.0918H85.6924C86.6036 48.0918 87.3391 48.8273 87.3391 49.7385V52.6202C87.3391 53.5313 86.6036 54.2669 85.6924 54.2669H82.8107C81.8996 54.2669 81.1641 53.5313 81.1641 52.6202Z" fill="white"/>
<path d="M12.4756 52.6202V49.7385C12.4756 48.8273 13.2111 48.0918 14.1223 48.0918H17.004C17.9151 48.0918 18.6506 48.8273 18.6506 49.7385V52.6202C18.6506 53.5313 17.9151 54.2669 17.004 54.2669H14.1223C13.2111 54.2669 12.4756 53.5313 12.4756 52.6202Z" fill="white"/>
<path d="M30.9365 52.6202V49.7385C30.9365 48.8273 31.672 48.0918 32.5832 48.0918H35.4649C36.3761 48.0918 37.1116 48.8273 37.1116 49.7385V52.6202C37.1116 53.5313 36.3761 54.2669 35.4649 54.2669H32.5832C31.6775 54.2669 30.9365 53.5313 30.9365 52.6202Z" fill="white"/>
<path d="M63.084 52.6202V49.7385C63.084 48.8273 63.8195 48.0918 64.7307 48.0918H67.6124C68.5235 48.0918 69.259 48.8273 69.259 49.7385V52.6202C69.259 53.5313 68.5235 54.2669 67.6124 54.2669H64.7307C63.825 54.2669 63.084 53.5313 63.084 52.6202Z" fill="white"/>
<path d="M75.6329 29.9836H72.7512C71.84 29.9836 71.1045 29.2481 71.1045 28.337V25.4553C71.1045 24.5441 71.84 23.8086 72.7512 23.8086H75.6329C76.544 23.8086 77.2795 24.5441 77.2795 25.4553V28.337C77.2795 29.2426 76.544 29.9836 75.6329 29.9836Z" fill="white"/>
<path d="M27.0616 78.5554H24.1799C23.2687 78.5554 22.5332 77.8199 22.5332 76.9087V74.0271C22.5332 73.1159 23.2687 72.3804 24.1799 72.3804H27.0616C27.9727 72.3804 28.7083 73.1159 28.7083 74.0271V76.9087C28.7083 77.8144 27.9727 78.5554 27.0616 78.5554Z" fill="white"/>
<path d="M71.1045 76.9087V74.0271C71.1045 73.1159 71.84 72.3804 72.7512 72.3804H75.6329C76.544 72.3804 77.2795 73.1159 77.2795 74.0271V76.9087C77.2795 77.8199 76.544 78.5554 75.6329 78.5554H72.7512C71.84 78.5554 71.1045 77.8144 71.1045 76.9087Z" fill="white"/>
<path d="M22.5332 28.337V25.4553C22.5332 24.5441 23.2687 23.8086 24.1799 23.8086H27.0616C27.9727 23.8086 28.7083 24.5441 28.7083 25.4553V28.337C28.7083 29.2481 27.9727 29.9836 27.0616 29.9836H24.1799C23.2742 29.9836 22.5332 29.2426 22.5332 28.337Z" fill="white"/>
<path opacity="0.4" d="M49.9053 16.8379V35.2972L66.1745 51.1822H84.2496" stroke="white" stroke-width="2" stroke-miterlimit="10"/>
<path opacity="0.4" d="M15.5605 51.1821H34.0253" stroke="white" stroke-width="2" stroke-miterlimit="10"/>
<path opacity="0.4" d="M25.5947 26.8716L34.0257 50.4082" stroke="white" stroke-width="2" stroke-miterlimit="10"/>
<path opacity="0.4" d="M49.9052 35.3468V35.2974L34.0257 51.1824L25.5947 75.4929L49.9052 67.4461" stroke="white" stroke-width="2" stroke-miterlimit="10"/>
<path opacity="0.4" d="M74.2158 26.8716L66.1745 51.1821L49.9053 67.4458V85.2958" stroke="white" stroke-width="2" stroke-miterlimit="10"/>
<path opacity="0.4" d="M74.2161 75.4926L66.1748 51.1821" stroke="white" stroke-width="2" stroke-miterlimit="10"/>
<path opacity="0.4" d="M74.9902 25.7131L85.4082 16.4478" stroke="url(#paint0_linear)" stroke-width="2" stroke-miterlimit="10"/>
<path opacity="0.4" d="M85.4082 51.1821H94.8006H97.8846" stroke="url(#paint1_linear)" stroke-width="2" stroke-miterlimit="10"/>
<path opacity="0.4" d="M12.4764 51.1821H0" stroke="url(#paint2_linear)" stroke-width="2" stroke-miterlimit="10"/>
<path opacity="0.4" d="M49.9053 15.6796V0.628906" stroke="url(#paint3_linear)" stroke-width="2" stroke-miterlimit="10"/>
<path opacity="0.4" d="M15.5605 16.4478L24.0519 24.9391" stroke="url(#paint4_linear)" stroke-width="2" stroke-miterlimit="10"/>
<path opacity="0.4" d="M23.8613 77.2266L16.3359 84.7519" stroke="url(#paint5_linear)" stroke-width="2" stroke-miterlimit="10"/>
<path opacity="0.4" d="M49.9053 100.187V88.2271" stroke="url(#paint6_linear)" stroke-width="2" stroke-miterlimit="10"/>
<path opacity="0.4" d="M74.8311 76.5137L82.5156 84.1982" stroke="url(#paint7_linear)" stroke-width="2" stroke-miterlimit="10"/>
<defs>
<linearGradient id="paint0_linear" x1="74.6246" y1="21.0808" x2="85.773" y2="21.0808" gradientUnits="userSpaceOnUse">
<stop stop-color="white"/>
<stop offset="0.8324" stop-color="white" stop-opacity="0"/>
</linearGradient>
<linearGradient id="paint1_linear" x1="85.4082" y1="51.6821" x2="97.8846" y2="51.6821" gradientUnits="userSpaceOnUse">
<stop stop-color="white"/>
<stop offset="0.8324" stop-color="white" stop-opacity="0"/>
</linearGradient>
<linearGradient id="paint2_linear" x1="0" y1="51.6821" x2="12.4764" y2="51.6821" gradientUnits="userSpaceOnUse">
<stop offset="0.135417" stop-color="white" stop-opacity="0"/>
<stop offset="1" stop-color="white"/>
</linearGradient>
<linearGradient id="paint3_linear" x1="50.363" y1="13.5112" x2="50.363" y2="1.28954" gradientUnits="userSpaceOnUse">
<stop stop-color="white"/>
<stop offset="0.8324" stop-color="white" stop-opacity="0"/>
</linearGradient>
<linearGradient id="paint4_linear" x1="24.4389" y1="20.6949" x2="15.1731" y2="20.6949" gradientUnits="userSpaceOnUse">
<stop stop-color="white"/>
<stop offset="0.8324" stop-color="white" stop-opacity="0"/>
</linearGradient>
<linearGradient id="paint5_linear" x1="24.2474" y1="80.9901" x2="15.9463" y2="80.9901" gradientUnits="userSpaceOnUse">
<stop stop-color="white"/>
<stop offset="0.8324" stop-color="white" stop-opacity="0"/>
</linearGradient>
<linearGradient id="paint6_linear" x1="50.363" y1="88.4929" x2="50.363" y2="100.384" gradientUnits="userSpaceOnUse">
<stop stop-color="white"/>
<stop offset="0.8324" stop-color="white" stop-opacity="0"/>
</linearGradient>
<linearGradient id="paint7_linear" x1="74.4413" y1="80.3575" x2="82.9021" y2="80.3575" gradientUnits="userSpaceOnUse">
<stop stop-color="white"/>
<stop offset="0.8324" stop-color="white" stop-opacity="0"/>
</linearGradient>
</defs>
</svg>
