<svg width="99" height="99" viewBox="0 0 99 99" fill="none" xmlns="http://www.w3.org/2000/svg">
<rect width="72" height="72" rx="36" transform="matrix(0.5 0.866025 0.866025 -0.5 0 36)" fill="#5067EB"/>
<g clip-path="url(#clip0)">
<path d="M51.0239 59.9968C51.0239 59.1665 51.0239 58.4466 51.0239 57.6005C54.116 57.1774 56.5308 55.7787 57.6448 52.5804C57.2144 52.4288 56.8251 52.2899 56.4358 52.1541C52.8405 50.907 50.8467 47.3582 51.6506 43.6358C52.3722 40.2732 55.8123 37.7285 59.2399 38.0221C62.9649 38.3441 65.7816 41.2331 65.9842 44.9397C66.4083 52.814 59.1449 60.2115 51.0239 59.9968Z" fill="white"/>
<path d="M32 59.9959C32 59.1655 32 58.4456 32 57.5995C35.0921 57.1764 37.5068 55.7777 38.6209 52.5794C38.1904 52.4278 37.8012 52.2889 37.4119 52.1532C33.8135 50.906 31.8196 47.3572 32.6235 43.6348C33.3482 40.2723 36.7916 37.7275 40.216 38.0211C43.941 38.3432 46.7577 41.2321 46.9603 44.9387C47.3843 52.813 40.121 60.2106 32 59.9959Z" fill="white"/>
</g>
<defs>
<clipPath id="clip0">
<rect width="34" height="22" fill="white" transform="translate(32 38)"/>
</clipPath>
</defs>
</svg>
