<svg width="24" height="24" viewBox="0 0 24 24" fill="none" xmlns="http://www.w3.org/2000/svg">
<path d="M21.2119 11.1092L22.7046 10.2475C23.1464 9.99246 23.3606 9.4721 23.2285 8.97935C22.6939 6.98571 21.6421 5.20371 20.2258 3.78574C19.8658 3.42536 19.3082 3.35233 18.8671 3.6071L17.3772 4.46763C16.8932 4.12126 16.3767 3.82267 15.835 3.57607V1.85327C15.835 1.60513 15.753 1.36395 15.6017 1.16723C15.4505 0.970514 15.2385 0.82928 14.9987 0.765488C13.0411 0.244848 10.9619 0.244191 9.00197 0.765441C8.50889 0.896598 8.16553 1.34299 8.16553 1.85322V3.57602C7.62385 3.82263 7.10739 4.12121 6.62339 4.46758L5.13347 3.60705C4.69237 3.35229 4.13479 3.42532 3.77479 3.78569C2.35842 5.20366 1.30664 6.98561 0.772076 8.9793C0.639935 9.47205 0.854154 9.99241 1.296 10.2475L2.78864 11.1092C2.73145 11.7015 2.73145 12.298 2.78864 12.8904L1.296 13.752C0.854154 14.0071 0.639935 14.5274 0.772076 15.0202C1.30664 17.0138 2.35842 18.7958 3.77479 20.2138C4.13479 20.5742 4.69237 20.6472 5.13347 20.3924L6.62339 19.5319C7.10738 19.8783 7.62385 20.1768 8.16553 20.4234V22.1462C8.16556 22.3943 8.24757 22.6355 8.39882 22.8322C8.55007 23.029 8.76207 23.1702 9.00187 23.234C10.9594 23.7546 13.0386 23.7553 14.9986 23.234C15.4917 23.1029 15.835 22.6565 15.835 22.1463V20.4235C16.3767 20.1768 16.8932 19.8783 17.3772 19.5319L18.8671 20.3925C19.3082 20.6472 19.8658 20.5742 20.2258 20.2138C21.6421 18.7959 22.6939 17.0139 23.2285 15.0202C23.3606 14.5275 23.1464 14.0071 22.7046 13.7521L21.2119 12.8904C21.2691 12.2974 21.2691 11.7021 21.2119 11.1092ZM18.7426 14.0632L20.7966 15.2486C20.4271 16.2465 19.8906 17.1742 19.2099 17.9921L17.1554 16.8057C15.6562 18.09 15.4371 18.2156 13.5851 18.8696V21.2414C12.5361 21.4205 11.4644 21.4205 10.4155 21.2414V18.8696C8.56373 18.2157 8.34379 18.0895 6.84511 16.8057L4.79062 17.9921C4.10998 17.1742 3.57344 16.2465 3.20395 15.2486L5.25797 14.0632C4.90031 12.1273 4.90012 11.8732 5.25797 9.93639L3.20395 8.75097C3.57192 7.75586 4.10911 6.8268 4.79062 6.00743L6.84511 7.19379C8.34436 5.90955 8.56354 5.78388 10.4155 5.12993V2.75814C11.4644 2.57908 12.5361 2.57908 13.5851 2.75814V5.12997C15.4368 5.78388 15.6568 5.91007 17.1554 7.19383L19.2099 6.00747C19.8906 6.82539 20.4271 7.75314 20.7966 8.75102L18.7426 9.93644C19.1003 11.8724 19.1004 12.1263 18.7426 14.0632ZM12.0003 7.49979C9.51895 7.49979 7.50028 9.51846 7.50028 11.9998C7.50028 14.4811 9.51895 16.4998 12.0003 16.4998C14.4816 16.4998 16.5003 14.4811 16.5003 11.9998C16.5003 9.51846 14.4816 7.49979 12.0003 7.49979ZM12.0003 14.2498C10.7596 14.2498 9.75028 13.2405 9.75028 11.9998C9.75028 10.7591 10.7596 9.74979 12.0003 9.74979C13.241 9.74979 14.2503 10.7591 14.2503 11.9998C14.2503 13.2405 13.241 14.2498 12.0003 14.2498Z" fill="#8493AD"/>
</svg>
