<svg width="241" height="48" viewBox="0 0 241 48" fill="none" xmlns="http://www.w3.org/2000/svg">
    <path d="M47 0H231.4C234.76 0 236.44 0 237.724 0.653961C238.853 1.2292 239.771 2.14708 240.346 3.27606C241 4.55953 241 6.23969 241 9.6V38.4C241 41.7603 241 43.4405 240.346 44.7239C239.771 45.8529 238.853 46.7708 237.724 47.346C236.44 48 234.76 48 231.4 48H47V0Z" fill="#4140DF"/>
    <path d="M76.4632 22.5071C76.2146 20.071 74.4 18.679 71.939 18.679C69.2245 18.679 67.1116 20.5433 67.1116 23.9091C67.1116 27.2599 69.1748 29.1392 71.939 29.1392C74.7331 29.1392 76.2792 27.2401 76.4632 25.4354L73.9774 25.4205C73.8034 26.3999 73.0676 26.9815 71.9887 26.9815C70.537 26.9815 69.6223 25.9325 69.6223 23.9091C69.6223 21.9652 70.5172 20.8366 72.0037 20.8366C73.1223 20.8366 73.8531 21.4879 73.9774 22.5071H76.4632ZM79.9714 29H82.4323V25.5149H83.6951L85.5545 29H88.2391L86.1262 25.1222C87.2448 24.6151 87.8911 23.6158 87.8911 22.2088C87.8911 20.1158 86.4643 18.8182 84.1773 18.8182H79.9714V29ZM82.4323 23.576V20.8018H83.6454C84.7491 20.8018 85.3407 21.2642 85.3407 22.2088C85.3407 23.1534 84.7491 23.576 83.6454 23.576H82.4323ZM91.3409 29H98.4403V27.0014H93.8019V24.9084H98.0774V22.9048H93.8019V20.8168H98.4403V18.8182H91.3409V29ZM104.284 29L104.955 26.8622H108.47L109.141 29H111.786L108.351 18.8182H105.074L101.639 29H104.284ZM105.542 24.9929L106.67 21.3835H106.75L107.883 24.9929H105.542ZM113.378 20.8168H116.47V29H118.896V20.8168H121.984V18.8182H113.378V20.8168ZM125.285 29H132.385V27.0014H127.746V24.9084H132.022V22.9048H127.746V20.8168H132.385V18.8182H125.285V29ZM141.134 29H143.595V25.5149H144.858L146.717 29H149.402L147.289 25.1222C148.407 24.6151 149.054 23.6158 149.054 22.2088C149.054 20.1158 147.627 18.8182 145.34 18.8182H141.134V29ZM143.595 23.576V20.8018H144.808C145.912 20.8018 146.503 21.2642 146.503 22.2088C146.503 23.1534 145.912 23.576 144.808 23.576H143.595ZM152.503 29H159.603V27.0014H154.964V24.9084H159.24V22.9048H154.964V20.8168H159.603V18.8182H152.503V29ZM172.854 23.9091C172.854 20.5433 170.726 18.679 167.992 18.679C165.248 18.679 163.135 20.5433 163.135 23.9091C163.135 27.2599 165.248 29.1392 167.992 29.1392C168.623 29.1392 169.22 29.0398 169.767 28.8459L170.557 29.7955H172.785L171.283 27.946C172.253 27.0561 172.854 25.6939 172.854 23.9091ZM167.137 25.3409L168.36 26.9567C168.24 26.9716 168.116 26.9815 167.992 26.9815C166.525 26.9815 165.645 25.9027 165.645 23.9091C165.645 21.9155 166.525 20.8366 167.992 20.8366C169.463 20.8366 170.338 21.9155 170.338 23.9091C170.338 24.8736 170.135 25.6243 169.752 26.1413L169.125 25.3409H167.137ZM182.579 18.8182V25.4503C182.579 26.37 181.829 26.9616 180.715 26.9616C179.611 26.9616 178.866 26.37 178.866 25.4503V18.8182H176.405V25.5447C176.405 27.8615 178.135 29.1293 180.715 29.1293C183.275 29.1293 185.02 27.8615 185.02 25.5447V18.8182H182.579ZM188.663 29H195.762V27.0014H191.124V24.9084H195.399V22.9048H191.124V20.8168H195.762V18.8182H188.663V29ZM204.907 21.8707H207.263C207.244 19.9666 205.727 18.679 203.361 18.679C201.034 18.679 199.359 19.9467 199.374 21.8409C199.369 23.3871 200.452 24.2571 202.212 24.6598L203.276 24.9084C204.395 25.1669 204.897 25.4702 204.907 26.0419C204.897 26.6634 204.315 27.0959 203.326 27.0959C202.237 27.0959 201.521 26.5888 201.467 25.6094H199.11C199.14 27.9908 200.795 29.1293 203.356 29.1293C205.891 29.1293 207.393 27.9808 207.403 26.0469C207.393 24.4212 206.294 23.4268 204.286 22.9844L203.411 22.7855C202.486 22.5866 201.899 22.2784 201.919 21.6719C201.924 21.1151 202.401 20.7124 203.356 20.7124C204.315 20.7124 204.842 21.1449 204.907 21.8707ZM210.413 20.8168H213.505V29H215.931V20.8168H219.018V18.8182H210.413V20.8168Z" fill="#F6F8FC"/>
    <path d="M0 6C0 2.68629 2.68629 0 6 0H48V48H6C2.68629 48 0 45.3137 0 42V6Z" fill="#2E2DCA"/>
    <rect x="17" y="22" width="15" height="3" fill="white"/>
    <rect x="26" y="16" width="15" height="3" transform="rotate(90 26 16)" fill="white"/>
</svg>
