<svg width="215" height="43" viewBox="0 0 215 43" fill="none" xmlns="http://www.w3.org/2000/svg">
<path d="M61 4.39209H62V37.6135H61V4.39209Z" fill="#485776"/>
<path d="M32.1193 5.05906C33.5244 5.05906 34.6635 3.92655 34.6635 2.52953C34.6635 1.13251 33.5244 0 32.1193 0C30.7142 0 29.5752 1.13251 29.5752 2.52953C29.5752 3.92655 30.7142 5.05906 32.1193 5.05906Z" fill="#131F37"/>
<path d="M34.9807 40.7886C36.3858 40.7886 37.5248 39.656 37.5248 38.259C37.5248 36.862 36.3858 35.7295 34.9807 35.7295C33.5756 35.7295 32.4365 36.862 32.4365 38.259C32.4365 39.656 33.5756 40.7886 34.9807 40.7886Z" fill="#131F37"/>
<path d="M32.8452 11.3827C34.0245 11.3827 34.9805 10.4322 34.9805 9.25971C34.9805 8.08722 34.0245 7.13672 32.8452 7.13672C31.666 7.13672 30.71 8.08722 30.71 9.25971C30.71 10.4322 31.666 11.3827 32.8452 11.3827Z" fill="#131F37"/>
<path d="M38.5269 12.196C39.7061 12.196 40.6621 11.2455 40.6621 10.073C40.6621 8.90045 39.7061 7.94995 38.5269 7.94995C37.3476 7.94995 36.3916 8.90045 36.3916 10.073C36.3916 11.2455 37.3476 12.196 38.5269 12.196Z" fill="#131F37"/>
<path d="M32.12 16.7582C33.1236 16.7582 33.9372 15.9492 33.9372 14.9513C33.9372 13.9535 33.1236 13.1445 32.12 13.1445C31.1163 13.1445 30.3027 13.9535 30.3027 14.9513C30.3027 15.9492 31.1163 16.7582 32.12 16.7582Z" fill="#131F37"/>
<path d="M37.7987 17.526C38.8023 17.526 39.616 16.717 39.616 15.7192C39.616 14.7213 38.8023 13.9124 37.7987 13.9124C36.7951 13.9124 35.9814 14.7213 35.9814 15.7192C35.9814 16.717 36.7951 17.526 37.7987 17.526Z" fill="#131F37"/>
<path d="M42.3426 19.2877C43.3463 19.2877 44.1599 18.4788 44.1599 17.4809C44.1599 16.483 43.3463 15.6741 42.3426 15.6741C41.339 15.6741 40.5254 16.483 40.5254 17.4809C40.5254 18.4788 41.339 19.2877 42.3426 19.2877Z" fill="#131F37"/>
<path d="M36.1194 21.8624C36.9976 21.8624 37.7095 21.1545 37.7095 20.2814C37.7095 19.4083 36.9976 18.7004 36.1194 18.7004C35.2412 18.7004 34.5293 19.4083 34.5293 20.2814C34.5293 21.1545 35.2412 21.8624 36.1194 21.8624Z" fill="#131F37"/>
<path d="M30.4377 21.0945C31.3159 21.0945 32.0278 20.3867 32.0278 19.5136C32.0278 18.6404 31.3159 17.9326 30.4377 17.9326C29.5596 17.9326 28.8477 18.6404 28.8477 19.5136C28.8477 20.3867 29.5596 21.0945 30.4377 21.0945Z" fill="#131F37"/>
<path d="M40.7063 23.6238C41.5845 23.6238 42.2964 22.916 42.2964 22.0429C42.2964 21.1697 41.5845 20.4619 40.7063 20.4619C39.8281 20.4619 39.1162 21.1697 39.1162 22.0429C39.1162 22.916 39.8281 23.6238 40.7063 23.6238Z" fill="#131F37"/>
<path d="M33.8454 25.1597C34.5981 25.1597 35.2083 24.553 35.2083 23.8046C35.2083 23.0562 34.5981 22.4495 33.8454 22.4495C33.0926 22.4495 32.4824 23.0562 32.4824 23.8046C32.4824 24.553 33.0926 25.1597 33.8454 25.1597Z" fill="#131F37"/>
<path d="M38.4362 26.8765C39.1889 26.8765 39.7991 26.2698 39.7991 25.5214C39.7991 24.773 39.1889 24.1663 38.4362 24.1663C37.6835 24.1663 37.0732 24.773 37.0732 25.5214C37.0732 26.2698 37.6835 26.8765 38.4362 26.8765Z" fill="#131F37"/>
<path d="M28.2135 24.3467C28.9663 24.3467 29.5765 23.74 29.5765 22.9916C29.5765 22.2432 28.9663 21.6365 28.2135 21.6365C27.4608 21.6365 26.8506 22.2432 26.8506 22.9916C26.8506 23.74 27.4608 24.3467 28.2135 24.3467Z" fill="#131F37"/>
<path d="M31.3467 27.373C31.974 27.373 32.4825 26.8674 32.4825 26.2438C32.4825 25.6201 31.974 25.1145 31.3467 25.1145C30.7194 25.1145 30.2109 25.6201 30.2109 26.2438C30.2109 26.8674 30.7194 27.373 31.3467 27.373Z" fill="#131F37"/>
<path d="M33.3003 30.4899C33.8523 30.4899 34.2998 30.045 34.2998 29.4962C34.2998 28.9474 33.8523 28.5024 33.3003 28.5024C32.7483 28.5024 32.3008 28.9474 32.3008 29.4962C32.3008 30.045 32.7483 30.4899 33.3003 30.4899Z" fill="#131F37"/>
<path d="M30.893 31.1222C31.3446 31.1222 31.7107 30.7582 31.7107 30.3092C31.7107 29.8601 31.3446 29.4961 30.893 29.4961C30.4413 29.4961 30.0752 29.8601 30.0752 30.3092C30.0752 30.7582 30.4413 31.1222 30.893 31.1222Z" fill="#131F37"/>
<path d="M28.7563 28.7734C29.3083 28.7734 29.7558 28.3285 29.7558 27.7796C29.7558 27.2308 29.3083 26.7859 28.7563 26.7859C28.2043 26.7859 27.7568 27.2308 27.7568 27.7796C27.7568 28.3285 28.2043 28.7734 28.7563 28.7734Z" fill="#131F37"/>
<path d="M25.668 26.6052C26.2953 26.6052 26.8038 26.0996 26.8038 25.4759C26.8038 24.8523 26.2953 24.3467 25.668 24.3467C25.0407 24.3467 24.5322 24.8523 24.5322 25.4759C24.5322 26.0996 25.0407 26.6052 25.668 26.6052Z" fill="#131F37"/>
<path d="M25.6221 18.1132C26.2494 18.1132 26.7579 17.6077 26.7579 16.984C26.7579 16.3603 26.2494 15.8547 25.6221 15.8547C24.9948 15.8547 24.4863 16.3603 24.4863 16.984C24.4863 17.6077 24.9948 18.1132 25.6221 18.1132Z" fill="#131F37"/>
<path d="M26.1235 14.1384C26.6755 14.1384 27.123 13.6934 27.123 13.1446C27.123 12.5958 26.6755 12.1509 26.1235 12.1509C25.5715 12.1509 25.124 12.5958 25.124 13.1446C25.124 13.6934 25.5715 14.1384 26.1235 14.1384Z" fill="#131F37"/>
<path d="M27.2123 10.8861C27.6639 10.8861 28.03 10.5221 28.03 10.0731C28.03 9.62403 27.6639 9.26001 27.2123 9.26001C26.7607 9.26001 26.3945 9.62403 26.3945 10.0731C26.3945 10.5221 26.7607 10.8861 27.2123 10.8861Z" fill="#131F37"/>
<path d="M25.3071 9.35029C25.8591 9.35029 26.3066 8.90537 26.3066 8.35654C26.3066 7.80771 25.8591 7.36279 25.3071 7.36279C24.7551 7.36279 24.3076 7.80771 24.3076 8.35654C24.3076 8.90537 24.7551 9.35029 25.3071 9.35029Z" fill="#131F37"/>
<path d="M35.8907 29.0896C36.5179 29.0896 37.0264 28.584 37.0264 27.9603C37.0264 27.3366 36.5179 26.8311 35.8907 26.8311C35.2634 26.8311 34.7549 27.3366 34.7549 27.9603C34.7549 28.584 35.2634 29.0896 35.8907 29.0896Z" fill="#131F37"/>
<path d="M22.7149 8.0405C23.3422 8.0405 23.8507 7.53491 23.8507 6.91124C23.8507 6.28757 23.3422 5.78198 22.7149 5.78198C22.0876 5.78198 21.5791 6.28757 21.5791 6.91124C21.5791 7.53491 22.0876 8.0405 22.7149 8.0405Z" fill="#131F37"/>
<path d="M23.4883 12.8283C24.1156 12.8283 24.6241 12.3228 24.6241 11.6991C24.6241 11.0754 24.1156 10.5698 23.4883 10.5698C22.861 10.5698 22.3525 11.0754 22.3525 11.6991C22.3525 12.3228 22.861 12.8283 23.4883 12.8283Z" fill="#131F37"/>
<path d="M22.2145 17.3904C22.9672 17.3904 23.5774 16.7837 23.5774 16.0353C23.5774 15.2869 22.9672 14.6802 22.2145 14.6802C21.4618 14.6802 20.8516 15.2869 20.8516 16.0353C20.8516 16.7837 21.4618 17.3904 22.2145 17.3904Z" fill="#131F37"/>
<path d="M18.0823 17.3907C18.9605 17.3907 19.6724 16.6829 19.6724 15.8097C19.6724 14.9366 18.9605 14.2288 18.0823 14.2288C17.2041 14.2288 16.4922 14.9366 16.4922 15.8097C16.4922 16.6829 17.2041 17.3907 18.0823 17.3907Z" fill="#131F37"/>
<path d="M13.2665 18.4747C14.2701 18.4747 15.0837 17.6658 15.0837 16.6679C15.0837 15.67 14.2701 14.8611 13.2665 14.8611C12.2628 14.8611 11.4492 15.67 11.4492 16.6679C11.4492 17.6658 12.2628 18.4747 13.2665 18.4747Z" fill="#131F37"/>
<path d="M7.99562 21.0492C9.1749 21.0492 10.1309 20.0987 10.1309 18.9262C10.1309 17.7537 9.1749 16.8032 7.99562 16.8032C6.81635 16.8032 5.86035 17.7537 5.86035 18.9262C5.86035 20.0987 6.81635 21.0492 7.99562 21.0492Z" fill="#131F37"/>
<path d="M2.54415 25.3857C3.94925 25.3857 5.08831 24.2532 5.08831 22.8562C5.08831 21.4592 3.94925 20.3267 2.54415 20.3267C1.13906 20.3267 0 21.4592 0 22.8562C0 24.2532 1.13906 25.3857 2.54415 25.3857Z" fill="#131F37"/>
<path d="M5.8589 15.7645C7.03817 15.7645 7.99417 14.814 7.99417 13.6415C7.99417 12.4691 7.03817 11.5186 5.8589 11.5186C4.67962 11.5186 3.72363 12.4691 3.72363 13.6415C3.72363 14.814 4.67962 15.7645 5.8589 15.7645Z" fill="#131F37"/>
<path d="M11.1298 13.1895C12.1334 13.1895 12.947 12.3806 12.947 11.3827C12.947 10.3849 12.1334 9.57593 11.1298 9.57593C10.1261 9.57593 9.3125 10.3849 9.3125 11.3827C9.3125 12.3806 10.1261 13.1895 11.1298 13.1895Z" fill="#131F37"/>
<path d="M10.3592 8.40146C11.3629 8.40146 12.1765 7.59253 12.1765 6.59465C12.1765 5.59678 11.3629 4.78784 10.3592 4.78784C9.3556 4.78784 8.54199 5.59678 8.54199 6.59465C8.54199 7.59253 9.3556 8.40146 10.3592 8.40146Z" fill="#131F37"/>
<path d="M15.176 7.31767C16.0542 7.31767 16.7661 6.60986 16.7661 5.73672C16.7661 4.86358 16.0542 4.15576 15.176 4.15576C14.2978 4.15576 13.5859 4.86358 13.5859 5.73672C13.5859 6.60986 14.2978 7.31767 15.176 7.31767Z" fill="#131F37"/>
<path d="M19.3073 7.31763C20.06 7.31763 20.6702 6.71093 20.6702 5.96253C20.6702 5.21412 20.06 4.60742 19.3073 4.60742C18.5545 4.60742 17.9443 5.21412 17.9443 5.96253C17.9443 6.71093 18.5545 7.31763 19.3073 7.31763Z" fill="#131F37"/>
<path d="M20.0817 12.1055C20.8344 12.1055 21.4446 11.4988 21.4446 10.7504C21.4446 10.002 20.8344 9.39526 20.0817 9.39526C19.329 9.39526 18.7188 10.002 18.7188 10.7504C18.7188 11.4988 19.329 12.1055 20.0817 12.1055Z" fill="#131F37"/>
<path d="M15.9465 12.1509C16.8247 12.1509 17.5366 11.4431 17.5366 10.57C17.5366 9.69683 16.8247 8.98901 15.9465 8.98901C15.0684 8.98901 14.3564 9.69683 14.3564 10.57C14.3564 11.4431 15.0684 12.1509 15.9465 12.1509Z" fill="#131F37"/>
<path d="M11.4467 24.1662C11.8983 24.1662 12.2644 23.8022 12.2644 23.3531C12.2644 22.9041 11.8983 22.54 11.4467 22.54C10.995 22.54 10.6289 22.9041 10.6289 23.3531C10.6289 23.8022 10.995 24.1662 11.4467 24.1662Z" fill="#131F37"/>
<path d="M14.7212 23.7595C15.2732 23.7595 15.7207 23.3145 15.7207 22.7657C15.7207 22.2169 15.2732 21.772 14.7212 21.772C14.1692 21.772 13.7217 22.2169 13.7217 22.7657C13.7217 23.3145 14.1692 23.7595 14.7212 23.7595Z" fill="#131F37"/>
<path d="M18.3096 22.4045C18.9369 22.4045 19.4454 21.8989 19.4454 21.2753C19.4454 20.6516 18.9369 20.146 18.3096 20.146C17.6823 20.146 17.1738 20.6516 17.1738 21.2753C17.1738 21.8989 17.6823 22.4045 18.3096 22.4045Z" fill="#131F37"/>
<path d="M19.1715 26.0183C19.9243 26.0183 20.5345 25.4116 20.5345 24.6632C20.5345 23.9148 19.9243 23.3081 19.1715 23.3081C18.4188 23.3081 17.8086 23.9148 17.8086 24.6632C17.8086 25.4116 18.4188 26.0183 19.1715 26.0183Z" fill="#131F37"/>
<path d="M14.8106 26.8764C15.4379 26.8764 15.9464 26.3709 15.9464 25.7472C15.9464 25.1235 15.4379 24.6179 14.8106 24.6179C14.1833 24.6179 13.6748 25.1235 13.6748 25.7472C13.6748 26.3709 14.1833 26.8764 14.8106 26.8764Z" fill="#131F37"/>
<path d="M10.9507 26.8312C11.5027 26.8312 11.9501 26.3863 11.9501 25.8375C11.9501 25.2887 11.5027 24.8438 10.9507 24.8438C10.3987 24.8438 9.95117 25.2887 9.95117 25.8375C9.95117 26.3863 10.3987 26.8312 10.9507 26.8312Z" fill="#131F37"/>
<path d="M10.9942 29.9477C11.6215 29.9477 12.13 29.4421 12.13 28.8185C12.13 28.1948 11.6215 27.6892 10.9942 27.6892C10.3669 27.6892 9.8584 28.1948 9.8584 28.8185C9.8584 29.4421 10.3669 29.9477 10.9942 29.9477Z" fill="#131F37"/>
<path d="M15.6266 30.5352C16.3793 30.5352 16.9895 29.9285 16.9895 29.1801C16.9895 28.4317 16.3793 27.825 15.6266 27.825C14.8739 27.825 14.2637 28.4317 14.2637 29.1801C14.2637 29.9285 14.8739 30.5352 15.6266 30.5352Z" fill="#131F37"/>
<path d="M21.0325 29.9478C21.9107 29.9478 22.6226 29.24 22.6226 28.3668C22.6226 27.4937 21.9107 26.7859 21.0325 26.7859C20.1543 26.7859 19.4424 27.4937 19.4424 28.3668C19.4424 29.24 20.1543 29.9478 21.0325 29.9478Z" fill="#131F37"/>
<path d="M24.2167 33.8775C25.2203 33.8775 26.0339 33.0686 26.0339 32.0707C26.0339 31.0729 25.2203 30.2639 24.2167 30.2639C23.213 30.2639 22.3994 31.0729 22.3994 32.0707C22.3994 33.0686 23.213 33.8775 24.2167 33.8775Z" fill="#131F37"/>
<path d="M17.5374 34.4195C18.4155 34.4195 19.1275 33.7117 19.1275 32.8385C19.1275 31.9654 18.4155 31.2576 17.5374 31.2576C16.6592 31.2576 15.9473 31.9654 15.9473 32.8385C15.9473 33.7117 16.6592 34.4195 17.5374 34.4195Z" fill="#131F37"/>
<path d="M13.7669 37.4913C14.645 37.4913 15.3569 36.7834 15.3569 35.9103C15.3569 35.0372 14.645 34.3293 13.7669 34.3293C12.8887 34.3293 12.1768 35.0372 12.1768 35.9103C12.1768 36.7834 12.8887 37.4913 13.7669 37.4913Z" fill="#131F37"/>
<path d="M16.9012 41.4664C17.9049 41.4664 18.7185 40.6575 18.7185 39.6596C18.7185 38.6617 17.9049 37.8528 16.9012 37.8528C15.8976 37.8528 15.084 38.6617 15.084 39.6596C15.084 40.6575 15.8976 41.4664 16.9012 41.4664Z" fill="#131F37"/>
<path d="M25.2583 42.1891C26.4376 42.1891 27.3936 41.2386 27.3936 40.0661C27.3936 38.8936 26.4376 37.9431 25.2583 37.9431C24.079 37.9431 23.123 38.8936 23.123 40.0661C23.123 41.2386 24.079 42.1891 25.2583 42.1891Z" fill="#131F37"/>
<path d="M20.6708 38.3946C21.6744 38.3946 22.488 37.5857 22.488 36.5878C22.488 35.5899 21.6744 34.781 20.6708 34.781C19.6671 34.781 18.8535 35.5899 18.8535 36.5878C18.8535 37.5857 19.6671 38.3946 20.6708 38.3946Z" fill="#131F37"/>
<path d="M28.7573 37.672C29.9366 37.672 30.8926 36.7215 30.8926 35.549C30.8926 34.3765 29.9366 33.426 28.7573 33.426C27.5781 33.426 26.6221 34.3765 26.6221 35.549C26.6221 36.7215 27.5781 37.672 28.7573 37.672Z" fill="#131F37"/>
<path d="M11.8561 33.6067C12.6088 33.6067 13.219 33 13.219 32.2516C13.219 31.5032 12.6088 30.8965 11.8561 30.8965C11.1034 30.8965 10.4932 31.5032 10.4932 32.2516C10.4932 33 11.1034 33.6067 11.8561 33.6067Z" fill="#131F37"/>
<path d="M80.056 17.3921H82.328V6.72009H80.056V17.3921ZM93.4066 17.3921H95.5986V6.72009H93.3266V13.6321L88.3826 6.72009H86.0466V17.3921H88.3186V10.2241L93.4066 17.3921ZM99.3029 17.3921H103.511C106.855 17.3921 109.175 15.2801 109.175 12.0641C109.175 8.84809 106.855 6.72009 103.511 6.72009H99.3029V17.3921ZM101.575 15.3921V8.72009H103.511C105.703 8.72009 106.855 10.1761 106.855 12.0641C106.855 13.8721 105.623 15.3921 103.511 15.3921H101.575ZM112.387 13.1361C112.387 15.7601 113.907 17.5841 117.171 17.5841C120.403 17.5841 121.923 15.7761 121.923 13.1201V6.72009H119.619V13.0561C119.619 14.5441 118.803 15.5681 117.171 15.5681C115.507 15.5681 114.691 14.5441 114.691 13.0561V6.72009H112.387V13.1361ZM124.892 15.8881C125.9 16.8961 127.372 17.5841 129.42 17.5841C132.3 17.5841 133.692 16.1121 133.692 14.1601C133.692 11.7921 131.452 11.2641 129.692 10.8641C128.46 10.5761 127.564 10.3521 127.564 9.63209C127.564 8.99209 128.108 8.54409 129.132 8.54409C130.172 8.54409 131.324 8.91209 132.188 9.71209L133.452 8.04809C132.396 7.07209 130.988 6.56009 129.292 6.56009C126.78 6.56009 125.244 8.00009 125.244 9.77609C125.244 12.1601 127.484 12.6401 129.228 13.0401C130.46 13.3281 131.388 13.6001 131.388 14.4001C131.388 15.0081 130.78 15.6001 129.532 15.6001C128.06 15.6001 126.892 14.9441 126.14 14.1601L124.892 15.8881ZM139.176 17.3921H141.464V8.72009H144.568V6.72009H136.056V8.72009H139.176V17.3921ZM153.657 17.3921H156.265L153.865 13.3281C155.017 13.0561 156.201 12.0481 156.201 10.1601C156.201 8.17609 154.841 6.72009 152.617 6.72009H147.625V17.3921H149.897V13.5681H151.561L153.657 17.3921ZM153.881 10.1441C153.881 11.0401 153.193 11.6161 152.281 11.6161H149.897V8.67209H152.281C153.193 8.67209 153.881 9.24809 153.881 10.1441ZM162.201 17.3921H164.473V13.0241L168.553 6.72009H165.961L163.337 11.0081L160.681 6.72009H158.089L162.201 13.0241V17.3921ZM89.336 35.3921H91.624V24.7201H88.424L85.832 31.3761L83.24 24.7201H80.056V35.3921H82.328V27.7121L85.336 35.3921H86.328L89.336 27.7121V35.3921ZM102.816 35.3921H105.296L101.184 24.7201H98.3355L94.2075 35.3921H96.7035L97.3755 33.5521H102.144L102.816 35.3921ZM99.7595 26.6881L101.52 31.5841H97.9835L99.7595 26.6881ZM113.913 35.3921H116.521L114.121 31.3281C115.273 31.0561 116.457 30.0481 116.457 28.1601C116.457 26.1761 115.097 24.7201 112.873 24.7201H107.881V35.3921H110.153V31.5681H111.817L113.913 35.3921ZM114.137 28.1441C114.137 29.0401 113.449 29.6161 112.537 29.6161H110.153V26.6721H112.537C113.449 26.6721 114.137 27.2481 114.137 28.1441ZM126.098 35.3921H128.898L124.37 29.7281L128.61 24.7201H125.81L122.034 29.4881V24.7201H119.762V35.3921H122.034V32.1121L122.866 31.1201L126.098 35.3921ZM131.534 35.3921H139.086V33.4241H133.806V30.9441H138.974V28.9921H133.806V26.6721H139.086V24.7201H131.534V35.3921ZM144.926 35.3921H147.214V26.7201H150.318V24.7201H141.806V26.7201H144.926V35.3921ZM153.375 35.3921H155.647V31.5681H158.367C160.671 31.5681 161.951 30.0161 161.951 28.1601C161.951 26.2881 160.687 24.7201 158.367 24.7201H153.375V35.3921ZM159.631 28.1441C159.631 29.0401 158.959 29.6161 158.063 29.6161H155.647V26.6721H158.063C158.959 26.6721 159.631 27.2641 159.631 28.1441ZM164.959 35.3921H171.743V33.3921H167.231V24.7201H164.959V35.3921ZM182.406 35.3921H184.886L180.774 24.7201H177.926L173.798 35.3921H176.294L176.966 33.5521H181.734L182.406 35.3921ZM179.35 26.6881L181.11 31.5841H177.574L179.35 26.6881ZM192.013 35.5841C194.445 35.5841 195.789 34.2881 196.557 32.9601L194.605 32.0161C194.157 32.8961 193.197 33.5681 192.013 33.5681C190.157 33.5681 188.749 32.0801 188.749 30.0641C188.749 28.0481 190.157 26.5601 192.013 26.5601C193.197 26.5601 194.157 27.2481 194.605 28.1121L196.557 27.1521C195.805 25.8241 194.445 24.5441 192.013 24.5441C188.893 24.5441 186.413 26.7841 186.413 30.0641C186.413 33.3441 188.893 35.5841 192.013 35.5841ZM199.509 35.3921H207.061V33.4241H201.781V30.9441H206.949V28.9921H201.781V26.6721H207.061V24.7201H199.509V35.3921Z" fill="#485776"/>
</svg>
