<svg width="80" height="81" viewBox="0 0 80 81" fill="none" xmlns="http://www.w3.org/2000/svg">
<path d="M40 80.6289C62.0914 80.6289 80 62.7203 80 40.6289C80 18.5375 62.0914 0.628906 40 0.628906C17.9086 0.628906 0 18.5375 0 40.6289C0 62.7203 17.9086 80.6289 40 80.6289Z" fill="#EEF2FB"/>
<path d="M39.8078 26.9569C41.3542 26.9569 42.6078 25.7033 42.6078 24.1569C42.6078 22.6105 41.3542 21.3569 39.8078 21.3569C38.2614 21.3569 37.0078 22.6105 37.0078 24.1569C37.0078 25.7033 38.2614 26.9569 39.8078 26.9569Z" fill="url(#paint0_linear)"/>
<path d="M39.8082 58.0769C40.5593 58.0769 41.1682 57.468 41.1682 56.7169C41.1682 55.9658 40.5593 55.3569 39.8082 55.3569C39.0571 55.3569 38.4482 55.9658 38.4482 56.7169C38.4482 57.468 39.0571 58.0769 39.8082 58.0769Z" fill="url(#paint1_linear)"/>
<path d="M56.0883 42.6209C57.2945 42.6209 58.2723 41.6431 58.2723 40.4369C58.2723 39.2307 57.2945 38.2529 56.0883 38.2529C54.8821 38.2529 53.9043 39.2307 53.9043 40.4369C53.9043 41.6431 54.8821 42.6209 56.0883 42.6209Z" fill="url(#paint2_linear)"/>
<path d="M23.5277 46.0369C26.6205 46.0369 29.1277 43.5297 29.1277 40.4369C29.1277 37.3441 26.6205 34.8369 23.5277 34.8369C20.4349 34.8369 17.9277 37.3441 17.9277 40.4369C17.9277 43.5297 20.4349 46.0369 23.5277 46.0369Z" fill="url(#paint3_linear)"/>
<path d="M51.3203 57.9492C54.634 57.9492 57.3203 55.2629 57.3203 51.9492C57.3203 48.6355 54.634 45.9492 51.3203 45.9492C48.0066 45.9492 45.3203 48.6355 45.3203 51.9492C45.3203 55.2629 48.0066 57.9492 51.3203 57.9492Z" fill="url(#paint4_linear)"/>
<path d="M28.2963 31.1092C29.5025 31.1092 30.4803 30.1314 30.4803 28.9252C30.4803 27.719 29.5025 26.7412 28.2963 26.7412C27.0901 26.7412 26.1123 27.719 26.1123 28.9252C26.1123 30.1314 27.0901 31.1092 28.2963 31.1092Z" fill="url(#paint5_linear)"/>
<path d="M28.2963 54.1326C29.5025 54.1326 30.4803 53.1548 30.4803 51.9487C30.4803 50.7425 29.5025 49.7646 28.2963 49.7646C27.0901 49.7646 26.1123 50.7425 26.1123 51.9487C26.1123 53.1548 27.0901 54.1326 28.2963 54.1326Z" fill="url(#paint6_linear)"/>
<path d="M51.3198 32.8208C53.4715 32.8208 55.2158 31.0765 55.2158 28.9248C55.2158 26.7731 53.4715 25.0288 51.3198 25.0288C49.1681 25.0288 47.4238 26.7731 47.4238 28.9248C47.4238 31.0765 49.1681 32.8208 51.3198 32.8208Z" fill="url(#paint7_linear)"/>
<defs>
<linearGradient id="paint0_linear" x1="45.6718" y1="36.6529" x2="38.5198" y2="21.4129" gradientUnits="userSpaceOnUse">
<stop stop-color="#8494AC"/>
<stop offset="1" stop-color="#ADBFD2"/>
</linearGradient>
<linearGradient id="paint1_linear" x1="-528.094" y1="-1172.58" x2="-516.262" y2="-1147.37" gradientUnits="userSpaceOnUse">
<stop stop-color="#8494AC"/>
<stop offset="1" stop-color="#ADBFD2"/>
</linearGradient>
<linearGradient id="paint2_linear" x1="-1585.85" y1="-361.034" x2="-1521.03" y2="-391.479" gradientUnits="userSpaceOnUse">
<stop stop-color="#8494AC"/>
<stop offset="1" stop-color="#ADBFD2"/>
</linearGradient>
<linearGradient id="paint3_linear" x1="2442.38" y1="-4874.73" x2="2015.77" y2="-4674.47" gradientUnits="userSpaceOnUse">
<stop stop-color="#8494AC"/>
<stop offset="1" stop-color="#ADBFD2"/>
</linearGradient>
<linearGradient id="paint4_linear" x1="23.5043" y1="41.9104" x2="57.4284" y2="54.1575" gradientUnits="userSpaceOnUse">
<stop stop-color="#818FAA"/>
<stop offset="0.24" stop-color="#7B8AA5"/>
<stop offset="0.55" stop-color="#6C7A96"/>
<stop offset="0.89" stop-color="#52617F"/>
<stop offset="1" stop-color="#485876"/>
</linearGradient>
<linearGradient id="paint5_linear" x1="902.929" y1="-635.093" x2="835.534" y2="-659.432" gradientUnits="userSpaceOnUse">
<stop stop-color="#818FAA"/>
<stop offset="0.24" stop-color="#7B8AA5"/>
<stop offset="0.55" stop-color="#6C7A96"/>
<stop offset="0.89" stop-color="#52617F"/>
<stop offset="1" stop-color="#485876"/>
</linearGradient>
<linearGradient id="paint6_linear" x1="84.2356" y1="-2330.96" x2="59.8971" y2="-2263.56" gradientUnits="userSpaceOnUse">
<stop stop-color="#818FAA"/>
<stop offset="0.24" stop-color="#7B8AA5"/>
<stop offset="0.55" stop-color="#6C7A96"/>
<stop offset="0.89" stop-color="#52617F"/>
<stop offset="1" stop-color="#485876"/>
</linearGradient>
<linearGradient id="paint7_linear" x1="520.009" y1="267.126" x2="570.111" y2="328.605" gradientUnits="userSpaceOnUse">
<stop stop-color="#818FAA"/>
<stop offset="0.24" stop-color="#7B8AA5"/>
<stop offset="0.55" stop-color="#6C7A96"/>
<stop offset="0.89" stop-color="#52617F"/>
<stop offset="1" stop-color="#485876"/>
</linearGradient>
</defs>
</svg>
