<svg width="80" height="81" viewBox="0 0 80 81" fill="none" xmlns="http://www.w3.org/2000/svg">
<path d="M40 80.6289C62.0914 80.6289 80 62.7203 80 40.6289C80 18.5375 62.0914 0.628906 40 0.628906C17.9086 0.628906 0 18.5375 0 40.6289C0 62.7203 17.9086 80.6289 40 80.6289Z" fill="#EEF2FB"/>
<path d="M27.2002 29.5332H30.4722V51.7732H27.2002V29.5332Z" fill="url(#paint0_linear)"/>
<path d="M37.2236 29.5332H44.8956C52.0956 29.5332 57.1996 34.1332 57.1996 40.6372C57.1996 47.1412 52.0796 51.7732 44.8956 51.7732H37.2236V29.5332ZM40.4956 48.7972H45.0876C50.2396 48.7972 53.8316 45.4292 53.8316 40.6292C53.8316 35.8292 50.2396 32.5092 45.0876 32.5092H40.4956" fill="url(#paint1_linear)"/>
<defs>
<linearGradient id="paint0_linear" x1="22.2482" y1="34.9412" x2="45.7282" y2="55.2132" gradientUnits="userSpaceOnUse">
<stop stop-color="#576683"/>
<stop offset="0.55" stop-color="#51617E"/>
<stop offset="1" stop-color="#485876"/>
</linearGradient>
<linearGradient id="paint1_linear" x1="750.567" y1="779.688" x2="1389.77" y2="1275.01" gradientUnits="userSpaceOnUse">
<stop stop-color="#576683"/>
<stop offset="0.55" stop-color="#51617E"/>
<stop offset="1" stop-color="#485876"/>
</linearGradient>
</defs>
</svg>
