<svg width="80" height="81" viewBox="0 0 80 81" fill="none" xmlns="http://www.w3.org/2000/svg">
<path d="M40 80.6289C62.0914 80.6289 80 62.7203 80 40.6289C80 18.5375 62.0914 0.628906 40 0.628906C17.9086 0.628906 0 18.5375 0 40.6289C0 62.7203 17.9086 80.6289 40 80.6289Z" fill="#EEF2FB"/>
<path d="M36 30.6289H25V41.6289H36V30.6289Z" fill="#536380"/>
<path d="M36 41.6289V42.754C35.9955 45.1079 35.0456 47.3639 33.3585 49.0276C31.6714 50.6912 29.3848 51.6267 27 51.6289V47.1873H27.3147C27.8655 47.1873 28.4108 47.0802 28.9196 46.8722C29.4284 46.6641 29.8908 46.3592 30.2802 45.9749C30.6696 45.5905 30.9785 45.1342 31.1893 44.632C31.4 44.1297 31.5085 43.5915 31.5085 43.0479V41.6289H36Z" fill="#536380"/>
<path d="M57 30.6289H46V41.6289H57V30.6289Z" fill="#536380"/>
<path d="M57 41.6289V42.754C56.9955 45.1079 56.0456 47.3639 54.3585 49.0276C52.6714 50.6912 50.3848 51.6267 48 51.6289V47.1873H48.3147C48.8655 47.1873 49.4108 47.0802 49.9196 46.8722C50.4284 46.6641 50.8908 46.3592 51.2802 45.9749C51.6696 45.5905 51.9785 45.1342 52.1893 44.632C52.4 44.1297 52.5085 43.5915 52.5085 43.0479V41.6289H57Z" fill="#536380"/>
</svg>
