<svg id="Ebene_1" data-name="Ebene 1" xmlns="http://www.w3.org/2000/svg" viewBox="0 0 6149.16 5897.91"><defs><style>.cls-1{fill:#000;}</style></defs><title>IOTA_Logo_plain_white</title><path class="cls-1" d="M5347.73,3782.29Z" transform="translate(0 0)"/><path class="cls-1" d="M2546.94,3159.09Z" transform="translate(0 0)"/><path class="cls-1" d="M1533.75,4218Z" transform="translate(0 0)"/><path class="cls-1" d="M2061,3789.87Z" transform="translate(0 0)"/><path class="cls-1" d="M4714.09,3539.87Z" transform="translate(0 0)"/><path class="cls-1" d="M3691.49,1471.78c28.49,41.19,82.84,60.14,131.88,45.63a115.24,115.24,0,0,0,34.46-16.61c53.46-37.91,66.72-112.33,29.38-165.92-22.09-32.06-59.2-51-99.19-51a116.66,116.66,0,0,0-67.15,20.82c-53.91,37.91-67.16,112.8-29.38,167.09" transform="translate(0 0)"/><path class="cls-1" d="M3386.36,1172.69c2,37.21,18.34,71.14,45.51,95a138.92,138.92,0,1,0,185.74-206.64c-24.3-21.76-56.78-33.69-91.68-33.69-40.65,0-78.65,16.38-104,44.93-25,27.38-37.56,63-35.57,100.39" transform="translate(0 0)"/><path class="cls-1" d="M3081.46,1103.89a162.23,162.23,0,0,0,78.2,20.36,153.87,153.87,0,0,0,46-6.79,157.76,157.76,0,0,0,95.22-76.76A160.21,160.21,0,0,0,3315,917.85c-11.93-41.89-39.1-76.29-76.87-97.12-22.1-12.17-47.94-18.49-74.67-18.49-60.53,0-117.53,32.06-145.14,81.91-42.42,77.93-14.14,176.68,63.18,219.74" transform="translate(0 0)"/><path class="cls-1" d="M2636.87,1009.42a191.69,191.69,0,0,0,103.39-.94,188.74,188.74,0,0,0,128.57-129.41c13.7-48.44,7.73-99.22-16.57-143.45a187.86,187.86,0,0,0-112.88-90.09,170.81,170.81,0,0,0-47.94-6.56c-84.17,0-162.15,57.57-185.13,136.67-27.83,99.45,30.71,204.52,130.56,233.78" transform="translate(0 0)"/><path class="cls-1" d="M2099.11,1017.19c121.56,6,224.95-87.72,230.93-209.28a220.34,220.34,0,0,0-57-159.06c-39.33-43.53-92.79-69-150.89-71.61l-10.82-.23c-115.1,0-214.07,93.84-220.47,209.44-5.75,121.22,87.7,224.88,208.32,230.74" transform="translate(0 0)"/><path class="cls-1" d="M1188.35,961.07a257.24,257.24,0,0,0,253.17,212.72,262.29,262.29,0,0,0,44.84-4,271,271,0,0,0,27.84-6.55c125.26-37.21,202.8-162.41,180.26-291.82-22.31-122.85-128.79-212-253.16-212a261.71,261.71,0,0,0-44.63,3.74c-139.39,26.21-232.84,159.83-208.32,297.9" transform="translate(0 0)"/><path class="cls-1" d="M3735.45,1928.67a139.06,139.06,0,0,0-10.83-196.11c-24.52-22.23-57-34.4-92.12-34.4-40.42,0-77.76,16.15-102.72,44.23a138.56,138.56,0,0,0,102.5,232.14,144.61,144.61,0,0,0,39.77-5.61,137.89,137.89,0,0,0,63.4-40.25" transform="translate(0 0)"/><path class="cls-1" d="M3422.26,1588.46a162.1,162.1,0,0,0-77.54-97.12,154.17,154.17,0,0,0-74.89-18.95c-60.53,0-116.2,31.82-144.92,82.84-42,78.39-13.25,177.15,64.29,219.74a159.33,159.33,0,0,0,123.49,13.34c41.09-12.17,74.89-39.55,94.77-77a159.32,159.32,0,0,0,14.8-122.86" transform="translate(0 0)"/><path class="cls-1" d="M2976,1549.24c13.48-48.21,7.51-99.22-17-143.69-24.52-43.76-64.5-75.58-112.44-89.15a176.32,176.32,0,0,0-48.38-6.79c-84.17,0-161.93,57.33-184.46,136.43-28.5,99.92,29.6,204.53,129.23,233.31a190.46,190.46,0,0,0,104.93-.7c62.08-18.26,110-66.7,128.13-129.41" transform="translate(0 0)"/><path class="cls-1" d="M2437,1479.31c3.09-59-16.79-115.6-56.55-159.36-39.33-43.52-93-69-151.11-71.61a97.77,97.77,0,0,0-11.48-.46c-112.89,0-213.41,95.47-219.59,208.74-6.19,121,87.26,224.88,208.32,231.2,4.2.23,8.39.23,12.37.23a219.3,219.3,0,0,0,61.41-8.89C2369,1653,2431.92,1572.45,2437,1479.31" transform="translate(0 0)"/><path class="cls-1" d="M1547.78,1329.59a259.33,259.33,0,0,0-44.41,4c-138.95,24.1-232.4,158-208.32,298.13,24.36,139.61,157.29,233,296.89,208.67l.9-.16a276.16,276.16,0,0,0,28.94-6.79c124.6-37,201.92-162.17,179.6-291.34-22.31-123.09-129-212.49-253.6-212.49" transform="translate(0 0)"/><path class="cls-1" d="M536.18,2018.53c47.27,111.39,155.3,183.7,275.47,183.7a293.39,293.39,0,0,0,84.17-12.4,316.52,316.52,0,0,0,34.24-12.17c74.45-32.06,131.67-90.57,161.49-165.22,62-153.79-12.38-328.74-166.17-390.75A300.26,300.26,0,0,0,695.23,1624C543,1689,471.67,1866,536.18,2018.53" transform="translate(0 0)"/><path class="cls-1" d="M3645.05,2232c-22.53-12.64-48.6-19.19-75.55-19.19-60.53,0-116.86,32.06-143.82,81.91-43.07,78.16-15,176.68,62.74,219.74a159.48,159.48,0,0,0,123.94,14.27c40.86-12.17,75.11-39.55,96.53-77.69,42.42-77.69,13.7-176.21-63.84-219" transform="translate(0 0)"/><path class="cls-1" d="M2929.74,2330.42a187.77,187.77,0,0,0,112.66,89.63,189.4,189.4,0,0,0,233.06-130.13c28.06-100.4-29.82-205-129-233.08a172.28,172.28,0,0,0-48.82-6.79c-83.73,0-161.27,57.1-184.24,136a189.24,189.24,0,0,0,16.35,144.39" transform="translate(0 0)"/><path class="cls-1" d="M2737.28,2219.45c6-121.22-87.7-224.88-208.76-231.2l-10.39-.24c-113.55,0-214.28,95.48-219.8,208.74-6.63,121.22,86.81,225.12,207.87,231.68l10.83.23a215.26,215.26,0,0,0,62.52-9.13c89-26.21,152.43-106.71,157.73-200.08" transform="translate(0 0)"/><path class="cls-1" d="M1848.35,2584.86a257.22,257.22,0,0,0,44.4-4,216,216,0,0,0,28.06-6.56,257.15,257.15,0,0,0,180-291.81c-22.09-123.33-128.35-212.95-253.16-212.95a262,262,0,0,0-44.63,4c-139,24.81-232.18,159.13-207.65,299.31,22.09,122.62,128.35,212,252.94,212" transform="translate(0 0)"/><path class="cls-1" d="M1391,2753.91c30-74.88,29.38-156.78-2-230.26-46.83-109.29-158.83-182.77-278.79-182.77a289.36,289.36,0,0,0-115.09,23.64c-74.23,31.12-131.45,89.16-161.49,163.57-30.27,74.65-29.38,156.79,2.21,231.21,47.49,111.39,156,183.23,276.36,183.23a291.23,291.23,0,0,0,84.83-12.4,309.48,309.48,0,0,0,32.92-11.7c73.78-31.36,131-89.87,161-164.52" transform="translate(0 0)"/><path class="cls-1" d="M635.94,2989.22c-66.27-91-172.75-145.33-285-145.33a352.24,352.24,0,0,0-206.77,67.87C68.64,2967,18.93,3048.65,4.35,3141.79s7.73,186.28,63,262.1a351.79,351.79,0,0,0,384.17,131.28,357.46,357.46,0,0,0,107.36-53.12C715.51,3367.15,750,3146,636,2989.22" transform="translate(0 0)"/><path class="cls-1" d="M4418.13,4224c-5.3-61.31-57.66-109.52-119.29-109.52-3.53,0-6.85.24-10.38.47-50.81,4.45-93.23,41.19-105.38,91.74a130.23,130.23,0,0,0-2.87,38.37c5.74,60.85,57.66,108.82,118.41,108.82,3.53,0,6.85-.23,10.38-.47,30.71-2.57,60.09-18,80.86-42.59,21-24.8,30.92-55.69,28.27-86.82" transform="translate(0 0)"/><path class="cls-1" d="M4502,4091a139.87,139.87,0,0,0,3.1,76.29c23.19,71.38,102.94,112.56,175,88.93,33.36-10.77,62.07-36.51,79.08-70,16.79-33.7,20.11-72.08,9.06-105.54-11-35.57-35.57-64.12-68.7-81a138.48,138.48,0,0,0-62.08-15.21,128.17,128.17,0,0,0-42.86,7.25c-46.83,14.74-81.29,51.72-92.56,99.22" transform="translate(0 0)"/><path class="cls-1" d="M4837.49,3870.18A161.76,161.76,0,0,0,4995,4070a158.35,158.35,0,0,0,82.4-23.17c73.56-44.7,99.41-148.83,55.23-222.55-29.16-48-82.4-77.92-139-77.92a160.9,160.9,0,0,0-156.18,123.79" transform="translate(0 0)"/><path class="cls-1" d="M5347.73,3754.39a187,187,0,0,0,130.56-52.89c71.58-69.73,73.56-194.93,4-267.71-35.35-36.27-83.29-56.16-135-56.16a190.3,190.3,0,0,0-132.11,52.89c-25,24.33-42.41,55.69-50.81,90.33-15.24,63.65,2.43,129.41,47.5,176.21a187.91,187.91,0,0,0,132.33,57.33Z" transform="translate(0 0)"/><path class="cls-1" d="M5845.84,3199.62c64.73-100.16,34.91-239.87-65.17-305.39a217.65,217.65,0,0,0-118.63-35.1c-75.33,0-144.25,37.67-184.68,100.62a226.49,226.49,0,0,0-29.38,68.33c-21.87,90.8,15.91,185.58,93.89,236.12,101.2,66.24,236.94,37.89,303.17-63.31.28-.42.56-.84.83-1.27" transform="translate(0 0)"/><path class="cls-1" d="M5981.24,2196.87a253.17,253.17,0,0,0-87.26-15.45c-107.81,0-205.23,68.34-242.12,169.9-3.31,9.12-6,18.25-8.39,27.38-30.49,127.54,39.1,257.41,162.15,302.34a253.67,253.67,0,0,0,86.37,15.21c108.25,0,205.45-68.33,242.34-169.66,47.06-134.09-21.65-282-153.09-329.72" transform="translate(0 0)"/><path class="cls-1" d="M3869,3849.71a138.48,138.48,0,0,0,134.32,170.82,139.88,139.88,0,0,0,43.52-7c33.57-10.76,62.51-36.27,79.52-70,16.79-33.23,20.33-71.37,9.28-104.13a137.86,137.86,0,0,0-68.92-81.44,134.49,134.49,0,0,0-63-15.44,142.54,142.54,0,0,0-42.64,6.78A139.89,139.89,0,0,0,3869,3849.7" transform="translate(0 0)"/><path class="cls-1" d="M4322.39,3823c41.09,10.06,86.15,3.51,122.61-18.72,74-45.17,99.19-147.2,54.78-223a162.64,162.64,0,0,0-138.95-77,159.57,159.57,0,0,0-83.07,23.17c-37.11,22.7-63.18,58.27-73.12,100.39-10.16,41.89-3.53,84.95,19,121a160,160,0,0,0,98.75,74.18" transform="translate(0 0)"/><path class="cls-1" d="M4714.13,3512.07A187.19,187.19,0,0,0,4845.35,3459c34.25-33.23,54.35-81.44,55.23-132.22.89-51-17.67-100.16-50.81-134.79-72.44-74.46-191.44-76.34-266.2-4.21-74.95,72.37-77,191.8-4.67,266.75a188.68,188.68,0,0,0,133,57.59Z" transform="translate(0 0)"/><path class="cls-1" d="M5212.75,2957.23c31.15-48,41.53-106.48,29.16-165-12.15-58-46.39-109.05-93.66-139.94a218.88,218.88,0,0,0-118.85-35.11c-75.11,0-144.26,37.45-184.91,100.4a219,219,0,0,0-29.38,68.33c-21.65,90.09,16.13,185.1,94.11,236.12a219.31,219.31,0,0,0,119.07,35.57,226.79,226.79,0,0,0,46.83-4.92,218.92,218.92,0,0,0,137.63-95.47" transform="translate(0 0)"/><path class="cls-1" d="M5173,2438.75a257.66,257.66,0,0,0,86.38,15c108.25,0,205.67-68.1,242.56-169.42,48.82-132.92-20.1-280.82-153.53-330a252.86,252.86,0,0,0-196.39,8.89c-62.08,29-109.13,80.74-132.55,145.32a280.4,280.4,0,0,0-8.4,28.55c-30.48,126.6,39.11,256.25,161.93,301.65" transform="translate(0 0)"/><path class="cls-1" d="M5320.93,1699.45a277.74,277.74,0,0,0,36.68,2.34c151.1,0,279-113.73,297.56-264.67,20.11-164.51-97.2-315-261.33-335.34a329.92,329.92,0,0,0-36.9-2.34A298.32,298.32,0,0,0,5066,1328.54c-2.65,11.47-4.86,23.64-6.41,35.8-9.72,80.5,12.38,159.6,62.08,222.78,49,63,120,102.74,199.26,112.33" transform="translate(0 0)"/><path class="cls-1" d="M3727.54,3593.48c10.38-42.35,4.2-86.35-16.79-120.75a162.42,162.42,0,0,0-138.51-78.39,159.85,159.85,0,0,0-82.84,23.17c-37.78,22.46-64.07,58-74.23,100.39A165,165,0,0,0,3434,3640.52c29.38,48.21,81.07,77.23,138.29,77.23a160.65,160.65,0,0,0,83.06-23.17c35.35-21.3,61.64-58.27,72.24-101.1" transform="translate(0 0)"/><path class="cls-1" d="M3925.43,3401.9h0a185.64,185.64,0,0,0,130.34-52.66c72-69.73,74.45-194.23,4.86-267a189.74,189.74,0,0,0-133-58c-51.69,0-98.08,18.72-133.65,52.89a194,194,0,0,0-51.92,92c-24.85,100.73,36.65,202.53,137.38,227.38a188,188,0,0,0,46,5.47" transform="translate(0 0)"/><path class="cls-1" d="M4119.9,2912.65c102.05,65.79,238.11,36.46,304-65.53,63.62-98.52,33.13-240.8-64.73-304.45-101.93-66-238-37-304.2,64.82a224.55,224.55,0,0,0-29.16,68.1c-21.65,90.56,16.13,185.81,94.11,237.06" transform="translate(0 0)"/><path class="cls-1" d="M4558.37,1844.52a255.25,255.25,0,0,0-86.82-15.21c-107.59,0-204.79,68.09-241.68,169.19a246.17,246.17,0,0,0-8.17,27.61c-30.71,127.77,38.88,257.65,161.93,302.35a252.69,252.69,0,0,0,87.26,15.44c108,0,205.22-68.1,242.12-169.43,47.93-133.15-21.43-281.28-154.64-329.95" transform="translate(0 0)"/><path class="cls-1" d="M4604.21,991.77a321.7,321.7,0,0,0-36.45-2.1c-139.18,0-259.13,94.54-291.61,230.26a250.51,250.51,0,0,0-6.18,34.17,299,299,0,0,0,61.41,222.31c49.71,63.65,120.62,103.91,200.15,113.5a287.21,287.21,0,0,0,34.68,2.11c150.66,0,282.1-116.31,299.34-264.67,10.16-80-11.49-158.66-60.53-221.85a296.78,296.78,0,0,0-200.81-113.73" transform="translate(0 0)"/><path class="cls-1" d="M4468.1,705.08a341.51,341.51,0,0,0,37.56-2.1c147.79-15.92,270.39-123.56,304.86-268a353.2,353.2,0,0,0,7.95-120C4799.25,135.26,4649.25,0,4469.21,0c-12.37,0-25,.7-37.34,1.87-147.79,15.68-270.61,123.33-305.52,268.18a357.13,357.13,0,0,0-7.73,119.58c19.44,179.72,169.66,315.45,349.48,315.45" transform="translate(0 0)"/><path class="cls-1" d="M1680.5,3174.53A116.42,116.42,0,0,0,1599,3142c-46.39,0-88.8,26.68-108.24,68.33-13,28.09-14.36,61.32-3.54,91.5,10.83,30.66,32.48,54.76,60.75,68.1a116.6,116.6,0,0,0,50.15,11.23h.22A120.34,120.34,0,0,0,1707,3311.9c21.65-46.34,11-101.57-26.51-137.37" transform="translate(0 0)"/><path class="cls-1" d="M1553.74,3474a138.85,138.85,0,0,0-29.38-3.05c-64.73,0-121.5,46.34-135.2,110.46-7.29,34.17.44,72.08,21.21,103.67,20.54,31.35,51.91,53.59,86.16,60.61,37.11,8.19,73.56.93,104.71-19.43s52.13-51.25,59.2-87.05c10.61-48-4.19-96.41-39.54-130.11a136.66,136.66,0,0,0-67.16-35.1" transform="translate(0 0)"/><path class="cls-1" d="M1536,4190.24c88.59-2.1,159.5-76.05,158.18-164.74-.89-43.76-18.56-84.48-50.15-114.44-30-28.55-68.92-44.46-109.79-44.46-47.5.7-87.7,18-117.75,49.14a159.94,159.94,0,0,0-45.06,115.14c1.76,84.95,77.76,159.36,162.37,159.36Z" transform="translate(0 0)"/><path class="cls-1" d="M1656.29,4694.12a166.15,166.15,0,0,0,42-5.15c99.85-25.51,161.27-128.94,136.75-230.27a191.33,191.33,0,0,0-52.58-89.39c-35.57-33.7-82-52.42-130.12-52.42a179.43,179.43,0,0,0-46,5.85c-48.6,12.17-89.69,42.82-115.75,86.12a187.75,187.75,0,0,0-21.21,142.74c20.54,81.21,100.73,142.52,186.89,142.52" transform="translate(0 0)"/><path class="cls-1" d="M2015.34,5218c107.58-55.46,150.44-188.38,95.21-296-55-108.23-187.23-151.43-295.46-96.49l-.09.05A220.6,220.6,0,0,0,1705.4,4955c-17.9,55.93-13,115.14,13.69,166.85C1756,5194.4,1834,5241,1918.14,5241a213.1,213.1,0,0,0,97.2-22.94" transform="translate(0 0)"/><path class="cls-1" d="M2548.6,5377.6a247.68,247.68,0,0,0-19.66-21.06A256.69,256.69,0,0,0,2187,5346c-107.8,91.73-121.72,254.37-30.92,362.95a260.71,260.71,0,0,0,197.93,91.5,254,254,0,0,0,163.48-59.67c108.25-91.27,122.16-254.37,31.15-363.19" transform="translate(0 0)"/><path class="cls-1" d="M2079.58,3045.17a132.72,132.72,0,0,0-28.72-3c-26.73,0-52.8,7.95-75.77,22.69a137.53,137.53,0,0,0-59.43,87.76c-7.51,34.87,0,72.54,20.55,104.14,20.32,31.35,51.47,53.35,85.27,60.37,37.11,8,73.56.7,104.71-19.42a137.64,137.64,0,0,0,60.31-87.29,139.37,139.37,0,0,0-106.92-165.21" transform="translate(0 0)"/><path class="cls-1" d="M2062.3,3762.11c88.81-2.57,159.72-77,157.51-165.68a161.73,161.73,0,0,0-49.92-114c-29.83-28.32-68.48-44-108.91-44l-5.75.24a158.25,158.25,0,0,0-112.88,48.67,162.52,162.52,0,0,0-45.07,115.84c1.77,86.12,76.88,158.89,163.7,158.89Z" transform="translate(0 0)"/><path class="cls-1" d="M2016.09,3980.92c-25.63,43.29-33.14,93.84-20.77,142.51,20.11,81.2,100.08,142.51,186,142.51a170.19,170.19,0,0,0,42.2-5.38c100.51-25.27,161.92-128,137-228.86a191.31,191.31,0,0,0-53-90.8,187.6,187.6,0,0,0-129.89-52,187,187,0,0,0-161.49,92" transform="translate(0 0)"/><path class="cls-1" d="M2231.41,4526.1a218.38,218.38,0,0,0,13.48,167.08c36.67,72.55,114.87,119.35,199,119.35h.22a215.41,215.41,0,0,0,96.32-22.7c107.58-55.23,150.44-188.15,95.43-296.49a215.9,215.9,0,0,0-44.4-59.91c-40.43-38.61-94.11-59.91-150.88-59.91a221,221,0,0,0-99.86,23.87,217.45,217.45,0,0,0-109.35,128.71" transform="translate(0 0)"/><path class="cls-1" d="M3074.39,4949.92a298.6,298.6,0,0,0-20.32-22,254.46,254.46,0,0,0-176.07-70.2c-60.09,0-118.85,21.53-165.46,60.37-107.59,91.5-121.51,254.38-30.93,363a254.21,254.21,0,0,0,195.95,92c60.09,0,119.07-21.52,165.68-60.14a256.22,256.22,0,0,0,90.58-175.27c6-68.57-15.25-135-59.43-187.68" transform="translate(0 0)"/><path class="cls-1" d="M3725,5380.27a312.55,312.55,0,0,0-27.61-23.4c-53-39.78-115.32-60.85-180.49-60.85a266.57,266.57,0,0,0-43.07,3.28c-78.87,11.23-148.68,52.65-196.62,116.77-99.62,132.81-73,321.17,59.43,421.23,52.36,39.54,114.65,60.61,180,60.61,95.44,0,182.92-43.76,240.13-119.58,91.68-122.16,78-293.22-31.81-398.06" transform="translate(0 0)"/><path class="cls-1" d="M2550.61,3131.26c89-1.64,160.16-75.35,158.39-164.51a159.85,159.85,0,0,0-49.48-114.67c-30.71-29-70.92-44.93-114-44.93-89.69,1.87-160.39,76.06-158.84,165,1.55,84.71,76.44,159.13,160.38,159.13Z" transform="translate(0 0)"/><path class="cls-1" d="M2484.84,3492.62c20.11,81.44,100.08,142.75,186.23,142.75a177.89,177.89,0,0,0,41.75-4.91c49-12.4,90.58-42.83,116.65-86.35a189.81,189.81,0,0,0,21.2-142.75,194.86,194.86,0,0,0-53.24-91,187.39,187.39,0,0,0-129.67-52.19,181.63,181.63,0,0,0-46.17,5.85c-100.74,25.74-162.15,128.48-136.75,228.63" transform="translate(0 0)"/><path class="cls-1" d="M2734.54,4063.43c36.89,72.08,114.87,118.64,198.82,118.64h.22a210.75,210.75,0,0,0,96.1-22.93c108-55,151.1-187.91,96.09-296.26-55.22-108.12-187.52-151.14-295.77-96.18-107.8,55.23-150.66,188.38-95.43,296.73" transform="translate(0 0)"/><path class="cls-1" d="M3171,4650.69a255.05,255.05,0,0,0,196,91.73c60.53,0,119.52-21.76,166.35-60.84,107.8-91.27,121.72-253.91,31.15-362.49a240.46,240.46,0,0,0-19.66-20.59c-48.16-46.1-110.9-71.38-177-71.38a257.32,257.32,0,0,0-165.47,60.61c-108,91.5-122.38,254.37-31.37,363" transform="translate(0 0)"/><path class="cls-1" d="M4246.79,5147.66c91.46-122.39,77.32-293.92-32.91-399a282.5,282.5,0,0,0-26.51-22.47c-52.58-39.78-114.88-60.84-180-60.84a295.32,295.32,0,0,0-42.85,3c-79.75,11.23-150,52.89-197.72,117-47.94,64.12-67.82,143.92-55.89,224.88,11.49,79.8,52.58,149.54,115.54,196.58,52.57,40,114.87,61.07,180,61.07a315.17,315.17,0,0,0,41.75-2.81c79.53-11,150-52.65,198.6-117.47" transform="translate(0 0)"/><path class="cls-1" d="M5109.1,5093.67a355.67,355.67,0,0,0-99.63-66.69,345.59,345.59,0,0,0-141.83-30.19,352.66,352.66,0,0,0-322.31,209.44c-60.08,136.43-28.27,296.73,79.09,399a357.47,357.47,0,0,0,99.85,66.69,345.88,345.88,0,0,0,141.83,30.42A352.33,352.33,0,0,0,5188,5492.67c60.53-136,28.94-296.5-78.87-399" transform="translate(0 0)"/></svg>