<svg width="80" height="81" viewBox="0 0 80 81" fill="none" xmlns="http://www.w3.org/2000/svg">
<path d="M40 80.6289C62.0914 80.6289 80 62.7203 80 40.6289C80 18.5375 62.0914 0.628906 40 0.628906C17.9086 0.628906 0 18.5375 0 40.6289C0 62.7203 17.9086 80.6289 40 80.6289Z" fill="#EEF2FB"/>
<path d="M57.296 49.3087C55.0044 51.5987 51.9008 52.8904 48.6612 52.9024C45.4216 52.9144 42.3085 51.6457 40 49.3727L40.064 49.3087C42.3645 47.0074 43.6568 43.8867 43.6568 40.6327C43.6568 37.3788 42.3645 34.2581 40.064 31.9567L40 31.8927C42.3095 29.5992 45.4355 28.3169 48.6904 28.3282C51.9453 28.3395 55.0624 29.6432 57.356 31.9527C59.6496 34.2622 60.9318 37.3883 60.9205 40.6432C60.9093 43.8981 59.6055 47.0152 57.296 49.3087Z" fill="url(#paint0_linear)"/>
<path d="M39.9361 49.3088L40.0001 49.3728C38.2768 51.0714 36.0899 52.2226 33.7143 52.6818C31.3386 53.141 28.8802 52.8877 26.6481 51.9537C24.416 51.0197 22.5098 49.4467 21.1692 47.4324C19.8286 45.4181 19.1133 43.0525 19.1133 40.6328C19.1133 38.2132 19.8286 35.8476 21.1692 33.8333C22.5098 31.819 24.416 30.246 26.6481 29.312C28.8802 28.378 31.3386 28.1247 33.7143 28.5839C36.0899 29.0431 38.2768 30.1943 40.0001 31.8928L39.9361 31.9568C37.6356 34.2582 36.3433 37.3789 36.3433 40.6328C36.3433 43.8868 37.6356 47.0075 39.9361 49.3088Z" fill="url(#paint1_linear)"/>
<defs>
<linearGradient id="paint0_linear" x1="74.664" y1="95.2207" x2="43.32" y2="28.4527" gradientUnits="userSpaceOnUse">
<stop stop-color="#818FAA"/>
<stop offset="0.24" stop-color="#7B8AA5"/>
<stop offset="0.55" stop-color="#6C7A96"/>
<stop offset="0.89" stop-color="#52617F"/>
<stop offset="1" stop-color="#485876"/>
</linearGradient>
<linearGradient id="paint1_linear" x1="56.7441" y1="95.5489" x2="25.4001" y2="28.7809" gradientUnits="userSpaceOnUse">
<stop stop-color="#8494AC"/>
<stop offset="1" stop-color="#ADBFD2"/>
</linearGradient>
</defs>
</svg>
