<svg width="618" height="521" viewBox="0 0 618 521" fill="none" xmlns="http://www.w3.org/2000/svg">
<rect x="475.512" y="0.628906" width="283.259" height="549.073" rx="141.63" transform="rotate(60 475.512 0.628906)" fill="#5067EB"/>
<path d="M304.366 124.902C317.821 124.902 328.729 113.995 328.729 100.54C328.729 87.0851 317.821 76.1777 304.366 76.1777C290.911 76.1777 280.004 87.0851 280.004 100.54C280.004 113.995 290.911 124.902 304.366 124.902Z" fill="#0A2251"/>
<path d="M299.805 103.983V95.8911H301.44V103.983H299.805Z" fill="#EEF2FA"/>
<path d="M312.285 104.069C311.338 104.069 310.477 103.725 310.133 103.553L310.649 102.348C311.252 102.606 311.682 102.864 312.199 102.864C312.543 102.864 312.715 102.692 312.715 102.434C312.715 101.659 310.391 101.659 310.391 99.9372C310.391 98.8181 311.51 98.3877 312.371 98.3877C313.146 98.3877 313.835 98.646 314.351 98.9042L313.748 99.9372C313.404 99.7651 312.888 99.5068 312.371 99.5068C312.113 99.5068 311.941 99.679 311.941 99.9372C311.941 100.54 314.351 100.626 314.351 102.434C314.523 103.381 313.662 104.069 312.285 104.069Z" fill="#EEF2FA"/>
<path d="M317.019 104.069C316.072 104.069 315.212 103.725 314.867 103.553L315.384 102.348C315.986 102.606 316.417 102.864 316.933 102.864C317.278 102.864 317.45 102.692 317.45 102.434C317.45 101.659 315.125 101.659 315.125 99.9372C315.125 98.8181 316.245 98.3877 317.105 98.3877C317.88 98.3877 318.569 98.646 319.085 98.9042L318.483 99.9372C318.138 99.7651 317.622 99.5068 317.105 99.5068C316.847 99.5068 316.675 99.679 316.675 99.9372C316.675 100.54 319.085 100.626 319.085 102.434C319.172 103.381 318.311 104.069 317.019 104.069Z" fill="#EEF2FA"/>
<path d="M305.4 101.917C305.4 102.348 305.572 102.606 305.745 102.606C306.003 102.606 306.089 102.52 306.261 102.434L306.519 100.282C306.261 100.282 306.003 100.282 305.831 100.454C305.572 100.798 305.4 101.315 305.4 101.917ZM302.129 102.003C302.129 99.4209 304.023 97.4409 306.605 97.4409C308.413 97.4409 309.791 98.7322 309.791 100.626C309.791 102.692 308.499 103.725 307.294 103.725C306.864 103.725 306.605 103.553 306.433 103.295C306.261 103.467 306.003 103.725 305.658 103.725C304.711 103.725 304.109 103.037 304.109 101.917C304.109 101.057 304.453 100.282 304.97 99.8513C305.486 99.4209 306.261 99.2487 307.036 99.4209L307.897 99.5931L307.552 102.434C307.552 102.52 307.552 102.606 307.552 102.692C307.897 102.692 308.585 102.003 308.585 100.798C308.585 99.3348 307.983 98.474 306.519 98.474C305.056 98.3879 303.334 99.5931 303.334 101.917C303.334 103.467 304.281 104.5 305.917 104.5C306.433 104.5 306.864 104.328 307.552 104.07H307.638L308.069 104.844H307.983C307.208 105.189 306.605 105.447 305.831 105.447C303.248 105.533 302.129 103.639 302.129 102.003Z" fill="#EEF2FA"/>
<path d="M297.392 98.5601C297.305 97.7853 296.617 97.1827 295.842 97.1827C294.379 97.1827 293.776 98.5601 293.862 99.9375C293.948 101.401 294.465 102.606 295.842 102.606C296.789 102.606 297.392 101.831 297.478 100.798L299.027 100.97C298.855 102.95 297.822 104.156 295.842 104.156C293.604 104.156 292.226 102.606 292.14 99.9375C292.054 97.527 293.518 95.7192 295.756 95.7192C297.392 95.7192 298.597 96.7523 298.855 98.3879L297.392 98.5601Z" fill="#EEF2FA"/>
<path d="M287.925 101.831C288.011 102.52 288.699 102.864 289.474 102.864C290.077 102.864 290.507 102.778 291.024 102.606L291.282 103.725C290.679 103.983 290.077 104.07 289.302 104.07C287.408 104.07 286.375 102.95 286.375 101.229C286.375 99.8513 287.236 98.3018 289.13 98.3018C290.938 98.3018 291.54 99.6791 291.54 101.057C291.54 101.315 291.54 101.573 291.454 101.745L287.925 101.831ZM289.991 100.626C289.991 100.196 289.818 99.507 289.044 99.507C288.355 99.507 288.011 100.196 288.011 100.626H289.991Z" fill="#EEF2FA"/>
<path d="M321.326 96.1494C321.498 96.1494 321.671 96.2355 321.929 96.3216C322.101 96.4077 322.273 96.5798 322.359 96.752C322.445 96.9242 322.531 97.0964 322.531 97.3546C322.531 97.5268 322.445 97.785 322.359 97.9572C322.273 98.1294 322.101 98.3016 321.929 98.3876C321.757 98.4737 321.585 98.5598 321.326 98.5598C321.154 98.5598 320.896 98.4737 320.724 98.3876C320.552 98.3016 320.379 98.1294 320.293 97.9572C320.207 97.785 320.121 97.6129 320.121 97.3546C320.121 97.1824 320.207 96.9242 320.293 96.752C320.379 96.5798 320.552 96.4077 320.724 96.3216C320.982 96.2355 321.154 96.1494 321.326 96.1494ZM321.326 96.4077C321.154 96.4077 320.982 96.4077 320.896 96.4938C320.724 96.5798 320.638 96.6659 320.552 96.8381C320.465 97.0103 320.465 97.1824 320.465 97.2685C320.465 97.4407 320.465 97.6129 320.552 97.699C320.638 97.8711 320.724 97.9572 320.896 98.0433C321.068 98.1294 321.154 98.1294 321.326 98.1294C321.498 98.1294 321.671 98.1294 321.757 98.0433C321.929 97.9572 322.015 97.8711 322.101 97.699C322.187 97.5268 322.187 97.4407 322.187 97.2685C322.187 97.0964 322.187 96.9242 322.101 96.8381C322.015 96.6659 321.929 96.5798 321.757 96.4938C321.671 96.4077 321.498 96.4077 321.326 96.4077ZM320.81 97.9572V96.752H321.068C321.326 96.752 321.412 96.752 321.498 96.752C321.585 96.752 321.671 96.752 321.671 96.8381C321.757 96.8381 321.757 96.9242 321.757 96.9242C321.757 97.0103 321.843 97.0103 321.843 97.0964C321.843 97.1824 321.843 97.2685 321.757 97.3546C321.671 97.4407 321.585 97.4407 321.498 97.4407C321.498 97.4407 321.585 97.4407 321.585 97.5268L321.671 97.6129C321.671 97.6129 321.671 97.699 321.757 97.785L321.929 98.0433H321.585L321.498 97.8711C321.412 97.699 321.412 97.6129 321.326 97.6129C321.24 97.6129 321.24 97.5268 321.154 97.5268H321.068V98.0433H320.81V97.9572ZM321.068 97.2685H321.154C321.326 97.2685 321.412 97.2685 321.412 97.2685C321.412 97.2685 321.498 97.2685 321.498 97.1824V97.0964V97.0103L321.412 96.9242C321.412 96.9242 321.326 96.9242 321.154 96.9242H321.068V97.2685Z" fill="#EEF2FA"/>
<path d="M465.265 284.504C478.72 284.504 489.627 273.597 489.627 260.142C489.627 246.687 478.72 235.779 465.265 235.779C451.81 235.779 440.902 246.687 440.902 260.142C440.902 273.597 451.81 284.504 465.265 284.504Z" fill="#0A2251"/>
<path d="M460.703 263.585V255.493H462.339V263.585H460.703Z" fill="#EEF2FA"/>
<path d="M473.183 263.671C472.236 263.671 471.376 263.327 471.031 263.154L471.548 261.949C472.15 262.207 472.581 262.466 473.097 262.466C473.442 262.466 473.614 262.294 473.614 262.035C473.614 261.261 471.29 261.261 471.29 259.539C471.29 258.42 472.409 257.989 473.269 257.989C474.044 257.989 474.733 258.248 475.249 258.506L474.647 259.539C474.303 259.367 473.786 259.108 473.269 259.108C473.011 259.108 472.839 259.281 472.839 259.539C472.839 260.141 475.249 260.227 475.249 262.035C475.422 262.982 474.561 263.671 473.183 263.671Z" fill="#EEF2FA"/>
<path d="M477.918 263.671C476.971 263.671 476.11 263.327 475.766 263.154L476.282 261.949C476.885 262.207 477.315 262.466 477.832 262.466C478.176 262.466 478.348 262.294 478.348 262.035C478.348 261.261 476.024 261.261 476.024 259.539C476.024 258.42 477.143 257.989 478.004 257.989C478.779 257.989 479.467 258.248 479.984 258.506L479.381 259.539C479.037 259.367 478.52 259.108 478.004 259.108C477.746 259.108 477.573 259.281 477.573 259.539C477.573 260.141 479.984 260.227 479.984 262.035C480.07 262.982 479.209 263.671 477.918 263.671Z" fill="#EEF2FA"/>
<path d="M466.299 261.519C466.299 261.949 466.471 262.208 466.643 262.208C466.901 262.208 466.987 262.122 467.159 262.035L467.418 259.883C467.159 259.883 466.901 259.883 466.729 260.055C466.471 260.4 466.299 260.916 466.299 261.519ZM463.027 261.605C463.027 259.022 464.921 257.042 467.504 257.042C469.312 257.042 470.689 258.334 470.689 260.228C470.689 262.294 469.398 263.327 468.192 263.327C467.762 263.327 467.504 263.155 467.332 262.896C467.159 263.069 466.901 263.327 466.557 263.327C465.61 263.327 465.007 262.638 465.007 261.519C465.007 260.658 465.352 259.883 465.868 259.453C466.385 259.022 467.159 258.85 467.934 259.022L468.795 259.195L468.451 262.035C468.451 262.122 468.451 262.208 468.451 262.294C468.795 262.294 469.484 261.605 469.484 260.4C469.484 258.936 468.881 258.076 467.418 258.076C465.954 257.989 464.233 259.195 464.233 261.519C464.233 263.068 465.179 264.102 466.815 264.102C467.332 264.102 467.762 263.929 468.451 263.671H468.537L468.967 264.446H468.881C468.106 264.79 467.504 265.048 466.729 265.048C464.146 265.135 463.027 263.241 463.027 261.605Z" fill="#EEF2FA"/>
<path d="M458.29 258.162C458.204 257.387 457.515 256.784 456.74 256.784C455.277 256.784 454.674 258.162 454.76 259.539C454.847 261.002 455.363 262.208 456.74 262.208C457.687 262.208 458.29 261.433 458.376 260.4L459.926 260.572C459.753 262.552 458.72 263.757 456.74 263.757C454.502 263.757 453.125 262.208 453.039 259.539C452.953 257.129 454.416 255.321 456.654 255.321C458.29 255.321 459.495 256.354 459.753 257.989L458.29 258.162Z" fill="#EEF2FA"/>
<path d="M448.823 261.433C448.909 262.122 449.598 262.466 450.373 262.466C450.975 262.466 451.406 262.38 451.922 262.208L452.18 263.327C451.578 263.585 450.975 263.671 450.2 263.671C448.306 263.671 447.273 262.552 447.273 260.83C447.273 259.453 448.134 257.903 450.028 257.903C451.836 257.903 452.439 259.281 452.439 260.658C452.439 260.916 452.439 261.175 452.352 261.347L448.823 261.433ZM450.889 260.228C450.889 259.797 450.717 259.109 449.942 259.109C449.253 259.109 448.909 259.797 448.909 260.228H450.889Z" fill="#EEF2FA"/>
<path d="M482.225 255.751C482.397 255.751 482.569 255.837 482.827 255.923C483 256.009 483.172 256.181 483.258 256.354C483.344 256.526 483.43 256.698 483.43 256.956C483.43 257.128 483.344 257.387 483.258 257.559C483.172 257.731 483 257.903 482.827 257.989C482.655 258.075 482.483 258.161 482.225 258.161C482.053 258.161 481.794 258.075 481.622 257.989C481.45 257.903 481.278 257.731 481.192 257.559C481.106 257.387 481.02 257.214 481.02 256.956C481.02 256.784 481.106 256.526 481.192 256.354C481.278 256.181 481.45 256.009 481.622 255.923C481.88 255.837 482.053 255.751 482.225 255.751ZM482.225 256.009C482.053 256.009 481.88 256.009 481.794 256.095C481.622 256.181 481.536 256.267 481.45 256.44C481.364 256.612 481.364 256.784 481.364 256.87C481.364 257.042 481.364 257.214 481.45 257.301C481.536 257.473 481.622 257.559 481.794 257.645C481.966 257.731 482.053 257.731 482.225 257.731C482.397 257.731 482.569 257.731 482.655 257.645C482.827 257.559 482.913 257.473 483 257.301C483.086 257.128 483.086 257.042 483.086 256.87C483.086 256.698 483.086 256.526 483 256.44C482.913 256.267 482.827 256.181 482.655 256.095C482.569 256.009 482.397 256.009 482.225 256.009ZM481.708 257.559V256.354H481.966C482.225 256.354 482.311 256.354 482.397 256.354C482.483 256.354 482.569 256.354 482.569 256.44C482.655 256.44 482.655 256.526 482.655 256.526C482.655 256.612 482.741 256.612 482.741 256.698C482.741 256.784 482.741 256.87 482.655 256.956C482.569 257.042 482.483 257.042 482.397 257.042C482.397 257.042 482.483 257.042 482.483 257.128L482.569 257.214C482.569 257.214 482.569 257.301 482.655 257.387L482.827 257.645H482.483L482.397 257.473C482.311 257.301 482.311 257.214 482.225 257.214C482.139 257.214 482.139 257.128 482.053 257.128H481.966V257.645H481.708V257.559ZM481.966 256.87H482.053C482.225 256.87 482.311 256.87 482.311 256.87C482.311 256.87 482.397 256.87 482.397 256.784V256.698V256.612L482.311 256.526C482.311 256.526 482.225 256.526 482.053 256.526H481.966V256.87Z" fill="#EEF2FA"/>
<path d="M227.661 265.739H231.965C233.342 265.739 234.461 264.62 234.461 263.242V258.938C234.461 257.561 233.342 256.441 231.965 256.441H227.661C226.283 256.441 225.164 257.561 225.164 258.938V263.242C225.164 264.62 226.283 265.739 227.661 265.739Z" fill="#EEF2FA"/>
<path d="M265.969 265.739H270.273C271.651 265.739 272.77 264.62 272.77 263.242V258.938C272.77 257.561 271.651 256.441 270.273 256.441H265.969C264.592 256.441 263.473 257.561 263.473 258.938V263.242C263.473 264.62 264.592 265.739 265.969 265.739Z" fill="#EEF2FA"/>
<path d="M338.024 265.739H342.328C343.706 265.739 344.825 264.62 344.825 263.242V258.938C344.825 257.561 343.706 256.441 342.328 256.441H338.024C336.646 256.441 335.527 257.561 335.527 258.938V263.242C335.527 264.62 336.646 265.739 338.024 265.739Z" fill="#EEF2FA"/>
<path d="M376.332 265.739H380.637C382.014 265.739 383.133 264.62 383.133 263.242V258.938C383.133 257.561 382.014 256.441 380.637 256.441H376.332C374.955 256.441 373.836 257.561 373.836 258.938V263.242C373.836 264.62 374.955 265.739 376.332 265.739Z" fill="#EEF2FA"/>
<path d="M249.439 213.141H253.743C255.12 213.141 256.239 212.021 256.239 210.644V206.34C256.239 204.962 255.12 203.843 253.743 203.843H249.439C248.061 203.843 246.942 204.962 246.942 206.34V210.644C246.856 212.021 247.975 213.141 249.439 213.141Z" fill="#EEF2FA"/>
<path d="M302.039 191.361H306.344C307.721 191.361 308.84 190.242 308.84 188.864V184.56C308.84 183.183 307.721 182.063 306.344 182.063H302.039C300.662 182.063 299.543 183.183 299.543 184.56V188.864C299.543 190.242 300.662 191.361 302.039 191.361Z" fill="#EEF2FA"/>
<path d="M302.039 340.117H306.344C307.721 340.117 308.84 338.998 308.84 337.621V333.316C308.84 331.939 307.721 330.82 306.344 330.82H302.039C300.662 330.82 299.543 331.939 299.543 333.316V337.621C299.543 338.912 300.662 340.117 302.039 340.117Z" fill="#EEF2FA"/>
<path d="M302.039 301.723H306.344C307.721 301.723 308.84 300.604 308.84 299.227V294.922C308.84 293.545 307.721 292.426 306.344 292.426H302.039C300.662 292.426 299.543 293.545 299.543 294.922V299.227C299.543 300.604 300.662 301.723 302.039 301.723Z" fill="#EEF2FA"/>
<path d="M302.039 229.755H306.344C307.721 229.755 308.84 228.636 308.84 227.258V222.954C308.84 221.577 307.721 220.458 306.344 220.458H302.039C300.662 220.458 299.543 221.577 299.543 222.954V227.258C299.543 228.636 300.662 229.755 302.039 229.755Z" fill="#EEF2FA"/>
<path d="M354.638 213.141H358.942C360.32 213.141 361.439 212.021 361.439 210.644V206.34C361.439 204.962 360.32 203.843 358.942 203.843H354.638C353.26 203.843 352.141 204.962 352.141 206.34V210.644C352.055 212.021 353.174 213.141 354.638 213.141Z" fill="#EEF2FA"/>
<path d="M249.439 318.337H253.743C255.12 318.337 256.239 317.218 256.239 315.841V311.537C256.239 310.159 255.12 309.04 253.743 309.04H249.439C248.061 309.04 246.942 310.159 246.942 311.537V315.841C246.856 317.218 247.975 318.337 249.439 318.337Z" fill="#EEF2FA"/>
<path d="M354.551 318.337H358.856C360.233 318.337 361.352 317.218 361.352 315.841V311.537C361.352 310.159 360.233 309.04 358.856 309.04H354.551C353.174 309.04 352.055 310.159 352.055 311.537V315.841C352.055 317.218 353.174 318.337 354.551 318.337Z" fill="#EEF2FA"/>
<path d="M304.192 336.071C262.871 336.071 229.211 302.411 229.211 261.09C229.211 219.769 262.871 186.109 304.192 186.109C345.513 186.109 379.173 219.769 379.173 261.09C379.173 302.411 345.513 336.071 304.192 336.071ZM304.192 187.315C263.559 187.315 230.502 220.372 230.502 261.004C230.502 301.637 263.559 334.694 304.192 334.694C344.824 334.694 377.881 301.637 377.881 261.004C377.881 220.372 344.824 187.315 304.192 187.315Z" fill="#F6F8FC"/>
<path d="M268.207 260.401H229.812V261.693H268.207V260.401Z" fill="#F6F8FC"/>
<path d="M267.569 260.907L250.996 313.451L252.228 313.84L268.8 261.296L267.569 260.907Z" fill="#F6F8FC"/>
<path d="M252.134 208.298L250.902 208.687L267.523 261.308L268.754 260.919L252.134 208.298Z" fill="#F6F8FC"/>
<path d="M304.795 186.712H303.504V225.106H304.795V186.712Z" fill="#F6F8FC"/>
<path d="M303.662 224.624L267.688 260.599L268.601 261.512L304.576 225.537L303.662 224.624Z" fill="#F6F8FC"/>
<path d="M356.162 208.389L339.59 260.933L340.821 261.322L357.394 208.777L356.162 208.389Z" fill="#F6F8FC"/>
<path d="M378.57 260.401H340.262V261.693H378.57V260.401Z" fill="#F6F8FC"/>
<path d="M304.646 224.625L303.734 225.539L339.816 261.529L340.728 260.615L304.646 224.625Z" fill="#F6F8FC"/>
<path d="M340.837 260.881L339.605 261.269L356.145 313.824L357.377 313.436L340.837 260.881Z" fill="#F6F8FC"/>
<path d="M304.881 297.074H303.59V335.382H304.881V297.074Z" fill="#F6F8FC"/>
<path d="M304.028 296.467L251.391 313.021L251.778 314.253L304.415 297.698L304.028 296.467Z" fill="#F6F8FC"/>
<path d="M339.732 260.586L303.742 296.546L304.655 297.459L340.645 261.5L339.732 260.586Z" fill="#F6F8FC"/>
<path d="M304.193 133.597C301.954 133.597 300.06 135.146 299.63 137.299C273.976 138.246 249.7 146.94 229.728 162.091V119.393C229.728 114.658 225.854 110.784 221.12 110.784H162.581C157.847 110.784 153.973 114.658 153.973 119.393V177.931C153.973 182.666 157.847 186.54 162.581 186.54H208.035C214.405 178.448 221.636 171.13 229.728 164.846C249.614 149.351 273.89 140.398 299.716 139.451C300.233 141.517 302.04 142.98 304.279 142.98C306.861 142.98 309.013 140.914 309.013 138.246C308.841 135.749 306.775 133.597 304.193 133.597Z" fill="white"/>
<path d="M158.902 121.86V156.779H165.39V139.841C165.39 136.453 168.071 133.76 171.445 133.76H212.36C215.733 133.76 218.415 136.453 218.415 139.841V156.779H224.902V121.86C224.902 118.472 222.221 115.779 218.847 115.779H164.957C161.584 115.779 158.902 118.472 158.902 121.86Z" fill="#88B0FF" fill-opacity="0.3"/>
<path d="M183.902 147.779V168.268H199.914V147.779H183.902ZM198.623 149.071V152.342H185.194V149.071H198.623ZM185.194 167.063V153.719H198.623V167.063H185.194Z" fill="#52617F"/>
<path d="M191.907 155.613C189.066 155.613 186.828 157.937 186.828 160.692C186.828 163.533 189.152 165.771 191.907 165.771C194.662 165.771 196.986 163.447 196.986 160.692C197.072 157.851 194.748 155.613 191.907 155.613ZM191.907 164.48C189.841 164.48 188.119 162.758 188.119 160.692C188.119 158.626 189.841 156.904 191.907 156.904C193.973 156.904 195.695 158.626 195.695 160.692C195.695 162.758 194.059 164.48 191.907 164.48Z" fill="#52617F"/>
<path d="M188.635 150.018H187.258V151.395H188.635V150.018Z" fill="#52617F"/>
<path d="M192.596 150.018H191.219V151.395H192.596V150.018Z" fill="#52617F"/>
<path d="M196.557 150.018H195.18V151.395H196.557V150.018Z" fill="#52617F"/>
<path d="M181.841 128.779L182.561 126.627H185.842L186.567 128.779H188.254L185.177 120.052H183.226L180.153 128.779H181.841ZM182.987 125.357L184.167 121.842H184.236L185.416 125.357H182.987ZM190.524 128.779L191.245 126.627H194.526L195.25 128.779H196.938L193.861 120.052H191.909L188.837 128.779H190.524ZM191.671 125.357L192.851 121.842H192.919L194.1 125.357H191.671ZM202.69 122.451H204.211C204.181 120.977 202.924 119.933 201.066 119.933C199.234 119.933 197.857 120.964 197.861 122.507C197.861 123.759 198.752 124.48 200.188 124.85L201.181 125.106C202.123 125.345 202.745 125.639 202.749 126.316C202.745 127.062 202.038 127.561 201.006 127.561C200.018 127.561 199.251 127.117 199.187 126.201H197.631C197.695 127.936 198.986 128.911 201.019 128.911C203.111 128.911 204.326 127.867 204.33 126.329C204.326 124.816 203.077 124.126 201.765 123.815L200.947 123.61C200.231 123.44 199.455 123.137 199.464 122.409C199.468 121.752 200.056 121.271 201.045 121.271C201.986 121.271 202.609 121.71 202.69 122.451Z" fill="#485776"/>
<path d="M136.265 291.504C149.72 291.504 160.627 280.597 160.627 267.142C160.627 253.687 149.72 242.779 136.265 242.779C122.81 242.779 111.902 253.687 111.902 267.142C111.902 280.597 122.81 291.504 136.265 291.504Z" fill="#0A2251"/>
<path d="M131.703 270.585V262.493H133.339V270.585H131.703Z" fill="#EEF2FA"/>
<path d="M144.183 270.671C143.236 270.671 142.376 270.327 142.031 270.154L142.548 268.949C143.15 269.207 143.581 269.466 144.097 269.466C144.442 269.466 144.614 269.294 144.614 269.035C144.614 268.261 142.29 268.261 142.29 266.539C142.29 265.42 143.409 264.989 144.269 264.989C145.044 264.989 145.733 265.248 146.249 265.506L145.647 266.539C145.303 266.367 144.786 266.108 144.269 266.108C144.011 266.108 143.839 266.281 143.839 266.539C143.839 267.141 146.249 267.227 146.249 269.035C146.422 269.982 145.561 270.671 144.183 270.671Z" fill="#EEF2FA"/>
<path d="M148.918 270.671C147.971 270.671 147.11 270.327 146.766 270.154L147.282 268.949C147.885 269.207 148.315 269.466 148.832 269.466C149.176 269.466 149.348 269.294 149.348 269.035C149.348 268.261 147.024 268.261 147.024 266.539C147.024 265.42 148.143 264.989 149.004 264.989C149.779 264.989 150.467 265.248 150.984 265.506L150.381 266.539C150.037 266.367 149.52 266.108 149.004 266.108C148.746 266.108 148.573 266.281 148.573 266.539C148.573 267.141 150.984 267.227 150.984 269.035C151.07 269.982 150.209 270.671 148.918 270.671Z" fill="#EEF2FA"/>
<path d="M137.299 268.519C137.299 268.949 137.471 269.208 137.643 269.208C137.901 269.208 137.987 269.122 138.159 269.035L138.418 266.883C138.159 266.883 137.901 266.883 137.729 267.055C137.471 267.4 137.299 267.916 137.299 268.519ZM134.027 268.605C134.027 266.022 135.921 264.042 138.504 264.042C140.312 264.042 141.689 265.334 141.689 267.228C141.689 269.294 140.398 270.327 139.192 270.327C138.762 270.327 138.504 270.155 138.332 269.896C138.159 270.069 137.901 270.327 137.557 270.327C136.61 270.327 136.007 269.638 136.007 268.519C136.007 267.658 136.352 266.883 136.868 266.453C137.385 266.022 138.159 265.85 138.934 266.022L139.795 266.195L139.451 269.035C139.451 269.122 139.451 269.208 139.451 269.294C139.795 269.294 140.484 268.605 140.484 267.4C140.484 265.936 139.881 265.076 138.418 265.076C136.954 264.989 135.233 266.195 135.233 268.519C135.233 270.068 136.179 271.102 137.815 271.102C138.332 271.102 138.762 270.929 139.451 270.671H139.537L139.967 271.446H139.881C139.106 271.79 138.504 272.048 137.729 272.048C135.146 272.135 134.027 270.241 134.027 268.605Z" fill="#EEF2FA"/>
<path d="M129.29 265.162C129.204 264.387 128.515 263.784 127.74 263.784C126.277 263.784 125.674 265.162 125.76 266.539C125.847 268.002 126.363 269.208 127.74 269.208C128.687 269.208 129.29 268.433 129.376 267.4L130.926 267.572C130.753 269.552 129.72 270.757 127.74 270.757C125.502 270.757 124.125 269.208 124.039 266.539C123.953 264.129 125.416 262.321 127.654 262.321C129.29 262.321 130.495 263.354 130.753 264.989L129.29 265.162Z" fill="#EEF2FA"/>
<path d="M119.823 268.433C119.909 269.122 120.598 269.466 121.373 269.466C121.975 269.466 122.406 269.38 122.922 269.208L123.18 270.327C122.578 270.585 121.975 270.671 121.2 270.671C119.306 270.671 118.273 269.552 118.273 267.83C118.273 266.453 119.134 264.903 121.028 264.903C122.836 264.903 123.439 266.281 123.439 267.658C123.439 267.916 123.439 268.175 123.352 268.347L119.823 268.433ZM121.889 267.228C121.889 266.797 121.717 266.109 120.942 266.109C120.253 266.109 119.909 266.797 119.909 267.228H121.889Z" fill="#EEF2FA"/>
<path d="M153.225 262.751C153.397 262.751 153.569 262.837 153.827 262.923C154 263.009 154.172 263.181 154.258 263.354C154.344 263.526 154.43 263.698 154.43 263.956C154.43 264.128 154.344 264.387 154.258 264.559C154.172 264.731 154 264.903 153.827 264.989C153.655 265.075 153.483 265.161 153.225 265.161C153.053 265.161 152.794 265.075 152.622 264.989C152.45 264.903 152.278 264.731 152.192 264.559C152.106 264.387 152.02 264.214 152.02 263.956C152.02 263.784 152.106 263.526 152.192 263.354C152.278 263.181 152.45 263.009 152.622 262.923C152.88 262.837 153.053 262.751 153.225 262.751ZM153.225 263.009C153.053 263.009 152.88 263.009 152.794 263.095C152.622 263.181 152.536 263.267 152.45 263.44C152.364 263.612 152.364 263.784 152.364 263.87C152.364 264.042 152.364 264.214 152.45 264.301C152.536 264.473 152.622 264.559 152.794 264.645C152.966 264.731 153.053 264.731 153.225 264.731C153.397 264.731 153.569 264.731 153.655 264.645C153.827 264.559 153.913 264.473 154 264.301C154.086 264.128 154.086 264.042 154.086 263.87C154.086 263.698 154.086 263.526 154 263.44C153.913 263.267 153.827 263.181 153.655 263.095C153.569 263.009 153.397 263.009 153.225 263.009ZM152.708 264.559V263.354H152.966C153.225 263.354 153.311 263.354 153.397 263.354C153.483 263.354 153.569 263.354 153.569 263.44C153.655 263.44 153.655 263.526 153.655 263.526C153.655 263.612 153.741 263.612 153.741 263.698C153.741 263.784 153.741 263.87 153.655 263.956C153.569 264.042 153.483 264.042 153.397 264.042C153.397 264.042 153.483 264.042 153.483 264.128L153.569 264.214C153.569 264.214 153.569 264.301 153.655 264.387L153.827 264.645H153.483L153.397 264.473C153.311 264.301 153.311 264.214 153.225 264.214C153.139 264.214 153.139 264.128 153.053 264.128H152.966V264.645H152.708V264.559ZM152.966 263.87H153.053C153.225 263.87 153.311 263.87 153.311 263.87C153.311 263.87 153.397 263.87 153.397 263.784V263.698V263.612L153.311 263.526C153.311 263.526 153.225 263.526 153.053 263.526H152.966V263.87Z" fill="#EEF2FA"/>
<path d="M297.265 453.504C310.72 453.504 321.627 442.597 321.627 429.142C321.627 415.687 310.72 404.779 297.265 404.779C283.81 404.779 272.902 415.687 272.902 429.142C272.902 442.597 283.81 453.504 297.265 453.504Z" fill="#0A2251"/>
<path d="M292.703 432.585V424.493H294.339V432.585H292.703Z" fill="#EEF2FA"/>
<path d="M305.183 432.671C304.236 432.671 303.376 432.327 303.031 432.154L303.548 430.949C304.15 431.207 304.581 431.466 305.097 431.466C305.442 431.466 305.614 431.294 305.614 431.035C305.614 430.261 303.29 430.261 303.29 428.539C303.29 427.42 304.409 426.989 305.269 426.989C306.044 426.989 306.733 427.248 307.249 427.506L306.647 428.539C306.303 428.367 305.786 428.108 305.269 428.108C305.011 428.108 304.839 428.281 304.839 428.539C304.839 429.141 307.249 429.227 307.249 431.035C307.422 431.982 306.561 432.671 305.183 432.671Z" fill="#EEF2FA"/>
<path d="M309.918 432.671C308.971 432.671 308.11 432.327 307.766 432.154L308.282 430.949C308.885 431.207 309.315 431.466 309.832 431.466C310.176 431.466 310.348 431.294 310.348 431.035C310.348 430.261 308.024 430.261 308.024 428.539C308.024 427.42 309.143 426.989 310.004 426.989C310.779 426.989 311.467 427.248 311.984 427.506L311.381 428.539C311.037 428.367 310.52 428.108 310.004 428.108C309.746 428.108 309.573 428.281 309.573 428.539C309.573 429.141 311.984 429.227 311.984 431.035C312.07 431.982 311.209 432.671 309.918 432.671Z" fill="#EEF2FA"/>
<path d="M298.299 430.519C298.299 430.949 298.471 431.208 298.643 431.208C298.901 431.208 298.987 431.122 299.159 431.035L299.418 428.883C299.159 428.883 298.901 428.883 298.729 429.055C298.471 429.4 298.299 429.916 298.299 430.519ZM295.027 430.605C295.027 428.022 296.921 426.042 299.504 426.042C301.312 426.042 302.689 427.334 302.689 429.228C302.689 431.294 301.398 432.327 300.192 432.327C299.762 432.327 299.504 432.155 299.332 431.896C299.159 432.069 298.901 432.327 298.557 432.327C297.61 432.327 297.007 431.638 297.007 430.519C297.007 429.658 297.352 428.883 297.868 428.453C298.385 428.022 299.159 427.85 299.934 428.022L300.795 428.195L300.451 431.035C300.451 431.122 300.451 431.208 300.451 431.294C300.795 431.294 301.484 430.605 301.484 429.4C301.484 427.936 300.881 427.076 299.418 427.076C297.954 426.989 296.233 428.195 296.233 430.519C296.233 432.068 297.179 433.102 298.815 433.102C299.332 433.102 299.762 432.929 300.451 432.671H300.537L300.967 433.446H300.881C300.106 433.79 299.504 434.048 298.729 434.048C296.146 434.135 295.027 432.241 295.027 430.605Z" fill="#EEF2FA"/>
<path d="M290.29 427.162C290.204 426.387 289.515 425.784 288.74 425.784C287.277 425.784 286.674 427.162 286.76 428.539C286.847 430.002 287.363 431.208 288.74 431.208C289.687 431.208 290.29 430.433 290.376 429.4L291.926 429.572C291.753 431.552 290.72 432.757 288.74 432.757C286.502 432.757 285.125 431.208 285.039 428.539C284.953 426.129 286.416 424.321 288.654 424.321C290.29 424.321 291.495 425.354 291.753 426.989L290.29 427.162Z" fill="#EEF2FA"/>
<path d="M280.823 430.433C280.909 431.122 281.598 431.466 282.373 431.466C282.975 431.466 283.406 431.38 283.922 431.208L284.18 432.327C283.578 432.585 282.975 432.671 282.2 432.671C280.306 432.671 279.273 431.552 279.273 429.83C279.273 428.453 280.134 426.903 282.028 426.903C283.836 426.903 284.439 428.281 284.439 429.658C284.439 429.916 284.439 430.175 284.352 430.347L280.823 430.433ZM282.889 429.228C282.889 428.797 282.717 428.109 281.942 428.109C281.253 428.109 280.909 428.797 280.909 429.228H282.889Z" fill="#EEF2FA"/>
<path d="M314.225 424.751C314.397 424.751 314.569 424.837 314.827 424.923C315 425.009 315.172 425.181 315.258 425.354C315.344 425.526 315.43 425.698 315.43 425.956C315.43 426.128 315.344 426.387 315.258 426.559C315.172 426.731 315 426.903 314.827 426.989C314.655 427.075 314.483 427.161 314.225 427.161C314.053 427.161 313.794 427.075 313.622 426.989C313.45 426.903 313.278 426.731 313.192 426.559C313.106 426.387 313.02 426.214 313.02 425.956C313.02 425.784 313.106 425.526 313.192 425.354C313.278 425.181 313.45 425.009 313.622 424.923C313.88 424.837 314.053 424.751 314.225 424.751ZM314.225 425.009C314.053 425.009 313.88 425.009 313.794 425.095C313.622 425.181 313.536 425.267 313.45 425.44C313.364 425.612 313.364 425.784 313.364 425.87C313.364 426.042 313.364 426.214 313.45 426.301C313.536 426.473 313.622 426.559 313.794 426.645C313.966 426.731 314.053 426.731 314.225 426.731C314.397 426.731 314.569 426.731 314.655 426.645C314.827 426.559 314.913 426.473 315 426.301C315.086 426.128 315.086 426.042 315.086 425.87C315.086 425.698 315.086 425.526 315 425.44C314.913 425.267 314.827 425.181 314.655 425.095C314.569 425.009 314.397 425.009 314.225 425.009ZM313.708 426.559V425.354H313.966C314.225 425.354 314.311 425.354 314.397 425.354C314.483 425.354 314.569 425.354 314.569 425.44C314.655 425.44 314.655 425.526 314.655 425.526C314.655 425.612 314.741 425.612 314.741 425.698C314.741 425.784 314.741 425.87 314.655 425.956C314.569 426.042 314.483 426.042 314.397 426.042C314.397 426.042 314.483 426.042 314.483 426.128L314.569 426.214C314.569 426.214 314.569 426.301 314.655 426.387L314.827 426.645H314.483L314.397 426.473C314.311 426.301 314.311 426.214 314.225 426.214C314.139 426.214 314.139 426.128 314.053 426.128H313.966V426.645H313.708V426.559ZM313.966 425.87H314.053C314.225 425.87 314.311 425.87 314.311 425.87C314.311 425.87 314.397 425.87 314.397 425.784V425.698V425.612L314.311 425.526C314.311 425.526 314.225 425.526 314.053 425.526H313.966V425.87Z" fill="#EEF2FA"/>
<path d="M431.427 261.176C431.427 258.938 429.878 257.044 427.726 256.614C426.779 230.96 418.084 206.684 402.933 186.712H445.631C450.366 186.712 454.24 182.838 454.24 178.104V119.565C454.24 114.83 450.366 110.957 445.631 110.957H387.093C382.358 110.957 378.484 114.83 378.484 119.565V165.019C386.576 171.389 393.894 178.62 400.178 186.712C415.674 206.598 424.626 230.874 425.573 256.7C423.507 257.217 422.044 259.024 422.044 261.263C422.044 263.845 424.11 265.997 426.779 265.997C429.275 265.911 431.427 263.759 431.427 261.176Z" fill="white"/>
<path d="M383.902 121.86V156.779H390.39V139.841C390.39 136.453 393.071 133.76 396.445 133.76H437.36C440.733 133.76 443.415 136.453 443.415 139.841V156.779H449.902V121.86C449.902 118.472 447.221 115.779 443.847 115.779H389.957C386.584 115.779 383.902 118.472 383.902 121.86Z" fill="#DBE7FF"/>
<path d="M406.354 128.779H404.667L407.739 120.052H409.691L412.767 128.779H411.08L410.356 126.627H407.074L406.354 128.779ZM407.5 125.357H409.929L408.749 121.842H408.681L407.5 125.357ZM415.038 128.779H413.35L416.423 120.052H418.374L421.451 128.779H419.764L419.039 126.627H415.758L415.038 128.779ZM416.184 125.357H418.613L417.433 121.842H417.364L416.184 125.357ZM427.203 122.451C427.163 122.079 426.997 121.789 426.704 121.582C426.412 121.374 426.03 121.271 425.558 121.271C425.064 121.271 424.677 121.379 424.399 121.595C424.12 121.808 423.98 122.079 423.977 122.409C423.974 122.65 424.047 122.85 424.194 123.009C424.342 123.166 424.53 123.291 424.757 123.384C424.987 123.478 425.221 123.553 425.46 123.61L426.278 123.815C426.716 123.917 427.129 124.069 427.518 124.271C427.91 124.47 428.228 124.737 428.473 125.072C428.72 125.404 428.843 125.823 428.843 126.329C428.841 127.099 428.549 127.722 427.97 128.2C427.39 128.674 426.578 128.911 425.532 128.911C424.515 128.911 423.704 128.677 423.099 128.208C422.494 127.737 422.176 127.068 422.145 126.201H423.7C423.731 126.659 423.919 126.999 424.263 127.224C424.606 127.448 425.025 127.561 425.52 127.561C426.037 127.561 426.456 127.447 426.777 127.22C427.098 126.99 427.26 126.688 427.263 126.316C427.26 125.978 427.115 125.722 426.828 125.549C426.544 125.373 426.166 125.225 425.694 125.106L424.701 124.85C423.983 124.666 423.415 124.386 422.997 124.011C422.582 123.633 422.375 123.132 422.375 122.507C422.375 121.992 422.514 121.542 422.792 121.156C423.071 120.769 423.451 120.47 423.934 120.257C424.42 120.041 424.968 119.933 425.579 119.933C426.199 119.933 426.743 120.041 427.211 120.257C427.68 120.47 428.047 120.767 428.311 121.147C428.578 121.525 428.716 121.96 428.724 122.451H427.203Z" fill="#485776"/>
<path d="M424.394 151.641H427.016V150.448H424.394C424.155 149.495 423.281 148.779 422.168 148.779C422.009 148.779 421.93 148.779 421.85 148.779H421.771H421.691L410.246 151.164C408.816 151.323 407.703 152.515 407.703 154.025C407.703 154.422 407.783 154.82 407.942 155.138L412.551 164.675V169.046H408.18V170.239H425.268V169.046H420.897V163.721C420.897 162.768 420.579 161.814 419.943 161.099L415.333 155.456L422.566 153.23C423.44 153.151 424.155 152.515 424.394 151.641ZM412.472 151.958L420.022 150.369C419.943 150.607 419.943 150.766 419.943 151.005C419.943 151.641 420.181 152.197 420.579 152.594L413.187 154.899C413.267 154.581 413.346 154.343 413.346 154.025C413.346 153.23 413.028 152.515 412.472 151.958ZM423.281 151.084C423.281 151.72 422.804 152.197 422.168 152.197C421.532 152.197 421.056 151.72 421.056 151.084C421.056 150.607 421.373 150.13 421.85 150.051H421.93C422.009 150.051 422.089 150.051 422.089 150.051C422.804 149.971 423.281 150.448 423.281 151.084ZM410.485 152.435C411.439 152.435 412.154 153.151 412.154 154.104C412.154 155.058 411.439 155.773 410.485 155.773C409.77 155.773 409.213 155.376 408.975 154.74C408.895 154.502 408.816 154.343 408.816 154.104C408.816 153.151 409.611 152.435 410.485 152.435ZM419.704 168.967H413.664V166.662C414.459 167.457 415.492 167.934 416.684 167.934C417.876 167.934 418.91 167.457 419.704 166.662V168.967ZM416.684 166.821C415.015 166.821 413.664 165.47 413.664 163.801C413.664 162.132 415.015 160.781 416.684 160.781C418.353 160.781 419.704 162.132 419.704 163.801C419.704 165.47 418.353 166.821 416.684 166.821ZM417.161 159.668C417.002 159.668 416.843 159.588 416.684 159.588C414.856 159.588 413.267 160.781 412.71 162.45L410.008 156.886C410.167 156.886 410.326 156.966 410.485 156.966C410.803 156.966 411.121 156.886 411.359 156.807L414.141 155.932L417.161 159.668Z" fill="#485776"/>
<path d="M417.321 163.245H416.129V164.437H417.321V163.245Z" fill="#485776"/>
<path d="M176.957 260.574C176.957 262.812 178.507 264.706 180.659 265.137C181.606 290.79 190.3 315.067 205.452 335.039H162.839C158.104 335.039 154.23 338.912 154.23 343.647V402.186C154.23 406.92 158.104 410.794 162.839 410.794H221.377C226.112 410.794 229.986 406.92 229.986 402.186V356.732C221.894 350.362 214.577 343.131 208.292 335.039C192.797 315.153 183.844 290.876 182.897 265.051C184.963 264.534 186.427 262.726 186.427 260.488C186.427 257.906 184.361 255.753 181.692 255.753C179.109 255.926 176.957 257.992 176.957 260.574Z" fill="white"/>
<path d="M224.902 400.699L224.902 365.779L218.415 365.779L218.415 382.718C218.415 386.106 215.733 388.798 212.36 388.798L171.445 388.798C168.071 388.798 165.39 386.106 165.39 382.718L165.39 365.779L158.902 365.779L158.902 400.699C158.902 404.086 161.584 406.779 164.957 406.779L218.847 406.779C222.221 406.779 224.902 404.087 224.902 400.699Z" fill="#DBE7FF"/>
<path d="M178.902 353.779V374.268H204.642V353.779H178.902ZM203.351 355.071V358.686H180.194V355.071H203.351ZM180.194 372.976V359.977H203.351V372.976H180.194Z" fill="#485776"/>
<path d="M182.432 356.276H181.141V357.567H182.432V356.276Z" fill="#485776"/>
<path d="M184.498 356.276H183.207V357.567H184.498V356.276Z" fill="#485776"/>
<path d="M186.479 356.276H185.188V357.567H186.479V356.276Z" fill="#485776"/>
<path d="M181.829 401.779H180.141L183.214 393.052H185.166L188.242 401.779H186.555L185.83 399.627H182.549L181.829 401.779ZM182.975 398.357H185.404L184.224 394.842H184.156L182.975 398.357ZM190.512 401.779H188.825L191.897 393.052H193.849L196.926 401.779H195.238L194.514 399.627H191.233L190.512 401.779ZM191.659 398.357H194.088L192.907 394.842H192.839L191.659 398.357ZM202.678 395.451C202.638 395.079 202.472 394.789 202.179 394.582C201.886 394.374 201.504 394.271 201.033 394.271C200.538 394.271 200.152 394.379 199.874 394.595C199.595 394.808 199.455 395.079 199.452 395.409C199.449 395.65 199.521 395.85 199.669 396.009C199.817 396.166 200.004 396.291 200.232 396.384C200.462 396.478 200.696 396.553 200.935 396.61L201.753 396.815C202.19 396.917 202.604 397.069 202.993 397.271C203.385 397.47 203.703 397.737 203.948 398.072C204.195 398.404 204.318 398.823 204.318 399.329C204.315 400.099 204.024 400.722 203.445 401.2C202.865 401.674 202.053 401.911 201.007 401.911C199.99 401.911 199.179 401.677 198.574 401.208C197.969 400.737 197.651 400.068 197.619 399.201H199.175C199.206 399.659 199.394 399.999 199.737 400.224C200.081 400.448 200.5 400.561 200.994 400.561C201.511 400.561 201.93 400.447 202.251 400.22C202.573 399.99 202.734 399.688 202.737 399.316C202.734 398.978 202.59 398.722 202.303 398.549C202.019 398.373 201.641 398.225 201.169 398.106L200.176 397.85C199.457 397.666 198.889 397.386 198.472 397.011C198.057 396.633 197.849 396.132 197.849 395.507C197.849 394.992 197.989 394.542 198.267 394.156C198.546 393.769 198.926 393.47 199.409 393.257C199.895 393.041 200.443 392.933 201.054 392.933C201.673 392.933 202.217 393.041 202.686 393.257C203.155 393.47 203.521 393.767 203.786 394.147C204.053 394.525 204.19 394.96 204.199 395.451H202.678Z" fill="#485776"/>
<path d="M304.02 388.24C306.258 388.24 308.152 386.69 308.583 384.538C334.236 383.591 358.512 374.896 378.484 359.745V402.444C378.484 407.179 382.358 411.052 387.093 411.052H445.631C450.366 411.052 454.24 407.179 454.24 402.444V343.905C454.24 339.171 450.366 335.297 445.631 335.297H400.178C393.808 343.389 386.576 350.706 378.484 356.991C358.599 372.486 334.322 381.439 308.497 382.386C307.98 380.32 306.172 378.856 303.934 378.856C301.351 378.856 299.199 380.922 299.199 383.591C299.371 386.088 301.437 388.24 304.02 388.24Z" fill="white"/>
<path d="M449.898 399.699L449.898 364.779L443.411 364.779L443.411 381.718C443.411 385.106 440.729 387.798 437.356 387.798L396.441 387.798C393.068 387.798 390.386 385.106 390.386 381.718L390.386 364.779L383.898 364.779L383.898 399.699C383.898 403.086 386.58 405.779 389.953 405.779L443.843 405.779C447.217 405.779 449.898 403.087 449.898 399.699Z" fill="#DBE7FF"/>
<path d="M417.455 364.129H416.164V365.421H417.455V364.129Z" fill="#52617F"/>
<path d="M424.084 371.963H409.621V357.501H424.084V371.963ZM410.912 370.586H422.706V358.792H410.912V370.586Z" fill="#52617F"/>
<path d="M420.638 368.52H413.148V361.03H420.638V368.52ZM414.44 367.142H419.261V362.322H414.44V367.142Z" fill="#52617F"/>
<path d="M425.805 368.176H423.395V369.553H425.805V368.176Z" fill="#52617F"/>
<path d="M425.805 364.043H423.395V365.421H425.805V364.043Z" fill="#52617F"/>
<path d="M425.805 359.912H423.395V361.289H425.805V359.912Z" fill="#52617F"/>
<path d="M410.309 368.176H407.898V369.553H410.309V368.176Z" fill="#52617F"/>
<path d="M410.309 364.043H407.898V365.421H410.309V364.043Z" fill="#52617F"/>
<path d="M410.309 359.912H407.898V361.289H410.309V359.912Z" fill="#52617F"/>
<path d="M413.409 371.275H412.031V373.685H413.409V371.275Z" fill="#52617F"/>
<path d="M417.542 371.275H416.164V373.685H417.542V371.275Z" fill="#52617F"/>
<path d="M421.674 371.275H420.297V373.685H421.674V371.275Z" fill="#52617F"/>
<path d="M413.409 355.779H412.031V358.19H413.409V355.779Z" fill="#52617F"/>
<path d="M417.542 355.779H416.164V358.19H417.542V355.779Z" fill="#52617F"/>
<path d="M421.674 355.779H420.297V358.19H421.674V355.779Z" fill="#52617F"/>
<path d="M406.35 401.779L407.07 399.627H410.352L411.076 401.779H412.764L409.687 393.052H407.735L404.663 401.779H406.35ZM407.497 398.357L408.677 394.842H408.745L409.926 398.357H407.497ZM415.034 401.779L415.754 399.627H419.035L419.76 401.779H421.447L418.37 393.052H416.419L413.346 401.779H415.034ZM416.18 398.357L417.361 394.842H417.429L418.609 398.357H416.18ZM427.199 395.451H428.72C428.69 393.977 427.433 392.933 425.575 392.933C423.743 392.933 422.367 393.964 422.371 395.507C422.371 396.759 423.261 397.48 424.698 397.85L425.69 398.106C426.632 398.345 427.254 398.639 427.259 399.316C427.254 400.062 426.547 400.561 425.516 400.561C424.527 400.561 423.76 400.117 423.696 399.201H422.141C422.205 400.936 423.496 401.911 425.528 401.911C427.621 401.911 428.835 400.867 428.84 399.329C428.835 397.816 427.587 397.126 426.274 396.815L425.456 396.61C424.74 396.44 423.965 396.137 423.973 395.409C423.977 394.752 424.565 394.271 425.554 394.271C426.496 394.271 427.118 394.71 427.199 395.451Z" fill="#485776"/>
</svg>
