<svg width="35" height="32" viewBox="0 0 35 32" fill="none" xmlns="http://www.w3.org/2000/svg">
<path d="M24.957 3.83723C26.0228 3.83723 26.8868 2.97824 26.8868 1.91862C26.8868 0.858993 26.0228 0 24.957 0C23.8913 0 23.0273 0.858993 23.0273 1.91862C23.0273 2.97824 23.8913 3.83723 24.957 3.83723Z" fill="#131F37"/>
<path d="M27.1289 30.9376C28.1947 30.9376 29.0586 30.0786 29.0586 29.019C29.0586 27.9593 28.1947 27.1003 27.1289 27.1003C26.0632 27.1003 25.1992 27.9593 25.1992 29.019C25.1992 30.0786 26.0632 30.9376 27.1289 30.9376Z" fill="#131F37"/>
<path d="M25.5112 8.63386C26.4056 8.63386 27.1307 7.91292 27.1307 7.02359C27.1307 6.13427 26.4056 5.41333 25.5112 5.41333C24.6167 5.41333 23.8916 6.13427 23.8916 7.02359C23.8916 7.91292 24.6167 8.63386 25.5112 8.63386Z" fill="#131F37"/>
<path d="M29.8159 9.25032C30.7103 9.25032 31.4354 8.52938 31.4354 7.64006C31.4354 6.75073 30.7103 6.02979 29.8159 6.02979C28.9214 6.02979 28.1963 6.75073 28.1963 7.64006C28.1963 8.52938 28.9214 9.25032 29.8159 9.25032Z" fill="#131F37"/>
<path d="M24.9623 12.7109C25.7236 12.7109 26.3407 12.0973 26.3407 11.3404C26.3407 10.5835 25.7236 9.96997 24.9623 9.96997C24.2011 9.96997 23.584 10.5835 23.584 11.3404C23.584 12.0973 24.2011 12.7109 24.9623 12.7109Z" fill="#131F37"/>
<path d="M29.267 13.2934C30.0283 13.2934 30.6454 12.6798 30.6454 11.9229C30.6454 11.1661 30.0283 10.5525 29.267 10.5525C28.5058 10.5525 27.8887 11.1661 27.8887 11.9229C27.8887 12.6798 28.5058 13.2934 29.267 13.2934Z" fill="#131F37"/>
<path d="M32.7153 14.6296C33.4765 14.6296 34.0936 14.016 34.0936 13.2591C34.0936 12.5022 33.4765 11.8887 32.7153 11.8887C31.954 11.8887 31.3369 12.5022 31.3369 13.2591C31.3369 14.016 31.954 14.6296 32.7153 14.6296Z" fill="#131F37"/>
<path d="M27.9971 16.5824C28.6632 16.5824 29.2031 16.0455 29.2031 15.3832C29.2031 14.721 28.6632 14.1841 27.9971 14.1841C27.331 14.1841 26.791 14.721 26.791 15.3832C26.791 16.0455 27.331 16.5824 27.9971 16.5824Z" fill="#131F37"/>
<path d="M23.6836 15.9998C24.3497 15.9998 24.8897 15.463 24.8897 14.8007C24.8897 14.1384 24.3497 13.6016 23.6836 13.6016C23.0175 13.6016 22.4775 14.1384 22.4775 14.8007C22.4775 15.463 23.0175 15.9998 23.6836 15.9998Z" fill="#131F37"/>
<path d="M31.4727 17.9185C32.1388 17.9185 32.6787 17.3817 32.6787 16.7194C32.6787 16.0571 32.1388 15.5203 31.4727 15.5203C30.8066 15.5203 30.2666 16.0571 30.2666 16.7194C30.2666 17.3817 30.8066 17.9185 31.4727 17.9185Z" fill="#131F37"/>
<path d="M26.2681 19.0835C26.8391 19.0835 27.3019 18.6233 27.3019 18.0557C27.3019 17.488 26.8391 17.0278 26.2681 17.0278C25.6972 17.0278 25.2344 17.488 25.2344 18.0557C25.2344 18.6233 25.6972 19.0835 26.2681 19.0835Z" fill="#131F37"/>
<path d="M29.7515 20.3855C30.3225 20.3855 30.7853 19.9253 30.7853 19.3577C30.7853 18.79 30.3225 18.3298 29.7515 18.3298C29.1806 18.3298 28.7178 18.79 28.7178 19.3577C28.7178 19.9253 29.1806 20.3855 29.7515 20.3855Z" fill="#131F37"/>
<path d="M21.9986 18.4668C22.5696 18.4668 23.0324 18.0066 23.0324 17.439C23.0324 16.8713 22.5696 16.4111 21.9986 16.4111C21.4277 16.4111 20.9648 16.8713 20.9648 17.439C20.9648 18.0066 21.4277 18.4668 21.9986 18.4668Z" fill="#131F37"/>
<path d="M24.3742 20.7619C24.8499 20.7619 25.2356 20.3784 25.2356 19.9054C25.2356 19.4323 24.8499 19.0488 24.3742 19.0488C23.8984 19.0488 23.5127 19.4323 23.5127 19.9054C23.5127 20.3784 23.8984 20.7619 24.3742 20.7619Z" fill="#131F37"/>
<path d="M25.8548 23.1264C26.2735 23.1264 26.6129 22.7889 26.6129 22.3726C26.6129 21.9564 26.2735 21.6189 25.8548 21.6189C25.4361 21.6189 25.0967 21.9564 25.0967 22.3726C25.0967 22.7889 25.4361 23.1264 25.8548 23.1264Z" fill="#131F37"/>
<path d="M24.0265 23.606C24.3691 23.606 24.6468 23.3299 24.6468 22.9893C24.6468 22.6487 24.3691 22.3726 24.0265 22.3726C23.684 22.3726 23.4062 22.6487 23.4062 22.9893C23.4062 23.3299 23.684 23.606 24.0265 23.606Z" fill="#131F37"/>
<path d="M22.4065 21.8241C22.8252 21.8241 23.1646 21.4867 23.1646 21.0704C23.1646 20.6541 22.8252 20.3167 22.4065 20.3167C21.9878 20.3167 21.6484 20.6541 21.6484 21.0704C21.6484 21.4867 21.9878 21.8241 22.4065 21.8241Z" fill="#131F37"/>
<path d="M20.0656 20.1799C20.5414 20.1799 20.9271 19.7964 20.9271 19.3233C20.9271 18.8503 20.5414 18.4668 20.0656 18.4668C19.5898 18.4668 19.2041 18.8503 19.2041 19.3233C19.2041 19.7964 19.5898 20.1799 20.0656 20.1799Z" fill="#131F37"/>
<path d="M20.0294 13.7382C20.5052 13.7382 20.8909 13.3547 20.8909 12.8817C20.8909 12.4086 20.5052 12.0251 20.0294 12.0251C19.5537 12.0251 19.168 12.4086 19.168 12.8817C19.168 13.3547 19.5537 13.7382 20.0294 13.7382Z" fill="#131F37"/>
<path d="M20.4124 10.7238C20.8311 10.7238 21.1705 10.3863 21.1705 9.97005C21.1705 9.55377 20.8311 9.21631 20.4124 9.21631C19.9937 9.21631 19.6543 9.55377 19.6543 9.97005C19.6543 10.3863 19.9937 10.7238 20.4124 10.7238Z" fill="#131F37"/>
<path d="M21.2335 8.25684C21.5761 8.25684 21.8538 7.98074 21.8538 7.64014C21.8538 7.29955 21.5761 7.02344 21.2335 7.02344C20.891 7.02344 20.6133 7.29955 20.6133 7.64014C20.6133 7.98074 20.891 8.25684 21.2335 8.25684Z" fill="#131F37"/>
<path d="M19.7962 7.09172C20.2149 7.09172 20.5543 6.75426 20.5543 6.33797C20.5543 5.92169 20.2149 5.58423 19.7962 5.58423C19.3775 5.58423 19.0381 5.92169 19.0381 6.33797C19.0381 6.75426 19.3775 7.09172 19.7962 7.09172Z" fill="#131F37"/>
<path d="M27.8224 22.0641C28.2982 22.0641 28.6839 21.6806 28.6839 21.2076C28.6839 20.7346 28.2982 20.3511 27.8224 20.3511C27.3466 20.3511 26.9609 20.7346 26.9609 21.2076C26.9609 21.6806 27.3466 22.0641 27.8224 22.0641Z" fill="#131F37"/>
<path d="M17.8263 6.09831C18.3021 6.09831 18.6878 5.71483 18.6878 5.24178C18.6878 4.76873 18.3021 4.38525 17.8263 4.38525C17.3505 4.38525 16.9648 4.76873 16.9648 5.24178C16.9648 5.71483 17.3505 6.09831 17.8263 6.09831Z" fill="#131F37"/>
<path d="M18.4142 9.73039C18.89 9.73039 19.2757 9.34691 19.2757 8.87386C19.2757 8.40081 18.89 8.01733 18.4142 8.01733C17.9384 8.01733 17.5527 8.40081 17.5527 8.87386C17.5527 9.34691 17.9384 9.73039 18.4142 9.73039Z" fill="#131F37"/>
<path d="M17.4488 13.1899C18.0197 13.1899 18.4826 12.7298 18.4826 12.1621C18.4826 11.5945 18.0197 11.1343 17.4488 11.1343C16.8779 11.1343 16.415 11.5945 16.415 12.1621C16.415 12.7298 16.8779 13.1899 17.4488 13.1899Z" fill="#131F37"/>
<path d="M14.3115 13.1905C14.9776 13.1905 15.5176 12.6536 15.5176 11.9914C15.5176 11.3291 14.9776 10.7922 14.3115 10.7922C13.6454 10.7922 13.1055 11.3291 13.1055 11.9914C13.1055 12.6536 13.6454 13.1905 14.3115 13.1905Z" fill="#131F37"/>
<path d="M10.6567 14.0131C11.4179 14.0131 12.035 13.3995 12.035 12.6427C12.035 11.8858 11.4179 11.2722 10.6567 11.2722C9.89543 11.2722 9.27832 11.8858 9.27832 12.6427C9.27832 13.3995 9.89543 14.0131 10.6567 14.0131Z" fill="#131F37"/>
<path d="M6.6645 15.9657C7.55897 15.9657 8.28407 15.2447 8.28407 14.3554C8.28407 13.4661 7.55897 12.7451 6.6645 12.7451C5.77003 12.7451 5.04492 13.4661 5.04492 14.3554C5.04492 15.2447 5.77003 15.9657 6.6645 15.9657Z" fill="#131F37"/>
<path d="M2.52737 19.2547C3.59311 19.2547 4.45707 18.3957 4.45707 17.3361C4.45707 16.2765 3.59311 15.4175 2.52737 15.4175C1.46162 15.4175 0.597656 16.2765 0.597656 17.3361C0.597656 18.3957 1.46162 19.2547 2.52737 19.2547Z" fill="#131F37"/>
<path d="M5.04145 11.9573C5.93591 11.9573 6.66102 11.2364 6.66102 10.3471C6.66102 9.45776 5.93591 8.73682 5.04145 8.73682C4.14698 8.73682 3.42188 9.45776 3.42188 10.3471C3.42188 11.2364 4.14698 11.9573 5.04145 11.9573Z" fill="#131F37"/>
<path d="M9.04145 10.0043C9.8027 10.0043 10.4198 9.39074 10.4198 8.63387C10.4198 7.87699 9.8027 7.26343 9.04145 7.26343C8.2802 7.26343 7.66309 7.87699 7.66309 8.63387C7.66309 9.39074 8.2802 10.0043 9.04145 10.0043Z" fill="#131F37"/>
<path d="M8.45356 6.37248C9.21481 6.37248 9.83192 5.75891 9.83192 5.00203C9.83192 4.24516 9.21481 3.63159 8.45356 3.63159C7.69231 3.63159 7.0752 4.24516 7.0752 5.00203C7.0752 5.75891 7.69231 6.37248 8.45356 6.37248Z" fill="#131F37"/>
<path d="M12.1084 5.55013C12.7745 5.55013 13.3145 5.01326 13.3145 4.35099C13.3145 3.68873 12.7745 3.15186 12.1084 3.15186C11.4423 3.15186 10.9023 3.68873 10.9023 4.35099C10.9023 5.01326 11.4423 5.55013 12.1084 5.55013Z" fill="#131F37"/>
<path d="M15.2457 5.55004C15.8166 5.55004 16.2795 5.08987 16.2795 4.52221C16.2795 3.95456 15.8166 3.49438 15.2457 3.49438C14.6747 3.49438 14.2119 3.95456 14.2119 4.52221C14.2119 5.08987 14.6747 5.55004 15.2457 5.55004Z" fill="#131F37"/>
<path d="M15.8297 9.18212C16.4006 9.18212 16.8634 8.72195 16.8634 8.15429C16.8634 7.58664 16.4006 7.12646 15.8297 7.12646C15.2587 7.12646 14.7959 7.58664 14.7959 8.15429C14.7959 8.72195 15.2587 9.18212 15.8297 9.18212Z" fill="#131F37"/>
<path d="M12.6924 9.21664C13.3585 9.21664 13.8985 8.67976 13.8985 8.0175C13.8985 7.35523 13.3585 6.81836 12.6924 6.81836C12.0263 6.81836 11.4863 7.35523 11.4863 8.0175C11.4863 8.67976 12.0263 9.21664 12.6924 9.21664Z" fill="#131F37"/>
<path d="M9.28237 18.3296C9.62493 18.3296 9.90263 18.0535 9.90263 17.7129C9.90263 17.3723 9.62493 17.0962 9.28237 17.0962C8.93981 17.0962 8.66211 17.3723 8.66211 17.7129C8.66211 18.0535 8.93981 18.3296 9.28237 18.3296Z" fill="#131F37"/>
<path d="M11.763 18.0214C12.1817 18.0214 12.5211 17.6839 12.5211 17.2677C12.5211 16.8514 12.1817 16.5139 11.763 16.5139C11.3443 16.5139 11.0049 16.8514 11.0049 17.2677C11.0049 17.6839 11.3443 18.0214 11.763 18.0214Z" fill="#131F37"/>
<path d="M14.4884 16.9933C14.9642 16.9933 15.3499 16.6098 15.3499 16.1368C15.3499 15.6638 14.9642 15.2803 14.4884 15.2803C14.0126 15.2803 13.627 15.6638 13.627 16.1368C13.627 16.6098 14.0126 16.9933 14.4884 16.9933Z" fill="#131F37"/>
<path d="M15.1383 19.7346C15.7092 19.7346 16.172 19.2744 16.172 18.7068C16.172 18.1391 15.7092 17.679 15.1383 17.679C14.5673 17.679 14.1045 18.1391 14.1045 18.7068C14.1045 19.2744 14.5673 19.7346 15.1383 19.7346Z" fill="#131F37"/>
<path d="M11.8302 20.3854C12.306 20.3854 12.6917 20.0019 12.6917 19.5289C12.6917 19.0558 12.306 18.6724 11.8302 18.6724C11.3544 18.6724 10.9688 19.0558 10.9688 19.5289C10.9688 20.0019 11.3544 20.3854 11.8302 20.3854Z" fill="#131F37"/>
<path d="M8.8997 20.351C9.31839 20.351 9.6578 20.0135 9.6578 19.5972C9.6578 19.181 9.31839 18.8435 8.8997 18.8435C8.48102 18.8435 8.1416 19.181 8.1416 19.5972C8.1416 20.0135 8.48102 20.351 8.8997 20.351Z" fill="#131F37"/>
<path d="M8.9357 22.715C9.41148 22.715 9.79717 22.3315 9.79717 21.8585C9.79717 21.3854 9.41148 21.002 8.9357 21.002C8.45992 21.002 8.07422 21.3854 8.07422 21.8585C8.07422 22.3315 8.45992 22.715 8.9357 22.715Z" fill="#131F37"/>
<path d="M12.4488 23.1604C13.0197 23.1604 13.4826 22.7002 13.4826 22.1326C13.4826 21.5649 13.0197 21.1047 12.4488 21.1047C11.8779 21.1047 11.415 21.5649 11.415 22.1326C11.415 22.7002 11.8779 23.1604 12.4488 23.1604Z" fill="#131F37"/>
<path d="M16.5508 22.7149C17.2169 22.7149 17.7569 22.1781 17.7569 21.5158C17.7569 20.8535 17.2169 20.3167 16.5508 20.3167C15.8847 20.3167 15.3447 20.8535 15.3447 21.5158C15.3447 22.1781 15.8847 22.7149 16.5508 22.7149Z" fill="#131F37"/>
<path d="M18.9672 25.6957C19.7285 25.6957 20.3456 25.0821 20.3456 24.3253C20.3456 23.5684 19.7285 22.9548 18.9672 22.9548C18.206 22.9548 17.5889 23.5684 17.5889 24.3253C17.5889 25.0821 18.206 25.6957 18.9672 25.6957Z" fill="#131F37"/>
<path d="M13.9014 26.1068C14.5675 26.1068 15.1074 25.5699 15.1074 24.9076C15.1074 24.2454 14.5675 23.7085 13.9014 23.7085C13.2353 23.7085 12.6953 24.2454 12.6953 24.9076C12.6953 25.5699 13.2353 26.1068 13.9014 26.1068Z" fill="#131F37"/>
<path d="M11.042 28.4366C11.7081 28.4366 12.2481 27.8997 12.2481 27.2375C12.2481 26.5752 11.7081 26.0383 11.042 26.0383C10.3759 26.0383 9.83594 26.5752 9.83594 27.2375C9.83594 27.8997 10.3759 28.4366 11.042 28.4366Z" fill="#131F37"/>
<path d="M13.4174 31.4516C14.1787 31.4516 14.7958 30.838 14.7958 30.0811C14.7958 29.3243 14.1787 28.7107 13.4174 28.7107C12.6562 28.7107 12.0391 29.3243 12.0391 30.0811C12.0391 30.838 12.6562 31.4516 13.4174 31.4516Z" fill="#131F37"/>
<path d="M19.7534 32.0001C20.6478 32.0001 21.3729 31.2791 21.3729 30.3898C21.3729 29.5005 20.6478 28.7795 19.7534 28.7795C18.8589 28.7795 18.1338 29.5005 18.1338 30.3898C18.1338 31.2791 18.8589 32.0001 19.7534 32.0001Z" fill="#131F37"/>
<path d="M16.2768 29.1217C17.038 29.1217 17.6552 28.5082 17.6552 27.7513C17.6552 26.9944 17.038 26.3809 16.2768 26.3809C15.5156 26.3809 14.8984 26.9944 14.8984 27.7513C14.8984 28.5082 15.5156 29.1217 16.2768 29.1217Z" fill="#131F37"/>
<path d="M22.4106 28.5736C23.3051 28.5736 24.0302 27.8526 24.0302 26.9633C24.0302 26.074 23.3051 25.353 22.4106 25.353C21.5161 25.353 20.791 26.074 20.791 26.9633C20.791 27.8526 21.5161 28.5736 22.4106 28.5736Z" fill="#131F37"/>
<path d="M9.58944 25.4905C10.1604 25.4905 10.6232 25.0303 10.6232 24.4626C10.6232 23.895 10.1604 23.4348 9.58944 23.4348C9.0185 23.4348 8.55566 23.895 8.55566 24.4626C8.55566 25.0303 9.0185 25.4905 9.58944 25.4905Z" fill="#131F37"/>
</svg>
