<svg width="215" height="43" viewBox="0 0 215 43" fill="none" xmlns="http://www.w3.org/2000/svg">
<path d="M61 4.84229H62V38.0637H61V4.84229Z" fill="#485776"/>
<path d="M32.1184 5.50925C33.5235 5.50925 34.6625 4.37675 34.6625 2.97972C34.6625 1.5827 33.5235 0.450195 32.1184 0.450195C30.7133 0.450195 29.5742 1.5827 29.5742 2.97972C29.5742 4.37675 30.7133 5.50925 32.1184 5.50925Z" fill="#131F37"/>
<path d="M34.9816 41.2388C36.3867 41.2388 37.5258 40.1062 37.5258 38.7092C37.5258 37.3122 36.3867 36.1797 34.9816 36.1797C33.5766 36.1797 32.4375 37.3122 32.4375 38.7092C32.4375 40.1062 33.5766 41.2388 34.9816 41.2388Z" fill="#131F37"/>
<path d="M32.8462 11.8329C34.0255 11.8329 34.9815 10.8824 34.9815 9.70991C34.9815 8.53741 34.0255 7.58691 32.8462 7.58691C31.6669 7.58691 30.7109 8.53741 30.7109 9.70991C30.7109 10.8824 31.6669 11.8329 32.8462 11.8329Z" fill="#131F37"/>
<path d="M38.5259 12.6461C39.7052 12.6461 40.6612 11.6957 40.6612 10.5231C40.6612 9.35065 39.7052 8.40015 38.5259 8.40015C37.3466 8.40015 36.3906 9.35065 36.3906 10.5231C36.3906 11.6957 37.3466 12.6461 38.5259 12.6461Z" fill="#131F37"/>
<path d="M32.1219 17.2084C33.1256 17.2084 33.9392 16.3994 33.9392 15.4015C33.9392 14.4037 33.1256 13.5947 32.1219 13.5947C31.1183 13.5947 30.3047 14.4037 30.3047 15.4015C30.3047 16.3994 31.1183 17.2084 32.1219 17.2084Z" fill="#131F37"/>
<path d="M37.7977 17.9762C38.8014 17.9762 39.615 17.1672 39.615 16.1694C39.615 15.1715 38.8014 14.3625 37.7977 14.3625C36.7941 14.3625 35.9805 15.1715 35.9805 16.1694C35.9805 17.1672 36.7941 17.9762 37.7977 17.9762Z" fill="#131F37"/>
<path d="M42.3446 19.7379C43.3482 19.7379 44.1618 18.9289 44.1618 17.9311C44.1618 16.9332 43.3482 16.1243 42.3446 16.1243C41.341 16.1243 40.5273 16.9332 40.5273 17.9311C40.5273 18.9289 41.341 19.7379 42.3446 19.7379Z" fill="#131F37"/>
<path d="M36.1213 22.3126C36.9995 22.3126 37.7114 21.6047 37.7114 20.7316C37.7114 19.8585 36.9995 19.1506 36.1213 19.1506C35.2432 19.1506 34.5312 19.8585 34.5312 20.7316C34.5312 21.6047 35.2432 22.3126 36.1213 22.3126Z" fill="#131F37"/>
<path d="M30.4377 21.5447C31.3159 21.5447 32.0278 20.8369 32.0278 19.9638C32.0278 19.0906 31.3159 18.3828 30.4377 18.3828C29.5596 18.3828 28.8477 19.0906 28.8477 19.9638C28.8477 20.8369 29.5596 21.5447 30.4377 21.5447Z" fill="#131F37"/>
<path d="M40.7073 24.074C41.5855 24.074 42.2974 23.3662 42.2974 22.4931C42.2974 21.6199 41.5855 20.9121 40.7073 20.9121C39.8291 20.9121 39.1172 21.6199 39.1172 22.4931C39.1172 23.3662 39.8291 24.074 40.7073 24.074Z" fill="#131F37"/>
<path d="M33.8473 25.6099C34.6 25.6099 35.2103 25.0032 35.2103 24.2548C35.2103 23.5064 34.6 22.8997 33.8473 22.8997C33.0946 22.8997 32.4844 23.5064 32.4844 24.2548C32.4844 25.0032 33.0946 25.6099 33.8473 25.6099Z" fill="#131F37"/>
<path d="M38.4372 27.3267C39.1899 27.3267 39.8001 26.72 39.8001 25.9716C39.8001 25.2232 39.1899 24.6165 38.4372 24.6165C37.6844 24.6165 37.0742 25.2232 37.0742 25.9716C37.0742 26.72 37.6844 27.3267 38.4372 27.3267Z" fill="#131F37"/>
<path d="M28.2145 24.7969C28.9672 24.7969 29.5774 24.1902 29.5774 23.4418C29.5774 22.6934 28.9672 22.0867 28.2145 22.0867C27.4618 22.0867 26.8516 22.6934 26.8516 23.4418C26.8516 24.1902 27.4618 24.7969 28.2145 24.7969Z" fill="#131F37"/>
<path d="M31.3467 27.8232C31.974 27.8232 32.4825 27.3176 32.4825 26.694C32.4825 26.0703 31.974 25.5647 31.3467 25.5647C30.7194 25.5647 30.2109 26.0703 30.2109 26.694C30.2109 27.3176 30.7194 27.8232 31.3467 27.8232Z" fill="#131F37"/>
<path d="M33.3003 30.9401C33.8523 30.9401 34.2998 30.4952 34.2998 29.9464C34.2998 29.3975 33.8523 28.9526 33.3003 28.9526C32.7483 28.9526 32.3008 29.3975 32.3008 29.9464C32.3008 30.4952 32.7483 30.9401 33.3003 30.9401Z" fill="#131F37"/>
<path d="M30.892 31.5724C31.3436 31.5724 31.7097 31.2084 31.7097 30.7594C31.7097 30.3103 31.3436 29.9463 30.892 29.9463C30.4403 29.9463 30.0742 30.3103 30.0742 30.7594C30.0742 31.2084 30.4403 31.5724 30.892 31.5724Z" fill="#131F37"/>
<path d="M28.7573 29.2236C29.3093 29.2236 29.7568 28.7787 29.7568 28.2298C29.7568 27.681 29.3093 27.2361 28.7573 27.2361C28.2053 27.2361 27.7578 27.681 27.7578 28.2298C27.7578 28.7787 28.2053 29.2236 28.7573 29.2236Z" fill="#131F37"/>
<path d="M25.667 27.0554C26.2943 27.0554 26.8028 26.5498 26.8028 25.9261C26.8028 25.3025 26.2943 24.7969 25.667 24.7969C25.0398 24.7969 24.5312 25.3025 24.5312 25.9261C24.5312 26.5498 25.0398 27.0554 25.667 27.0554Z" fill="#131F37"/>
<path d="M25.6202 18.5634C26.2474 18.5634 26.7559 18.0579 26.7559 17.4342C26.7559 16.8105 26.2474 16.3049 25.6202 16.3049C24.9929 16.3049 24.4844 16.8105 24.4844 17.4342C24.4844 18.0579 24.9929 18.5634 25.6202 18.5634Z" fill="#131F37"/>
<path d="M26.1245 14.5886C26.6765 14.5886 27.124 14.1436 27.124 13.5948C27.124 13.046 26.6765 12.6011 26.1245 12.6011C25.5725 12.6011 25.125 13.046 25.125 13.5948C25.125 14.1436 25.5725 14.5886 26.1245 14.5886Z" fill="#131F37"/>
<path d="M27.2123 11.3363C27.6639 11.3363 28.03 10.9723 28.03 10.5233C28.03 10.0742 27.6639 9.71021 27.2123 9.71021C26.7607 9.71021 26.3945 10.0742 26.3945 10.5233C26.3945 10.9723 26.7607 11.3363 27.2123 11.3363Z" fill="#131F37"/>
<path d="M25.3081 9.80049C25.8601 9.80049 26.3076 9.35557 26.3076 8.80674C26.3076 8.2579 25.8601 7.81299 25.3081 7.81299C24.7561 7.81299 24.3086 8.2579 24.3086 8.80674C24.3086 9.35557 24.7561 9.80049 25.3081 9.80049Z" fill="#131F37"/>
<path d="M35.8897 29.5398C36.517 29.5398 37.0255 29.0342 37.0255 28.4105C37.0255 27.7868 36.517 27.2812 35.8897 27.2812C35.2624 27.2812 34.7539 27.7868 34.7539 28.4105C34.7539 29.0342 35.2624 29.5398 35.8897 29.5398Z" fill="#131F37"/>
<path d="M22.7139 8.49069C23.3412 8.49069 23.8497 7.98511 23.8497 7.36143C23.8497 6.73776 23.3412 6.23218 22.7139 6.23218C22.0866 6.23218 21.5781 6.73776 21.5781 7.36143C21.5781 7.98511 22.0866 8.49069 22.7139 8.49069Z" fill="#131F37"/>
<path d="M23.4873 13.2785C24.1146 13.2785 24.6231 12.7729 24.6231 12.1493C24.6231 11.5256 24.1146 11.02 23.4873 11.02C22.8601 11.02 22.3516 11.5256 22.3516 12.1493C22.3516 12.7729 22.8601 13.2785 23.4873 13.2785Z" fill="#131F37"/>
<path d="M22.2145 17.8406C22.9672 17.8406 23.5774 17.2339 23.5774 16.4855C23.5774 15.7371 22.9672 15.1304 22.2145 15.1304C21.4618 15.1304 20.8516 15.7371 20.8516 16.4855C20.8516 17.2339 21.4618 17.8406 22.2145 17.8406Z" fill="#131F37"/>
<path d="M18.0823 17.8409C18.9605 17.8409 19.6724 17.133 19.6724 16.2599C19.6724 15.3868 18.9605 14.679 18.0823 14.679C17.2041 14.679 16.4922 15.3868 16.4922 16.2599C16.4922 17.133 17.2041 17.8409 18.0823 17.8409Z" fill="#131F37"/>
<path d="M13.2665 18.9249C14.2701 18.9249 15.0837 18.116 15.0837 17.1181C15.0837 16.1202 14.2701 15.3113 13.2665 15.3113C12.2628 15.3113 11.4492 16.1202 11.4492 17.1181C11.4492 18.116 12.2628 18.9249 13.2665 18.9249Z" fill="#131F37"/>
<path d="M7.99465 21.4994C9.17392 21.4994 10.1299 20.5489 10.1299 19.3764C10.1299 18.2039 9.17392 17.2534 7.99465 17.2534C6.81537 17.2534 5.85938 18.2039 5.85938 19.3764C5.85938 20.5489 6.81537 21.4994 7.99465 21.4994Z" fill="#131F37"/>
<path d="M2.54415 25.8359C3.94925 25.8359 5.08831 24.7034 5.08831 23.3064C5.08831 21.9094 3.94925 20.7769 2.54415 20.7769C1.13906 20.7769 0 21.9094 0 23.3064C0 24.7034 1.13906 25.8359 2.54415 25.8359Z" fill="#131F37"/>
<path d="M5.85792 16.2147C7.0372 16.2147 7.99319 15.2642 7.99319 14.0917C7.99319 12.9192 7.0372 11.9688 5.85792 11.9688C4.67865 11.9688 3.72266 12.9192 3.72266 14.0917C3.72266 15.2642 4.67865 16.2147 5.85792 16.2147Z" fill="#131F37"/>
<path d="M11.1298 13.6397C12.1334 13.6397 12.947 12.8308 12.947 11.8329C12.947 10.8351 12.1334 10.0261 11.1298 10.0261C10.1261 10.0261 9.3125 10.8351 9.3125 11.8329C9.3125 12.8308 10.1261 13.6397 11.1298 13.6397Z" fill="#131F37"/>
<path d="M10.3602 8.85166C11.3639 8.85166 12.1775 8.04272 12.1775 7.04485C12.1775 6.04697 11.3639 5.23804 10.3602 5.23804C9.35658 5.23804 8.54297 6.04697 8.54297 7.04485C8.54297 8.04272 9.35658 8.85166 10.3602 8.85166Z" fill="#131F37"/>
<path d="M15.176 7.76787C16.0542 7.76787 16.7661 7.06005 16.7661 6.18691C16.7661 5.31378 16.0542 4.60596 15.176 4.60596C14.2978 4.60596 13.5859 5.31378 13.5859 6.18691C13.5859 7.06005 14.2978 7.76787 15.176 7.76787Z" fill="#131F37"/>
<path d="M19.3083 7.76782C20.061 7.76782 20.6712 7.16112 20.6712 6.41272C20.6712 5.66432 20.061 5.05762 19.3083 5.05762C18.5555 5.05762 17.9453 5.66432 17.9453 6.41272C17.9453 7.16112 18.5555 7.76782 19.3083 7.76782Z" fill="#131F37"/>
<path d="M20.0817 12.5557C20.8344 12.5557 21.4446 11.949 21.4446 11.2006C21.4446 10.4522 20.8344 9.84546 20.0817 9.84546C19.329 9.84546 18.7188 10.4522 18.7188 11.2006C18.7188 11.949 19.329 12.5557 20.0817 12.5557Z" fill="#131F37"/>
<path d="M15.9456 12.6011C16.8238 12.6011 17.5357 11.8933 17.5357 11.0202C17.5357 10.147 16.8238 9.43921 15.9456 9.43921C15.0674 9.43921 14.3555 10.147 14.3555 11.0202C14.3555 11.8933 15.0674 12.6011 15.9456 12.6011Z" fill="#131F37"/>
<path d="M11.4467 24.6164C11.8983 24.6164 12.2644 24.2523 12.2644 23.8033C12.2644 23.3543 11.8983 22.9902 11.4467 22.9902C10.995 22.9902 10.6289 23.3543 10.6289 23.8033C10.6289 24.2523 10.995 24.6164 11.4467 24.6164Z" fill="#131F37"/>
<path d="M14.7221 24.2097C15.2741 24.2097 15.7216 23.7647 15.7216 23.2159C15.7216 22.6671 15.2741 22.2222 14.7221 22.2222C14.1701 22.2222 13.7227 22.6671 13.7227 23.2159C13.7227 23.7647 14.1701 24.2097 14.7221 24.2097Z" fill="#131F37"/>
<path d="M18.3116 22.8547C18.9388 22.8547 19.4473 22.3491 19.4473 21.7254C19.4473 21.1018 18.9388 20.5962 18.3116 20.5962C17.6843 20.5962 17.1758 21.1018 17.1758 21.7254C17.1758 22.3491 17.6843 22.8547 18.3116 22.8547Z" fill="#131F37"/>
<path d="M19.1715 26.4685C19.9243 26.4685 20.5345 25.8618 20.5345 25.1134C20.5345 24.365 19.9243 23.7583 19.1715 23.7583C18.4188 23.7583 17.8086 24.365 17.8086 25.1134C17.8086 25.8618 18.4188 26.4685 19.1715 26.4685Z" fill="#131F37"/>
<path d="M14.8116 27.3266C15.4388 27.3266 15.9473 26.821 15.9473 26.1974C15.9473 25.5737 15.4388 25.0681 14.8116 25.0681C14.1843 25.0681 13.6758 25.5737 13.6758 26.1974C13.6758 26.821 14.1843 27.3266 14.8116 27.3266Z" fill="#131F37"/>
<path d="M10.9487 27.2814C11.5007 27.2814 11.9482 26.8365 11.9482 26.2877C11.9482 25.7389 11.5007 25.2939 10.9487 25.2939C10.3967 25.2939 9.94922 25.7389 9.94922 26.2877C9.94922 26.8365 10.3967 27.2814 10.9487 27.2814Z" fill="#131F37"/>
<path d="M10.9952 30.3979C11.6224 30.3979 12.1309 29.8923 12.1309 29.2687C12.1309 28.645 11.6224 28.1394 10.9952 28.1394C10.3679 28.1394 9.85938 28.645 9.85938 29.2687C9.85938 29.8923 10.3679 30.3979 10.9952 30.3979Z" fill="#131F37"/>
<path d="M15.6247 30.9854C16.3774 30.9854 16.9876 30.3787 16.9876 29.6303C16.9876 28.8818 16.3774 28.2751 15.6247 28.2751C14.8719 28.2751 14.2617 28.8818 14.2617 29.6303C14.2617 30.3787 14.8719 30.9854 15.6247 30.9854Z" fill="#131F37"/>
<path d="M21.0315 30.398C21.9097 30.398 22.6216 29.6902 22.6216 28.817C22.6216 27.9439 21.9097 27.2361 21.0315 27.2361C20.1533 27.2361 19.4414 27.9439 19.4414 28.817C19.4414 29.6902 20.1533 30.398 21.0315 30.398Z" fill="#131F37"/>
<path d="M24.2157 34.3277C25.2193 34.3277 26.0329 33.5188 26.0329 32.5209C26.0329 31.523 25.2193 30.7141 24.2157 30.7141C23.212 30.7141 22.3984 31.523 22.3984 32.5209C22.3984 33.5188 23.212 34.3277 24.2157 34.3277Z" fill="#131F37"/>
<path d="M17.5354 34.8697C18.4136 34.8697 19.1255 34.1619 19.1255 33.2887C19.1255 32.4156 18.4136 31.7078 17.5354 31.7078C16.6572 31.7078 15.9453 32.4156 15.9453 33.2887C15.9453 34.1619 16.6572 34.8697 17.5354 34.8697Z" fill="#131F37"/>
<path d="M13.7659 37.9414C14.6441 37.9414 15.356 37.2336 15.356 36.3605C15.356 35.4874 14.6441 34.7795 13.7659 34.7795C12.8877 34.7795 12.1758 35.4874 12.1758 36.3605C12.1758 37.2336 12.8877 37.9414 13.7659 37.9414Z" fill="#131F37"/>
<path d="M16.8993 41.9166C17.9029 41.9166 18.7165 41.1077 18.7165 40.1098C18.7165 39.1119 17.9029 38.303 16.8993 38.303C15.8956 38.303 15.082 39.1119 15.082 40.1098C15.082 41.1077 15.8956 41.9166 16.8993 41.9166Z" fill="#131F37"/>
<path d="M25.2603 42.6393C26.4395 42.6393 27.3955 41.6888 27.3955 40.5163C27.3955 39.3438 26.4395 38.3933 25.2603 38.3933C24.081 38.3933 23.125 39.3438 23.125 40.5163C23.125 41.6888 24.081 42.6393 25.2603 42.6393Z" fill="#131F37"/>
<path d="M20.6727 38.8448C21.6764 38.8448 22.49 38.0359 22.49 37.038C22.49 36.0401 21.6764 35.2312 20.6727 35.2312C19.6691 35.2312 18.8555 36.0401 18.8555 37.038C18.8555 38.0359 19.6691 38.8448 20.6727 38.8448Z" fill="#131F37"/>
<path d="M28.7564 38.1222C29.9356 38.1222 30.8916 37.1717 30.8916 35.9992C30.8916 34.8267 29.9356 33.8762 28.7564 33.8762C27.5771 33.8762 26.6211 34.8267 26.6211 35.9992C26.6211 37.1717 27.5771 38.1222 28.7564 38.1222Z" fill="#131F37"/>
<path d="M11.8551 34.0569C12.6079 34.0569 13.2181 33.4502 13.2181 32.7018C13.2181 31.9534 12.6079 31.3467 11.8551 31.3467C11.1024 31.3467 10.4922 31.9534 10.4922 32.7018C10.4922 33.4502 11.1024 34.0569 11.8551 34.0569Z" fill="#131F37"/>
<path d="M80.056 17.8423H82.328V7.17028H80.056V17.8423ZM93.4066 17.8423H95.5986V7.17028H93.3266V14.0823L88.3826 7.17028H86.0466V17.8423H88.3186V10.6743L93.4066 17.8423ZM99.3029 17.8423H103.511C106.855 17.8423 109.175 15.7303 109.175 12.5143C109.175 9.29828 106.855 7.17028 103.511 7.17028H99.3029V17.8423ZM101.575 15.8423V9.17028H103.511C105.703 9.17028 106.855 10.6263 106.855 12.5143C106.855 14.3223 105.623 15.8423 103.511 15.8423H101.575ZM112.387 13.5863C112.387 16.2103 113.907 18.0343 117.171 18.0343C120.403 18.0343 121.923 16.2263 121.923 13.5703V7.17028H119.619V13.5063C119.619 14.9943 118.803 16.0183 117.171 16.0183C115.507 16.0183 114.691 14.9943 114.691 13.5063V7.17028H112.387V13.5863ZM124.892 16.3383C125.9 17.3463 127.372 18.0343 129.42 18.0343C132.3 18.0343 133.692 16.5623 133.692 14.6103C133.692 12.2423 131.452 11.7143 129.692 11.3143C128.46 11.0263 127.564 10.8023 127.564 10.0823C127.564 9.44228 128.108 8.99428 129.132 8.99428C130.172 8.99428 131.324 9.36228 132.188 10.1623L133.452 8.49828C132.396 7.52228 130.988 7.01028 129.292 7.01028C126.78 7.01028 125.244 8.45028 125.244 10.2263C125.244 12.6103 127.484 13.0903 129.228 13.4903C130.46 13.7783 131.388 14.0503 131.388 14.8503C131.388 15.4583 130.78 16.0503 129.532 16.0503C128.06 16.0503 126.892 15.3943 126.14 14.6103L124.892 16.3383ZM139.176 17.8423H141.464V9.17028H144.568V7.17028H136.056V9.17028H139.176V17.8423ZM153.657 17.8423H156.265L153.865 13.7783C155.017 13.5063 156.201 12.4983 156.201 10.6103C156.201 8.62628 154.841 7.17028 152.617 7.17028H147.625V17.8423H149.897V14.0183H151.561L153.657 17.8423ZM153.881 10.5943C153.881 11.4903 153.193 12.0663 152.281 12.0663H149.897V9.12228H152.281C153.193 9.12228 153.881 9.69829 153.881 10.5943ZM162.201 17.8423H164.473V13.4743L168.553 7.17028H165.961L163.337 11.4583L160.681 7.17028H158.089L162.201 13.4743V17.8423ZM89.336 35.8423H91.624V25.1703H88.424L85.832 31.8263L83.24 25.1703H80.056V35.8423H82.328V28.1623L85.336 35.8423H86.328L89.336 28.1623V35.8423ZM102.816 35.8423H105.296L101.184 25.1703H98.3355L94.2075 35.8423H96.7035L97.3755 34.0023H102.144L102.816 35.8423ZM99.7595 27.1383L101.52 32.0343H97.9835L99.7595 27.1383ZM113.913 35.8423H116.521L114.121 31.7783C115.273 31.5063 116.457 30.4983 116.457 28.6103C116.457 26.6263 115.097 25.1703 112.873 25.1703H107.881V35.8423H110.153V32.0183H111.817L113.913 35.8423ZM114.137 28.5943C114.137 29.4903 113.449 30.0663 112.537 30.0663H110.153V27.1223H112.537C113.449 27.1223 114.137 27.6983 114.137 28.5943ZM126.098 35.8423H128.898L124.37 30.1783L128.61 25.1703H125.81L122.034 29.9383V25.1703H119.762V35.8423H122.034V32.5623L122.866 31.5703L126.098 35.8423ZM131.534 35.8423H139.086V33.8743H133.806V31.3943H138.974V29.4423H133.806V27.1223H139.086V25.1703H131.534V35.8423ZM144.926 35.8423H147.214V27.1703H150.318V25.1703H141.806V27.1703H144.926V35.8423ZM153.375 35.8423H155.647V32.0183H158.367C160.671 32.0183 161.951 30.4663 161.951 28.6103C161.951 26.7383 160.687 25.1703 158.367 25.1703H153.375V35.8423ZM159.631 28.5943C159.631 29.4903 158.959 30.0663 158.063 30.0663H155.647V27.1223H158.063C158.959 27.1223 159.631 27.7143 159.631 28.5943ZM164.959 35.8423H171.743V33.8423H167.231V25.1703H164.959V35.8423ZM182.406 35.8423H184.886L180.774 25.1703H177.926L173.798 35.8423H176.294L176.966 34.0023H181.734L182.406 35.8423ZM179.35 27.1383L181.11 32.0343H177.574L179.35 27.1383ZM192.013 36.0343C194.445 36.0343 195.789 34.7383 196.557 33.4103L194.605 32.4663C194.157 33.3463 193.197 34.0183 192.013 34.0183C190.157 34.0183 188.749 32.5303 188.749 30.5143C188.749 28.4983 190.157 27.0103 192.013 27.0103C193.197 27.0103 194.157 27.6983 194.605 28.5623L196.557 27.6023C195.805 26.2743 194.445 24.9943 192.013 24.9943C188.893 24.9943 186.413 27.2343 186.413 30.5143C186.413 33.7943 188.893 36.0343 192.013 36.0343ZM199.509 35.8423H207.061V33.8743H201.781V31.3943H206.949V29.4423H201.781V27.1223H207.061V25.1703H199.509V35.8423Z" fill="#485776"/>
</svg>
