<svg width="222" height="40" viewBox="0 0 222 40" fill="none" xmlns="http://www.w3.org/2000/svg">
<path d="M65.4303 28.6818V15.1818H66.8877V16.7415H67.0667C67.1774 16.571 67.3309 16.3537 67.5269 16.0895C67.7272 15.821 68.0127 15.5824 68.3834 15.3736C68.7584 15.1605 69.2655 15.054 69.9047 15.054C70.7314 15.054 71.4601 15.2607 72.0908 15.674C72.7215 16.0874 73.2137 16.6733 73.5674 17.4318C73.9211 18.1903 74.0979 19.0852 74.0979 20.1165C74.0979 21.1562 73.9211 22.0575 73.5674 22.8203C73.2137 23.5788 72.7236 24.1669 72.0972 24.5845C71.4708 24.9979 70.7485 25.2045 69.9303 25.2045C69.2996 25.2045 68.7946 25.1001 68.4154 24.8913C68.0361 24.6783 67.7442 24.4375 67.5397 24.169C67.3351 23.8963 67.1774 23.6705 67.0667 23.4915H66.9388V28.6818H65.4303ZM66.9132 20.0909C66.9132 21.2031 67.154 22.1087 67.6355 22.8075C68.1213 23.5021 68.8181 23.8494 69.7257 23.8494C70.3564 23.8494 70.8827 23.6832 71.3046 23.3509C71.7307 23.0142 72.0503 22.5625 72.2634 21.9957C72.4807 21.4247 72.5894 20.7898 72.5894 20.0909C72.5894 19.4006 72.4828 18.7784 72.2698 18.2244C72.061 17.6662 71.7435 17.2251 71.3174 16.9013C70.8955 16.5732 70.3649 16.4091 69.7257 16.4091C68.8053 16.4091 68.1064 16.7479 67.6292 17.4254C67.1519 18.103 66.9132 18.9915 66.9132 20.0909ZM81.2877 25.2045C80.4013 25.2045 79.6236 24.9936 78.9546 24.5717C78.2898 24.1499 77.7699 23.5597 77.3949 22.8011C77.0242 22.0426 76.8388 21.1562 76.8388 20.142C76.8388 19.1193 77.0242 18.2266 77.3949 17.4638C77.7699 16.701 78.2898 16.1087 78.9546 15.6868C79.6236 15.2649 80.4013 15.054 81.2877 15.054C82.174 15.054 82.9496 15.2649 83.6144 15.6868C84.2834 16.1087 84.8033 16.701 85.174 17.4638C85.549 18.2266 85.7365 19.1193 85.7365 20.142C85.7365 21.1562 85.549 22.0426 85.174 22.8011C84.8033 23.5597 84.2834 24.1499 83.6144 24.5717C82.9496 24.9936 82.174 25.2045 81.2877 25.2045ZM81.2877 23.8494C81.961 23.8494 82.5149 23.6768 82.9496 23.3317C83.3843 22.9865 83.706 22.5327 83.9148 21.9702C84.1236 21.4077 84.228 20.7983 84.228 20.142C84.228 19.4858 84.1236 18.8743 83.9148 18.3075C83.706 17.7408 83.3843 17.2827 82.9496 16.9332C82.5149 16.5838 81.961 16.4091 81.2877 16.4091C80.6144 16.4091 80.0604 16.5838 79.6257 16.9332C79.1911 17.2827 78.8694 17.7408 78.6605 18.3075C78.4517 18.8743 78.3473 19.4858 78.3473 20.142C78.3473 20.7983 78.4517 21.4077 78.6605 21.9702C78.8694 22.5327 79.1911 22.9865 79.6257 23.3317C80.0604 23.6768 80.6144 23.8494 81.2877 23.8494ZM90.8297 25L87.8382 15.1818H89.4235L91.5456 22.6989H91.6479L93.7445 15.1818H95.3553L97.4263 22.6733H97.5286L99.6507 15.1818H101.236L98.2445 25H96.7615L94.6138 17.4574H94.4604L92.3127 25H90.8297ZM107.913 25.2045C106.967 25.2045 106.151 24.9957 105.465 24.5781C104.783 24.1562 104.257 23.5682 103.886 22.8139C103.519 22.0554 103.336 21.1733 103.336 20.1676C103.336 19.1619 103.519 18.2756 103.886 17.5085C104.257 16.7372 104.772 16.1364 105.433 15.706C106.097 15.2713 106.873 15.054 107.759 15.054C108.271 15.054 108.776 15.1392 109.274 15.3097C109.773 15.4801 110.227 15.7571 110.636 16.1406C111.045 16.5199 111.371 17.0227 111.614 17.6491C111.857 18.2756 111.978 19.0469 111.978 19.9631V20.6023H104.851C104.885 21.6506 105.181 22.4538 105.739 23.0121C106.302 23.5703 107.026 23.8494 107.913 23.8494C108.505 23.8494 109.014 23.7216 109.44 23.4659C109.867 23.2102 110.176 22.8267 110.367 22.3153L111.825 22.7244C111.595 23.4659 111.134 24.0646 110.444 24.5206C109.754 24.9766 108.91 25.2045 107.913 25.2045ZM104.851 19.2983H110.444C110.444 18.4673 110.201 17.7791 109.715 17.2337C109.23 16.6839 108.578 16.4091 107.759 16.4091C107.184 16.4091 106.686 16.5433 106.264 16.8118C105.842 17.0803 105.509 17.4361 105.266 17.8793C105.024 18.3182 104.885 18.7912 104.851 19.2983ZM115.173 25V15.1818H116.63V16.6648H116.733C116.912 16.179 117.235 15.7848 117.704 15.4822C118.173 15.1797 118.701 15.0284 119.289 15.0284C119.4 15.0284 119.539 15.0305 119.705 15.0348C119.871 15.0391 119.997 15.0455 120.082 15.054V16.5881C120.031 16.5753 119.914 16.5561 119.73 16.5305C119.551 16.5007 119.362 16.4858 119.162 16.4858C118.446 16.4858 117.853 16.7031 117.385 17.1378C116.916 17.5724 116.681 18.1222 116.681 18.7869V25H115.173ZM126.588 25.2045C125.642 25.2045 124.826 24.9957 124.14 24.5781C123.458 24.1562 122.932 23.5682 122.561 22.8139C122.194 22.0554 122.011 21.1733 122.011 20.1676C122.011 19.1619 122.194 18.2756 122.561 17.5085C122.932 16.7372 123.447 16.1364 124.108 15.706C124.772 15.2713 125.548 15.054 126.434 15.054C126.946 15.054 127.451 15.1392 127.949 15.3097C128.448 15.4801 128.902 15.7571 129.311 16.1406C129.72 16.5199 130.046 17.0227 130.289 17.6491C130.532 18.2756 130.653 19.0469 130.653 19.9631V20.6023H123.526C123.56 21.6506 123.856 22.4538 124.414 23.0121C124.977 23.5703 125.701 23.8494 126.588 23.8494C127.18 23.8494 127.689 23.7216 128.115 23.4659C128.542 23.2102 128.851 22.8267 129.042 22.3153L130.5 22.7244C130.27 23.4659 129.809 24.0646 129.119 24.5206C128.429 24.9766 127.585 25.2045 126.588 25.2045ZM123.526 19.2983H129.119C129.119 18.4673 128.876 17.7791 128.39 17.2337C127.905 16.6839 127.253 16.4091 126.434 16.4091C125.859 16.4091 125.361 16.5433 124.939 16.8118C124.517 17.0803 124.184 17.4361 123.941 17.8793C123.699 18.3182 123.56 18.7912 123.526 19.2983ZM137.555 25.2045C136.737 25.2045 136.015 24.9979 135.388 24.5845C134.762 24.1669 134.272 23.5788 133.918 22.8203C133.564 22.0575 133.388 21.1562 133.388 20.1165C133.388 19.0852 133.564 18.1903 133.918 17.4318C134.272 16.6733 134.764 16.0874 135.395 15.674C136.025 15.2607 136.754 15.054 137.581 15.054C138.22 15.054 138.725 15.1605 139.096 15.3736C139.471 15.5824 139.756 15.821 139.952 16.0895C140.153 16.3537 140.308 16.571 140.419 16.7415H140.547V11.9091H142.055V25H140.598V23.4915H140.419C140.308 23.6705 140.15 23.8963 139.946 24.169C139.741 24.4375 139.449 24.6783 139.07 24.8913C138.691 25.1001 138.186 25.2045 137.555 25.2045ZM137.76 23.8494C138.667 23.8494 139.362 23.5021 139.844 22.8075C140.329 22.1087 140.572 21.2031 140.572 20.0909C140.572 18.9915 140.334 18.103 139.856 17.4254C139.379 16.7479 138.68 16.4091 137.76 16.4091C137.121 16.4091 136.588 16.5732 136.162 16.9013C135.74 17.2251 135.422 17.6662 135.209 18.2244C135.001 18.7784 134.896 19.4006 134.896 20.0909C134.896 20.7898 135.003 21.4247 135.216 21.9957C135.433 22.5625 135.753 23.0142 136.175 23.3509C136.601 23.6832 137.129 23.8494 137.76 23.8494ZM152.095 25V11.9091H153.603V16.7415H153.731C153.842 16.571 153.995 16.3537 154.191 16.0895C154.391 15.821 154.677 15.5824 155.048 15.3736C155.423 15.1605 155.93 15.054 156.569 15.054C157.396 15.054 158.124 15.2607 158.755 15.674C159.386 16.0874 159.878 16.6733 160.232 17.4318C160.585 18.1903 160.762 19.0852 160.762 20.1165C160.762 21.1562 160.585 22.0575 160.232 22.8203C159.878 23.5788 159.388 24.1669 158.761 24.5845C158.135 24.9979 157.413 25.2045 156.595 25.2045C155.964 25.2045 155.459 25.1001 155.08 24.8913C154.7 24.6783 154.409 24.4375 154.204 24.169C153.999 23.8963 153.842 23.6705 153.731 23.4915H153.552V25H152.095ZM153.578 20.0909C153.578 21.2031 153.818 22.1087 154.3 22.8075C154.786 23.5021 155.482 23.8494 156.39 23.8494C157.021 23.8494 157.547 23.6832 157.969 23.3509C158.395 23.0142 158.715 22.5625 158.928 21.9957C159.145 21.4247 159.254 20.7898 159.254 20.0909C159.254 19.4006 159.147 18.7784 158.934 18.2244C158.725 17.6662 158.408 17.2251 157.982 16.9013C157.56 16.5732 157.029 16.4091 156.39 16.4091C155.47 16.4091 154.771 16.7479 154.293 17.4254C153.816 18.103 153.578 18.9915 153.578 20.0909ZM164.59 28.6562C164.334 28.6562 164.106 28.6349 163.906 28.5923C163.706 28.554 163.567 28.5156 163.49 28.4773L163.874 27.1477C164.424 27.2884 164.882 27.2841 165.248 27.1349C165.615 26.9901 165.932 26.5511 166.201 25.8182L166.482 25.0511L162.851 15.1818H164.487L167.198 23.0057H167.3L170.01 15.1818L171.659 15.2074L167.479 26.4318C166.925 27.9148 165.962 28.6562 164.59 28.6562ZM182.308 11.9091V25H180.722V11.9091H182.308ZM197.431 18.4545C197.431 19.8352 197.182 21.0284 196.684 22.0341C196.185 23.0398 195.501 23.8153 194.632 24.3608C193.762 24.9062 192.77 25.179 191.653 25.179C190.537 25.179 189.544 24.9062 188.674 24.3608C187.805 23.8153 187.121 23.0398 186.623 22.0341C186.124 21.0284 185.875 19.8352 185.875 18.4545C185.875 17.0739 186.124 15.8807 186.623 14.875C187.121 13.8693 187.805 13.0938 188.674 12.5483C189.544 12.0028 190.537 11.7301 191.653 11.7301C192.77 11.7301 193.762 12.0028 194.632 12.5483C195.501 13.0938 196.185 13.8693 196.684 14.875C197.182 15.8807 197.431 17.0739 197.431 18.4545ZM195.897 18.4545C195.897 17.321 195.708 16.3643 195.328 15.5845C194.953 14.8047 194.444 14.2145 193.801 13.8139C193.162 13.4134 192.446 13.2131 191.653 13.2131C190.86 13.2131 190.142 13.4134 189.499 13.8139C188.86 14.2145 188.35 14.8047 187.971 15.5845C187.596 16.3643 187.409 17.321 187.409 18.4545C187.409 19.5881 187.596 20.5447 187.971 21.3246C188.35 22.1044 188.86 22.6946 189.499 23.0952C190.142 23.4957 190.86 23.696 191.653 23.696C192.446 23.696 193.162 23.4957 193.801 23.0952C194.444 22.6946 194.953 22.1044 195.328 21.3246C195.708 20.5447 195.897 19.5881 195.897 18.4545ZM199.736 13.3153V11.9091H209.554V13.3153H205.438V25H203.853V13.3153H199.736ZM211.908 25H210.247L215.053 11.9091H216.69L221.497 25H219.835L218.518 21.2926H213.225L211.908 25ZM213.724 19.8864H218.019L215.923 13.9801H215.82L213.724 19.8864Z" fill="#C3D0E4"/>
<path d="M31.1425 4.72472C32.5048 4.72472 33.6092 3.66705 33.6092 2.36236C33.6092 1.05766 32.5048 0 31.1425 0C29.7802 0 28.6758 1.05766 28.6758 2.36236C28.6758 3.66705 29.7802 4.72472 31.1425 4.72472Z" fill="#C3D0E4"/>
<path d="M33.9159 38.0929C35.2782 38.0929 36.3826 37.0352 36.3826 35.7305C36.3826 34.4258 35.2782 33.3682 33.9159 33.3682C32.5536 33.3682 31.4492 34.4258 31.4492 35.7305C31.4492 37.0352 32.5536 38.0929 33.9159 38.0929Z" fill="#C3D0E4"/>
<path d="M31.8476 10.6304C32.991 10.6304 33.9179 9.74275 33.9179 8.64773C33.9179 7.55272 32.991 6.66504 31.8476 6.66504C30.7042 6.66504 29.7773 7.55272 29.7773 8.64773C29.7773 9.74275 30.7042 10.6304 31.8476 10.6304Z" fill="#C3D0E4"/>
<path d="M37.3515 11.3902C38.4949 11.3902 39.4218 10.5025 39.4218 9.4075C39.4218 8.31249 38.4949 7.4248 37.3515 7.4248C36.2081 7.4248 35.2812 8.31249 35.2812 9.4075C35.2812 10.5025 36.2081 11.3902 37.3515 11.3902Z" fill="#C3D0E4"/>
<path d="M31.1408 15.6502C32.1139 15.6502 32.9028 14.8947 32.9028 13.9628C32.9028 13.0309 32.1139 12.2754 31.1408 12.2754C30.1677 12.2754 29.3789 13.0309 29.3789 13.9628C29.3789 14.8947 30.1677 15.6502 31.1408 15.6502Z" fill="#C3D0E4"/>
<path d="M36.6486 16.368C37.6217 16.368 38.4106 15.6125 38.4106 14.6806C38.4106 13.7486 37.6217 12.9932 36.6486 12.9932C35.6756 12.9932 34.8867 13.7486 34.8867 14.6806C34.8867 15.6125 35.6756 16.368 36.6486 16.368Z" fill="#C3D0E4"/>
<path d="M41.0549 18.0125C42.028 18.0125 42.8168 17.257 42.8168 16.3251C42.8168 15.3932 42.028 14.6377 41.0549 14.6377C40.0818 14.6377 39.293 15.3932 39.293 16.3251C39.293 17.257 40.0818 18.0125 41.0549 18.0125Z" fill="#C3D0E4"/>
<path d="M35.0182 20.4178C35.8697 20.4178 36.5599 19.7568 36.5599 18.9413C36.5599 18.1259 35.8697 17.4648 35.0182 17.4648C34.1668 17.4648 33.4766 18.1259 33.4766 18.9413C33.4766 19.7568 34.1668 20.4178 35.0182 20.4178Z" fill="#C3D0E4"/>
<path d="M29.5143 19.7C30.3658 19.7 31.056 19.039 31.056 18.2235C31.056 17.4081 30.3658 16.7471 29.5143 16.7471C28.6629 16.7471 27.9727 17.4081 27.9727 18.2235C27.9727 19.039 28.6629 19.7 29.5143 19.7Z" fill="#C3D0E4"/>
<path d="M39.4675 22.0623C40.3189 22.0623 41.0092 21.4013 41.0092 20.5859C41.0092 19.7704 40.3189 19.1094 39.4675 19.1094C38.616 19.1094 37.9258 19.7704 37.9258 20.5859C37.9258 21.4013 38.616 22.0623 39.4675 22.0623Z" fill="#C3D0E4"/>
<path d="M32.8175 23.4969C33.5474 23.4969 34.139 22.9303 34.139 22.2314C34.139 21.5324 33.5474 20.9658 32.8175 20.9658C32.0877 20.9658 31.4961 21.5324 31.4961 22.2314C31.4961 22.9303 32.0877 23.4969 32.8175 23.4969Z" fill="#C3D0E4"/>
<path d="M37.2668 25.1004C37.9966 25.1004 38.5882 24.5338 38.5882 23.8349C38.5882 23.1359 37.9966 22.5693 37.2668 22.5693C36.5369 22.5693 35.9453 23.1359 35.9453 23.8349C35.9453 24.5338 36.5369 25.1004 37.2668 25.1004Z" fill="#C3D0E4"/>
<path d="M27.3527 22.7381C28.0825 22.7381 28.6741 22.1715 28.6741 21.4726C28.6741 20.7736 28.0825 20.207 27.3527 20.207C26.6229 20.207 26.0312 20.7736 26.0312 21.4726C26.0312 22.1715 26.6229 22.7381 27.3527 22.7381Z" fill="#C3D0E4"/>
<path d="M30.3942 25.5643C31.0024 25.5643 31.4954 25.0922 31.4954 24.5097C31.4954 23.9273 31.0024 23.4551 30.3942 23.4551C29.786 23.4551 29.293 23.9273 29.293 24.5097C29.293 25.0922 29.786 25.5643 30.3942 25.5643Z" fill="#C3D0E4"/>
<path d="M32.2894 28.4753C32.8246 28.4753 33.2584 28.0598 33.2584 27.5472C33.2584 27.0346 32.8246 26.6191 32.2894 26.6191C31.7542 26.6191 31.3203 27.0346 31.3203 27.5472C31.3203 28.0598 31.7542 28.4753 32.2894 28.4753Z" fill="#C3D0E4"/>
<path d="M29.953 29.0655C30.3909 29.0655 30.7459 28.7256 30.7459 28.3062C30.7459 27.8868 30.3909 27.5469 29.953 27.5469C29.5151 27.5469 29.1602 27.8868 29.1602 28.3062C29.1602 28.7256 29.5151 29.0655 29.953 29.0655Z" fill="#C3D0E4"/>
<path d="M27.8831 26.8718C28.4183 26.8718 28.8522 26.4563 28.8522 25.9437C28.8522 25.4311 28.4183 25.0156 27.8831 25.0156C27.3479 25.0156 26.9141 25.4311 26.9141 25.9437C26.9141 26.4563 27.3479 26.8718 27.8831 26.8718Z" fill="#C3D0E4"/>
<path d="M24.8864 24.8466C25.4945 24.8466 25.9876 24.3744 25.9876 23.7919C25.9876 23.2095 25.4945 22.7373 24.8864 22.7373C24.2782 22.7373 23.7852 23.2095 23.7852 23.7919C23.7852 24.3744 24.2782 24.8466 24.8864 24.8466Z" fill="#C3D0E4"/>
<path d="M24.8434 16.9159C25.4516 16.9159 25.9446 16.4437 25.9446 15.8613C25.9446 15.2788 25.4516 14.8066 24.8434 14.8066C24.2352 14.8066 23.7422 15.2788 23.7422 15.8613C23.7422 16.4437 24.2352 16.9159 24.8434 16.9159Z" fill="#C3D0E4"/>
<path d="M25.3284 13.2038C25.8636 13.2038 26.2975 12.7883 26.2975 12.2757C26.2975 11.7632 25.8636 11.3477 25.3284 11.3477C24.7932 11.3477 24.3594 11.7632 24.3594 12.2757C24.3594 12.7883 24.7932 13.2038 25.3284 13.2038Z" fill="#C3D0E4"/>
<path d="M26.3866 10.1671C26.8245 10.1671 27.1795 9.82714 27.1795 9.40777C27.1795 8.9884 26.8245 8.64844 26.3866 8.64844C25.9487 8.64844 25.5938 8.9884 25.5938 9.40777C25.5938 9.82714 25.9487 10.1671 26.3866 10.1671Z" fill="#C3D0E4"/>
<path d="M24.5355 8.73211C25.0707 8.73211 25.5045 8.3166 25.5045 7.80405C25.5045 7.29149 25.0707 6.87598 24.5355 6.87598C24.0003 6.87598 23.5664 7.29149 23.5664 7.80405C23.5664 8.3166 24.0003 8.73211 24.5355 8.73211Z" fill="#C3D0E4"/>
<path d="M34.8004 27.1669C35.4086 27.1669 35.9016 26.6947 35.9016 26.1122C35.9016 25.5298 35.4086 25.0576 34.8004 25.0576C34.1922 25.0576 33.6992 25.5298 33.6992 26.1122C33.6992 26.6947 34.1922 27.1669 34.8004 27.1669Z" fill="#C3D0E4"/>
<path d="M22.0231 7.50867C22.6313 7.50867 23.1243 7.03649 23.1243 6.45404C23.1243 5.87159 22.6313 5.39941 22.0231 5.39941C21.4149 5.39941 20.9219 5.87159 20.9219 6.45404C20.9219 7.03649 21.4149 7.50867 22.0231 7.50867Z" fill="#C3D0E4"/>
<path d="M22.7731 11.9803C23.3813 11.9803 23.8743 11.5082 23.8743 10.9257C23.8743 10.3433 23.3813 9.87109 22.7731 9.87109C22.1649 9.87109 21.6719 10.3433 21.6719 10.9257C21.6719 11.5082 22.1649 11.9803 22.7731 11.9803Z" fill="#C3D0E4"/>
<path d="M21.5402 16.2411C22.27 16.2411 22.8616 15.6745 22.8616 14.9755C22.8616 14.2766 22.27 13.71 21.5402 13.71C20.8104 13.71 20.2188 14.2766 20.2188 14.9755C20.2188 15.6745 20.8104 16.2411 21.5402 16.2411Z" fill="#C3D0E4"/>
<path d="M17.53 16.241C18.3814 16.241 19.0717 15.58 19.0717 14.7646C19.0717 13.9491 18.3814 13.2881 17.53 13.2881C16.6785 13.2881 15.9883 13.9491 15.9883 14.7646C15.9883 15.58 16.6785 16.241 17.53 16.241Z" fill="#C3D0E4"/>
<path d="M12.8635 17.2537C13.8366 17.2537 14.6254 16.4982 14.6254 15.5663C14.6254 14.6344 13.8366 13.8789 12.8635 13.8789C11.8904 13.8789 11.1016 14.6344 11.1016 15.5663C11.1016 16.4982 11.8904 17.2537 12.8635 17.2537Z" fill="#C3D0E4"/>
<path d="M7.75386 19.6578C8.89724 19.6578 9.82413 18.7701 9.82413 17.6751C9.82413 16.5801 8.89724 15.6924 7.75386 15.6924C6.61049 15.6924 5.68359 16.5801 5.68359 17.6751C5.68359 18.7701 6.61049 19.6578 7.75386 19.6578Z" fill="#C3D0E4"/>
<path d="M2.4667 23.7081C3.82902 23.7081 4.9334 22.6505 4.9334 21.3458C4.9334 20.0411 3.82902 18.9834 2.4667 18.9834C1.10438 18.9834 0 20.0411 0 21.3458C0 22.6505 1.10438 23.7081 2.4667 23.7081Z" fill="#C3D0E4"/>
<path d="M5.68355 14.7222C6.82692 14.7222 7.75381 13.8345 7.75381 12.7395C7.75381 11.6445 6.82692 10.7568 5.68355 10.7568C4.54017 10.7568 3.61328 11.6445 3.61328 12.7395C3.61328 13.8345 4.54017 14.7222 5.68355 14.7222Z" fill="#C3D0E4"/>
<path d="M10.7932 12.3182C11.7663 12.3182 12.5551 11.5627 12.5551 10.6308C12.5551 9.69883 11.7663 8.94336 10.7932 8.94336C9.82009 8.94336 9.03125 9.69883 9.03125 10.6308C9.03125 11.5627 9.82009 12.3182 10.7932 12.3182Z" fill="#C3D0E4"/>
<path d="M10.0432 7.84648C11.0163 7.84648 11.8051 7.09101 11.8051 6.15908C11.8051 5.22715 11.0163 4.47168 10.0432 4.47168C9.07009 4.47168 8.28125 5.22715 8.28125 6.15908C8.28125 7.09101 9.07009 7.84648 10.0432 7.84648Z" fill="#C3D0E4"/>
<path d="M14.7136 6.83381C15.565 6.83381 16.2553 6.17277 16.2553 5.35733C16.2553 4.5419 15.565 3.88086 14.7136 3.88086C13.8621 3.88086 13.1719 4.5419 13.1719 5.35733C13.1719 6.17277 13.8621 6.83381 14.7136 6.83381Z" fill="#C3D0E4"/>
<path d="M18.7199 6.83383C19.4497 6.83383 20.0413 6.26723 20.0413 5.56828C20.0413 4.86934 19.4497 4.30273 18.7199 4.30273C17.9901 4.30273 17.3984 4.86934 17.3984 5.56828C17.3984 6.26723 17.9901 6.83383 18.7199 6.83383Z" fill="#C3D0E4"/>
<path d="M19.4699 11.3055C20.1997 11.3055 20.7913 10.7389 20.7913 10.04C20.7913 9.34102 20.1997 8.77441 19.4699 8.77441C18.7401 8.77441 18.1484 9.34102 18.1484 10.04C18.1484 10.7389 18.7401 11.3055 19.4699 11.3055Z" fill="#C3D0E4"/>
<path d="M15.4597 11.3475C16.3111 11.3475 17.0013 10.6864 17.0013 9.87101C17.0013 9.05557 16.3111 8.39453 15.4597 8.39453C14.6082 8.39453 13.918 9.05557 13.918 9.87101C13.918 10.6864 14.6082 11.3475 15.4597 11.3475Z" fill="#C3D0E4"/>
<path d="M11.1015 22.5685C11.5394 22.5685 11.8943 22.2285 11.8943 21.8091C11.8943 21.3898 11.5394 21.0498 11.1015 21.0498C10.6636 21.0498 10.3086 21.3898 10.3086 21.8091C10.3086 22.2285 10.6636 22.5685 11.1015 22.5685Z" fill="#C3D0E4"/>
<path d="M14.2698 22.1892C14.805 22.1892 15.2389 21.7736 15.2389 21.2611C15.2389 20.7485 14.805 20.333 14.2698 20.333C13.7346 20.333 13.3008 20.7485 13.3008 21.2611C13.3008 21.7736 13.7346 22.1892 14.2698 22.1892Z" fill="#C3D0E4"/>
<path d="M17.7496 20.9237C18.3578 20.9237 18.8509 20.4515 18.8509 19.8691C18.8509 19.2866 18.3578 18.8145 17.7496 18.8145C17.1415 18.8145 16.6484 19.2866 16.6484 19.8691C16.6484 20.4515 17.1415 20.9237 17.7496 20.9237Z" fill="#C3D0E4"/>
<path d="M18.591 24.2987C19.3208 24.2987 19.9124 23.7321 19.9124 23.0331C19.9124 22.3342 19.3208 21.7676 18.591 21.7676C17.8612 21.7676 17.2695 22.3342 17.2695 23.0331C17.2695 23.7321 17.8612 24.2987 18.591 24.2987Z" fill="#C3D0E4"/>
<path d="M14.359 25.1005C14.9672 25.1005 15.4602 24.6283 15.4602 24.0458C15.4602 23.4634 14.9672 22.9912 14.359 22.9912C13.7508 22.9912 13.2578 23.4634 13.2578 24.0458C13.2578 24.6283 13.7508 25.1005 14.359 25.1005Z" fill="#C3D0E4"/>
<path d="M10.6136 25.0583C11.1488 25.0583 11.5827 24.6428 11.5827 24.1302C11.5827 23.6177 11.1488 23.2021 10.6136 23.2021C10.0784 23.2021 9.64453 23.6177 9.64453 24.1302C9.64453 24.6428 10.0784 25.0583 10.6136 25.0583Z" fill="#C3D0E4"/>
<path d="M10.6598 27.9686C11.268 27.9686 11.761 27.4965 11.761 26.914C11.761 26.3315 11.268 25.8594 10.6598 25.8594C10.0516 25.8594 9.55859 26.3315 9.55859 26.914C9.55859 27.4965 10.0516 27.9686 10.6598 27.9686Z" fill="#C3D0E4"/>
<path d="M15.1535 28.5174C15.8833 28.5174 16.4749 27.9508 16.4749 27.2519C16.4749 26.5529 15.8833 25.9863 15.1535 25.9863C14.4237 25.9863 13.832 26.5529 13.832 27.2519C13.832 27.9508 14.4237 28.5174 15.1535 28.5174Z" fill="#C3D0E4"/>
<path d="M20.3932 27.9686C21.2447 27.9686 21.9349 27.3075 21.9349 26.4921C21.9349 25.6767 21.2447 25.0156 20.3932 25.0156C19.5418 25.0156 18.8516 25.6767 18.8516 26.4921C18.8516 27.3075 19.5418 27.9686 20.3932 27.9686Z" fill="#C3D0E4"/>
<path d="M23.4768 31.6385C24.4499 31.6385 25.2387 30.883 25.2387 29.9511C25.2387 29.0191 24.4499 28.2637 23.4768 28.2637C22.5037 28.2637 21.7148 29.0191 21.7148 29.9511C21.7148 30.883 22.5037 31.6385 23.4768 31.6385Z" fill="#C3D0E4"/>
<path d="M17.0026 32.1453C17.8541 32.1453 18.5443 31.4843 18.5443 30.6689C18.5443 29.8534 17.8541 29.1924 17.0026 29.1924C16.1512 29.1924 15.4609 29.8534 15.4609 30.6689C15.4609 31.4843 16.1512 32.1453 17.0026 32.1453Z" fill="#C3D0E4"/>
<path d="M13.3464 35.0135C14.1978 35.0135 14.8881 34.3525 14.8881 33.537C14.8881 32.7216 14.1978 32.0605 13.3464 32.0605C12.4949 32.0605 11.8047 32.7216 11.8047 33.537C11.8047 34.3525 12.4949 35.0135 13.3464 35.0135Z" fill="#C3D0E4"/>
<path d="M16.3869 38.7254C17.36 38.7254 18.1489 37.9699 18.1489 37.038C18.1489 36.1061 17.36 35.3506 16.3869 35.3506C15.4138 35.3506 14.625 36.1061 14.625 37.038C14.625 37.9699 15.4138 38.7254 16.3869 38.7254Z" fill="#C3D0E4"/>
<path d="M24.4921 39.4009C25.6355 39.4009 26.5624 38.5133 26.5624 37.4182C26.5624 36.3232 25.6355 35.4355 24.4921 35.4355C23.3488 35.4355 22.4219 36.3232 22.4219 37.4182C22.4219 38.5133 23.3488 39.4009 24.4921 39.4009Z" fill="#C3D0E4"/>
<path d="M20.0432 35.8572C21.0163 35.8572 21.8051 35.1017 21.8051 34.1698C21.8051 33.2379 21.0163 32.4824 20.0432 32.4824C19.0701 32.4824 18.2812 33.2379 18.2812 34.1698C18.2812 35.1017 19.0701 35.8572 20.0432 35.8572Z" fill="#C3D0E4"/>
<path d="M27.8828 35.1822C29.0261 35.1822 29.953 34.2945 29.953 33.1995C29.953 32.1045 29.0261 31.2168 27.8828 31.2168C26.7394 31.2168 25.8125 32.1045 25.8125 33.1995C25.8125 34.2945 26.7394 35.1822 27.8828 35.1822Z" fill="#C3D0E4"/>
<path d="M11.4972 31.3856C12.227 31.3856 12.8187 30.819 12.8187 30.12C12.8187 29.4211 12.227 28.8545 11.4972 28.8545C10.7674 28.8545 10.1758 29.4211 10.1758 30.12C10.1758 30.819 10.7674 31.3856 11.4972 31.3856Z" fill="#C3D0E4"/>
</svg>
