<svg width="240" height="48" viewBox="0 0 240 48" fill="none" xmlns="http://www.w3.org/2000/svg">
<rect x="4" width="236" height="48" rx="6" fill="#4140DF"/>
<path d="M71.6414 20.8168H74.7338V29H77.1599V20.8168H80.2473V18.8182H71.6414V20.8168ZM83.5491 29H86.0101V25.5149H87.2729L89.1322 29H91.8169L89.704 25.1222C90.8226 24.6151 91.4689 23.6158 91.4689 22.2088C91.4689 20.1158 90.042 18.8182 87.7551 18.8182H83.5491V29ZM86.0101 23.576V20.8018H87.2232C88.3268 20.8018 88.9185 21.2642 88.9185 22.2088C88.9185 23.1534 88.3268 23.576 87.2232 23.576H86.0101ZM94.4116 18.8182L98.1353 25.5994V29H100.581V25.5994L104.305 18.8182H101.556L99.4031 23.0788H99.3136L97.1609 18.8182H94.4116ZM112.211 20.8168H115.304V29H117.73V20.8168H120.817V18.8182H112.211V20.8168ZM124.119 29H126.58V24.9084H130.592V29H133.048V18.8182H130.592V22.9048H126.58V18.8182H124.119V29ZM136.692 29H143.791V27.0014H139.153V24.9084H143.428V22.9048H139.153V20.8168H143.791V18.8182H136.692V29ZM156.304 29C159.406 29 161.33 27.0859 161.33 23.9041C161.33 20.7273 159.406 18.8182 156.299 18.8182H152.54V29H156.304ZM155.001 26.902V20.9162H156.174C157.924 20.9162 158.864 21.7116 158.864 23.9041C158.864 26.1065 157.924 26.902 156.209 26.902H155.001ZM164.867 29H171.966V27.0014H167.328V24.9084H171.603V22.9048H167.328V20.8168H171.966V18.8182H164.867V29ZM175.607 18.8182V29H178.004V22.7109H178.088L180.534 28.9354H182.065L184.511 22.7457H184.596V29H186.992V18.8182H183.945L181.359 25.1222H181.24L178.655 18.8182H175.607ZM200.306 23.9091C200.306 20.5433 198.178 18.679 195.443 18.679C192.699 18.679 190.586 20.5433 190.586 23.9091C190.586 27.2599 192.699 29.1392 195.443 29.1392C198.178 29.1392 200.306 27.2749 200.306 23.9091ZM197.79 23.9091C197.79 25.9027 196.915 26.9815 195.443 26.9815C193.977 26.9815 193.097 25.9027 193.097 23.9091C193.097 21.9155 193.977 20.8366 195.443 20.8366C196.915 20.8366 197.79 21.9155 197.79 23.9091Z" fill="#F6F8FC"/>
<path d="M0 6C0 2.68629 2.68629 0 6 0H48V48H6C2.68629 48 0 45.3137 0 42V6Z" fill="#2E2DCA"/>
<path d="M19 17.8685C19 17.0698 19.8901 16.5934 20.5547 17.0365L30.5547 23.7031C30.8329 23.8886 31 24.2008 31 24.5352V24.5625C31 24.9214 30.8077 25.2527 30.4961 25.4308L20.4961 31.1451C19.8295 31.526 19 31.0446 19 30.2768V17.8685Z" fill="white"/>
</svg>
