<svg width="107" height="24" viewBox="0 0 107 24" fill="none" xmlns="http://www.w3.org/2000/svg">
<path d="M57.2949 20.6641V3.06787H60.8022V20.6641H57.2949Z" fill="#8493AD"/>
<path d="M84.4831 20.9339C82.4991 20.9339 80.4638 20.1633 79.875 19.8037L81.027 17.1321C82.2943 17.7872 83.1775 18.3523 84.4831 18.3523C85.2256 18.3523 85.6608 18.0312 85.6608 17.4661C85.6608 15.7835 80.5278 15.8349 80.5278 11.9817C80.5278 9.57991 82.8831 8.53955 84.8416 8.53955C86.5184 8.53955 87.9393 9.01478 89.1553 9.63128L87.824 11.9689C87.0304 11.5193 85.9936 11.0184 84.8416 11.0184C84.2271 11.0184 83.8943 11.4294 83.8943 11.9047C83.8943 13.2661 89.2065 13.4202 89.2065 17.2991C89.2065 19.3541 87.312 20.9339 84.4831 20.9339Z" fill="#8493AD"/>
<path d="M94.6462 20.9339C92.6622 20.9339 90.6269 20.1633 90.0381 19.8037L91.1901 17.1321C92.4574 17.7872 93.3406 18.3523 94.6462 18.3523C95.3887 18.3523 95.8239 18.0312 95.8239 17.4661C95.8239 15.7835 90.6909 15.8349 90.6909 11.9817C90.6909 9.57991 93.0462 8.53955 95.0047 8.53955C96.6815 8.53955 98.1023 9.01478 99.3184 9.63128L97.9871 11.9689C97.1935 11.5193 96.1567 11.0184 95.0047 11.0184C94.3902 11.0184 94.0574 11.4294 94.0574 11.9047C94.0574 13.2661 99.3696 13.4202 99.3696 17.2991C99.3696 19.3541 97.4879 20.9339 94.6462 20.9339Z" fill="#8493AD"/>
<path d="M69.4941 16.2202C69.4941 17.1578 69.7885 17.7486 70.2621 17.7486C70.7997 17.7486 71.1069 17.5817 71.3373 17.4019L71.9646 12.7652C71.3757 12.6881 70.8637 12.8166 70.4797 13.1377C69.8269 13.69 69.4941 14.756 69.4941 16.2202ZM62.3643 16.323C62.3643 10.7102 66.5244 6.47168 72.0541 6.47168C76.0735 6.47168 79.0176 9.19459 78.992 13.4845C78.9664 17.9413 76.2143 20.189 73.6158 20.189C72.7582 20.189 72.0926 19.8165 71.7469 19.3028C71.4397 19.6239 70.7869 20.2147 69.9805 20.2147C67.9324 20.2147 66.55 18.622 66.55 16.2459C66.55 14.3193 67.2284 12.701 68.4572 11.6735C69.6477 10.6845 71.2221 10.3377 73.0142 10.6716L74.947 11.0184L74.1278 17.2349C74.1022 17.4661 74.1278 17.6844 74.1918 17.7615C74.2046 17.7872 74.2302 17.7872 74.2558 17.7872C75.075 17.7872 76.4959 16.3487 76.4831 13.7542C76.4703 10.5817 75.1262 8.77074 71.9389 8.68083C68.7261 8.57808 64.9499 11.1212 64.9499 16.1303C64.9499 19.5211 67.062 21.833 70.6077 21.7174C71.6317 21.6789 72.6942 21.422 74.1406 20.7284L74.2686 20.6642L75.139 22.411L75.0238 22.4752C73.4238 23.3101 72.0413 23.8495 70.4157 23.8752C64.6683 23.9523 62.3643 19.9578 62.3643 16.323Z" fill="#8493AD"/>
<path d="M52.1372 8.83474C51.9196 7.08797 50.4091 5.7522 48.6939 5.7522C45.5834 5.7522 44.3033 8.7063 44.4057 11.7888C44.521 14.987 45.6858 17.6842 48.7963 17.6714C50.8956 17.6714 52.1116 16.0402 52.3676 13.7283L55.6957 14.0494C55.3373 18.4292 53.0204 20.8952 48.7963 20.9209C43.9193 20.9337 41.0136 17.5686 40.8344 11.7888C40.668 6.57421 43.8041 2.50269 48.6939 2.50269C52.1628 2.50269 54.9533 4.699 55.5037 8.30814L52.1372 8.83474Z" fill="#8493AD"/>
<path d="M31.5279 15.9116C31.6559 17.4785 33.1536 18.2106 34.8944 18.2106C36.1617 18.2106 37.1857 18.0437 38.1841 17.6969L38.6706 20.2143C37.4545 20.7281 35.9697 20.9721 34.3568 20.9721C30.3119 20.9721 28.0078 18.6216 28.0078 14.8584C28.0078 11.8272 29.9023 8.48779 34.024 8.48779C37.8769 8.48779 39.3362 11.4933 39.3362 14.4474C39.3362 15.0767 39.2594 15.6419 39.2082 15.9373L31.5279 15.9116ZM35.8801 13.3813C35.8801 12.5079 35.4961 10.9667 33.8064 10.9667C32.2191 10.9667 31.5919 12.4052 31.4895 13.3813H35.8801Z" fill="#8493AD"/>
<path d="M104.081 3.646C104.504 3.646 104.913 3.74875 105.31 3.96709C105.707 4.18544 106.014 4.48085 106.232 4.89186C106.449 5.30286 106.564 5.71387 106.564 6.15056C106.564 6.58726 106.449 6.99826 106.232 7.39642C106.014 7.79459 105.707 8.10284 105.31 8.32119C104.913 8.53953 104.504 8.65513 104.068 8.65513C103.633 8.65513 103.224 8.53953 102.827 8.32119C102.43 8.10284 102.123 7.79459 101.905 7.39642C101.687 6.99826 101.572 6.58726 101.572 6.15056C101.572 5.71387 101.687 5.30286 101.905 4.89186C102.123 4.48085 102.443 4.18544 102.827 3.96709C103.249 3.74875 103.659 3.646 104.081 3.646ZM104.081 4.13406C103.736 4.13406 103.416 4.22397 103.096 4.39094C102.788 4.55791 102.532 4.81479 102.353 5.13589C102.174 5.45699 102.084 5.79093 102.084 6.15056C102.084 6.49735 102.174 6.83129 102.353 7.15239C102.532 7.47349 102.775 7.71752 103.096 7.89734C103.416 8.07715 103.736 8.16706 104.094 8.16706C104.44 8.16706 104.772 8.07715 105.092 7.89734C105.412 7.71752 105.656 7.47349 105.835 7.15239C106.014 6.83129 106.104 6.49735 106.104 6.15056C106.104 5.80378 106.014 5.45699 105.835 5.13589C105.656 4.81479 105.412 4.57076 105.092 4.39094C104.747 4.21113 104.427 4.13406 104.081 4.13406ZM102.955 7.47349V4.82764H103.492C103.992 4.82764 104.273 4.82764 104.337 4.84048C104.516 4.85332 104.657 4.89186 104.747 4.94323C104.836 4.99461 104.926 5.08452 104.99 5.20011C105.054 5.31571 105.092 5.44415 105.092 5.58543C105.092 5.77809 105.028 5.94506 104.9 6.0735C104.772 6.21478 104.606 6.29185 104.376 6.33038C104.452 6.35607 104.516 6.3946 104.555 6.43313C104.593 6.47166 104.657 6.53588 104.734 6.63863C104.76 6.66432 104.824 6.76707 104.926 6.95973L105.233 7.49918H104.568L104.35 7.07533C104.196 6.79276 104.081 6.6001 103.979 6.53588C103.876 6.45882 103.761 6.42028 103.608 6.42028H103.467V7.51202H102.955V7.47349ZM103.492 5.97075H103.71C104.017 5.97075 104.209 5.9579 104.286 5.93222C104.363 5.90653 104.414 5.868 104.465 5.80378C104.504 5.73956 104.529 5.67534 104.529 5.59827C104.529 5.52121 104.504 5.45699 104.465 5.40561C104.427 5.35424 104.363 5.30286 104.286 5.27717C104.209 5.25149 104.017 5.23864 103.71 5.23864H103.492V5.97075Z" fill="#8493AD"/>
<path d="M11.0979 11.2366L0 15.154L11.6484 20.1888L22.8615 16.22L11.0979 11.2366Z" fill="#8493AD"/>
<path d="M11.0979 9.3999L0 13.3301L11.6484 18.365L22.8615 14.3833L11.0979 9.3999Z" fill="#8493AD"/>
<path d="M11.6484 19.4821L22.8616 15.5133V14.3831L11.6484 18.3647V19.4821Z" fill="#495F72"/>
<path d="M11.6484 22.3464L0 17.3373V15.1538L11.6484 20.1758V22.3464Z" fill="#EAEEF8"/>
<path d="M11.6484 22.3463L22.8616 18.3775V16.2197L11.6484 20.1757V22.3463Z" fill="#495F72"/>
<path d="M11.6484 19.4823L0 14.4475V13.3301L11.6484 18.3649V19.4823Z" fill="#EAEEF8"/>
<path d="M11.4178 7.55054L2.52148 10.6973L11.597 14.6918L20.6213 11.4936L11.4178 7.55054Z" fill="#8493AD"/>
<path d="M11.6098 15.8094L2.52148 11.8149V10.6975L11.597 14.692L11.6098 15.8094Z" fill="#EAEEF8"/>
<path d="M11.5977 15.8095L20.6091 12.6242V11.4939L11.5977 14.692V15.8095Z" fill="#495F72"/>
<path d="M11.5474 5.7395L4.94238 8.12847L11.6498 11.0312L18.37 8.6037L11.5474 5.7395Z" fill="#8493AD"/>
<path d="M11.6488 12.1486L4.94141 9.24584V8.12842L11.6488 11.0311V12.1486Z" fill="#EAEEF8"/>
<path d="M11.6484 12.1487L18.3686 9.73403V8.60376L11.6484 11.0313V12.1487Z" fill="#495F72"/>
<path d="M11.5205 0.948486L11.6485 7.34476L15.8086 5.86771L11.5205 0.948486Z" fill="#8493AD"/>
<path d="M11.6484 8.46206L7.73145 6.68959V5.55933L11.6484 7.34463V8.46206Z" fill="#EAEEF8"/>
<path d="M11.6493 7.34535L7.73242 5.56004L11.5341 0.961914L11.6493 7.34535Z" fill="#EAEEF8"/>
<path d="M11.6484 8.46215L15.8086 6.9851V5.86768L11.6484 7.34473V8.46215Z" fill="#495F72"/>
</svg>
