<svg width="66" height="38" viewBox="0 0 66 38" fill="none" xmlns="http://www.w3.org/2000/svg">
<path d="M1.9027 30.7989V27.0231C1.9027 26.8661 1.84603 26.75 1.73316 26.6766C1.67928 26.6376 1.57849 26.6004 1.43125 26.5661C1.31838 26.5415 1.26172 26.5099 1.26172 26.4699C1.26172 26.4156 1.3012 26.3891 1.3797 26.3891C1.47306 26.3891 1.60915 26.3947 1.78844 26.4054C1.96819 26.4161 2.10149 26.4216 2.18974 26.4216C2.26871 26.4216 2.3839 26.4161 2.53624 26.4054C2.68813 26.3947 2.80146 26.3891 2.87485 26.3891C2.96821 26.3891 3.01512 26.4137 3.01512 26.4625C3.01512 26.4969 2.96821 26.5271 2.87531 26.5503C2.7578 26.5847 2.60917 26.6218 2.55993 26.6618C2.46704 26.7398 2.42059 26.8606 2.42059 27.0227V28.6158C2.42059 28.7036 2.45728 28.7482 2.53067 28.7482H5.35469C5.39371 28.7482 5.41368 28.6776 5.41368 28.5341V27.0227C5.41368 26.875 5.36677 26.7639 5.27387 26.6906C5.22557 26.6562 5.06904 26.6172 4.93666 26.5726C4.84377 26.5433 4.79685 26.5089 4.79685 26.469C4.79685 26.4147 4.83866 26.3882 4.92273 26.3882C5.01098 26.3882 5.15079 26.3938 5.34215 26.4044C5.53352 26.4151 5.64917 26.4207 5.68865 26.4207C5.79177 26.4207 5.89581 26.4151 6.00171 26.4044C6.10761 26.3938 6.18007 26.3882 6.21908 26.3882C6.35657 26.3882 6.42531 26.4272 6.42531 26.5062C6.42531 26.5359 6.38351 26.5624 6.2999 26.587C6.18657 26.6167 6.10529 26.6515 6.05652 26.6906C5.97245 26.7639 5.93111 26.8745 5.93111 27.0227V30.9308C5.93111 31.0887 5.98963 31.2067 6.10761 31.2856C6.16149 31.32 6.26785 31.359 6.42485 31.4036C6.54282 31.438 6.60228 31.477 6.60228 31.5216C6.60228 31.5806 6.57487 31.6094 6.52099 31.6094C6.46201 31.6094 6.35518 31.6038 6.20051 31.5931C6.04583 31.5824 5.92182 31.5769 5.82846 31.5769C5.6422 31.5769 5.46384 31.5824 5.29477 31.5931C5.12524 31.6038 5.03095 31.6094 5.01144 31.6094C4.893 31.6094 4.83448 31.5778 4.83448 31.5142C4.83448 31.4696 4.8786 31.4296 4.96639 31.3952C5.09319 31.3516 5.24275 31.3144 5.28177 31.2856C5.36909 31.2113 5.41368 31.1077 5.41368 30.9754V29.2043C5.41368 29.091 5.41368 29.0436 5.41368 29.0636C5.40857 29.0338 5.38628 29.019 5.34726 29.019H2.50884C2.45032 29.019 2.42105 29.0608 2.42105 29.1444V30.9823C2.42105 31.1249 2.48236 31.2308 2.60452 31.3C2.644 31.3246 2.82004 31.3609 3.00119 31.4106C3.12334 31.4449 3.18465 31.4914 3.18465 31.5504C3.18465 31.5903 3.14517 31.6094 3.06668 31.6094C3.06157 31.6094 2.92919 31.6038 2.66908 31.5931C2.40898 31.5824 2.20043 31.5769 2.04297 31.5769C1.82652 31.5769 1.65978 31.5824 1.5418 31.5931C1.42382 31.6038 1.3797 31.6094 1.40942 31.6094C1.35554 31.6094 1.32814 31.5731 1.32814 31.4988C1.32814 31.4501 1.37737 31.411 1.47584 31.3808C1.60822 31.3474 1.70111 31.3047 1.75592 31.2554C1.85346 31.1625 1.9027 31.0102 1.9027 30.7989Z" fill="#8493AD"/>
<path d="M8.49896 27.8003V28.9777C8.49896 29.0873 8.50871 29.151 8.52776 29.1672C8.54634 29.1844 8.61694 29.1928 8.73956 29.1928H9.42188C9.61556 29.1928 9.75676 29.1482 9.84548 29.0595C9.89982 29.0088 9.94209 28.9271 9.97135 28.8175C9.99643 28.7288 10.0257 28.6832 10.0596 28.6832C10.1056 28.6832 10.1288 28.7232 10.1288 28.804C10.1288 28.8802 10.1265 28.9879 10.1223 29.1287C10.1181 29.2703 10.1158 29.3744 10.1158 29.4417C10.1158 29.497 10.1181 29.5787 10.1223 29.6884C10.1265 29.798 10.1288 29.8825 10.1288 29.9406C10.1288 29.9958 10.1051 30.0233 10.0596 30.0233C10.0132 30.0233 9.97925 29.9749 9.95835 29.8779C9.92862 29.7436 9.89936 29.6554 9.8701 29.6131C9.80693 29.517 9.69917 29.4677 9.54775 29.4677H8.61276C8.55377 29.4677 8.51754 29.4896 8.50546 29.5314C8.50082 29.5486 8.49896 29.595 8.49896 29.6703V30.8333C8.49896 31.0572 8.51336 31.1914 8.54309 31.2379C8.59371 31.3187 8.7391 31.3586 8.97877 31.3586C9.40887 31.3586 9.7707 31.3015 10.0656 31.1872C10.2682 31.1111 10.4344 31.0075 10.565 30.877C10.6829 30.7627 10.7396 30.7056 10.7354 30.7056C10.7689 30.7056 10.7856 30.7311 10.7856 30.7817C10.7856 30.9596 10.6801 31.1645 10.4697 31.3967C10.3773 31.4984 10.2826 31.5616 10.1855 31.5871C10.1307 31.6034 10.0192 31.6118 9.85105 31.6118C9.72054 31.6118 9.47994 31.6053 9.13019 31.5909C8.82688 31.5816 8.58721 31.5802 8.41025 31.5834C8.35962 31.5834 8.23096 31.5881 8.02473 31.5978C7.86448 31.6071 7.73582 31.6113 7.63921 31.6113C7.57604 31.6113 7.54492 31.5904 7.54492 31.5486C7.5491 31.5152 7.58673 31.4808 7.65779 31.4469C7.71214 31.426 7.76648 31.4051 7.82175 31.3842C7.897 31.3461 7.94763 31.2806 7.97271 31.1872C7.98943 31.1199 7.99779 31.0024 7.99779 30.8333V27.9484C7.99779 27.7543 7.98339 27.62 7.95366 27.5439C7.90722 27.4087 7.80828 27.3307 7.65779 27.3098C7.53192 27.2763 7.46875 27.2424 7.46875 27.209C7.46875 27.1584 7.5426 27.1328 7.69031 27.1328C8.16593 27.1328 8.57978 27.1384 8.93139 27.1472C9.28346 27.1565 9.46554 27.1607 9.47854 27.1607C9.5157 27.1607 9.6583 27.156 9.90447 27.1472C10.1511 27.1379 10.31 27.1328 10.3815 27.1328C10.4238 27.1328 10.4447 27.1802 10.4447 27.2726C10.4447 27.7752 10.4024 28.0255 10.3188 28.0255C10.264 28.0255 10.2319 27.9693 10.224 27.8551C10.2152 27.7125 10.1962 27.62 10.1669 27.5773C10.0995 27.4849 9.93094 27.4287 9.66155 27.4078C9.60674 27.4031 9.41723 27.4013 9.09303 27.4013C8.78461 27.4013 8.60951 27.4148 8.56492 27.4422C8.52126 27.47 8.49896 27.5899 8.49896 27.8003Z" fill="#8493AD"/>
<path d="M12.6118 27.7594V30.8329C12.6118 31.0568 12.6262 31.191 12.6559 31.2374C12.7065 31.3183 12.8519 31.3582 13.0916 31.3582C13.5217 31.3582 13.8835 31.3011 14.1789 31.1868C14.381 31.1106 14.5473 31.0071 14.6778 30.8765C14.7957 30.7623 14.8529 30.7052 14.8482 30.7052C14.8821 30.7052 14.8989 30.7307 14.8989 30.7813C14.8989 30.9592 14.7934 31.1641 14.5826 31.3963C14.4901 31.498 14.3954 31.5612 14.2988 31.5867C14.244 31.603 14.1325 31.6113 13.9634 31.6113C13.8329 31.6113 13.5928 31.6048 13.2435 31.5904C12.9402 31.5812 12.6996 31.5798 12.5226 31.583C12.472 31.583 12.3433 31.5877 12.1371 31.5974C11.9768 31.6067 11.8486 31.6109 11.752 31.6109C11.6884 31.6109 11.6573 31.59 11.6573 31.5482C11.6615 31.5147 11.6991 31.4804 11.7706 31.4465C11.825 31.4256 11.8793 31.4047 11.9341 31.3838C12.0098 31.3457 12.06 31.2802 12.0851 31.1868C12.1018 31.1195 12.1106 31.002 12.1106 30.8329V27.6271C12.1106 27.5012 12.0224 27.4064 11.8463 27.3461C11.6698 27.2852 11.582 27.2415 11.582 27.2165C11.582 27.1621 11.6243 27.1338 11.7079 27.1338C11.7372 27.1338 11.8217 27.1394 11.9606 27.1482C12.0999 27.1575 12.2281 27.1617 12.3461 27.1617C12.4896 27.1617 12.6243 27.157 12.7507 27.1482C12.8765 27.1389 12.9443 27.1338 12.9527 27.1338C13.0331 27.1338 13.073 27.1635 13.073 27.2225C13.073 27.2559 13.0331 27.2834 12.9527 27.3052C12.8514 27.3344 12.7776 27.3679 12.7311 27.406C12.6513 27.4817 12.6118 27.5997 12.6118 27.7594Z" fill="#8493AD"/>
<path d="M19.8917 27.8928L19.9772 31.0298C19.9814 31.1822 20.0278 31.2895 20.117 31.3527C20.1509 31.3782 20.2294 31.4051 20.3525 31.4344C20.4375 31.4562 20.4798 31.4943 20.4798 31.5487C20.4798 31.5905 20.4291 31.6114 20.3279 31.6114C20.2986 31.6114 20.2164 31.6067 20.0817 31.5979C19.947 31.5881 19.8314 31.5835 19.7343 31.5835C19.6665 31.5835 19.5699 31.5881 19.4435 31.5979C19.3176 31.6072 19.2285 31.6114 19.1783 31.6114C19.1319 31.6114 19.1091 31.5923 19.1091 31.5552C19.1091 31.5087 19.1425 31.4706 19.2103 31.4409C19.3116 31.3991 19.3766 31.3629 19.4064 31.3341C19.4737 31.2704 19.5053 31.1715 19.5011 31.0364L19.4342 28.5825C19.43 28.4181 19.4064 28.3368 19.365 28.3368C19.3186 28.3368 19.2638 28.3995 19.2006 28.5254L17.8936 31.1924C17.7881 31.4028 17.7231 31.5083 17.6975 31.5083C17.672 31.5083 17.6297 31.4474 17.5717 31.3248L16.2265 28.5073C16.2052 28.4608 16.1801 28.4376 16.1508 28.4376C16.1253 28.4376 16.1109 28.4692 16.1062 28.5319L16.0324 30.7516C16.024 30.9964 16.0682 31.1734 16.1648 31.2835C16.22 31.3424 16.3143 31.3889 16.4495 31.4223C16.5503 31.4521 16.6009 31.492 16.6009 31.5431C16.6009 31.5895 16.5484 31.6118 16.443 31.6118C16.4258 31.6118 16.3468 31.6072 16.2061 31.5984C16.0644 31.5886 15.9585 31.584 15.8865 31.584C15.7602 31.584 15.6422 31.5886 15.5326 31.5984C15.423 31.6077 15.358 31.6118 15.3366 31.6118C15.2943 31.6118 15.2734 31.5872 15.2734 31.5366C15.2734 31.486 15.3092 31.4502 15.3803 31.4288C15.4769 31.3996 15.5447 31.3661 15.5828 31.328C15.6627 31.2482 15.7087 31.113 15.7217 30.9235C15.7551 30.4846 15.789 30.0442 15.8224 29.6007C15.8559 29.1752 15.8726 28.825 15.8726 28.5509C15.8726 28.1162 15.8201 27.7962 15.7152 27.5895C15.6515 27.4589 15.5572 27.3688 15.4314 27.3182C15.3259 27.2801 15.2734 27.242 15.2734 27.2039C15.2734 27.1575 15.3092 27.1343 15.3807 27.1343C15.4188 27.1343 15.4755 27.1399 15.5512 27.1487C15.6274 27.158 15.6864 27.1621 15.7286 27.1621C15.7662 27.1621 15.8234 27.1575 15.8991 27.1487C15.9748 27.1399 16.0319 27.1343 16.07 27.1343C16.1076 27.1343 16.1355 27.1543 16.1518 27.1951C16.1685 27.2351 16.1857 27.2741 16.2024 27.3112L17.7054 30.5226C17.7649 30.6494 17.8113 30.7121 17.8448 30.7121C17.8615 30.7121 17.927 30.5988 18.0408 30.3712L19.5443 27.3493C19.6154 27.2058 19.6702 27.1343 19.7087 27.1343C19.7296 27.1343 19.7821 27.1399 19.8662 27.1487C19.9507 27.158 19.9972 27.1621 20.0055 27.1621C20.0557 27.1621 20.1119 27.1575 20.1727 27.1487C20.2341 27.1394 20.2791 27.1343 20.3088 27.1343C20.3506 27.1343 20.372 27.1598 20.372 27.2105C20.372 27.2569 20.3297 27.2913 20.2461 27.3122C20.1323 27.3377 20.052 27.3749 20.0055 27.4255C19.9261 27.5175 19.888 27.6735 19.8917 27.8928Z" fill="#8493AD"/>
<path d="M22.2019 27.6516V29.9215C22.2019 30.406 22.3473 30.7762 22.6367 31.033C22.9014 31.2736 23.2591 31.3939 23.7087 31.3939C24.6785 31.3939 25.1639 30.8839 25.1639 29.8644V27.817C25.1639 27.6321 25.1137 27.5002 25.0134 27.425C24.967 27.3869 24.8727 27.3534 24.7305 27.3242C24.6302 27.2986 24.58 27.2564 24.58 27.1974C24.58 27.1556 24.6009 27.1337 24.6432 27.1337C24.7277 27.1337 24.8518 27.1393 25.0162 27.1481C25.1806 27.157 25.3028 27.1616 25.3827 27.1616C25.4249 27.1616 25.4839 27.157 25.5596 27.1481C25.6353 27.1393 25.692 27.1337 25.7305 27.1337C25.7849 27.1337 25.8123 27.1574 25.8123 27.2034C25.8123 27.2461 25.7812 27.2814 25.7175 27.3102C25.6293 27.353 25.568 27.3976 25.5341 27.4435C25.4709 27.5281 25.4393 27.654 25.4393 27.8226V29.7831C25.4393 31.0298 24.8522 31.6536 23.6785 31.6536C22.9205 31.6536 22.384 31.4576 22.0686 31.0655C21.8243 30.766 21.7021 30.328 21.7021 29.7511V27.62C21.7021 27.5146 21.6576 27.4384 21.5688 27.3925C21.5521 27.3799 21.469 27.3525 21.3213 27.3098C21.2321 27.2889 21.1875 27.2517 21.1875 27.1964C21.1875 27.1546 21.2339 27.1328 21.3268 27.1328C21.3812 27.1328 21.4625 27.1384 21.5698 27.1472C21.6771 27.156 21.7602 27.1607 21.8192 27.1607C21.887 27.1607 21.9878 27.156 22.1225 27.1472C22.2572 27.1384 22.3561 27.1328 22.4198 27.1328C22.5545 27.1328 22.6223 27.1546 22.6223 27.1964C22.6223 27.2392 22.5865 27.2698 22.5159 27.2917C22.4114 27.3209 22.3431 27.3479 22.3097 27.3734C22.2377 27.4291 22.2019 27.5216 22.2019 27.6516Z" fill="#8493AD"/>
<path d="M28.1903 31.0619V27.7706C28.1903 27.5764 28.1689 27.4794 28.1267 27.4794H27.0946C26.9125 27.4794 26.7904 27.5091 26.7272 27.5681C26.6891 27.6108 26.6385 27.7297 26.5753 27.9248C26.5461 28.0219 26.5103 28.0706 26.469 28.0706C26.4276 28.0706 26.4062 28.0451 26.4062 27.9945L26.4755 27.3804L26.494 27.229C26.5112 27.1654 26.5423 27.1338 26.5893 27.1338C26.7281 27.1338 26.9868 27.1394 27.3663 27.1482C27.7449 27.1575 28.0844 27.1617 28.3835 27.1617C28.8513 27.1617 29.2869 27.157 29.6915 27.1482C30.0956 27.1389 30.2767 27.1338 30.2345 27.1338C30.306 27.1338 30.3538 27.1463 30.3771 27.1719C30.4003 27.1974 30.4138 27.2462 30.4179 27.3177L30.4495 27.824C30.4542 27.9164 30.4305 27.9629 30.3803 27.9629C30.3218 27.9629 30.2879 27.9211 30.2795 27.8361C30.267 27.7218 30.2456 27.6456 30.2164 27.6066C30.1532 27.5221 30.0292 27.4798 29.8443 27.4798H28.9428C28.8039 27.4798 28.7272 27.4896 28.7124 27.5091C28.698 27.5281 28.6905 27.6215 28.6905 27.7901V31.0177C28.6905 31.1692 28.7342 31.2792 28.822 31.3471C28.8638 31.3763 28.9455 31.4061 29.0663 31.4348C29.1541 31.4567 29.1982 31.4901 29.1982 31.5366C29.1982 31.5872 29.1792 31.6118 29.1411 31.6118C29.0946 31.6118 29.0138 31.6072 28.8982 31.5983C28.7821 31.5886 28.6929 31.5839 28.6297 31.5839C28.4193 31.5839 28.2423 31.5867 28.0988 31.5914C27.9975 31.596 27.8861 31.603 27.7639 31.6123C27.7133 31.6123 27.6882 31.5849 27.6882 31.5305C27.6882 31.4924 27.7305 31.4571 27.815 31.4228C27.9413 31.381 28.024 31.3475 28.0621 31.322C28.148 31.2574 28.1903 31.1715 28.1903 31.0619Z" fill="#8493AD"/>
<path d="M33.1408 31.3067L32.9824 30.4911C32.9573 30.3605 32.9806 30.295 33.0525 30.295C33.0902 30.295 33.1176 30.3132 33.1348 30.3512L33.1733 30.5027C33.2277 30.7131 33.3498 30.9063 33.5389 31.0833C33.7957 31.3271 34.1148 31.4497 34.498 31.4497C34.8213 31.4497 35.0944 31.3652 35.3178 31.1966C35.5612 31.015 35.6833 30.7674 35.6833 30.4511C35.6833 30.119 35.4627 29.8724 35.0215 29.7117C34.609 29.5728 34.198 29.4339 33.7855 29.2955C33.3442 29.0758 33.1231 28.733 33.1231 28.2657C33.1231 27.8867 33.2671 27.5871 33.5528 27.3684C33.8101 27.1742 34.1339 27.0771 34.5254 27.0771C34.7484 27.0771 34.9462 27.0962 35.1185 27.1343C35.2323 27.1598 35.3401 27.1979 35.4409 27.2485C35.525 27.2866 35.5728 27.3057 35.5863 27.3057C35.603 27.3057 35.6239 27.2941 35.6494 27.2713C35.6745 27.2476 35.6977 27.236 35.7187 27.236C35.7605 27.236 35.7865 27.2657 35.7944 27.3247L35.8891 28.184C35.8979 28.2476 35.8742 28.2792 35.8199 28.2792C35.773 28.2792 35.7293 28.2156 35.6875 28.0897C35.5951 27.824 35.4427 27.6206 35.2305 27.4794C35.0182 27.3386 34.7693 27.268 34.4836 27.268C34.2058 27.268 33.9722 27.3317 33.7836 27.4576C33.5649 27.609 33.4553 27.8203 33.4553 28.0897C33.4553 28.4097 33.6768 28.6503 34.1176 28.8101C34.5301 28.9536 34.9411 29.0948 35.3536 29.2337C35.7944 29.4697 36.0155 29.8343 36.0155 30.3271C36.0155 30.6648 35.8933 30.9504 35.6494 31.1873C35.3331 31.4985 34.8533 31.6546 34.2086 31.6546C33.9894 31.6546 33.7553 31.61 33.5073 31.5222C33.2755 31.4418 33.1533 31.3703 33.1408 31.3067Z" fill="#8493AD"/>
<path d="M36.6484 29.4544C36.6484 28.7892 36.8635 28.2258 37.2931 27.7669C37.7228 27.308 38.2667 27.0776 38.9234 27.0776C39.2732 27.0776 39.5825 27.1204 39.8519 27.2044C40.0257 27.2588 40.1966 27.3368 40.3647 27.4385C40.5041 27.5231 40.59 27.5653 40.6239 27.5653C40.6406 27.5653 40.6648 27.5547 40.6968 27.5338C40.7279 27.5129 40.7544 27.5022 40.7753 27.5022C40.8092 27.5022 40.8301 27.5356 40.8394 27.6039C40.8478 27.6503 40.8557 27.7874 40.864 28.014C40.8682 28.073 40.8747 28.1529 40.8835 28.2546C40.8873 28.3392 40.8896 28.3981 40.8896 28.4316C40.8896 28.5161 40.8682 28.5575 40.8264 28.5575C40.7971 28.5575 40.7674 28.5282 40.7382 28.4697C40.7168 28.4316 40.6977 28.3916 40.6815 28.3489C40.4706 27.9862 40.2472 27.7209 40.0113 27.5523C39.7414 27.3582 39.413 27.2611 39.0256 27.2611C38.4274 27.2611 37.9685 27.4469 37.6485 27.8171C37.3489 28.1673 37.1993 28.6471 37.1993 29.2579C37.1993 29.852 37.3554 30.3554 37.667 30.7684C38.0121 31.2282 38.471 31.4567 39.0442 31.4567C39.4864 31.4567 39.8826 31.3387 40.2328 31.1037C40.5147 30.9142 40.6875 30.7247 40.7507 30.5347C40.7674 30.4804 40.7971 30.4521 40.8394 30.4521C40.8891 30.4521 40.9082 30.4758 40.8961 30.5217L40.7507 31.1539C40.734 31.2217 40.5993 31.3081 40.3466 31.4135C39.9629 31.5742 39.4715 31.6541 38.8737 31.6541C38.2207 31.6541 37.6865 31.4502 37.2718 31.041C36.8561 30.6327 36.6484 30.1037 36.6484 29.4544Z" fill="#8493AD"/>
<path d="M42.1281 30.917V27.6782C42.1281 27.5439 42.0798 27.4441 41.9827 27.3804C41.9358 27.347 41.8498 27.3149 41.7235 27.2861C41.6264 27.2643 41.5781 27.2374 41.5781 27.2035C41.5781 27.157 41.612 27.1338 41.6794 27.1338C41.7597 27.1338 41.8763 27.1394 42.0305 27.1482C42.1838 27.1575 42.2985 27.1617 42.3747 27.1617C42.4421 27.1617 42.5405 27.157 42.672 27.1482C42.802 27.1389 42.8991 27.1338 42.9623 27.1338C43.0422 27.1338 43.0826 27.1556 43.0826 27.1974C43.0826 27.2271 43.0422 27.2527 42.9627 27.2736C42.8619 27.3029 42.7909 27.3344 42.7486 27.3679C42.6692 27.4357 42.6292 27.5393 42.6292 27.6782V29.0442C42.6292 29.1204 42.6604 29.1575 42.7235 29.1575H45.0324C45.0659 29.1575 45.0826 29.0967 45.0826 28.974V27.6777C45.0826 27.5509 45.0431 27.4561 44.9632 27.393C44.9214 27.3637 44.8434 27.3303 44.7301 27.2922C44.6502 27.2666 44.6112 27.2369 44.6112 27.2035C44.6112 27.157 44.6465 27.1338 44.718 27.1338C44.7942 27.1338 44.914 27.1394 45.0775 27.1482C45.2419 27.1575 45.3409 27.1617 45.3748 27.1617C45.463 27.1617 45.5527 27.157 45.6432 27.1482C45.7333 27.1389 45.7956 27.1338 45.8295 27.1338C45.9475 27.1338 46.0065 27.1682 46.0065 27.2355C46.0065 27.2611 45.9707 27.2838 45.8992 27.3052C45.8021 27.3307 45.7324 27.3595 45.6906 27.393C45.6191 27.4566 45.5833 27.5518 45.5833 27.6777V31.0298C45.5833 31.165 45.6335 31.2658 45.7347 31.3336C45.7812 31.3629 45.8722 31.3972 46.0069 31.4344C46.1082 31.4641 46.1583 31.498 46.1583 31.5361C46.1583 31.5867 46.1351 31.6113 46.0891 31.6113C46.039 31.6113 45.947 31.6067 45.8146 31.5979C45.6818 31.5881 45.575 31.5835 45.4951 31.5835C45.3348 31.5835 45.182 31.5881 45.0376 31.5979C44.8922 31.6072 44.8109 31.6113 44.7946 31.6113C44.6929 31.6113 44.6432 31.5839 44.6432 31.5296C44.6432 31.4915 44.6804 31.4581 44.7565 31.4279C44.8643 31.3898 44.9363 31.3582 44.9697 31.3336C45.045 31.27 45.0826 31.1812 45.0826 31.0679V29.5486C45.0826 29.4515 45.0826 29.4116 45.0826 29.4288C45.078 29.4032 45.0594 29.3907 45.0259 29.3907H42.704C42.6539 29.3907 42.6288 29.426 42.6288 29.4975V31.0744C42.6288 31.197 42.6813 31.2867 42.7862 31.3466C42.8197 31.3675 42.9144 31.3991 43.0696 31.4409C43.1745 31.4706 43.227 31.5106 43.227 31.5616C43.227 31.5951 43.1936 31.6113 43.1258 31.6113C43.1216 31.6113 43.0078 31.6067 42.7848 31.5979C42.5614 31.5881 42.3826 31.5835 42.2474 31.5835C42.063 31.5835 41.9195 31.5881 41.8178 31.5979C41.717 31.6072 41.6789 31.6113 41.7045 31.6113C41.658 31.6113 41.6353 31.5807 41.6353 31.5171C41.6353 31.4753 41.6771 31.4409 41.7616 31.4163C41.8749 31.3865 41.9548 31.3498 42.0017 31.3085C42.0858 31.2291 42.1281 31.0986 42.1281 30.917Z" fill="#8493AD"/>
<path d="M51.7555 27.8928L51.8405 31.0298C51.8451 31.1822 51.8916 31.2895 51.9808 31.3527C52.0147 31.3782 52.0932 31.4051 52.2162 31.4344C52.3017 31.4562 52.3435 31.4943 52.3435 31.5487C52.3435 31.5905 52.2929 31.6114 52.1916 31.6114C52.1624 31.6114 52.0797 31.6067 51.9455 31.5979C51.8108 31.5881 51.6946 31.5835 51.598 31.5835C51.5302 31.5835 51.4336 31.5881 51.3073 31.5979C51.1809 31.6072 51.0922 31.6114 51.042 31.6114C50.9956 31.6114 50.9728 31.5923 50.9728 31.5552C50.9728 31.5087 51.0058 31.4706 51.0736 31.4409C51.1753 31.3991 51.2404 31.3629 51.2696 31.3341C51.3374 31.2704 51.3686 31.1715 51.3644 31.0364L51.298 28.5825C51.2938 28.4181 51.2701 28.3368 51.2283 28.3368C51.1818 28.3368 51.1275 28.3995 51.0643 28.5254L49.7573 31.1924C49.6519 31.4028 49.5868 31.5083 49.5613 31.5083C49.5357 31.5083 49.4935 31.4474 49.435 31.3248L48.0898 28.5073C48.0685 28.4608 48.0434 28.4376 48.0141 28.4376C47.989 28.4376 47.9742 28.4692 47.9695 28.5319L47.8961 30.7516C47.8873 30.9964 47.9319 31.1734 48.0285 31.2835C48.0833 31.3424 48.1781 31.3889 48.3128 31.4223C48.414 31.4521 48.4647 31.492 48.4647 31.5431C48.4647 31.5895 48.4117 31.6118 48.3063 31.6118C48.2896 31.6118 48.2106 31.6072 48.0694 31.5984C47.9277 31.5886 47.8218 31.584 47.7503 31.584C47.624 31.584 47.5055 31.5886 47.3959 31.5984C47.2867 31.6077 47.2213 31.6118 47.1999 31.6118C47.1581 31.6118 47.1367 31.5872 47.1367 31.5366C47.1367 31.486 47.1725 31.4502 47.2435 31.4288C47.3406 31.3996 47.408 31.3661 47.4461 31.328C47.526 31.2482 47.5719 31.113 47.5854 30.9235C47.6184 30.4846 47.6523 30.0442 47.6862 29.6007C47.7196 29.1752 47.7364 28.825 47.7364 28.5509C47.7364 28.1162 47.6839 27.7962 47.5784 27.5895C47.5153 27.4589 47.4205 27.3688 47.2946 27.3182C47.1892 27.2801 47.1367 27.242 47.1367 27.2039C47.1367 27.1575 47.1725 27.1343 47.244 27.1343C47.2821 27.1343 47.3388 27.1399 47.4145 27.1487C47.4907 27.158 47.5496 27.1621 47.5919 27.1621C47.63 27.1621 47.6867 27.1575 47.7628 27.1487C47.8385 27.1394 47.8957 27.1343 47.9333 27.1343C47.9709 27.1343 47.9988 27.1543 48.015 27.1951C48.0322 27.2351 48.0494 27.2741 48.0657 27.3112L49.5692 30.5226C49.6282 30.6494 49.6746 30.7121 49.7085 30.7121C49.7252 30.7121 49.7903 30.5988 49.9041 30.3712L51.4076 27.3493C51.4791 27.2058 51.5339 27.1343 51.572 27.1343C51.5934 27.1343 51.6454 27.1399 51.7299 27.1487C51.814 27.158 51.8605 27.1621 51.8693 27.1621C51.9194 27.1621 51.9756 27.1575 52.0365 27.1487C52.0973 27.1399 52.1429 27.1343 52.1721 27.1343C52.2144 27.1343 52.2353 27.1598 52.2353 27.2105C52.2353 27.2569 52.1935 27.2913 52.1094 27.3122C51.9952 27.3377 51.9153 27.3749 51.8688 27.4255C51.7894 27.5175 51.7518 27.6735 51.7555 27.8928Z" fill="#8493AD"/>
<path d="M53.8232 30.917V27.6782C53.8232 27.5439 53.7786 27.4441 53.6895 27.3804C53.6426 27.347 53.5608 27.3149 53.4419 27.2861C53.3532 27.2643 53.3086 27.2374 53.3086 27.2035C53.3086 27.157 53.33 27.1338 53.3718 27.1338C53.4521 27.1338 53.5687 27.1394 53.7224 27.1482C53.8766 27.1575 53.9909 27.1617 54.0666 27.1617C54.1344 27.1617 54.2334 27.157 54.3639 27.1482C54.4944 27.1389 54.5915 27.1338 54.6546 27.1338C54.7345 27.1338 54.775 27.1556 54.775 27.1974C54.775 27.2355 54.735 27.2648 54.6556 27.2861C54.5515 27.3154 54.4809 27.3451 54.4433 27.3739C54.3639 27.4376 54.3244 27.5388 54.3244 27.6777V31.0744C54.3244 31.197 54.3727 31.2876 54.4684 31.3466C54.506 31.3675 54.5957 31.3972 54.7383 31.4344C54.8344 31.4641 54.8827 31.5022 54.8827 31.5486C54.8827 31.5904 54.8404 31.6113 54.7564 31.6113C54.7183 31.6113 54.6194 31.6067 54.4591 31.5979C54.2989 31.5881 54.1688 31.5835 54.0671 31.5835C53.9157 31.5835 53.7777 31.5881 53.6532 31.5979C53.5288 31.6072 53.4647 31.6113 53.4605 31.6113C53.3722 31.6113 53.3281 31.5807 53.3281 31.5171C53.3281 31.4753 53.3704 31.4409 53.4544 31.4163C53.5692 31.3865 53.65 31.3498 53.6964 31.3085C53.781 31.2291 53.8232 31.0986 53.8232 30.917Z" fill="#8493AD"/>
<path d="M56.877 27.3776C56.9527 27.3187 57.132 27.2889 57.4144 27.2889C58.034 27.2889 58.5399 27.4831 58.9328 27.8714C59.3457 28.2732 59.5524 28.8157 59.5524 29.4989C59.5524 30.1784 59.3727 30.6856 59.0155 31.0182C58.7117 31.3011 58.3062 31.4427 57.8009 31.4427C57.341 31.4427 57.0164 31.3475 56.8264 31.158C56.8009 31.1325 56.7888 30.9783 56.7888 30.6954V27.6879C56.7883 27.5235 56.8176 27.4204 56.877 27.3776ZM56.1747 31.3466C56.1283 31.3972 56.0549 31.4372 55.955 31.4664C55.8798 31.4873 55.8422 31.5152 55.8422 31.5491C55.8422 31.5909 55.8631 31.6118 55.9053 31.6118C55.9174 31.6118 56.0335 31.6072 56.2528 31.5983C56.472 31.5886 56.5914 31.5839 56.6127 31.5839C56.7224 31.5839 56.884 31.5886 57.0995 31.5983C57.3136 31.6076 57.4739 31.6118 57.5789 31.6118C58.4172 31.6118 59.042 31.3851 59.4549 30.9295C59.8302 30.5124 60.0174 29.9188 60.0174 29.1515C60.0174 28.5825 59.7879 28.0999 59.329 27.7037C58.8864 27.3247 58.3773 27.1338 57.8009 27.1338C57.6109 27.1338 57.3675 27.1394 57.0707 27.1482C56.7739 27.157 56.5598 27.1617 56.4297 27.1617C56.3666 27.1617 56.2728 27.157 56.1483 27.1482C56.0243 27.1389 55.9286 27.1338 55.8612 27.1338C55.8027 27.1338 55.7734 27.1556 55.7734 27.1974C55.7734 27.2355 55.8171 27.2648 55.9049 27.2861C56.0224 27.3154 56.106 27.3549 56.1562 27.406C56.2435 27.4868 56.2881 27.621 56.2881 27.8105V30.9602C56.2876 31.138 56.2495 31.2658 56.1747 31.3466Z" fill="#8493AD"/>
<path d="M62.2084 30.967V27.1304C62.2084 26.9047 62.1838 26.7913 62.135 26.7913H60.866C60.6542 26.7913 60.5112 26.8257 60.4373 26.8949C60.3927 26.9446 60.3338 27.0826 60.2599 27.3106C60.226 27.424 60.1842 27.4811 60.1359 27.4811C60.0871 27.4811 60.0625 27.4514 60.0625 27.3924L60.1438 26.6766L60.1661 26.4997C60.1851 26.4253 60.2223 26.3882 60.2762 26.3882C60.4383 26.3882 60.7402 26.3938 61.1824 26.4054C61.6241 26.4161 62.0198 26.4216 62.3691 26.4216C62.9139 26.4216 63.4225 26.4161 63.8935 26.4054C64.3654 26.3938 64.5768 26.3882 64.5271 26.3882C64.6111 26.3882 64.6659 26.4035 64.6929 26.4328C64.7198 26.4625 64.7356 26.5192 64.7407 26.6023L64.7779 27.1927C64.7825 27.3013 64.756 27.3552 64.6966 27.3552C64.6283 27.3552 64.5888 27.3065 64.5791 27.2075C64.5647 27.0733 64.5396 26.9846 64.5057 26.94C64.4323 26.841 64.2874 26.7923 64.0714 26.7923H62.9548C62.7927 26.7923 62.7035 26.803 62.6863 26.8248C62.6696 26.8466 62.6603 26.9562 62.6603 27.1532V30.9173C62.6603 31.0943 62.7119 31.222 62.8141 31.3C62.8628 31.3344 63.0235 31.3688 63.1652 31.4036C63.2674 31.4282 63.319 31.4682 63.319 31.5216C63.319 31.5806 63.2967 31.6103 63.2525 31.6103C63.1982 31.6103 63.1039 31.6047 62.9687 31.594C62.8336 31.5834 62.7291 31.5778 62.6557 31.5778C62.41 31.5778 62.2033 31.5806 62.0365 31.5861C61.9186 31.5917 61.789 31.5996 61.6464 31.6108C61.5874 31.6108 61.5581 31.5792 61.5581 31.5146C61.5581 31.471 61.6073 31.4282 61.7058 31.3892C61.854 31.3404 62.0161 31.3014 62.0602 31.2712C62.1591 31.1969 62.2084 31.0961 62.2084 30.967Z" fill="#8493AD"/>
<path d="M10.7679 35.2122V37.4812C10.7679 37.9656 10.9132 38.3363 11.2031 38.5931C11.4674 38.8337 11.825 38.9535 12.2746 38.9535C13.2449 38.9535 13.7303 38.4435 13.7303 37.424V35.3766C13.7303 35.1917 13.6801 35.0603 13.5798 34.9846C13.5334 34.947 13.4391 34.9135 13.2969 34.8838C13.1966 34.8582 13.1464 34.816 13.1464 34.7575C13.1464 34.7152 13.1678 34.6943 13.2096 34.6943C13.2942 34.6943 13.4182 34.6989 13.5826 34.7078C13.747 34.7175 13.8692 34.7222 13.9491 34.7222C13.9913 34.7222 14.0503 34.7175 14.126 34.7078C14.2017 34.6985 14.2589 34.6943 14.297 34.6943C14.3513 34.6943 14.3787 34.7175 14.3787 34.7635C14.3787 34.8058 14.3476 34.8411 14.284 34.8708C14.1957 34.9131 14.1349 34.9572 14.1005 35.0036C14.0373 35.0882 14.0057 35.214 14.0057 35.3826V37.3427C14.0057 38.5903 13.4186 39.2137 12.2444 39.2137C11.4869 39.2137 10.9504 39.0176 10.6346 38.6256C10.3907 38.326 10.2681 37.888 10.2681 37.3107V35.1801C10.2681 35.0747 10.2235 34.9985 10.1352 34.9525C10.1181 34.94 10.0354 34.9126 9.88721 34.8703C9.7985 34.8494 9.75391 34.8113 9.75391 34.7565C9.75391 34.7143 9.80035 34.6934 9.89278 34.6934C9.94759 34.6934 10.0284 34.698 10.1362 34.7068C10.243 34.7166 10.3266 34.7212 10.3856 34.7212C10.4529 34.7212 10.5537 34.7166 10.6889 34.7068C10.8231 34.6975 10.9225 34.6934 10.9857 34.6934C11.1204 34.6934 11.1882 34.7143 11.1882 34.7565C11.1882 34.7988 11.1529 34.8304 11.0818 34.8513C10.9773 34.8805 10.9086 34.9079 10.8752 34.9335C10.8032 34.9892 10.7679 35.0817 10.7679 35.2122Z" fill="#8493AD"/>
<path d="M15.8203 38.2735V35.94C15.8203 35.5564 15.7548 35.2758 15.6248 35.0984C15.5407 34.9929 15.4176 34.9191 15.2537 34.8768C15.1236 34.8429 15.0586 34.803 15.0586 34.7565C15.0586 34.7143 15.0897 34.6934 15.1533 34.6934C15.1868 34.6934 15.2365 34.698 15.3015 34.7068C15.367 34.7166 15.4162 34.7212 15.4497 34.7212C15.4831 34.7212 15.5333 34.7166 15.5979 34.7068C15.6633 34.6975 15.7107 34.6934 15.7404 34.6934C15.7618 34.6934 15.8162 34.7417 15.9049 34.8387L18.9189 38.1955C18.9616 38.242 18.9867 38.2647 18.995 38.2647C19.0076 38.2647 19.0141 38.2415 19.0141 38.1955V35.5536C19.0141 35.313 18.9528 35.1365 18.8301 35.0222C18.7628 34.959 18.6509 34.9084 18.4948 34.8708C18.3726 34.8411 18.3113 34.803 18.3113 34.757C18.3113 34.7147 18.3346 34.6938 18.3805 34.6938C18.4442 34.6938 18.5389 34.6985 18.6648 34.7073C18.7911 34.717 18.8877 34.7217 18.9556 34.7217C19.0313 34.7217 19.1451 34.717 19.2965 34.7073C19.4479 34.698 19.5473 34.6938 19.5937 34.6938C19.636 34.6938 19.6569 34.7129 19.6569 34.7505C19.6569 34.7928 19.6258 34.8262 19.5631 34.8517C19.4758 34.894 19.4159 34.9298 19.3819 34.959C19.3192 35.0269 19.2886 35.1272 19.2886 35.2619V38.9206C19.2886 39.1022 19.2691 39.1923 19.2315 39.1923C19.1766 39.1923 19.0963 39.1338 18.9909 39.0153L16.2709 35.9586C16.1993 35.8782 16.1548 35.8383 16.1385 35.8383C16.1088 35.8383 16.0939 35.8866 16.0939 35.9837V38.5699C16.0939 38.7343 16.1422 38.8504 16.2393 38.9178C16.2899 38.9559 16.3782 38.9856 16.504 39.006C16.6011 39.0186 16.6494 39.0464 16.6494 39.0882C16.6494 39.143 16.6262 39.1709 16.5802 39.1709C16.5421 39.1709 16.4557 39.1658 16.3206 39.157C16.1859 39.1472 16.0591 39.1426 15.942 39.1426C15.8533 39.1426 15.6554 39.1523 15.348 39.1714C15.2932 39.1714 15.2658 39.1482 15.2658 39.1022C15.2658 39.0515 15.3141 39.0135 15.4107 38.9879C15.5324 38.9503 15.6197 38.8978 15.6745 38.83C15.772 38.7162 15.8203 38.5309 15.8203 38.2735Z" fill="#8493AD"/>
<path d="M21.1943 38.4756V35.2373C21.1943 35.1026 21.1497 35.0032 21.061 34.9395C21.0141 34.9061 20.9319 34.874 20.8135 34.8448C20.7247 34.8239 20.6797 34.7965 20.6797 34.7626C20.6797 34.7161 20.7011 34.6934 20.7429 34.6934C20.8232 34.6934 20.9403 34.698 21.094 34.7068C21.2477 34.7166 21.3625 34.7212 21.4382 34.7212C21.5055 34.7212 21.6045 34.7166 21.7354 34.7068C21.8655 34.6975 21.9626 34.6934 22.0262 34.6934C22.1061 34.6934 22.146 34.7143 22.146 34.7565C22.146 34.7946 22.1066 34.8243 22.0271 34.8448C21.9231 34.874 21.852 34.9038 21.8149 34.933C21.7354 34.9967 21.6955 35.0975 21.6955 35.2368V38.6335C21.6955 38.7557 21.7438 38.8463 21.84 38.9052C21.8771 38.9266 21.9672 38.9559 22.1093 38.994C22.2055 39.0232 22.2538 39.0613 22.2538 39.1073C22.2538 39.1496 22.2115 39.1709 22.1275 39.1709C22.0898 39.1709 21.9904 39.1658 21.8302 39.157C21.6704 39.1472 21.5399 39.1426 21.4386 39.1426C21.2872 39.1426 21.1488 39.1477 21.0243 39.157C20.8998 39.1663 20.8362 39.1709 20.832 39.1709C20.7433 39.1709 20.6992 39.1393 20.6992 39.0757C20.6992 39.0339 20.7415 39 20.8265 38.9749C20.9407 38.9456 21.0211 38.909 21.068 38.8676C21.1521 38.7877 21.1943 38.6572 21.1943 38.4756Z" fill="#8493AD"/>
<path d="M25.1046 38.8718L23.5449 35.1806C23.4859 35.0371 23.3847 34.94 23.2421 34.8894C23.1199 34.8476 23.0586 34.8118 23.0586 34.7825C23.0586 34.7236 23.0883 34.6943 23.1473 34.6943C23.2147 34.6943 23.3122 34.6989 23.4404 34.7078C23.5691 34.7175 23.6652 34.7222 23.7284 34.7222C23.7915 34.7222 23.8854 34.7175 24.0094 34.7078C24.1339 34.6985 24.2059 34.6943 24.2268 34.6943C24.2862 34.6943 24.3155 34.7152 24.3155 34.7575C24.3155 34.7742 24.2723 34.8099 24.1859 34.8647C24.0995 34.9196 24.0568 34.9911 24.0568 35.0798C24.0568 35.1555 24.0753 35.2377 24.1134 35.326L25.2193 37.9303C25.2695 38.0525 25.3201 38.1741 25.3708 38.2968C25.4088 38.3725 25.4418 38.4106 25.472 38.4106C25.5013 38.4106 25.5394 38.3516 25.5853 38.2331L26.6848 35.5215C26.7609 35.332 26.7907 35.1885 26.7735 35.0914C26.7735 34.9823 26.7057 34.9112 26.571 34.8801C26.4363 34.8485 26.3685 34.8132 26.3685 34.7756C26.3685 34.7208 26.4 34.6934 26.4632 34.6934C26.5097 34.6934 26.5784 34.698 26.6713 34.7068C26.7633 34.7166 26.8329 34.7212 26.8789 34.7212C26.9969 34.7212 27.1037 34.7166 27.2003 34.7068C27.2969 34.6975 27.3518 34.6934 27.3648 34.6934C27.4358 34.6934 27.4716 34.7208 27.4716 34.7756C27.4716 34.8048 27.4358 34.8369 27.3643 34.8703C27.2677 34.9168 27.185 35.0199 27.1186 35.1801L25.5459 38.9038C25.5166 38.9837 25.4836 39.065 25.4474 39.1468C25.4116 39.229 25.3754 39.2699 25.3373 39.2699C25.2951 39.2699 25.2509 39.2197 25.2049 39.1184C25.172 39.0385 25.1385 38.9568 25.1046 38.8718Z" fill="#8493AD"/>
<path d="M29.331 35.3603V36.5373C29.331 36.6474 29.3403 36.7106 29.3593 36.7273C29.3784 36.7445 29.4485 36.7528 29.5711 36.7528H30.2534C30.4476 36.7528 30.5888 36.7082 30.677 36.6191C30.7314 36.5684 30.7741 36.4876 30.8034 36.3771C30.8285 36.2879 30.8582 36.2428 30.8912 36.2428C30.9376 36.2428 30.9608 36.2832 30.9608 36.3636C30.9608 36.4393 30.9585 36.5475 30.9543 36.6887C30.9502 36.8299 30.9478 36.934 30.9478 37.0013C30.9478 37.0561 30.9502 37.1383 30.9543 37.248C30.9585 37.3571 30.9608 37.4416 30.9608 37.5006C30.9608 37.5554 30.9372 37.5828 30.8912 37.5828C30.8452 37.5828 30.8117 37.5345 30.7904 37.4375C30.7611 37.3028 30.7309 37.215 30.7021 37.1727C30.6385 37.0761 30.5317 37.0278 30.3798 37.0278H29.4443C29.3853 37.0278 29.3491 37.0487 29.337 37.091C29.3328 37.1077 29.331 37.1541 29.331 37.2303V38.3929C29.331 38.6163 29.3454 38.751 29.3751 38.7975C29.4257 38.8778 29.5707 38.9178 29.8108 38.9178C30.2404 38.9178 30.6027 38.8606 30.8977 38.7468C31.1002 38.6707 31.2665 38.5671 31.397 38.4361C31.515 38.3223 31.5716 38.2652 31.5674 38.2652C31.6014 38.2652 31.6176 38.2907 31.6176 38.3413C31.6176 38.5188 31.5122 38.7236 31.3018 38.9563C31.2093 39.058 31.1146 39.1207 31.0175 39.1463C30.9632 39.163 30.8512 39.1718 30.6826 39.1718C30.5521 39.1718 30.3115 39.1644 29.9622 39.1505C29.6594 39.1416 29.4188 39.1393 29.2418 39.143C29.1916 39.143 29.0625 39.1481 28.8563 39.1574C28.6961 39.1667 28.5679 39.1714 28.4712 39.1714C28.4076 39.1714 28.3765 39.15 28.3765 39.1077C28.3807 39.0743 28.4183 39.0404 28.4898 39.0065C28.5437 38.9856 28.5985 38.9642 28.6533 38.9433C28.7286 38.9052 28.7792 38.8397 28.8047 38.7468C28.821 38.6795 28.8298 38.5615 28.8298 38.3924V35.508C28.8298 35.3139 28.815 35.1792 28.7857 35.1035C28.7392 34.9683 28.6403 34.8903 28.4894 34.8689C28.3635 34.8355 28.3008 34.8016 28.3008 34.7681C28.3008 34.718 28.3742 34.6929 28.5219 34.6929C28.9975 34.6929 29.4118 34.6975 29.7634 34.7063C30.115 34.7161 30.2971 34.7207 30.3101 34.7207C30.3477 34.7207 30.4903 34.7161 30.7365 34.7063C30.9831 34.6971 31.142 34.6929 31.2135 34.6929C31.2558 34.6929 31.2767 34.7393 31.2767 34.8317C31.2767 35.3343 31.2344 35.5851 31.1508 35.5851C31.096 35.5851 31.064 35.5285 31.0561 35.4147C31.0472 35.2716 31.0287 35.1796 30.9989 35.1369C30.9316 35.0445 30.763 34.9878 30.4936 34.9669C30.4388 34.9627 30.2488 34.9604 29.9246 34.9604C29.6166 34.9604 29.4411 34.9743 29.3965 35.0017C29.3528 35.0301 29.331 35.1499 29.331 35.3603Z" fill="#8493AD"/>
<path d="M33.6394 34.9307C33.677 34.914 33.7657 34.9052 33.9046 34.9052C34.2497 34.9052 34.5274 34.9809 34.7379 35.1332C34.9859 35.3107 35.1104 35.5787 35.1104 35.9377C35.1104 36.2796 34.9989 36.5267 34.7759 36.6786C34.6245 36.7845 34.4429 36.8374 34.233 36.8374C33.9213 36.8374 33.7699 36.8374 33.7782 36.8374C33.6222 36.8286 33.5446 36.7993 33.5446 36.7487V35.1393C33.5451 35.0297 33.5767 34.96 33.6394 34.9307ZM35.3565 36.4454C35.5075 36.2471 35.5832 36.0283 35.5832 35.7877C35.5832 35.2777 35.3472 34.9423 34.8763 34.7821C34.6947 34.7231 34.4318 34.6938 34.0867 34.6938C33.9812 34.6938 33.8108 34.6985 33.5748 34.7073C33.3384 34.7171 33.1577 34.7217 33.0309 34.7217C32.9041 34.7217 32.8103 34.7171 32.7499 34.7073C32.6886 34.698 32.6472 34.6938 32.6259 34.6938C32.5418 34.6938 32.5 34.7189 32.5 34.7696C32.5 34.8202 32.5464 34.8559 32.6389 34.8769C32.7694 34.9024 32.8586 34.9317 32.9041 34.9651C32.997 35.0329 33.0439 35.1546 33.0439 35.332V38.5518C33.0439 38.6911 33.004 38.7984 32.9241 38.8741C32.886 38.9122 32.8117 38.9522 32.702 38.9949C32.6222 39.0283 32.5817 39.0641 32.5817 39.1022C32.5817 39.1486 32.6031 39.1714 32.6449 39.1714C32.7253 39.1714 32.8456 39.1663 33.0058 39.1575C33.1665 39.1477 33.2864 39.1431 33.3667 39.1431C33.5813 39.1431 33.762 39.1482 33.9069 39.1575C34.0523 39.1668 34.1145 39.1714 34.0932 39.1714C34.1647 39.1714 34.2005 39.1542 34.2005 39.1208C34.2005 39.0664 34.1433 39.0265 34.0305 39.0009C33.8702 38.9629 33.7657 38.9294 33.7146 38.8997C33.6008 38.8282 33.5446 38.7144 33.5446 38.5583V37.2257C33.5446 37.1625 33.5465 37.1245 33.5511 37.1124C33.5678 37.0696 33.6203 37.0487 33.709 37.0487C34.0541 37.0487 34.252 37.059 34.3022 37.0803C34.3528 37.1012 34.435 37.2025 34.5483 37.3832L35.2497 38.4891C35.389 38.7079 35.5172 38.8676 35.6352 38.9689C35.7996 39.1041 35.9868 39.1714 36.1977 39.1714C36.4713 39.1714 36.6074 39.1459 36.6074 39.0952C36.6074 39.0618 36.5758 39.0386 36.5131 39.026C36.4076 39.0005 36.3194 38.9647 36.2483 38.9187C36.1085 38.8305 35.9743 38.6846 35.8438 38.4826L34.7885 36.8825C35.0151 36.7891 35.2047 36.6437 35.3565 36.4454Z" fill="#8493AD"/>
<path d="M37.25 38.8658L37.0921 38.0502C37.0665 37.9196 37.0897 37.8542 37.1617 37.8542C37.1998 37.8542 37.2272 37.8732 37.2439 37.9108L37.2825 38.0622C37.3368 38.2726 37.459 38.4663 37.648 38.6428C37.9049 38.8867 38.2245 39.0088 38.6067 39.0088C38.9305 39.0088 39.2036 38.9248 39.427 38.7562C39.6704 38.575 39.793 38.3265 39.793 38.0111C39.793 37.6781 39.5719 37.4319 39.1307 37.2717C38.7187 37.1324 38.3067 36.9935 37.8947 36.8546C37.4534 36.6354 37.2328 36.2926 37.2328 35.8249C37.2328 35.4463 37.3759 35.1467 37.6624 34.9275C37.9188 34.7338 38.243 34.6367 38.6346 34.6367C38.8571 34.6367 39.0554 34.6558 39.2282 34.6938C39.3415 34.7194 39.4493 34.7575 39.5496 34.8076C39.6342 34.8462 39.6825 34.8652 39.695 34.8652C39.7117 34.8652 39.7326 34.8541 39.7582 34.8304C39.7832 34.8072 39.8065 34.7956 39.8274 34.7956C39.8692 34.7956 39.8947 34.8253 39.9031 34.8843L39.9978 35.7436C40.0062 35.8067 39.983 35.8383 39.9286 35.8383C39.8822 35.8383 39.8385 35.7752 39.7967 35.6488C39.7038 35.3836 39.5515 35.1802 39.3392 35.039C39.1269 34.8978 38.8775 34.8272 38.5923 34.8272C38.3146 34.8272 38.0814 34.8903 37.8919 35.0167C37.6736 35.1681 37.5644 35.379 37.5644 35.6484C37.5644 35.9684 37.7851 36.209 38.2263 36.3692C38.6383 36.5127 39.0498 36.6535 39.4623 36.7928C39.9035 37.0288 40.1242 37.3929 40.1242 37.8862C40.1242 38.2234 40.002 38.51 39.7582 38.7459C39.4419 39.0581 38.9621 39.2137 38.3174 39.2137C38.0981 39.2137 37.8645 39.1691 37.6165 39.0808C37.3847 39.0009 37.2625 38.9294 37.25 38.8658Z" fill="#8493AD"/>
<path d="M41.7646 38.4756V35.2373C41.7646 35.1026 41.7201 35.0032 41.6313 34.9395C41.5844 34.9061 41.5022 34.874 41.3838 34.8448C41.2946 34.8239 41.25 34.7965 41.25 34.7626C41.25 34.7161 41.2714 34.6934 41.3132 34.6934C41.3935 34.6934 41.5101 34.698 41.6643 34.7068C41.8181 34.7166 41.9328 34.7212 42.008 34.7212C42.0758 34.7212 42.1748 34.7166 42.3053 34.7068C42.4358 34.6975 42.5329 34.6934 42.5961 34.6934C42.6759 34.6934 42.7164 34.7143 42.7164 34.7565C42.7164 34.7946 42.6764 34.8243 42.5974 34.8448C42.4929 34.874 42.4223 34.9038 42.3847 34.933C42.3053 34.9967 42.2658 35.0975 42.2658 35.2368V38.6335C42.2658 38.7557 42.3141 38.8463 42.4098 38.9052C42.4474 38.9266 42.5375 38.9559 42.6797 38.994C42.7758 39.0232 42.8241 39.0613 42.8241 39.1073C42.8241 39.1496 42.7818 39.1709 42.6978 39.1709C42.6597 39.1709 42.5608 39.1658 42.4005 39.157C42.2407 39.1472 42.1102 39.1426 42.0085 39.1426C41.8571 39.1426 41.7191 39.1477 41.5946 39.157C41.4702 39.1663 41.4061 39.1709 41.4019 39.1709C41.3136 39.1709 41.2695 39.1393 41.2695 39.0757C41.2695 39.0339 41.3118 39 41.3963 38.9749C41.5106 38.9456 41.5914 38.909 41.6378 38.8676C41.7224 38.7877 41.7646 38.6572 41.7646 38.4756Z" fill="#8493AD"/>
<path d="M45.3622 38.621V35.3302C45.3622 35.136 45.3408 35.039 45.2985 35.039H44.266C44.0844 35.039 43.9627 35.0687 43.8995 35.1281C43.861 35.1704 43.8108 35.2893 43.7477 35.4839C43.7179 35.5815 43.6826 35.6302 43.6408 35.6302C43.599 35.6302 43.5781 35.6047 43.5781 35.5541L43.6473 34.9405L43.6664 34.7886C43.6831 34.725 43.7147 34.6938 43.7616 34.6938C43.9005 34.6938 44.1587 34.6985 44.5382 34.7073C44.9172 34.7171 45.2558 34.7217 45.5549 34.7217C46.0227 34.7217 46.4583 34.7171 46.8629 34.7073C47.267 34.698 47.4486 34.6938 47.4063 34.6938C47.4779 34.6938 47.5257 34.7059 47.5485 34.7315C47.5722 34.757 47.5856 34.8053 47.5894 34.8769L47.6209 35.3836C47.6256 35.4765 47.6024 35.5229 47.5522 35.5229C47.4932 35.5229 47.4598 35.4807 47.4514 35.3957C47.4384 35.2809 47.4175 35.2048 47.3878 35.1667C47.3246 35.0817 47.201 35.0394 47.0157 35.0394H46.1142C45.9753 35.0394 45.8987 35.0492 45.8843 35.0682C45.8694 35.0873 45.862 35.1811 45.862 35.3497V38.5769C45.862 38.7288 45.9061 38.8384 45.9939 38.9062C46.0357 38.9355 46.117 38.9652 46.2387 38.9944C46.326 39.0158 46.3696 39.0492 46.3696 39.0957C46.3696 39.1463 46.3506 39.1719 46.3125 39.1719C46.2661 39.1719 46.1857 39.1668 46.0696 39.1579C45.9535 39.1482 45.8643 39.1435 45.8011 39.1435C45.5907 39.1435 45.4137 39.1463 45.2707 39.151C45.169 39.1556 45.0575 39.1626 44.9358 39.1723C44.8852 39.1723 44.8596 39.1445 44.8596 39.0897C44.8596 39.052 44.9023 39.0163 44.9864 38.9824C45.1132 38.9401 45.1959 38.9067 45.234 38.8811C45.3204 38.8175 45.3622 38.7306 45.3622 38.621Z" fill="#8493AD"/>
<path d="M54.0462 38.621V35.3302C54.0462 35.136 54.0249 35.039 53.9826 35.039H52.9501C52.7685 35.039 52.6458 35.0687 52.5827 35.1281C52.5446 35.1704 52.494 35.2893 52.4308 35.4839C52.4015 35.5815 52.3662 35.6302 52.3244 35.6302C52.2826 35.6302 52.2617 35.6047 52.2617 35.5541L52.3309 34.9405L52.3495 34.7886C52.3667 34.725 52.3978 34.6938 52.4443 34.6938C52.5836 34.6938 52.8423 34.6985 53.2223 34.7073C53.6008 34.7171 53.9403 34.7217 54.239 34.7217C54.7067 34.7217 55.1424 34.7171 55.5465 34.7073C55.9511 34.698 56.1322 34.6938 56.0899 34.6938C56.1619 34.6938 56.2093 34.7059 56.2325 34.7315C56.2558 34.757 56.2692 34.8053 56.2739 34.8769L56.305 35.3836C56.3092 35.4765 56.2864 35.5229 56.2362 35.5229C56.1773 35.5229 56.1438 35.4807 56.135 35.3957C56.1225 35.2809 56.1015 35.2048 56.0723 35.1667C56.0087 35.0817 55.8846 35.0394 55.6998 35.0394H54.7982C54.6593 35.0394 54.5827 35.0492 54.5683 35.0682C54.5534 35.0873 54.5465 35.1811 54.5465 35.3497V38.5769C54.5465 38.7288 54.5901 38.8384 54.6775 38.9062C54.7193 38.9355 54.801 38.9652 54.9218 38.9944C55.0096 39.0158 55.0537 39.0492 55.0537 39.0957C55.0537 39.1463 55.0346 39.1719 54.997 39.1719C54.9506 39.1719 54.8693 39.1668 54.7536 39.1579C54.638 39.1482 54.5488 39.1435 54.4852 39.1435C54.2748 39.1435 54.0978 39.1463 53.9543 39.151C53.853 39.1556 53.7415 39.1626 53.6194 39.1723C53.5688 39.1723 53.5437 39.1445 53.5437 39.0897C53.5437 39.052 53.5859 39.0163 53.6705 38.9824C53.7968 38.9401 53.8795 38.9067 53.918 38.8811C54.0035 38.8175 54.0462 38.7306 54.0462 38.621Z" fill="#8493AD"/>
<path d="M52.1282 39.0072C51.9638 38.978 51.8477 38.9102 51.7803 38.8047C51.7213 38.7118 51.6628 38.5938 51.6038 38.4503C51.5569 38.3282 51.5109 38.206 51.4645 38.0839L50.1491 34.8279C50.0859 34.6723 50.0423 34.5942 50.0162 34.5942C49.9786 34.5942 49.9364 34.6444 49.8904 34.7461C49.7719 34.9946 49.6563 35.2431 49.5425 35.4916L48.0315 38.7151C47.9679 38.8502 47.8708 38.9427 47.7408 38.9938C47.627 39.036 47.5703 39.0718 47.5703 39.1011C47.5703 39.1475 47.5894 39.1703 47.627 39.1703C47.6813 39.1703 47.7649 39.1652 47.8764 39.1563C47.9879 39.1466 48.0738 39.1419 48.1328 39.1419C48.1918 39.1419 48.2796 39.147 48.3975 39.1563C48.5155 39.1656 48.6038 39.1703 48.6632 39.1703C48.7306 39.1703 48.7687 39.1679 48.7766 39.1638C48.8146 39.1549 48.8337 39.1257 48.8337 39.075C48.8337 39.0328 48.7956 39.0058 48.7199 38.9928C48.6107 38.9715 48.5364 38.9482 48.4983 38.9232C48.4226 38.8725 48.3845 38.7834 48.3845 38.657C48.3845 38.5725 48.3994 38.4982 48.4296 38.4345L48.8337 37.5474C48.876 37.4587 48.9749 37.4141 49.131 37.4141H50.5207C50.6428 37.4141 50.7353 37.4949 50.7994 37.6556L51.0014 38.1754C51.1319 38.5093 51.1974 38.7095 51.1974 38.7778C51.1974 38.866 51.1338 38.9329 51.0079 38.9775C50.8816 39.0216 50.8184 39.0648 50.8184 39.1071C50.8184 39.1494 50.8648 39.1707 50.9577 39.1707C51.0167 39.1707 51.1031 39.1656 51.2174 39.1568C51.3312 39.147 51.4162 39.1424 51.4705 39.1424C51.5592 39.1424 51.6902 39.1475 51.8635 39.1568C52.0363 39.1661 52.1649 39.1707 52.2495 39.1707C52.3084 39.1707 52.3377 39.1517 52.3377 39.1136C52.3368 39.0681 52.2676 39.0323 52.1282 39.0072ZM50.4259 37.14H49.1751C49.1073 37.14 49.0738 37.121 49.0738 37.0834C49.0738 37.0708 49.0803 37.0523 49.0929 37.0267L49.8068 35.4907C49.8235 35.4526 49.8402 35.4335 49.8574 35.4335C49.8741 35.4335 49.8908 35.4526 49.9071 35.4907L50.5267 37.0137C50.5392 37.0471 50.5458 37.0704 50.5458 37.0829C50.5462 37.121 50.5058 37.14 50.4259 37.14Z" fill="#8493AD"/>
<path d="M49.3357 34.9545C49.5124 34.9545 49.6557 34.8112 49.6557 34.6345C49.6557 34.4577 49.5124 34.3145 49.3357 34.3145C49.1589 34.3145 49.0156 34.4577 49.0156 34.6345C49.0156 34.8112 49.1589 34.9545 49.3357 34.9545Z" fill="#8493AD"/>
<path d="M50.7067 34.9545C50.8835 34.9545 51.0268 34.8112 51.0268 34.6345C51.0268 34.4577 50.8835 34.3145 50.7067 34.3145C50.53 34.3145 50.3867 34.4577 50.3867 34.6345C50.3867 34.8112 50.53 34.9545 50.7067 34.9545Z" fill="#8493AD"/>
<path d="M64.768 41.397H1.26562V41.5131H64.768V41.397Z" fill="#8493AD"/>
<path d="M0.261719 1.62232C4.68261 1.12115 10.8546 1.40634 17.5598 2.5889C24.2668 3.77099 30.1638 5.61404 34.1463 7.59736C31.4476 5.19369 25.2278 2.7654 17.7618 1.44861C10.2949 0.132278 3.61896 0.286485 0.261719 1.62232Z" fill="#8493AD"/>
<path d="M0.261719 14.8022C1.8702 12.7603 4.52701 10.3218 7.77835 8.03847C11.0297 5.75464 14.2244 4.08206 16.6907 3.26318C14.5764 3.37419 11.0051 4.9353 7.38541 7.47831C3.76434 10.0213 1.08431 12.8518 0.261719 14.8022Z" fill="#8493AD"/>
<path d="M50.582 16.2441C51.8691 13.9282 54.0944 11.001 57.0053 8.19467C59.9166 5.3883 62.9292 3.26564 65.2916 2.06543C63.168 2.49275 59.8093 4.61123 56.5682 7.7353C53.3271 10.8589 51.0874 14.1372 50.582 16.2441Z" fill="#8493AD"/>
<path d="M34.4375 20.4322C35.4607 17.9054 37.4083 14.6471 39.9815 11.3447C42.5566 8.0427 45.2412 5.35941 47.4424 3.75C45.3945 4.54937 42.3081 7.24705 39.4427 10.9234C36.5769 14.5997 34.7134 18.2514 34.4375 20.4322Z" fill="#8493AD"/>
<path d="M17.7852 16.4917C19.1029 14.7318 21.3811 12.4043 24.1072 10.4734C26.8327 8.54261 29.4607 7.39489 31.5574 6.73486C29.7408 6.77852 26.5991 7.83382 23.5656 9.98388C20.5302 12.1335 18.4285 14.7921 17.7852 16.4917Z" fill="#8493AD"/>
<path d="M17.8688 19.6043C17.1247 17.5393 16.6593 14.5722 16.6593 11.2758C16.6593 7.97799 17.1252 5.01184 17.8688 2.94678C16.7495 4.4345 15.9766 7.60502 15.9766 11.2739C15.9766 14.9452 16.7495 18.1161 17.8688 19.6043Z" fill="#8493AD"/>
<path d="M49.9943 16.3422C49.2507 14.3161 48.7843 11.4057 48.7843 8.17015C48.7843 4.93693 49.2511 2.02558 49.9943 0C48.8749 1.45939 48.1016 4.56953 48.1016 8.17015C48.1016 11.7717 48.8749 14.8828 49.9943 16.3422Z" fill="#8493AD"/>
<path d="M34.1354 21.5263C33.3913 19.537 32.925 16.68 32.925 13.5029C32.925 10.3269 33.3918 7.33701 34.1354 5.34766C33.0155 6.78103 32.2422 9.96642 32.2422 13.5029C32.2422 17.039 33.0155 20.0929 34.1354 21.5263Z" fill="#8493AD"/>
<path d="M0.167969 16.7038C4.89588 16.4195 11.5314 16.89 18.7726 18.1664C26.0147 19.4433 32.411 21.2715 36.7558 23.1544C33.7752 20.9472 27.011 18.5937 18.9482 17.1711C10.8853 15.7502 3.72401 15.6485 0.167969 16.7038Z" fill="#8493AD"/>
<path d="M32.6523 7.66697C36.5684 5.69526 42.3692 3.86987 48.968 2.70635C55.5678 1.54237 61.6441 1.27391 65.9981 1.78715C62.6882 0.442956 56.1154 0.27017 48.7669 1.56653C41.4198 2.86195 35.3017 5.27166 32.6523 7.66697Z" fill="#8493AD"/>
<path d="M33.3242 22.6322C37.1654 20.7585 42.8469 19.0056 49.3032 17.8672C55.7608 16.7292 61.6991 16.4319 65.9486 16.8801C62.7256 15.6456 56.3052 15.5341 49.116 16.8026C41.9273 18.0697 35.9313 20.3712 33.3242 22.6322Z" fill="#8493AD"/>
</svg>
