<svg width="102" height="26" viewBox="0 0 102 26" fill="none" xmlns="http://www.w3.org/2000/svg">
<path d="M39.6992 4.84375H41.6559V21.6296H39.6992V4.84375Z" fill="#8493AD"/>
<path d="M47.9531 13.1393C47.9531 8.43483 51.9798 4.4541 56.7154 4.4541C61.4794 4.4541 65.4494 8.40699 65.4494 13.1393C65.4494 17.8717 61.451 21.8246 56.7154 21.8246C52.0082 21.8524 47.9531 17.8717 47.9531 13.1393ZM63.4927 13.1393C63.4927 9.40913 60.4018 6.23568 56.7154 6.23568C53.029 6.23568 49.9098 9.40913 49.9098 13.1393C49.9098 16.8974 53.029 20.0708 56.7154 20.0708C60.4018 20.0708 63.4927 16.8974 63.4927 13.1393Z" fill="#8493AD"/>
<path d="M75.4869 6.45835H69.7305V4.64893H83.1717V6.45835H77.4152V21.4348H75.4586L75.4869 6.45835Z" fill="#8493AD"/>
<path d="M93.4369 6.98726L86.9432 21.4348H84.8164L91.934 5.59539C92.1892 5.01081 92.7847 4.64893 93.4086 4.64893C94.0608 4.64893 94.6279 5.01081 94.8831 5.59539L102.001 21.4348H99.874L93.4369 6.98726Z" fill="#8493AD"/>
<path d="M20.0489 3.11777C20.9259 3.11777 21.6369 2.41984 21.6369 1.55889C21.6369 0.697937 20.9259 0 20.0489 0C19.1719 0 18.4609 0.697937 18.4609 1.55889C18.4609 2.41984 19.1719 3.11777 20.0489 3.11777Z" fill="#8493AD"/>
<path d="M21.8341 25.1368C22.7111 25.1368 23.4221 24.4389 23.4221 23.5779C23.4221 22.717 22.7111 22.019 21.8341 22.019C20.9571 22.019 20.2461 22.717 20.2461 23.5779C20.2461 24.4389 20.9571 25.1368 21.8341 25.1368Z" fill="#8493AD"/>
<path d="M20.5007 7.01514C21.2368 7.01514 21.8335 6.42937 21.8335 5.70679C21.8335 4.98421 21.2368 4.39844 20.5007 4.39844C19.7647 4.39844 19.168 4.98421 19.168 5.70679C19.168 6.42937 19.7647 7.01514 20.5007 7.01514Z" fill="#8493AD"/>
<path d="M24.0476 7.51612C24.7837 7.51612 25.3804 6.93035 25.3804 6.20777C25.3804 5.48518 24.7837 4.89941 24.0476 4.89941C23.3115 4.89941 22.7148 5.48518 22.7148 6.20777C22.7148 6.93035 23.3115 7.51612 24.0476 7.51612Z" fill="#8493AD"/>
<path d="M20.0483 10.3276C20.6748 10.3276 21.1826 9.82904 21.1826 9.21408C21.1826 8.59911 20.6748 8.10059 20.0483 8.10059C19.4219 8.10059 18.9141 8.59911 18.9141 9.21408C18.9141 9.82904 19.4219 10.3276 20.0483 10.3276Z" fill="#8493AD"/>
<path d="M23.5913 10.8007C24.2178 10.8007 24.7256 10.3022 24.7256 9.68722C24.7256 9.07226 24.2178 8.57373 23.5913 8.57373C22.9649 8.57373 22.457 9.07226 22.457 9.68722C22.457 10.3022 22.9649 10.8007 23.5913 10.8007Z" fill="#8493AD"/>
<path d="M26.4272 11.8866C27.0537 11.8866 27.5615 11.3881 27.5615 10.7732C27.5615 10.1582 27.0537 9.65967 26.4272 9.65967C25.8008 9.65967 25.293 10.1582 25.293 10.7732C25.293 11.3881 25.8008 11.8866 26.4272 11.8866Z" fill="#8493AD"/>
<path d="M22.5433 13.4735C23.0914 13.4735 23.5358 13.0373 23.5358 12.4992C23.5358 11.9611 23.0914 11.5249 22.5433 11.5249C21.9951 11.5249 21.5508 11.9611 21.5508 12.4992C21.5508 13.0373 21.9951 13.4735 22.5433 13.4735Z" fill="#8493AD"/>
<path d="M19.0003 12.9999C19.5484 12.9999 19.9928 12.5637 19.9928 12.0256C19.9928 11.4875 19.5484 11.0513 19.0003 11.0513C18.4522 11.0513 18.0078 11.4875 18.0078 12.0256C18.0078 12.5637 18.4522 12.9999 19.0003 12.9999Z" fill="#8493AD"/>
<path d="M25.4066 14.559C25.9547 14.559 26.3991 14.1227 26.3991 13.5847C26.3991 13.0466 25.9547 12.6104 25.4066 12.6104C24.8584 12.6104 24.4141 13.0466 24.4141 13.5847C24.4141 14.1227 24.8584 14.559 25.4066 14.559Z" fill="#8493AD"/>
<path d="M21.1241 15.5052C21.594 15.5052 21.9749 15.1313 21.9749 14.6701C21.9749 14.2089 21.594 13.835 21.1241 13.835C20.6543 13.835 20.2734 14.2089 20.2734 14.6701C20.2734 15.1313 20.6543 15.5052 21.1241 15.5052Z" fill="#8493AD"/>
<path d="M23.9913 16.5633C24.4612 16.5633 24.842 16.1894 24.842 15.7282C24.842 15.267 24.4612 14.8931 23.9913 14.8931C23.5215 14.8931 23.1406 15.267 23.1406 15.7282C23.1406 16.1894 23.5215 16.5633 23.9913 16.5633Z" fill="#8493AD"/>
<path d="M17.6085 15.0042C18.0784 15.0042 18.4592 14.6303 18.4592 14.1691C18.4592 13.7079 18.0784 13.334 17.6085 13.334C17.1387 13.334 16.7578 13.7079 16.7578 14.1691C16.7578 14.6303 17.1387 15.0042 17.6085 15.0042Z" fill="#8493AD"/>
<path d="M19.5644 16.8694C19.9559 16.8694 20.2733 16.5578 20.2733 16.1735C20.2733 15.7891 19.9559 15.4775 19.5644 15.4775C19.1729 15.4775 18.8555 15.7891 18.8555 16.1735C18.8555 16.5578 19.1729 16.8694 19.5644 16.8694Z" fill="#8493AD"/>
<path d="M20.784 18.7903C21.1286 18.7903 21.4079 18.5161 21.4079 18.1778C21.4079 17.8396 21.1286 17.5654 20.784 17.5654C20.4395 17.5654 20.1602 17.8396 20.1602 18.1778C20.1602 18.5161 20.4395 18.7903 20.784 18.7903Z" fill="#8493AD"/>
<path d="M19.2839 19.1799C19.5658 19.1799 19.7943 18.9555 19.7943 18.6788C19.7943 18.4021 19.5658 18.1777 19.2839 18.1777C19.002 18.1777 18.7734 18.4021 18.7734 18.6788C18.7734 18.9555 19.002 19.1799 19.2839 19.1799Z" fill="#8493AD"/>
<path d="M17.952 17.7322C18.2965 17.7322 18.5758 17.458 18.5758 17.1197C18.5758 16.7815 18.2965 16.5073 17.952 16.5073C17.6074 16.5073 17.3281 16.7815 17.3281 17.1197C17.3281 17.458 17.6074 17.7322 17.952 17.7322Z" fill="#8493AD"/>
<path d="M16.0214 16.3963C16.413 16.3963 16.7303 16.0847 16.7303 15.7003C16.7303 15.316 16.413 15.0044 16.0214 15.0044C15.6299 15.0044 15.3125 15.316 15.3125 15.7003C15.3125 16.0847 15.6299 16.3963 16.0214 16.3963Z" fill="#8493AD"/>
<path d="M15.9941 11.1629C16.3856 11.1629 16.703 10.8513 16.703 10.4669C16.703 10.0826 16.3856 9.771 15.9941 9.771C15.6026 9.771 15.2852 10.0826 15.2852 10.4669C15.2852 10.8513 15.6026 11.1629 15.9941 11.1629Z" fill="#8493AD"/>
<path d="M16.3035 8.71312C16.6481 8.71312 16.9274 8.43893 16.9274 8.1007C16.9274 7.76247 16.6481 7.48828 16.3035 7.48828C15.959 7.48828 15.6797 7.76247 15.6797 8.1007C15.6797 8.43893 15.959 8.71312 16.3035 8.71312Z" fill="#8493AD"/>
<path d="M16.987 6.70868C17.2689 6.70868 17.4974 6.48435 17.4974 6.20761C17.4974 5.93088 17.2689 5.70654 16.987 5.70654C16.7051 5.70654 16.4766 5.93088 16.4766 6.20761C16.4766 6.48435 16.7051 6.70868 16.987 6.70868Z" fill="#8493AD"/>
<path d="M15.7957 5.76244C16.1403 5.76244 16.4196 5.48825 16.4196 5.15002C16.4196 4.81179 16.1403 4.5376 15.7957 4.5376C15.4512 4.5376 15.1719 4.81179 15.1719 5.15002C15.1719 5.48825 15.4512 5.76244 15.7957 5.76244Z" fill="#8493AD"/>
<path d="M22.4003 17.927C22.7919 17.927 23.1093 17.6154 23.1093 17.2311C23.1093 16.8467 22.7919 16.5352 22.4003 16.5352C22.0088 16.5352 21.6914 16.8467 21.6914 17.2311C21.6914 17.6154 22.0088 17.927 22.4003 17.927Z" fill="#8493AD"/>
<path d="M14.1777 4.95485C14.5692 4.95485 14.8866 4.64327 14.8866 4.25892C14.8866 3.87457 14.5692 3.56299 14.1777 3.56299C13.7861 3.56299 13.4688 3.87457 13.4688 4.25892C13.4688 4.64327 13.7861 4.95485 14.1777 4.95485Z" fill="#8493AD"/>
<path d="M14.662 7.90554C15.0536 7.90554 15.371 7.59396 15.371 7.2096C15.371 6.82525 15.0536 6.51367 14.662 6.51367C14.2705 6.51367 13.9531 6.82525 13.9531 7.2096C13.9531 7.59396 14.2705 7.90554 14.662 7.90554Z" fill="#8493AD"/>
<path d="M13.8663 10.7171C14.3362 10.7171 14.717 10.3432 14.717 9.88199C14.717 9.42077 14.3362 9.04688 13.8663 9.04688C13.3965 9.04688 13.0156 9.42077 13.0156 9.88199C13.0156 10.3432 13.3965 10.7171 13.8663 10.7171Z" fill="#8493AD"/>
<path d="M11.2855 10.7172C11.8336 10.7172 12.278 10.281 12.278 9.74286C12.278 9.20477 11.8336 8.76855 11.2855 8.76855C10.7373 8.76855 10.293 9.20477 10.293 9.74286C10.293 10.281 10.7373 10.7172 11.2855 10.7172Z" fill="#8493AD"/>
<path d="M8.27881 11.3852C8.90525 11.3852 9.41309 10.8867 9.41309 10.2717C9.41309 9.65673 8.90525 9.1582 8.27881 9.1582C7.65236 9.1582 7.14453 9.65673 7.14453 10.2717C7.14453 10.8867 7.65236 11.3852 8.27881 11.3852Z" fill="#8493AD"/>
<path d="M4.98903 12.9722C5.7251 12.9722 6.32181 12.3864 6.32181 11.6638C6.32181 10.9412 5.7251 10.3555 4.98903 10.3555C4.25296 10.3555 3.65625 10.9412 3.65625 11.6638C3.65625 12.3864 4.25296 12.9722 4.98903 12.9722Z" fill="#8493AD"/>
<path d="M1.58799 15.6446C2.46501 15.6446 3.17598 14.9467 3.17598 14.0857C3.17598 13.2248 2.46501 12.5269 1.58799 12.5269C0.710969 12.5269 0 13.2248 0 14.0857C0 14.9467 0.710969 15.6446 1.58799 15.6446Z" fill="#8493AD"/>
<path d="M3.65699 9.71533C4.39307 9.71533 4.98977 9.12957 4.98977 8.40698C4.98977 7.6844 4.39307 7.09863 3.65699 7.09863C2.92092 7.09863 2.32422 7.6844 2.32422 8.40698C2.32422 9.12957 2.92092 9.71533 3.65699 9.71533Z" fill="#8493AD"/>
<path d="M6.94678 8.12835C7.57322 8.12835 8.08106 7.62982 8.08106 7.01486C8.08106 6.39989 7.57322 5.90137 6.94678 5.90137C6.32033 5.90137 5.8125 6.39989 5.8125 7.01486C5.8125 7.62982 6.32033 8.12835 6.94678 8.12835Z" fill="#8493AD"/>
<path d="M6.46631 5.17767C7.09275 5.17767 7.60059 4.67914 7.60059 4.06417C7.60059 3.44921 7.09275 2.95068 6.46631 2.95068C5.83987 2.95068 5.33203 3.44921 5.33203 4.06417C5.33203 4.67914 5.83987 5.17767 6.46631 5.17767Z" fill="#8493AD"/>
<path d="M9.47296 4.50964C10.0211 4.50964 10.4655 4.07343 10.4655 3.53534C10.4655 2.99725 10.0211 2.56104 9.47296 2.56104C8.92482 2.56104 8.48047 2.99725 8.48047 3.53534C8.48047 4.07343 8.92482 4.50964 9.47296 4.50964Z" fill="#8493AD"/>
<path d="M12.0499 4.50959C12.5198 4.50959 12.9006 4.1357 12.9006 3.67447C12.9006 3.21325 12.5198 2.83936 12.0499 2.83936C11.5801 2.83936 11.1992 3.21325 11.1992 3.67447C11.1992 4.1357 11.5801 4.50959 12.0499 4.50959Z" fill="#8493AD"/>
<path d="M12.5343 7.46027C13.0041 7.46027 13.385 7.08638 13.385 6.62516C13.385 6.16393 13.0041 5.79004 12.5343 5.79004C12.0645 5.79004 11.6836 6.16393 11.6836 6.62516C11.6836 7.08638 12.0645 7.46027 12.5343 7.46027Z" fill="#8493AD"/>
<path d="M9.95343 7.48816C10.5016 7.48816 10.9459 7.05195 10.9459 6.51386C10.9459 5.97576 10.5016 5.53955 9.95343 5.53955C9.40529 5.53955 8.96094 5.97576 8.96094 6.51386C8.96094 7.05195 9.40529 7.48816 9.95343 7.48816Z" fill="#8493AD"/>
<path d="M7.14714 14.8928C7.42904 14.8928 7.65757 14.6684 7.65757 14.3917C7.65757 14.115 7.42904 13.8906 7.14714 13.8906C6.86524 13.8906 6.63672 14.115 6.63672 14.3917C6.63672 14.6684 6.86524 14.8928 7.14714 14.8928Z" fill="#8493AD"/>
<path d="M9.18635 14.6423C9.5309 14.6423 9.81021 14.3681 9.81021 14.0299C9.81021 13.6917 9.5309 13.4175 9.18635 13.4175C8.84181 13.4175 8.5625 13.6917 8.5625 14.0299C8.5625 14.3681 8.84181 14.6423 9.18635 14.6423Z" fill="#8493AD"/>
<path d="M11.4277 13.8074C11.8192 13.8074 12.1366 13.4958 12.1366 13.1115C12.1366 12.7271 11.8192 12.4155 11.4277 12.4155C11.0361 12.4155 10.7188 12.7271 10.7188 13.1115C10.7188 13.4958 11.0361 13.8074 11.4277 13.8074Z" fill="#8493AD"/>
<path d="M11.9679 16.034C12.4377 16.034 12.8186 15.6601 12.8186 15.1989C12.8186 14.7377 12.4377 14.3638 11.9679 14.3638C11.4981 14.3638 11.1172 14.7377 11.1172 15.1989C11.1172 15.6601 11.4981 16.034 11.9679 16.034Z" fill="#8493AD"/>
<path d="M9.24408 16.5633C9.63561 16.5633 9.953 16.2517 9.953 15.8673C9.953 15.483 9.63561 15.1714 9.24408 15.1714C8.85255 15.1714 8.53516 15.483 8.53516 15.8673C8.53516 16.2517 8.85255 16.5633 9.24408 16.5633Z" fill="#8493AD"/>
<path d="M6.83479 16.5354C7.17934 16.5354 7.45864 16.2612 7.45864 15.923C7.45864 15.5847 7.17934 15.3105 6.83479 15.3105C6.49025 15.3105 6.21094 15.5847 6.21094 15.923C6.21094 16.2612 6.49025 16.5354 6.83479 16.5354Z" fill="#8493AD"/>
<path d="M6.86127 18.4558C7.25279 18.4558 7.57019 18.1442 7.57019 17.7599C7.57019 17.3755 7.25279 17.064 6.86127 17.064C6.46974 17.064 6.15234 17.3755 6.15234 17.7599C6.15234 18.1442 6.46974 18.4558 6.86127 18.4558Z" fill="#8493AD"/>
<path d="M9.75305 18.8177C10.2229 18.8177 10.6038 18.4438 10.6038 17.9826C10.6038 17.5214 10.2229 17.1475 9.75305 17.1475C9.28322 17.1475 8.90234 17.5214 8.90234 17.9826C8.90234 18.4438 9.28322 18.8177 9.75305 18.8177Z" fill="#8493AD"/>
<path d="M13.1292 18.4559C13.6773 18.4559 14.1217 18.0197 14.1217 17.4816C14.1217 16.9435 13.6773 16.5073 13.1292 16.5073C12.5811 16.5073 12.1367 16.9435 12.1367 17.4816C12.1367 18.0197 12.5811 18.4559 13.1292 18.4559Z" fill="#8493AD"/>
<path d="M15.1147 20.8779C15.7412 20.8779 16.249 20.3793 16.249 19.7644C16.249 19.1494 15.7412 18.6509 15.1147 18.6509C14.4883 18.6509 13.9805 19.1494 13.9805 19.7644C13.9805 20.3793 14.4883 20.8779 15.1147 20.8779Z" fill="#8493AD"/>
<path d="M10.9456 21.2118C11.4938 21.2118 11.9381 20.7756 11.9381 20.2375C11.9381 19.6994 11.4938 19.2632 10.9456 19.2632C10.3975 19.2632 9.95312 19.6994 9.95312 20.2375C9.95312 20.7756 10.3975 21.2118 10.9456 21.2118Z" fill="#8493AD"/>
<path d="M8.59406 23.1049C9.14219 23.1049 9.58655 22.6686 9.58655 22.1306C9.58655 21.5925 9.14219 21.1562 8.59406 21.1562C8.04592 21.1562 7.60156 21.5925 7.60156 22.1306C7.60156 22.6686 8.04592 23.1049 8.59406 23.1049Z" fill="#8493AD"/>
<path d="M10.5483 25.5546C11.1748 25.5546 11.6826 25.0561 11.6826 24.4411C11.6826 23.8262 11.1748 23.3276 10.5483 23.3276C9.9219 23.3276 9.41406 23.8262 9.41406 24.4411C9.41406 25.0561 9.9219 25.5546 10.5483 25.5546Z" fill="#8493AD"/>
<path d="M15.7664 26C16.5024 26 17.0992 25.4142 17.0992 24.6917C17.0992 23.9691 16.5024 23.3833 15.7664 23.3833C15.0303 23.3833 14.4336 23.9691 14.4336 24.6917C14.4336 25.4142 15.0303 26 15.7664 26Z" fill="#8493AD"/>
<path d="M12.9038 23.6616C13.5303 23.6616 14.0381 23.163 14.0381 22.5481C14.0381 21.9331 13.5303 21.4346 12.9038 21.4346C12.2774 21.4346 11.7695 21.9331 11.7695 22.5481C11.7695 23.163 12.2774 23.6616 12.9038 23.6616Z" fill="#8493AD"/>
<path d="M17.95 23.2163C18.686 23.2163 19.2827 22.6305 19.2827 21.908C19.2827 21.1854 18.686 20.5996 17.95 20.5996C17.2139 20.5996 16.6172 21.1854 16.6172 21.908C16.6172 22.6305 17.2139 23.2163 17.95 23.2163Z" fill="#8493AD"/>
<path d="M7.40149 20.7108C7.87132 20.7108 8.2522 20.3369 8.2522 19.8756C8.2522 19.4144 7.87132 19.0405 7.40149 19.0405C6.93166 19.0405 6.55078 19.4144 6.55078 19.8756C6.55078 20.3369 6.93166 20.7108 7.40149 20.7108Z" fill="#8493AD"/>
</svg>
