<svg width="311" height="81" viewBox="0 0 311 81" fill="none" xmlns="http://www.w3.org/2000/svg">
<path d="M121.045 15.0899H127.011V67.3844H121.045V15.0899Z" fill="#FFFFFF"/>
<path d="M146.206 40.9336C146.206 26.2773 158.483 13.8758 172.922 13.8758C187.447 13.8758 199.552 26.1906 199.552 40.9336C199.552 55.6766 187.361 67.9914 172.922 67.9914C158.569 68.0781 146.206 55.6766 146.206 40.9336ZM193.586 40.9336C193.586 29.3126 184.162 19.4261 172.922 19.4261C161.682 19.4261 152.171 29.3126 152.171 40.9336C152.171 52.6413 161.682 62.5278 172.922 62.5278C184.162 62.5278 193.586 52.6413 193.586 40.9336Z" fill="#FFFFFF"/>
<path d="M230.159 20.1199H212.607V14.4829H253.59V20.1199H236.038V66.7773H230.073L230.159 20.1199Z" fill="#FFFFFF"/>
<path d="M284.889 21.7677L265.089 66.7773H258.605L280.306 17.4315C281.085 15.6103 282.9 14.4829 284.802 14.4829C286.791 14.4829 288.52 15.6103 289.298 17.4315L311 66.7773H304.515L284.889 21.7677Z" fill="#FFFFFF"/>
<path d="M61.1279 9.71306C63.802 9.71306 65.9697 7.53872 65.9697 4.85653C65.9697 2.17434 63.802 0 61.1279 0C58.4539 0 56.2861 2.17434 56.2861 4.85653C56.2861 7.53872 58.4539 9.71306 61.1279 9.71306Z" fill="#FFFFFF"/>
<path d="M66.575 78.3116C69.249 78.3116 71.4168 76.1372 71.4168 73.455C71.4168 70.7728 69.249 68.5985 66.575 68.5985C63.9009 68.5985 61.7332 70.7728 61.7332 73.455C61.7332 76.1372 63.9009 78.3116 66.575 78.3116Z" fill="#FFFFFF"/>
<path d="M62.5112 21.8544C64.7555 21.8544 66.5748 20.0295 66.5748 17.7784C66.5748 15.5273 64.7555 13.7024 62.5112 13.7024C60.2669 13.7024 58.4475 15.5273 58.4475 17.7784C58.4475 20.0295 60.2669 21.8544 62.5112 21.8544Z" fill="#FFFFFF"/>
<path d="M73.3188 23.4154C75.5631 23.4154 77.3824 21.5905 77.3824 19.3394C77.3824 17.0883 75.5631 15.2634 73.3188 15.2634C71.0745 15.2634 69.2551 17.0883 69.2551 19.3394C69.2551 21.5905 71.0745 23.4154 73.3188 23.4154Z" fill="#FFFFFF"/>
<path d="M61.1279 32.1745C63.0379 32.1745 64.5863 30.6214 64.5863 28.7056C64.5863 26.7897 63.0379 25.2366 61.1279 25.2366C59.2178 25.2366 57.6694 26.7897 57.6694 28.7056C57.6694 30.6214 59.2178 32.1745 61.1279 32.1745Z" fill="#FFFFFF"/>
<path d="M71.9355 33.6488C73.8455 33.6488 75.3939 32.0957 75.3939 30.1799C75.3939 28.264 73.8455 26.7109 71.9355 26.7109C70.0254 26.7109 68.4771 28.264 68.4771 30.1799C68.4771 32.0957 70.0254 33.6488 71.9355 33.6488Z" fill="#FFFFFF"/>
<path d="M80.5815 37.031C82.4915 37.031 84.0399 35.4779 84.0399 33.5621C84.0399 31.6462 82.4915 30.0931 80.5815 30.0931C78.6714 30.0931 77.123 31.6462 77.123 33.5621C77.123 35.4779 78.6714 37.031 80.5815 37.031Z" fill="#FFFFFF"/>
<path d="M68.7363 41.9743C70.4076 41.9743 71.7625 40.6153 71.7625 38.939C71.7625 37.2626 70.4076 35.9036 68.7363 35.9036C67.065 35.9036 65.7102 37.2626 65.7102 38.939C65.7102 40.6153 67.065 41.9743 68.7363 41.9743Z" fill="#FFFFFF"/>
<path d="M57.9287 40.5C59.6 40.5 60.9549 39.141 60.9549 37.4647C60.9549 35.7883 59.6 34.4293 57.9287 34.4293C56.2574 34.4293 54.9026 35.7883 54.9026 37.4647C54.9026 39.141 56.2574 40.5 57.9287 40.5Z" fill="#FFFFFF"/>
<path d="M77.469 45.3566C79.1403 45.3566 80.4951 43.9976 80.4951 42.3212C80.4951 40.6449 79.1403 39.2859 77.469 39.2859C75.7977 39.2859 74.4429 40.6449 74.4429 42.3212C74.4429 43.9976 75.7977 45.3566 77.469 45.3566Z" fill="#FFFFFF"/>
<path d="M64.4134 48.3051C65.8459 48.3051 67.0072 47.1403 67.0072 45.7034C67.0072 44.2665 65.8459 43.1017 64.4134 43.1017C62.9809 43.1017 61.8196 44.2665 61.8196 45.7034C61.8196 47.1403 62.9809 48.3051 64.4134 48.3051Z" fill="#FFFFFF"/>
<path d="M73.1458 51.6006C74.5784 51.6006 75.7397 50.4358 75.7397 48.9989C75.7397 47.562 74.5784 46.3972 73.1458 46.3972C71.7133 46.3972 70.552 47.562 70.552 48.9989C70.552 50.4358 71.7133 51.6006 73.1458 51.6006Z" fill="#FFFFFF"/>
<path d="M53.6922 46.7441C55.1247 46.7441 56.286 45.5793 56.286 44.1424C56.286 42.7055 55.1247 41.5407 53.6922 41.5407C52.2597 41.5407 51.0984 42.7055 51.0984 44.1424C51.0984 45.5793 52.2597 46.7441 53.6922 46.7441Z" fill="#FFFFFF"/>
<path d="M59.6581 52.5546C60.8519 52.5546 61.8196 51.5839 61.8196 50.3865C61.8196 49.1891 60.8519 48.2184 59.6581 48.2184C58.4643 48.2184 57.4966 49.1891 57.4966 50.3865C57.4966 51.5839 58.4643 52.5546 59.6581 52.5546Z" fill="#FFFFFF"/>
<path d="M63.3758 58.5386C64.4263 58.5386 65.2779 57.6844 65.2779 56.6306C65.2779 55.5769 64.4263 54.7227 63.3758 54.7227C62.3252 54.7227 61.4736 55.5769 61.4736 56.6306C61.4736 57.6844 62.3252 58.5386 63.3758 58.5386Z" fill="#FFFFFF"/>
<path d="M58.7934 59.7527C59.6529 59.7527 60.3497 59.0538 60.3497 58.1917C60.3497 57.3295 59.6529 56.6306 58.7934 56.6306C57.9338 56.6306 57.2371 57.3295 57.2371 58.1917C57.2371 59.0538 57.9338 59.7527 58.7934 59.7527Z" fill="#FFFFFF"/>
<path d="M54.7298 55.2431C55.7803 55.2431 56.6319 54.3889 56.6319 53.3351C56.6319 52.2814 55.7803 51.4272 54.7298 51.4272C53.6793 51.4272 52.8276 52.2814 52.8276 53.3351C52.8276 54.3889 53.6793 55.2431 54.7298 55.2431Z" fill="#FFFFFF"/>
<path d="M48.8505 51.0803C50.0443 51.0803 51.012 50.1096 51.012 48.9122C51.012 47.7148 50.0443 46.7441 48.8505 46.7441C47.6567 46.7441 46.689 47.7148 46.689 48.9122C46.689 50.1096 47.6567 51.0803 48.8505 51.0803Z" fill="#FFFFFF"/>
<path d="M48.7641 34.7763C49.9578 34.7763 50.9256 33.8056 50.9256 32.6082C50.9256 31.4108 49.9578 30.4401 48.7641 30.4401C47.5703 30.4401 46.6025 31.4108 46.6025 32.6082C46.6025 33.8056 47.5703 34.7763 48.7641 34.7763Z" fill="#FFFFFF"/>
<path d="M49.7151 27.1446C50.7656 27.1446 51.6173 26.2903 51.6173 25.2366C51.6173 24.1829 50.7656 23.3287 49.7151 23.3287C48.6646 23.3287 47.813 24.1829 47.813 25.2366C47.813 26.2903 48.6646 27.1446 49.7151 27.1446Z" fill="#FFFFFF"/>
<path d="M51.7902 20.9004C52.6497 20.9004 53.3465 20.2015 53.3465 19.3394C53.3465 18.4773 52.6497 17.7784 51.7902 17.7784C50.9307 17.7784 50.2339 18.4773 50.2339 19.3394C50.2339 20.2015 50.9307 20.9004 51.7902 20.9004Z" fill="#FFFFFF"/>
<path d="M48.1587 17.9518C49.2093 17.9518 50.0609 17.0976 50.0609 16.0439C50.0609 14.9902 49.2093 14.136 48.1587 14.136C47.1082 14.136 46.2566 14.9902 46.2566 16.0439C46.2566 17.0976 47.1082 17.9518 48.1587 17.9518Z" fill="#FFFFFF"/>
<path d="M68.3041 55.8501C69.4979 55.8501 70.4656 54.8794 70.4656 53.682C70.4656 52.4846 69.4979 51.5139 68.3041 51.5139C67.1103 51.5139 66.1426 52.4846 66.1426 53.682C66.1426 54.8794 67.1103 55.8501 68.3041 55.8501Z" fill="#FFFFFF"/>
<path d="M43.2304 15.4368C44.4241 15.4368 45.3919 14.4661 45.3919 13.2687C45.3919 12.0713 44.4241 11.1006 43.2304 11.1006C42.0366 11.1006 41.0688 12.0713 41.0688 13.2687C41.0688 14.4661 42.0366 15.4368 43.2304 15.4368Z" fill="#FFFFFF"/>
<path d="M44.7003 24.6296C45.8941 24.6296 46.8619 23.6589 46.8619 22.4615C46.8619 21.2641 45.8941 20.2934 44.7003 20.2934C43.5066 20.2934 42.5388 21.2641 42.5388 22.4615C42.5388 23.6589 43.5066 24.6296 44.7003 24.6296Z" fill="#FFFFFF"/>
<path d="M42.2794 33.3887C43.7119 33.3887 44.8732 32.2238 44.8732 30.787C44.8732 29.3501 43.7119 28.1852 42.2794 28.1852C40.8468 28.1852 39.6855 29.3501 39.6855 30.787C39.6855 32.2238 40.8468 33.3887 42.2794 33.3887Z" fill="#FFFFFF"/>
<path d="M34.4114 33.3887C36.0827 33.3887 37.4375 32.0297 37.4375 30.3533C37.4375 28.677 36.0827 27.318 34.4114 27.318C32.7401 27.318 31.3853 28.677 31.3853 30.3533C31.3853 32.0297 32.7401 33.3887 34.4114 33.3887Z" fill="#FFFFFF"/>
<path d="M25.2465 35.47C27.1566 35.47 28.705 33.9169 28.705 32.0011C28.705 30.0852 27.1566 28.5321 25.2465 28.5321C23.3365 28.5321 21.7881 30.0852 21.7881 32.0011C21.7881 33.9169 23.3365 35.47 25.2465 35.47Z" fill="#FFFFFF"/>
<path d="M15.2172 40.4133C17.4615 40.4133 19.2809 38.5884 19.2809 36.3372C19.2809 34.0861 17.4615 32.2612 15.2172 32.2612C12.9729 32.2612 11.1536 34.0861 11.1536 36.3372C11.1536 38.5884 12.9729 40.4133 15.2172 40.4133Z" fill="#FFFFFF"/>
<path d="M4.84182 48.7388C7.51587 48.7388 9.68363 46.5644 9.68363 43.8822C9.68363 41.2 7.51587 39.0257 4.84182 39.0257C2.16776 39.0257 0 41.2 0 43.8822C0 46.5644 2.16776 48.7388 4.84182 48.7388Z" fill="#FFFFFF"/>
<path d="M11.1535 30.2666C13.3978 30.2666 15.2172 28.4417 15.2172 26.1906C15.2172 23.9395 13.3978 22.1146 11.1535 22.1146C8.9092 22.1146 7.08984 23.9395 7.08984 26.1906C7.08984 28.4417 8.9092 30.2666 11.1535 30.2666Z" fill="#FFFFFF"/>
<path d="M21.183 25.3233C23.0931 25.3233 24.6415 23.7702 24.6415 21.8544C24.6415 19.9385 23.0931 18.3854 21.183 18.3854C19.273 18.3854 17.7246 19.9385 17.7246 21.8544C17.7246 23.7702 19.273 25.3233 21.183 25.3233Z" fill="#FFFFFF"/>
<path d="M19.7131 16.1306C21.6231 16.1306 23.1715 14.5775 23.1715 12.6617C23.1715 10.7458 21.6231 9.19272 19.7131 9.19272C17.803 9.19272 16.2546 10.7458 16.2546 12.6617C16.2546 14.5775 17.803 16.1306 19.7131 16.1306Z" fill="#FFFFFF"/>
<path d="M28.8779 14.0492C30.5492 14.0492 31.9041 12.6903 31.9041 11.0139C31.9041 9.33754 30.5492 7.97858 28.8779 7.97858C27.2067 7.97858 25.8518 9.33754 25.8518 11.0139C25.8518 12.6903 27.2067 14.0492 28.8779 14.0492Z" fill="#FFFFFF"/>
<path d="M36.7459 14.0493C38.1785 14.0493 39.3398 12.8844 39.3398 11.4475C39.3398 10.0107 38.1785 8.84583 36.7459 8.84583C35.3134 8.84583 34.1521 10.0107 34.1521 11.4475C34.1521 12.8844 35.3134 14.0493 36.7459 14.0493Z" fill="#FFFFFF"/>
<path d="M38.2157 23.242C39.6482 23.242 40.8095 22.0771 40.8095 20.6403C40.8095 19.2034 39.6482 18.0385 38.2157 18.0385C36.7831 18.0385 35.6218 19.2034 35.6218 20.6403C35.6218 22.0771 36.7831 23.242 38.2157 23.242Z" fill="#FFFFFF"/>
<path d="M30.3477 23.3287C32.019 23.3287 33.3738 21.9697 33.3738 20.2934C33.3738 18.617 32.019 17.258 30.3477 17.258C28.6764 17.258 27.3215 18.617 27.3215 20.2934C27.3215 21.9697 28.6764 23.3287 30.3477 23.3287Z" fill="#FFFFFF"/>
<path d="M21.7882 46.3972C22.6478 46.3972 23.3445 45.6983 23.3445 44.8362C23.3445 43.974 22.6478 43.2751 21.7882 43.2751C20.9287 43.2751 20.2319 43.974 20.2319 44.8362C20.2319 45.6983 20.9287 46.3972 21.7882 46.3972Z" fill="#FFFFFF"/>
<path d="M28.0135 45.6167C29.064 45.6167 29.9156 44.7625 29.9156 43.7088C29.9156 42.655 29.064 41.8008 28.0135 41.8008C26.9629 41.8008 26.1113 42.655 26.1113 43.7088C26.1113 44.7625 26.9629 45.6167 28.0135 45.6167Z" fill="#FFFFFF"/>
<path d="M34.8437 43.015C36.0374 43.015 37.0052 42.0443 37.0052 40.8469C37.0052 39.6495 36.0374 38.6788 34.8437 38.6788C33.6499 38.6788 32.6821 39.6495 32.6821 40.8469C32.6821 42.0443 33.6499 43.015 34.8437 43.015Z" fill="#FFFFFF"/>
<path d="M36.4864 49.9529C37.9189 49.9529 39.0802 48.7881 39.0802 47.3512C39.0802 45.9143 37.9189 44.7495 36.4864 44.7495C35.0539 44.7495 33.8926 45.9143 33.8926 47.3512C33.8926 48.7881 35.0539 49.9529 36.4864 49.9529Z" fill="#FFFFFF"/>
<path d="M28.1862 51.6007C29.38 51.6007 30.3477 50.63 30.3477 49.4326C30.3477 48.2352 29.38 47.2645 28.1862 47.2645C26.9924 47.2645 26.0247 48.2352 26.0247 49.4326C26.0247 50.63 26.9924 51.6007 28.1862 51.6007Z" fill="#FFFFFF"/>
<path d="M20.8372 51.5139C21.8877 51.5139 22.7393 50.6597 22.7393 49.606C22.7393 48.5523 21.8877 47.6981 20.8372 47.6981C19.7867 47.6981 18.9351 48.5523 18.9351 49.606C18.9351 50.6597 19.7867 51.5139 20.8372 51.5139Z" fill="#FFFFFF"/>
<path d="M20.9235 57.4979C22.1173 57.4979 23.085 56.5272 23.085 55.3298C23.085 54.1324 22.1173 53.1617 20.9235 53.1617C19.7297 53.1617 18.762 54.1324 18.762 55.3298C18.762 56.5272 19.7297 57.4979 20.9235 57.4979Z" fill="#FFFFFF"/>
<path d="M29.7425 58.6253C31.175 58.6253 32.3363 57.4604 32.3363 56.0236C32.3363 54.5867 31.175 53.4218 29.7425 53.4218C28.31 53.4218 27.1487 54.5867 27.1487 56.0236C27.1487 57.4604 28.31 58.6253 29.7425 58.6253Z" fill="#FFFFFF"/>
<path d="M40.0315 57.4979C41.7028 57.4979 43.0576 56.1389 43.0576 54.4625C43.0576 52.7862 41.7028 51.4272 40.0315 51.4272C38.3602 51.4272 37.0054 52.7862 37.0054 54.4625C37.0054 56.1389 38.3602 57.4979 40.0315 57.4979Z" fill="#FFFFFF"/>
<path d="M46.0837 65.0428C47.9937 65.0428 49.5421 63.4897 49.5421 61.5739C49.5421 59.658 47.9937 58.1049 46.0837 58.1049C44.1736 58.1049 42.6252 59.658 42.6252 61.5739C42.6252 63.4897 44.1736 65.0428 46.0837 65.0428Z" fill="#FFFFFF"/>
<path d="M33.3738 66.0835C35.0451 66.0835 36.3999 64.7245 36.3999 63.0482C36.3999 61.3718 35.0451 60.0128 33.3738 60.0128C31.7025 60.0128 30.3477 61.3718 30.3477 63.0482C30.3477 64.7245 31.7025 66.0835 33.3738 66.0835Z" fill="#FFFFFF"/>
<path d="M26.1978 71.9807C27.869 71.9807 29.2239 70.6218 29.2239 68.9454C29.2239 67.269 27.869 65.9101 26.1978 65.9101C24.5265 65.9101 23.1716 67.269 23.1716 68.9454C23.1716 70.6218 24.5265 71.9807 26.1978 71.9807Z" fill="#FFFFFF"/>
<path d="M32.1635 79.6124C34.0736 79.6124 35.6219 78.0593 35.6219 76.1435C35.6219 74.2276 34.0736 72.6745 32.1635 72.6745C30.2535 72.6745 28.7051 74.2276 28.7051 76.1435C28.7051 78.0593 30.2535 79.6124 32.1635 79.6124Z" fill="#FFFFFF"/>
<path d="M48.0722 81C50.3165 81 52.1359 79.1751 52.1359 76.924C52.1359 74.6729 50.3165 72.848 48.0722 72.848C45.8279 72.848 44.0085 74.6729 44.0085 76.924C44.0085 79.1751 45.8279 81 48.0722 81Z" fill="#FFFFFF"/>
<path d="M39.3398 73.7152C41.2498 73.7152 42.7982 72.1621 42.7982 70.2463C42.7982 68.3304 41.2498 66.7773 39.3398 66.7773C37.4297 66.7773 35.8813 68.3304 35.8813 70.2463C35.8813 72.1621 37.4297 73.7152 39.3398 73.7152Z" fill="#FFFFFF"/>
<path d="M54.7297 72.3276C56.974 72.3276 58.7933 70.5027 58.7933 68.2516C58.7933 66.0005 56.974 64.1756 54.7297 64.1756C52.4854 64.1756 50.666 66.0005 50.666 68.2516C50.666 70.5027 52.4854 72.3276 54.7297 72.3276Z" fill="#FFFFFF"/>
<path d="M22.5662 64.5225C23.9988 64.5225 25.1601 63.3577 25.1601 61.9208C25.1601 60.4839 23.9988 59.3191 22.5662 59.3191C21.1337 59.3191 19.9724 60.4839 19.9724 61.9208C19.9724 63.3577 21.1337 64.5225 22.5662 64.5225Z" fill="#FFFFFF"/>
</svg>
