<svg width="96" height="35" viewBox="0 0 96 35" fill="none" xmlns="http://www.w3.org/2000/svg">
<path d="M4.87778 14.5093C4.87778 9.55158 7.03726 5.11071 10.428 2.15332H1.31653C0.587228 2.15332 0 2.75628 0 3.49324V25.6689C0 26.4058 0.587228 26.9992 1.31653 26.9992H10.5796C7.10356 24.0323 4.87778 19.5435 4.87778 14.5093Z" fill="#8493AD"/>
<path d="M78.0348 6.4595C78.0348 6.2298 77.8833 6.02881 77.5707 6.02881H77.1445V6.95718H77.5139C77.8454 6.94761 78.0348 6.75619 78.0348 6.4595Z" fill="#8493AD"/>
<path d="M51.6285 8.3642C52.0926 8.3642 52.2063 7.89522 52.2063 7.16784C52.2063 6.48831 52.1021 5.96191 51.6285 5.96191C51.1171 5.96191 51.0508 6.54574 51.0508 7.16784C51.0508 7.96222 51.1928 8.3642 51.6285 8.3642Z" fill="#8493AD"/>
<path d="M59.6871 5.96191C59.1757 5.96191 59.1094 6.54574 59.1094 7.16784C59.1094 7.96222 59.2514 8.3642 59.6871 8.3642C60.1512 8.3642 60.2649 7.89522 60.2649 7.16784C60.2649 6.49788 60.1702 5.96191 59.6871 5.96191Z" fill="#8493AD"/>
<path d="M72.4096 19.9547C72.4096 19.524 72.1728 19.2656 71.6898 19.2656H71.0078V20.663H71.6519C72.1539 20.6534 72.4096 20.3663 72.4096 19.9547Z" fill="#8493AD"/>
<path d="M61.1276 19.2563H60.6445V22.8933H61.1086C61.8285 22.8933 62.2263 22.587 62.2263 21.1035C62.2263 20.3187 62.1126 19.888 61.8948 19.6009C61.7243 19.3712 61.4401 19.2563 61.1276 19.2563Z" fill="#8493AD"/>
<path d="M71.7182 21.2661H71.0078V22.8836H71.8413C72.3054 22.8836 72.5895 22.5773 72.5895 22.0701C72.5801 21.6202 72.258 21.2661 71.7182 21.2661Z" fill="#8493AD"/>
<path d="M93.6917 2.15283H32.0991C35.4899 5.11022 37.6493 9.55109 37.6493 14.5088C37.6493 19.543 35.433 24.0318 31.957 26.9892H93.6917C94.421 26.9892 95.0082 26.3958 95.0082 25.6588V3.49275C95.0082 2.75579 94.421 2.15283 93.6917 2.15283ZM87.3743 5.70361C87.3743 5.64619 87.4216 5.58876 87.4879 5.58876H88.9276C88.9844 5.58876 89.0412 5.63662 89.0412 5.70361V5.91417C89.0412 5.9716 88.9939 6.02902 88.9276 6.02902H87.8668V6.87126H88.8139C88.8707 6.87126 88.9276 6.91911 88.9276 6.97654V7.17752C88.9276 7.24452 88.8707 7.29237 88.8139 7.29237H87.8668V8.29731H88.9655C89.0223 8.29731 89.0791 8.34517 89.0791 8.41216V8.64186C89.0791 8.69929 89.0223 8.75671 88.9655 8.75671H87.4879C87.4311 8.75671 87.3743 8.70886 87.3743 8.64186V5.70361ZM83.974 10.824C84.2108 10.824 84.4097 11.0059 84.4097 11.2547C84.4097 11.5035 84.2203 11.695 83.9835 11.695C83.7467 11.695 83.5573 11.494 83.5573 11.2547C83.5573 11.0154 83.7467 10.824 83.974 10.824ZM82.7333 5.56005C82.9132 5.56005 83.1311 5.57919 83.3015 5.68447C83.3584 5.71318 83.3773 5.78018 83.3489 5.83761L83.2542 6.02902C83.2258 6.07688 83.1784 6.09602 83.1216 6.06731C83.0174 6.01945 82.9037 5.99074 82.7806 5.99074C82.307 5.99074 82.0229 6.32572 82.0229 7.15838C82.0229 7.99104 82.326 8.32602 82.7806 8.32602C82.8943 8.32602 83.0458 8.27817 83.1405 8.23989C83.1974 8.22074 83.2542 8.23032 83.2731 8.27817L83.3773 8.50787C83.4057 8.56529 83.3773 8.62272 83.3394 8.64186C83.1784 8.728 82.989 8.77585 82.7333 8.77585C81.9755 8.77585 81.5114 8.2016 81.5114 7.14881C81.4925 6.18216 81.985 5.56005 82.7333 5.56005ZM82.9227 11.2547C82.9227 11.494 82.7333 11.695 82.4965 11.695C82.2597 11.695 82.0703 11.494 82.0703 11.2547C82.0703 11.0154 82.2597 10.824 82.487 10.824C82.7333 10.824 82.9227 11.0154 82.9227 11.2547ZM79.7971 5.70361C79.7971 5.64619 79.8445 5.58876 79.9108 5.58876H80.1949C80.2518 5.58876 80.3086 5.63662 80.3086 5.70361V8.64186C80.3086 8.69929 80.2612 8.75671 80.1949 8.75671H79.9108C79.854 8.75671 79.7971 8.70886 79.7971 8.64186V5.70361ZM76.6621 5.70361C76.6621 5.64619 76.7094 5.58876 76.7757 5.58876H77.5903C78.3764 5.58876 78.5374 6.07688 78.5374 6.39271C78.5374 6.76598 78.3291 7.09139 77.8555 7.16795C78.0828 7.21581 78.2533 7.41679 78.348 7.61778C78.4238 7.78049 78.6037 8.23032 78.7363 8.60358C78.7647 8.68972 78.7553 8.74714 78.6606 8.74714H78.3196C78.2533 8.74714 78.2059 8.728 78.1775 8.65143C78.0733 8.32602 77.9881 7.99104 77.865 7.7422C77.7608 7.53164 77.6187 7.3498 77.344 7.3498H77.1546V8.64186C77.1546 8.69929 77.1072 8.74714 77.0409 8.74714H76.7757C76.7189 8.74714 76.6621 8.69929 76.6621 8.64186V5.70361ZM70.4204 5.70361C70.4204 5.63662 70.4583 5.58876 70.5246 5.58876H70.7898C70.8561 5.58876 70.9035 5.62705 70.9035 5.70361V7.72306C70.9035 8.13461 71.0361 8.37388 71.4149 8.37388C71.7559 8.37388 71.9548 8.23032 71.9548 7.75177V5.70361C71.9548 5.62705 72.0022 5.58876 72.0685 5.58876H72.3337C72.4 5.58876 72.4473 5.62705 72.4473 5.70361V7.77092C72.4473 8.42173 72.0969 8.77585 71.4244 8.77585C70.733 8.77585 70.411 8.40259 70.411 7.77092V5.70361H70.4204ZM55.5882 5.58876H55.9102C55.986 5.58876 56.0334 5.62705 56.0523 5.70361L56.5827 7.82834C56.6206 7.98147 56.6585 8.23032 56.6774 8.44087C56.7058 8.22075 56.7342 7.98147 56.7721 7.82834L57.3025 5.70361C57.3215 5.62705 57.3688 5.58876 57.4446 5.58876H57.7193C57.7856 5.58876 57.8235 5.64619 57.8045 5.71318L56.971 8.64186C56.9521 8.69929 56.8953 8.74714 56.829 8.74714H56.4785C56.4217 8.74714 56.3554 8.70886 56.3364 8.64186L55.503 5.72276C55.484 5.64619 55.5219 5.58876 55.5882 5.58876ZM51.6386 5.56005C52.349 5.56005 52.7278 6.08645 52.7278 7.18709C52.7278 8.25903 52.3585 8.78542 51.6386 8.78542C50.9188 8.78542 50.5399 8.2686 50.5399 7.18709C50.5399 6.11516 50.9093 5.56005 51.6386 5.56005ZM47.8216 5.70361C47.8216 5.64619 47.8785 5.58876 47.9353 5.58876H49.7443C49.8012 5.58876 49.8485 5.63662 49.8485 5.70361V5.93331C49.8485 5.99074 49.8012 6.03859 49.7443 6.03859H49.0813V8.64186C49.0813 8.69929 49.034 8.75671 48.9677 8.75671H48.7025C48.6457 8.75671 48.5888 8.70886 48.5888 8.64186V6.03859H47.9258C47.869 6.03859 47.8122 5.99074 47.8122 5.93331V5.70361H47.8216ZM43.389 5.56005C44.0994 5.56005 44.4782 6.08645 44.4782 7.18709C44.4782 8.25903 44.1089 8.78542 43.389 8.78542C42.6692 8.78542 42.2903 8.2686 42.2903 7.18709C42.2903 6.11516 42.6597 5.56005 43.389 5.56005ZM42.4229 12.2596C42.4229 12.1448 42.4892 12.0778 42.5934 12.0778H43.0196C43.1333 12.0778 43.1996 12.1352 43.1996 12.2596V15.4276C43.1996 16.0784 43.408 16.4421 44.0141 16.4421C44.554 16.4421 44.8571 16.222 44.8571 15.4659V12.2501C44.8571 12.1352 44.9329 12.0682 45.037 12.0682H45.4538C45.558 12.0682 45.6337 12.1352 45.6337 12.2501V15.5042C45.6337 16.5282 45.0749 17.0929 44.0331 17.0929C42.9533 17.0929 42.4419 16.5091 42.4419 15.5042V12.2596H42.4229ZM46.9787 23.4001C46.9787 23.4862 46.8934 23.5724 46.7987 23.5724H46.4293C46.3346 23.5724 46.2494 23.4958 46.2494 23.4001L46.2589 20.3087C46.2589 20.1269 46.2967 19.4856 46.3062 19.2846C46.2494 19.543 46.1641 19.9737 46.0789 20.2991L45.1791 23.4001C45.1602 23.5054 45.0655 23.5724 44.9613 23.5724H44.715H44.4498C44.3551 23.5724 44.2604 23.5054 44.232 23.4001L43.3322 20.2991C43.2564 19.9737 43.1712 19.543 43.1049 19.2846C43.1144 19.4856 43.1522 20.1269 43.1522 20.3087L43.1617 23.4001C43.1522 23.4958 43.067 23.5724 42.9818 23.5724H42.6029C42.5082 23.5724 42.4229 23.4958 42.4229 23.4001V18.7678C42.4229 18.6721 42.5082 18.5955 42.6029 18.5955H43.4269C43.5216 18.5955 43.6163 18.6625 43.6448 18.7391L44.6014 22.1176C44.6487 22.2994 44.6771 22.6153 44.6961 22.8641C44.715 22.6153 44.7434 22.2994 44.7908 22.1176L45.7474 18.7487C45.7663 18.6721 45.8705 18.6051 45.9652 18.6051H46.7893C46.884 18.6051 46.9692 18.6817 46.9692 18.7774V23.4001H46.9787ZM47.1397 5.93331C47.1397 5.99074 47.0923 6.03859 47.0355 6.03859H46.3725V8.64186C46.3725 8.69929 46.3252 8.75671 46.2589 8.75671H45.9937C45.9368 8.75671 45.88 8.70886 45.88 8.64186V6.03859H45.217C45.1602 6.03859 45.1034 5.99074 45.1034 5.93331V5.70361C45.1034 5.64619 45.1602 5.58876 45.217 5.58876H47.026C47.0829 5.58876 47.1302 5.63662 47.1302 5.70361V5.93331H47.1397ZM48.3142 13.9632L48.3236 16.8824C48.3236 16.9685 48.2479 17.0546 48.1437 17.0546H47.7553C47.6606 17.0546 47.5754 16.9781 47.5754 16.8824V12.2501C47.5754 12.1544 47.6512 12.0778 47.7553 12.0778H48.4373C48.532 12.0778 48.6362 12.1256 48.6741 12.2118L49.9054 15.2553C50.038 15.5807 50.1232 15.9444 50.2274 16.2985C50.1895 15.9157 50.1516 15.4563 50.1516 15.1117L50.1421 12.2405C50.1421 12.1544 50.2179 12.0682 50.3126 12.0682H50.682C50.7767 12.0682 50.862 12.1448 50.862 12.2405V16.8728C50.862 16.9589 50.7767 17.0451 50.682 17.0451H50.0001C49.9054 17.0451 49.8391 16.9972 49.8012 16.9015L48.5131 13.8101C48.3805 13.5038 48.2857 13.0923 48.191 12.7095C48.2573 13.1019 48.3142 13.6953 48.3142 13.9632ZM52.6236 23.5724H52.1122C52.008 23.5724 51.9133 23.5054 51.8849 23.4097L51.5913 22.3186H50.0474L49.7728 23.4097C49.7538 23.5054 49.6591 23.5724 49.5644 23.5724H49.0908C48.9772 23.5724 48.9298 23.4767 48.9582 23.3618L50.2653 18.7678C50.2937 18.6625 50.3979 18.5955 50.4926 18.5955H51.1366C51.2314 18.5955 51.3166 18.653 51.3545 18.7678L52.7562 23.3618C52.7941 23.4767 52.7373 23.5724 52.6236 23.5724ZM53.817 16.8824C53.817 16.9781 53.7413 17.0642 53.6466 17.0642H53.1919C53.0972 17.0642 53.012 16.9876 53.012 16.8824V12.2692C53.012 12.1735 53.0877 12.0874 53.1919 12.0874H53.6466C53.7413 12.0874 53.817 12.1639 53.817 12.2692V16.8824ZM57.5393 23.1321C57.5393 23.3044 57.492 23.3714 57.312 23.4384C57.0373 23.5437 56.6301 23.6202 56.2323 23.6202C54.8494 23.6202 54.2433 22.6727 54.2433 21.0744C54.2433 19.543 54.9726 18.5573 56.2417 18.5573C56.6679 18.5573 57.0847 18.6721 57.4067 18.8348C57.5014 18.8827 57.5298 18.9784 57.4825 19.0645L57.3404 19.3803C57.3025 19.4569 57.2173 19.5048 57.132 19.4569C56.8763 19.3325 56.6206 19.2464 56.2417 19.2464C55.4651 19.2464 55.0673 19.8206 55.0673 21.1222C55.0673 22.4526 55.5314 22.9216 56.2986 22.9216C56.469 22.9216 56.6206 22.9024 56.7627 22.8546V21.3998H56.1186C56.0239 21.3998 55.9386 21.3232 55.9386 21.2179V20.8734C55.9386 20.7777 56.0144 20.7011 56.1186 20.7011H57.3499C57.4446 20.7011 57.5204 20.7777 57.5204 20.8734V23.1321H57.5393ZM59.2347 12.2884L57.9276 16.9015C57.8992 16.9972 57.8045 17.0642 57.7098 17.0642H57.151C57.0563 17.0642 56.9616 16.9972 56.9331 16.9015L55.5787 12.2979C55.5503 12.1831 55.6071 12.0874 55.7208 12.0874H56.2228C56.3364 12.0874 56.4217 12.1448 56.4501 12.2692L57.2931 15.6094C57.3499 15.8487 57.4162 16.2411 57.4446 16.5761C57.492 16.2411 57.5393 15.8487 57.5961 15.6094L58.4391 12.2788C58.4675 12.1639 58.5433 12.0969 58.6569 12.0969H59.0926C59.2063 12.0874 59.2726 12.1831 59.2347 12.2884ZM58.6001 7.18709C58.6001 6.12473 58.9695 5.56005 59.6988 5.56005C60.4091 5.56005 60.788 6.08645 60.788 7.18709C60.788 8.25903 60.4186 8.78542 59.6988 8.78542C58.9695 8.77585 58.6001 8.25903 58.6001 7.18709ZM61.2426 23.5724H60.0492C59.9545 23.5724 59.8788 23.4958 59.8788 23.3905V18.7774C59.8788 18.6817 59.9545 18.6051 60.0492 18.6051H61.2142C62.2466 18.6051 63.0517 19.1698 63.0517 21.0648C63.0517 22.6344 62.6255 23.5724 61.2426 23.5724ZM63.62 16.8824C63.62 16.9781 63.5347 17.0642 63.44 17.0642H61.1195C61.0248 17.0642 60.949 16.9876 60.949 16.8824V12.2692C60.949 12.1735 61.0248 12.0874 61.1195 12.0874H63.3832C63.4779 12.0874 63.5631 12.1639 63.5631 12.2692V12.6042C63.5631 12.6999 63.4874 12.786 63.3832 12.786H61.7162V14.1068H63.2032C63.2979 14.1068 63.3832 14.1834 63.3832 14.2791V14.5854C63.3832 14.6906 63.2979 14.7672 63.2032 14.7672H61.7162V16.3464H63.44C63.5347 16.3464 63.62 16.423 63.62 16.5187V16.8824ZM63.9893 8.64186C63.9893 8.69929 63.9325 8.74714 63.8757 8.74714H63.44C63.3832 8.74714 63.3358 8.71843 63.3169 8.661L62.5023 6.69898C62.4171 6.49799 62.3603 6.23958 62.294 6.00031C62.3129 6.23958 62.3603 6.61284 62.3603 6.78512V8.64186C62.3603 8.69929 62.3129 8.74714 62.2466 8.74714H62.0003C61.9435 8.74714 61.8867 8.69929 61.8867 8.64186V5.69404C61.8867 5.63662 61.934 5.58876 62.0003 5.58876H62.436C62.4929 5.58876 62.5592 5.61748 62.5876 5.6749L63.3737 7.60821C63.4589 7.81877 63.5158 8.04847 63.5821 8.27817C63.5631 8.0389 63.5347 7.7422 63.5347 7.52207L63.5252 5.69404C63.5252 5.63662 63.5726 5.58876 63.6389 5.58876H63.8757C63.9325 5.58876 63.9893 5.63662 63.9893 5.69404V8.64186ZM67.8347 23.3905C67.8347 23.4862 67.7495 23.5724 67.6548 23.5724H65.3343C65.2396 23.5724 65.1638 23.4958 65.1638 23.3905V18.7774C65.1638 18.6817 65.2396 18.6051 65.3343 18.6051H67.5979C67.6927 18.6051 67.7779 18.6817 67.7779 18.7774V19.1124C67.7779 19.2081 67.7021 19.2942 67.5979 19.2942H65.931V20.615H67.418C67.5127 20.615 67.5979 20.6915 67.5979 20.7873V21.0935C67.5979 21.1988 67.5127 21.2754 67.418 21.2754H65.931V22.8546H67.6548C67.7495 22.8546 67.8347 22.9311 67.8347 23.0364V23.3905ZM68.6493 17.0546H68.1189C68.0147 17.0546 67.9389 17.0259 67.901 16.9015C67.7306 16.3942 67.6074 15.8678 67.4085 15.4754C67.238 15.15 67.0202 14.8533 66.5845 14.8533H66.2814V16.8824C66.2814 16.9685 66.2057 17.0546 66.1015 17.0546H65.6753C65.5805 17.0546 65.4953 16.9781 65.4953 16.8824V12.2596C65.4953 12.1639 65.5711 12.0778 65.6753 12.0778H66.9634C68.1946 12.0778 68.4504 12.8435 68.4504 13.3411C68.4504 13.925 68.1283 14.4418 67.3801 14.5566C67.7306 14.6332 68.0052 14.9395 68.1568 15.2649C68.2704 15.5137 68.5546 16.2315 68.7724 16.8249C68.8292 16.9589 68.8103 17.0546 68.6493 17.0546ZM69.1228 8.46959C69.1228 8.57487 69.0944 8.62272 68.9808 8.67057C68.8008 8.73757 68.5451 8.78542 68.2894 8.78542C67.4085 8.78542 67.0297 8.18246 67.0297 7.16795C67.0297 6.19173 67.4938 5.56962 68.2988 5.56962C68.5735 5.56962 68.8387 5.63662 69.0376 5.75147C69.0944 5.78018 69.1134 5.83761 69.085 5.89503L68.9902 6.09602C68.9713 6.14387 68.9145 6.17258 68.8576 6.14387C68.6966 6.06731 68.5356 6.00988 68.2894 6.00988C67.7968 6.00988 67.5411 6.37357 67.5411 7.20624C67.5411 8.04847 67.8347 8.35474 68.3273 8.35474C68.4314 8.35474 68.5356 8.34517 68.6209 8.31645V7.38808H68.2136C68.1568 7.38808 68.0999 7.34023 68.0999 7.27323V7.0531C68.0999 6.99568 68.1473 6.93825 68.2136 6.93825H68.9997C69.0565 6.93825 69.1134 6.98611 69.1134 7.0531V8.46959H69.1228ZM70.2215 16.6622L70.3068 16.289C70.3257 16.1933 70.4204 16.1454 70.5246 16.1741C70.7993 16.2794 71.1403 16.3847 71.5002 16.3847C71.9832 16.3847 72.3337 16.1454 72.3337 15.686C72.3337 15.1883 71.879 14.9873 71.4244 14.7672L71.1213 14.6236C70.6667 14.4131 70.2594 14.0972 70.2594 13.389C70.2594 12.6042 70.8182 12.0204 71.7464 12.0204C72.0969 12.0204 72.4568 12.1065 72.703 12.1926C72.7883 12.2214 72.8167 12.3171 72.7978 12.4032L72.722 12.7382C72.703 12.8243 72.6178 12.8817 72.5231 12.853C72.2863 12.7765 72.0969 12.6999 71.7654 12.6999C71.2918 12.6999 71.055 12.9392 71.055 13.3507C71.055 13.7431 71.3865 13.8867 71.7654 14.0781L72.1632 14.2599C72.6841 14.4992 73.1292 14.8438 73.1292 15.6286C73.1292 16.4899 72.5326 17.0929 71.5191 17.0929C71.0929 17.0929 70.6383 16.9972 70.3257 16.8824C70.2405 16.8536 70.2026 16.7579 70.2215 16.6622ZM71.9359 23.5724H70.4015C70.3068 23.5724 70.2215 23.4958 70.2215 23.4001V18.7774C70.2215 18.6817 70.2973 18.6051 70.4015 18.6051H71.8506C72.6936 18.6051 73.1956 19.1315 73.1956 19.8685C73.1956 20.3949 72.9588 20.749 72.3905 20.9404C73.0535 21.0552 73.4039 21.5625 73.4039 22.175C73.4134 23.0651 72.8735 23.5724 71.9359 23.5724ZM73.7828 8.64186V5.70361C73.7828 5.64619 73.8301 5.58876 73.8964 5.58876H75.3361C75.3929 5.58876 75.4497 5.63662 75.4497 5.70361V5.91417C75.4497 5.9716 75.4024 6.02902 75.3361 6.02902H74.2753V6.87126H75.2224C75.2793 6.87126 75.3361 6.91911 75.3361 6.97654V7.17752C75.3361 7.24452 75.2793 7.29237 75.2224 7.29237H74.2753V8.29731H75.374C75.4308 8.29731 75.4876 8.34517 75.4876 8.41216V8.64186C75.4876 8.69929 75.4308 8.75671 75.374 8.75671H73.8964C73.8301 8.74714 73.7828 8.69929 73.7828 8.64186ZM74.8815 16.8824V12.2692C74.8815 12.1735 74.9572 12.0874 75.0614 12.0874H75.516C75.6108 12.0874 75.696 12.1639 75.696 12.2692V16.8824C75.696 16.9781 75.6202 17.0642 75.516 17.0642H75.0614C74.9667 17.0546 74.8815 16.9781 74.8815 16.8824ZM78.5658 22.0315C78.5658 23.0555 78.007 23.6202 76.9557 23.6202C75.876 23.6202 75.3645 23.0364 75.3645 22.0315V18.7774C75.3645 18.6625 75.4308 18.6051 75.535 18.6051H75.9612C76.0749 18.6051 76.1412 18.6625 76.1412 18.7774V21.9453C76.1412 22.5961 76.3495 22.9598 76.9557 22.9598C77.4956 22.9598 77.7987 22.7397 77.7987 21.9836V18.7678C77.7987 18.653 77.8744 18.5955 77.9786 18.5955H78.3954C78.4995 18.5955 78.5753 18.6625 78.5753 18.7678V22.0315H78.5658ZM80.4222 12.6233C80.4222 12.719 80.3465 12.7956 80.2518 12.7956H79.2194V16.8824C79.2194 16.9781 79.1436 17.0642 79.0394 17.0642H78.6132C78.5185 17.0642 78.4332 16.9876 78.4332 16.8824V12.7956H77.4009C77.3061 12.7956 77.2209 12.719 77.2209 12.6233V12.2596C77.2209 12.1639 77.3061 12.0778 77.4009 12.0778H80.2423C80.337 12.0778 80.4128 12.1544 80.4128 12.2596V12.6233H80.4222ZM83.9835 23.5724H83.4531C83.3489 23.5724 83.2731 23.5437 83.2352 23.4192C83.0648 22.912 82.9416 22.3856 82.7427 21.9932C82.5722 21.6678 82.3544 21.3711 81.9187 21.3711H81.6156V23.4001C81.6156 23.4862 81.5399 23.5724 81.4452 23.5724H81.0189C80.9242 23.5724 80.8484 23.4958 80.8484 23.4001V18.7774C80.8484 18.6817 80.9242 18.6051 81.0189 18.6051H82.307C83.5383 18.6051 83.7941 19.3708 83.7941 19.8685C83.7941 20.4523 83.472 20.9691 82.7238 21.084C83.0742 21.1605 83.3489 21.4668 83.5004 21.7922C83.6141 22.041 83.8982 22.7589 84.1161 23.3522C84.154 23.4767 84.135 23.5724 83.9835 23.5724ZM85.0348 17.0546H84.5234C84.4192 17.0546 84.3245 16.9876 84.296 16.8919L84.0024 15.8008H82.4586L82.1839 16.8919C82.165 16.9876 82.0703 17.0546 81.9755 17.0546H81.502C81.3883 17.0546 81.341 16.9589 81.3694 16.8441L82.6764 12.2501C82.7048 12.1448 82.809 12.0778 82.9038 12.0778H83.5478C83.6425 12.0778 83.7278 12.1352 83.7656 12.2501L85.1674 16.8441C85.2053 16.9589 85.1485 17.0546 85.0348 17.0546ZM84.9022 7.11053V8.64186C84.9022 8.69929 84.8549 8.74714 84.7886 8.74714H84.5234C84.4665 8.74714 84.4097 8.69929 84.4097 8.64186V5.70361C84.4097 5.64619 84.4571 5.58876 84.5234 5.58876H84.7886C84.8454 5.58876 84.9022 5.63662 84.9022 5.70361V6.91911L85.7168 5.66533C85.7546 5.6079 85.7925 5.58876 85.8683 5.58876H86.2187C86.3135 5.58876 86.3135 5.66533 86.2756 5.72276L85.3663 7.00525L86.3798 8.62272C86.4271 8.69929 86.3987 8.75671 86.3229 8.75671H85.9441C85.8778 8.75671 85.8209 8.73757 85.7831 8.67057L84.9022 7.11053ZM89.0791 23.1321C89.0791 23.3044 89.0317 23.3714 88.8518 23.4384C88.5771 23.5437 88.1699 23.6202 87.7721 23.6202C86.3892 23.6202 85.7831 22.6727 85.7831 21.0744C85.7831 19.543 86.5124 18.5573 87.7815 18.5573C88.2077 18.5573 88.6245 18.6721 88.9465 18.8348C89.0412 18.8827 89.0696 18.9784 89.0223 19.0645L88.8802 19.3803C88.8423 19.4569 88.7571 19.5048 88.6718 19.4569C88.4161 19.3325 88.1604 19.2464 87.7815 19.2464C87.0049 19.2464 86.6071 19.8206 86.6071 21.1222C86.6071 22.4526 87.0712 22.9216 87.8384 22.9216C88.0088 22.9216 88.1604 22.9024 88.3025 22.8546V21.3998H87.6584C87.5637 21.3998 87.4784 21.3232 87.4784 21.2179V20.8734C87.4784 20.7777 87.5542 20.7011 87.6584 20.7011H88.8897C88.9844 20.7011 89.0696 20.7777 89.0696 20.8734V23.1321H89.0791ZM89.2117 12.6233C89.2117 12.719 89.1359 12.7956 89.0412 12.7956H88.0088V16.8824C88.0088 16.9781 87.9331 17.0642 87.8289 17.0642H87.4027C87.308 17.0642 87.2227 16.9876 87.2227 16.8824V12.7956H86.1903C86.0956 12.7956 86.0104 12.719 86.0104 12.6233V12.2596C86.0104 12.1639 86.0956 12.0778 86.1903 12.0778H89.0317C89.1265 12.0778 89.2022 12.1544 89.2022 12.2596V12.6233H89.2117Z" fill="#8493AD"/>
<path d="M50.8021 19.0073C50.7831 19.2179 50.7452 19.4954 50.6884 19.6964L50.2148 21.6393H51.4082L50.9063 19.6964C50.8589 19.505 50.8305 19.2083 50.8021 19.0073Z" fill="#8493AD"/>
<path d="M43.3863 8.3642C43.8504 8.3642 43.9641 7.89522 43.9641 7.16784C43.9641 6.48831 43.8599 5.96191 43.3863 5.96191C42.8749 5.96191 42.8086 6.54574 42.8086 7.16784C42.8086 7.96222 42.9412 8.3642 43.3863 8.3642Z" fill="#8493AD"/>
<path d="M67.6641 13.4466C67.6641 13.0925 67.4273 12.7671 66.9442 12.7671H66.2812V14.2219H66.8685C67.3705 14.2219 67.6641 13.9156 67.6641 13.4466Z" fill="#8493AD"/>
<path d="M83.2161 12.4893C83.1972 12.6998 83.1593 12.9774 83.1025 13.1784L82.6289 15.1212H83.8223L83.3203 13.1784C83.273 12.9869 83.2446 12.6902 83.2161 12.4893Z" fill="#8493AD"/>
<path d="M82.9961 19.9642C82.9961 19.6101 82.7593 19.2847 82.2763 19.2847H81.6133V20.7394H82.2005C82.693 20.7394 82.9961 20.4332 82.9961 19.9642Z" fill="#8493AD"/>
<path d="M34.7305 15.4372C34.7495 13.6571 33.6792 14.2505 33.3098 13.3508C32.9688 12.4894 33.6034 11.6376 32.8836 11.0251C32.6279 10.805 32.4005 10.7954 32.1069 10.6135C31.3397 10.1254 30.7809 9.45547 30.4873 8.9865C30.2032 8.52709 30.5063 8.06769 30.2221 7.58915C30.0706 7.33074 29.8338 7.28289 29.7107 7.0149C29.5875 6.73735 29.8527 6.47894 29.6538 6.24924C29.3223 5.8664 29.0098 5.56971 28.7446 4.7179C27.93 2.13377 26.8977 2.46875 26.6703 2.32519C26.0452 1.91364 24.9655 1.42553 24.1794 1.2054C23.2417 0.946989 22.6923 0.870422 21.9725 0.851281C20.8644 0.832139 20.6465 1.21497 20.476 1.2054C18.2976 1.01398 17.2936 1.69351 16.0339 2.33476C14.4617 3.12914 13.6093 4.56477 13.2115 5.85683C13.0126 6.49808 12.8326 6.8522 12.6053 7.52216C12.4632 7.9337 12.217 8.21126 11.876 8.3931C11.5634 8.55581 11.3456 8.73765 10.9194 8.75679C10.5595 8.76637 10.0859 8.96735 9.98171 9.16834L10.0101 9.88615C10.0101 9.88615 10.2185 9.82873 10.55 9.51289C10.8152 9.27362 11.0425 9.52246 11.6297 9.59903C13.0126 9.64688 13.7608 8.78551 13.846 8.59409C13.9597 8.33568 13.846 7.63701 13.9976 7.52216L14.2154 7.51259C14.1681 7.9337 14.2438 8.43139 13.9123 8.88122C13.4956 9.45547 12.9368 9.59903 12.7852 9.65645C11.8949 9.98186 11.4119 9.84787 10.9667 9.79045C10.4458 9.72345 10.9289 10.5465 9.45131 10.3838C8.9588 10.3264 8.44734 10.7858 8.43787 11.1974C8.41893 11.6472 8.46629 13.3412 8.51364 13.4561L9.24294 14.0973C9.24294 14.0973 9.08193 13.2647 9.6218 13.5039C10.3795 13.8389 11.696 13.5135 11.8192 13.4178C11.5445 13.6762 11.5066 13.9633 11.2888 14.2409C10.8152 14.8247 9.85858 15.1501 10.0859 16.1933C10.5689 18.3755 9.56497 18.2702 9.56497 18.2702C8.93038 18.2894 8.46629 17.3897 8.46629 17.3897L8.51364 18.3563C8.50417 18.854 9.45131 19.9738 10.1048 19.7058L10.5311 20.5576C12.0749 20.8161 10.5405 22.0028 10.5595 22.4431L11.2035 23.8022C11.2414 23.6873 11.2982 22.3665 11.9328 22.4144C12.5295 22.4622 12.5863 23.0173 12.5863 23.0173C11.4877 23.85 12.8137 25.2186 13.5998 25.6398C13.5998 25.6398 13.6945 25.4579 13.8745 25.4196C13.4861 25.2761 13.2493 24.9889 13.3251 24.7114C13.4009 24.4338 13.4577 24.4817 13.685 24.4051C13.9692 24.3094 14.0449 24.3955 14.3101 24.2616C14.5943 24.118 14.689 24.52 14.9542 24.4434C15.1436 24.386 15.4372 24.1371 15.7119 23.9553C15.2289 24.587 14.8121 25.4771 13.9029 26.7021C13.7229 26.9414 13.7134 28.8364 13.7987 30.674L13.8176 30.9707C13.9029 32.4351 14.0544 33.7941 14.2438 34.1387C14.2628 34.1769 14.1207 34.2057 15.0584 32.77L15.2857 32.4159C16.2991 30.7984 17.7199 28.8364 19.0743 27.5731L19.3774 25.6493C19.4531 25.6685 19.5384 25.678 19.6141 25.6685L19.4058 27.5731C19.8036 27.6879 20.5423 28.6641 22.4461 31.0186L22.7776 31.4301C23.8668 32.77 25.1833 34.2152 25.2402 34.1195C25.6095 33.5453 29.8054 26.4916 29.8054 26.4916C29.8054 26.4916 28.5741 24.7305 28.2047 23.5629C28.6499 23.1131 28.6215 23.5533 29.7959 24.319C30.7052 24.9124 31.0651 24.3668 31.0651 24.3668C31.0651 24.3668 30.2221 23.8596 30.2221 23.3523C30.2126 22.2325 30.6767 22.2708 30.9135 22.2995C31.4723 22.3761 31.2166 22.8834 31.2166 22.8834L31.8038 22.8738C31.8038 22.8738 31.9933 22.7589 32.0596 22.6345C32.4858 21.7444 30.5536 21.2659 30.2411 20.9788C29.919 20.6916 30.1179 20.1365 30.1179 20.1365C31.1124 21.3807 31.747 21.0745 32.7699 20.7873L33.8213 19.725C32.7036 19.859 31.5102 20.8639 30.6483 18.2798L30.8567 18.0884C31.3682 19.0072 31.9175 19.3613 32.5805 19.3996L34.1433 17.7534C32.3153 19.0359 32.4479 16.6623 32.4479 16.6623C34.3422 16.557 34.7305 15.8105 34.7305 15.4372ZM11.9897 18.4329C12.0181 19.2177 11.2888 19.6484 10.6258 19.6676C10.6258 19.6676 10.6068 19.591 10.5405 19.5431C11.2035 19.524 11.8855 19.1699 11.8571 18.3851C11.8571 18.3946 11.9897 18.3755 11.9897 18.4329ZM19.8793 27.3051L20.0593 25.946C25.619 25.2856 26.6514 22.2038 26.6514 22.2038C26.6514 22.2038 26.9734 21.687 27.0303 21.8497C27.8069 24.2616 29.2181 26.3959 29.2181 26.3959L25.1076 33.3539C24.8802 33.0859 20.3529 27.5156 19.8793 27.3051ZM16.2234 24.0701C16.6212 25.2952 18.0703 25.4483 18.5155 25.6206C18.667 25.678 18.9038 25.6685 18.9038 25.6685L18.667 27.2189C15.6361 30.6932 14.3954 33.1529 14.3954 33.1529C13.9597 31.1143 14.1397 27.0275 14.1397 27.0275C14.1397 27.0275 15.2573 25.4196 16.2234 24.0701ZM17.3505 23.7543C17.3599 23.9649 17.3978 24.0989 17.3694 24.2998C17.3221 24.1658 17.1705 23.8787 17.1705 23.8787C17.1989 23.8596 17.3126 23.5055 17.3126 23.4576C17.3599 23.1418 17.4641 22.8738 17.7104 22.7876C17.682 22.9216 17.5873 23.0078 17.4736 23.2566C17.3599 23.515 17.3505 23.5437 17.3505 23.7543ZM29.3034 17.3323C28.8298 17.3801 28.5646 16.9877 28.5646 16.9877C27.9679 18.0405 27.4091 17.3706 27.4091 17.3706C27.4091 16.624 26.462 21.1797 26.3199 21.888C26.0452 22.4048 25.0318 24.2711 21.8873 25.2186L22.0009 25.1516C22.2661 24.9985 22.3514 24.7688 22.5408 24.4913C22.7018 24.252 22.8439 24.1371 22.9291 23.8692C22.9481 23.8117 22.8818 23.716 22.806 23.5916C22.9481 23.582 23.4027 23.1801 23.5448 23.0461C23.952 22.6249 24.3025 22.3952 24.6719 21.9646C25.136 21.3999 25.5717 21.084 25.9126 20.5194C26.1494 20.127 26.2347 19.8207 26.2915 19.3326C26.3957 18.6148 26.7082 17.7151 26.7461 16.9494C26.5093 17.3706 26.4146 17.6768 26.3294 18.0022C26.1873 18.5286 26.1684 18.8445 26.0263 19.323C25.8842 19.8015 25.8369 20.1748 25.5338 20.5289C25.278 20.8352 25.0034 21.0553 24.7098 21.2755C23.8857 21.9071 23.3459 22.8546 22.1998 23.1035C21.6315 22.6824 20.9212 22.2517 20.7223 22.2804C20.7223 22.2804 20.4666 22.3474 20.315 22.357L20.2487 22.7685C20.2487 22.7685 20.476 22.8642 20.476 22.8068C20.4476 22.5579 20.6749 22.5388 20.6655 22.6632C20.656 22.7876 20.8549 23.5629 20.5329 23.9649C20.476 24.0414 20.5613 22.9025 20.2203 23.0365L20.0972 23.5533L19.9362 23.5629C19.9362 23.5629 19.9646 23.448 19.9551 23.1226C19.9456 22.8068 19.8509 22.5388 19.3679 22.29C19.2637 22.2421 19.2637 22.9312 19.1595 23.0365L18.7996 23.2088C18.7333 22.9791 18.6386 22.6824 18.7522 22.6824C19.0837 22.6728 18.9322 22.3857 19.0174 22.1847C19.0743 22.0603 19.169 22.022 19.15 21.8497C19.0648 21.1702 19.1595 20.3088 19.0553 20.3184C18.9606 20.3184 18.8848 20.3662 18.8185 20.3088C18.7522 20.2514 18.8091 20.0791 18.8091 20.0791C18.4586 20.127 18.6102 21.5722 18.6102 21.5722C18.4681 21.7731 18.165 21.9837 18.0229 22.1273C18.0229 22.1273 17.9188 22.2134 17.8903 22.2038C17.4831 22.2038 17.0663 22.9025 17.0663 22.9025C16.9148 22.9408 16.3654 21.955 16.3465 21.9741C16.2707 21.6487 16.4128 21.8688 16.1571 21.1606C16.1192 20.8926 15.8256 19.8207 15.7877 19.7537C15.2099 19.1603 15.2762 16.5475 15.03 15.8966C14.8784 15.5042 14.3575 15.3702 14.3101 14.9108C14.2154 14.0973 14.3575 13.7336 14.4996 12.9967C14.5375 12.7861 14.509 12.6521 14.6038 12.4607C14.7174 12.2406 14.85 12.0587 15.1057 12.0492C15.3425 12.0396 15.3899 12.2693 15.5888 12.3937C15.7593 12.499 15.8445 12.6234 16.0434 12.6426C16.7727 12.7287 16.7064 12.499 16.7064 12.499L17.0663 12.298C16.9527 12.2214 16.7727 12.3554 16.5738 12.365C16.356 12.3746 16.2234 12.3937 16.015 12.3267C15.8066 12.2597 15.4088 12.1257 15.5793 11.9822C15.693 11.8865 15.7593 12.164 15.9771 12.0013C15.9771 12.0013 15.6267 11.7046 15.7403 11.4653C15.674 11.3983 15.7782 11.2931 15.8635 11.2452C15.9392 11.1974 16.0245 11.1974 16.0813 11.1878C16.0813 11.1878 15.9961 11.5132 16.0718 11.7046C16.1571 11.9152 16.3086 12.0205 16.5454 12.0779C16.6875 12.1162 16.7822 12.097 16.9243 12.0492C17.1326 11.9822 17.2842 11.896 17.3221 11.6759C17.3505 11.5419 17.3315 11.4558 17.3694 11.3314C17.3694 11.3314 17.502 11.5323 17.6346 11.6472C17.7199 11.7238 17.6346 11.829 17.6914 11.9247C17.7293 11.9917 17.7767 12.0205 17.8525 12.0396C17.9566 12.0683 18.0514 12.0683 18.2313 11.9056C18.2597 11.8482 18.2787 11.8195 18.2408 11.7333C18.1555 11.5611 18.0419 11.896 17.4641 11.1782C17.3315 11.0155 17.1895 10.9964 16.9811 10.9485C16.7348 10.8815 16.6022 10.872 16.3276 10.9102C16.2613 10.9389 16.2423 10.9007 16.1665 10.7762C16.1665 10.7762 16.2328 10.6901 16.2897 10.6614C16.6117 10.4795 17.0663 10.6805 17.2368 10.537C16.9811 10.4795 17.1042 10.4221 16.9906 10.403C16.6212 10.336 16.7159 10.3647 16.1476 10.3838C16.1476 10.3838 15.8161 10.4413 15.6172 10.6231C15.4467 10.7762 15.2383 11.0442 15.2383 11.0442C15.1626 11.0825 15.0963 10.9198 15.0773 10.8911C15.0773 10.8911 15.2668 10.4508 15.4846 10.2498C15.7119 10.0393 15.9203 9.98186 16.1855 9.86701C16.4223 9.76173 16.5928 9.89573 16.8485 9.93401C17.1326 9.98186 17.2463 10.0489 17.5494 10.1254C17.7577 10.1828 17.7293 10.4413 17.9282 10.5178C17.9851 10.537 18.0324 10.5083 18.0703 10.5465C18.1177 10.5848 18.0987 10.6518 18.0608 10.6997C17.9756 10.805 17.843 10.6805 17.7104 10.6327C17.6346 10.604 17.6157 10.537 17.5304 10.5274C17.4736 10.5178 17.4452 10.537 17.3884 10.5465C17.1989 10.5753 17.6346 10.7188 17.7672 10.8432C17.9188 10.9964 17.8998 11.2165 18.1177 11.2835C18.2218 11.3122 18.2976 11.2548 18.3829 11.3026C18.4965 11.3696 18.4965 11.4749 18.506 11.5993C18.506 11.6472 18.5155 11.695 18.506 11.7429C18.4965 12.097 18.2408 12.2119 18.1745 12.2884C17.9282 12.5468 18.0703 13.6762 18.0987 14.1643C18.0987 14.1643 17.4736 15.2554 17.8998 15.8105C18.0324 15.9828 18.0324 15.9828 18.3829 16.2986C18.3829 16.2986 18.1271 17.0451 17.9377 17.093C17.7672 17.0547 16.8106 17.3993 16.6117 18.0597L16.5833 18.2415C16.5833 18.3085 16.0908 18.3468 15.7309 18.0022C15.6267 17.9065 15.5604 18.6818 15.7119 19.1124C15.7782 19.323 15.8919 19.7058 16.4223 19.5623C16.6022 19.5527 16.9811 19.4761 17.1042 19.3326C17.1326 19.3613 18.004 19.8494 18.3639 19.8398C18.8375 19.8207 19.0269 19.524 19.0174 19.457C19.0174 19.457 18.828 19.4474 18.6102 19.4761C17.843 19.5527 17.8998 19.122 17.8998 19.122C18.1934 18.9402 18.2218 18.8923 18.5818 18.9497C18.8659 18.9976 18.9133 19.0167 19.0837 19.1029C19.1216 19.1029 19.2163 19.1029 19.2542 19.0933C19.491 19.0072 19.7278 18.854 20.2771 18.9497C20.4003 18.9689 20.8265 19.2464 21.2811 19.0742L21.1485 19.0167L21.3853 19.0263L21.2811 19.0742C21.5368 19.1699 21.4232 19.0454 21.7168 19.055C22.1146 19.0742 21.9536 19.9643 22.9291 19.8207C23.3743 19.7537 23.2796 18.1554 23.2796 18.1554L23.0712 18.1649C23.0712 18.7105 22.9007 19.0742 22.7586 19.0933C22.4461 19.122 22.4461 18.7488 21.802 18.4808C21.802 18.4808 21.5842 18.1936 21.8873 18.2319C22.1241 18.2606 22.1525 18.7009 22.7492 18.5573L22.7586 18.0692C21.8589 18.0979 21.8683 17.2461 20.9022 17.2557C20.5802 17.2653 21.0064 17.5333 20.6086 17.562C20.3434 17.5811 20.4855 17.4088 20.0214 17.4854C19.8983 17.5045 19.6899 17.1887 19.7183 16.9877C19.7467 16.7963 19.9267 16.9303 19.9646 16.7484C19.9646 16.7484 19.7373 16.0785 20.1824 16.1072C20.4003 16.1263 20.7886 16.7389 21.0064 16.0115C21.1201 16.0019 20.9117 15.9828 20.9117 15.9828C20.8549 15.9349 20.8738 16.2221 20.6939 16.1359C20.4003 15.9924 20.5139 15.8584 20.0498 15.9062C19.3868 15.9732 19.5763 16.6336 19.3868 16.5092C18.4018 15.8296 17.9756 15.4468 18.5818 14.2696L18.667 14.4993C18.6291 13.8006 18.5344 12.6234 18.6859 12.2789C18.7522 12.1257 18.7712 11.8482 18.8091 11.628C18.9227 10.9389 18.9133 10.1254 18.6765 10.0393C17.9188 9.7713 18.0987 9.05349 17.3126 8.96735L15.8445 8.9865C15.8445 8.9865 15.6456 8.15383 16.5833 7.86671C16.5833 7.86671 16.4696 6.74692 16.7917 6.45022C17.0379 6.22052 17.4925 6.45979 17.3031 5.71327C17.2652 5.57928 17.18 5.58885 17.1042 5.50271C16.9337 5.30172 16.8485 5.41657 16.678 4.98588C16.5643 4.70833 17.1895 4.27764 17.1895 4.27764C19.3868 4.64133 20.1256 2.70802 20.1256 2.70802C20.9401 4.1915 22.7586 4.0288 22.7586 4.0288C23.1943 4.03837 23.6679 4.05751 24.0941 4.57434C24.3877 4.92846 24.4446 5.19644 24.9087 5.43571C25.3917 5.68456 25.7895 5.37829 25.7895 5.37829C25.2875 5.34 24.9371 5.06245 24.7192 4.64133C23.9426 3.11 23.1943 3.19614 22.986 3.25356C23.1754 3.16742 23.1564 2.97601 23.8289 3.06214C24.8045 3.19614 25.278 4.84232 25.9032 4.92846C26.8598 5.05288 26.8314 5.22515 26.6135 6.10567C26.3388 7.20632 26.282 8.22083 26.604 9.51289C26.7935 10.2977 27.3618 10.6135 27.4281 11.4175C27.5322 12.6904 26.9924 13.0924 27.4091 14.4514C27.6933 15.3798 27.2197 16.423 28.2521 16.9207L28.3752 16.758C27.3712 16.2029 28.0058 15.332 28.0058 15.332C27.9963 16.8633 29.2371 16.9494 29.2371 16.9494C28.8298 16.6719 29.1518 16.4518 29.1518 16.4518C29.6822 16.289 29.9759 17.2653 29.3034 17.3323ZM18.8943 17.8012C19.0648 17.629 18.9606 17.4854 19.0743 17.495C19.2163 17.5141 19.3111 17.7917 19.3111 17.7917C19.3111 17.7917 19.3205 17.9065 19.491 18.0692C19.671 18.2415 20.2108 18.2702 20.4571 18.3851L20.9685 18.9785C20.7223 18.9497 20.5139 18.8253 20.3624 18.7296C19.652 18.2702 19.1311 18.8445 19.1311 18.8445C18.6575 18.4042 18.4586 18.5095 17.6157 18.9593C17.3789 19.0837 17.2368 18.8827 17.4736 18.8445C17.5399 18.8062 17.7956 18.2989 17.9756 18.2606C18.2503 18.1841 18.6575 18.0501 18.8943 17.8012ZM16.2802 11.4749C16.2802 11.4749 16.4412 11.5419 16.4886 11.628C16.517 11.6855 16.5265 11.7812 16.5265 11.7812C16.4412 11.9056 16.1192 11.6376 16.2802 11.4749ZM17.0095 11.5132L16.9243 11.7238L16.9148 11.5228L17.0095 11.5132ZM25.7137 10.9772C25.7327 11.0442 25.3917 10.4221 25.2686 10.2498C25.0791 10.001 24.9844 10.001 24.8045 9.7713C24.7098 9.63731 24.5487 9.18748 24.3783 9.16834C23.8573 9.13006 23.5069 9.4459 23.2322 9.46504C23.0901 9.47461 23.3364 9.29276 23.3364 9.29276C23.3838 9.1492 22.4177 9.11092 22.4177 9.11092C22.4177 9.11092 21.7073 9.11092 21.66 9.43632V9.56075L22.2567 9.65645C22.5124 9.73302 22.5597 9.63731 22.8534 9.6756L23.4027 9.66602L23.8952 9.51289L24.1604 9.5416C24.2362 9.5416 24.312 9.65645 24.3498 9.71388C24.5298 10.068 24.7192 10.1159 24.9844 10.3743C25.4959 10.8815 25.4959 11.0825 25.7137 10.9772ZM21.7641 9.84787C21.6221 9.8383 21.5179 10.2116 21.158 10.2498C20.6655 10.2977 20.4855 9.91487 20.3245 9.58946C20.3434 9.56075 20.2677 9.26405 20.2582 9.23534L20.1351 9.30233C20.1445 9.81916 20.3434 10.4221 20.8549 10.5848L20.8644 11.0251L21.0254 11.0059C21.0917 11.0059 21.1011 10.805 21.158 10.671C21.1769 10.6423 21.3758 10.4795 21.5368 10.4413C21.7547 10.403 22.0104 10.3551 22.3135 10.3456V10.1541L21.9536 10.1637L21.8304 10.1063L21.9062 9.91487C21.8589 9.89572 21.8115 9.85744 21.7641 9.84787ZM20.8265 14.796L20.6844 14.8056C20.6939 14.9013 20.7223 14.9491 20.7602 15.0353C20.8075 15.1693 20.7033 15.2363 20.9496 15.3607L20.9685 15.8009H21.1011L21.0822 15.2267L20.9591 15.2363L20.8265 14.796ZM21.1201 12.0205C21.1201 12.0874 21.1106 12.164 21.1201 12.2597L21.4705 12.2693L21.4232 12.1449C21.4232 12.1449 21.4421 12.0683 21.4326 12.0205L21.5747 11.9535C21.7641 11.9822 21.8399 12.4033 22.2377 12.3267C22.2567 12.3267 22.2282 12.1927 22.2282 12.1927C21.8589 12.1257 21.8399 11.9152 21.8399 11.9152C22.1051 11.4845 22.5408 11.4845 22.5503 11.5611L22.5029 11.7525C22.5124 12.1736 22.6071 12.5468 23.0996 12.5373C23.4501 12.5277 23.7247 12.3363 23.8194 12.0396C23.8952 12.0874 23.971 12.1832 24.0089 12.2884C24.0752 12.4416 24.0089 12.4607 24.0183 12.5851C24.0183 12.633 23.8289 12.6234 23.8952 12.834L24.132 12.8435L24.3214 12.5468C24.312 12.1544 23.9142 11.5515 23.4974 11.4079C23.3743 11.3601 23.1659 11.2739 22.9291 11.2644L22.4271 11.2739C22.2851 11.2931 22.0862 11.4366 22.0862 11.4366C21.8399 11.5036 21.8589 11.2261 21.8589 11.2261C21.963 11.0729 21.982 11.0347 22.4271 10.9007L23.0144 10.8624C22.986 10.8145 23.0523 10.6901 23.0523 10.6901C21.963 10.6997 21.6221 11.1591 21.5558 11.2356C21.5274 11.2644 21.3379 11.5036 21.3379 11.5515C21.3379 11.5706 21.5463 11.5993 21.5463 11.5993L21.6031 11.4749C21.6789 11.4845 21.7926 11.4749 21.7926 11.5515C21.7926 11.7429 21.6505 11.6663 21.66 11.8865H21.5368C21.319 11.8577 21.1106 11.8003 21.1201 12.0205ZM23.3743 11.8577L23.0712 11.8673V11.695L23.3743 11.6855V11.8577ZM22.806 11.7046C22.806 11.7046 22.7397 12.2693 23.2417 12.2119L23.1659 12.2789C22.645 12.3171 22.7302 11.7716 22.806 11.7046ZM22.304 12.6043L21.9725 12.6138V12.7574H22.1904V12.968H22.3135L22.304 12.6043ZM24.2551 11.5993C24.4919 12.6904 25.2117 12.7191 25.2117 12.7191L25.3443 12.5756C25.3443 12.5756 24.634 12.5373 24.3972 11.4558C24.3404 11.4845 24.2551 11.5993 24.2551 11.5993ZM25.5432 11.5323C25.5432 11.4079 25.5243 11.3792 25.5054 11.2356L25.4012 11.3601C25.3254 11.3409 25.2212 11.0634 25.1265 10.9581L24.9276 10.9964C25.0128 11.2452 25.297 11.3218 25.2402 11.5228C25.2307 11.5515 25.4485 11.5993 25.5432 11.5323ZM20.2961 19.8207C20.2961 19.7728 20.1824 19.792 20.1351 19.792C20.0688 19.792 20.0498 19.9451 19.993 19.9068C19.8604 19.8207 19.7183 19.6867 19.7089 19.4953L19.3111 19.5048C19.3111 19.3996 19.0648 19.4666 19.0932 19.6101C19.1406 19.6101 19.33 19.6293 19.33 19.6006C19.491 19.7824 19.671 19.792 19.7373 19.9164C19.8414 20.0982 19.7846 20.3088 19.9267 20.3949C19.974 20.0121 20.3055 20.0791 20.2961 19.8207Z" fill="#8493AD"/>
</svg>
