<svg width="34" height="42" viewBox="0 0 34 42" fill="none" xmlns="http://www.w3.org/2000/svg">
<g clip-path="url(#clip0)">
<path d="M8.22352 6.71997H31.5569C32.4902 6.71997 33.1124 7.39197 33.1124 8.39997V40.32C33.1124 41.328 32.4902 42 31.5569 42H8.22352C7.29019 42 6.66797 41.328 6.66797 40.32V8.39997C6.66797 7.39197 7.29019 6.71997 8.22352 6.71997Z" fill="#C3D0E4"/>
<path d="M28.4453 1.68V17.472C28.4453 22.344 24.712 26.208 20.2009 26.208H18.4898V27.888C18.4898 32.76 14.7564 36.624 10.2453 36.624H2.15642C0.849159 36.624 0.445312 36.12 0.445312 35.28V1.68C0.445312 0.672 1.22309 0 2.15642 0H26.8898C27.6675 0 28.4453 0.84 28.4453 1.68Z" fill="url(#paint0_linear)"/>
<path d="M22.2216 8.40015H6.66602V10.5001H22.2216V8.40015Z" fill="white"/>
<path d="M14.4438 15.1204H6.66602V17.2204H14.4438V15.1204Z" fill="white"/>
</g>
<defs>
<linearGradient id="paint0_linear" x1="-5.64469" y1="-10.7648" x2="32.2011" y2="21.2519" gradientUnits="userSpaceOnUse">
<stop stop-color="#818FAA"/>
<stop offset="0.24" stop-color="#7B8AA5"/>
<stop offset="0.55" stop-color="#6C7A96"/>
<stop offset="0.89" stop-color="#52617F"/>
<stop offset="1" stop-color="#485876"/>
</linearGradient>
<clipPath id="clip0">
<rect width="32.6667" height="42" fill="white" transform="translate(0.445312)"/>
</clipPath>
</defs>
</svg>
