<svg width="269" height="48" viewBox="0 0 269 48" fill="none" xmlns="http://www.w3.org/2000/svg">
<rect x="4" width="265" height="48" rx="6" fill="#4140DF"/>
<path d="M73.3474 18.8182H70.5932L74.0285 29H77.3048L80.7402 18.8182H77.9859L75.7089 26.2756H75.6244L73.3474 18.8182ZM86.3974 18.8182H83.9364V29H86.3974V18.8182ZM90.0423 29H97.1417V27.0014H92.5032V24.9084H96.7788V22.9048H92.5032V20.8168H97.1417V18.8182H90.0423V29ZM103.224 29H105.59L107.425 22.8253H107.504L109.339 29H111.71L114.669 18.8182H111.954L110.413 25.505H110.328L108.573 18.8182H106.356L104.601 25.4901H104.517L102.98 18.8182H100.261L103.224 29ZM122.893 29H129.59V27.0014H125.354V18.8182H122.893V29ZM135.425 18.8182H132.964V29H135.425V18.8182ZM141.381 18.8182H138.627L142.063 29H145.339L148.774 18.8182H146.02L143.743 26.2756H143.658L141.381 18.8182ZM151.97 29H159.07V27.0014H154.431V24.9084H158.707V22.9048H154.431V20.8168H159.07V18.8182H151.97V29ZM167.819 29H174.516V27.0014H170.28V18.8182H167.819V29ZM180.35 18.8182H177.89V29H180.35V18.8182ZM189.499 21.8707H191.855C191.836 19.9666 190.319 18.679 187.953 18.679C185.626 18.679 183.951 19.9467 183.966 21.8409C183.961 23.3871 185.044 24.2571 186.804 24.6598L187.868 24.9084C188.987 25.1669 189.489 25.4702 189.499 26.0419C189.489 26.6634 188.907 27.0959 187.918 27.0959C186.829 27.0959 186.113 26.5888 186.059 25.6094H183.702C183.732 27.9908 185.387 29.1293 187.948 29.1293C190.483 29.1293 191.985 27.9808 191.995 26.0469C191.985 24.4212 190.886 23.4268 188.877 22.9844L188.002 22.7855C187.078 22.5866 186.491 22.2784 186.511 21.6719C186.516 21.1151 186.993 20.7124 187.948 20.7124C188.907 20.7124 189.434 21.1449 189.499 21.8707ZM195.004 20.8168H198.097V29H200.523V20.8168H203.61V18.8182H195.004V20.8168ZM209.373 18.8182H206.912V29H209.373V18.8182ZM221.684 18.8182H219.228V24.6847H219.143L215.136 18.8182H213.018V29H215.479V23.1236H215.544L219.595 29H221.684V18.8182ZM232.013 22.1442H234.504C234.255 20.1158 232.445 18.679 230.089 18.679C227.369 18.679 225.222 20.593 225.222 23.924C225.222 27.1456 227.2 29.1392 230.119 29.1392C232.739 29.1392 234.613 27.5135 234.613 24.7791V23.4318H230.223V25.2266H232.241C232.217 26.3004 231.471 26.9815 230.138 26.9815C228.612 26.9815 227.732 25.853 227.732 23.8942C227.732 21.9503 228.662 20.8366 230.138 20.8366C231.123 20.8366 231.794 21.3189 232.013 22.1442ZM243.667 21.8707H246.023C246.004 19.9666 244.487 18.679 242.121 18.679C239.794 18.679 238.119 19.9467 238.134 21.8409C238.129 23.3871 239.212 24.2571 240.972 24.6598L242.036 24.9084C243.155 25.1669 243.657 25.4702 243.667 26.0419C243.657 26.6634 243.075 27.0959 242.086 27.0959C240.997 27.0959 240.281 26.5888 240.227 25.6094H237.87C237.9 27.9908 239.555 29.1293 242.116 29.1293C244.651 29.1293 246.153 27.9808 246.163 26.0469C246.153 24.4212 245.054 23.4268 243.045 22.9844L242.17 22.7855C241.246 22.5866 240.659 22.2784 240.679 21.6719C240.684 21.1151 241.161 20.7124 242.116 20.7124C243.075 20.7124 243.602 21.1449 243.667 21.8707Z" fill="#F6F8FC"/>
<path d="M0 6C0 2.68629 2.68629 0 6 0H48V48H6C2.68629 48 0 45.3137 0 42V6Z" fill="#2E2DCA"/>
<path d="M19 17.8685C19 17.0698 19.8901 16.5934 20.5547 17.0365L30.5547 23.7031C30.8329 23.8886 31 24.2008 31 24.5352V24.5625C31 24.9214 30.8077 25.2527 30.4961 25.4308L20.4961 31.1451C19.8295 31.526 19 31.0446 19 30.2768V17.8685Z" fill="white"/>
</svg>
