<svg width="108" height="36" viewBox="0 0 108 36" fill="none" xmlns="http://www.w3.org/2000/svg">
<path d="M97.1321 24.675H99.5385V16.8519H99.5709L104.432 24.675H107.002V12.989H104.595V20.8286H104.563L99.6856 12.989H97.1321V24.675ZM86.5627 18.8811C86.5627 16.8352 87.4301 14.8711 89.7375 14.8711C92.045 14.8711 92.9124 16.8352 92.9124 18.8811C92.9124 20.8286 92.045 22.7929 89.7375 22.7929C87.4301 22.7929 86.5627 20.8286 86.5627 18.8811ZM83.9926 18.8811C83.9926 22.2529 86.1372 24.9531 89.7375 24.9531C93.3386 24.9531 95.4823 22.2529 95.4823 18.8811C95.4823 15.4111 93.3386 12.7107 89.7375 12.7107C86.1372 12.7107 83.9926 15.4111 83.9926 18.8811ZM79.6718 24.675H82.2411V12.989H79.6718V24.675ZM72.2584 24.675H74.8277V15.1494H78.33V12.989H68.7561V15.1494H72.2584V24.675ZM61.3254 14.9856H63.322C64.501 14.9856 65.5813 15.2475 65.5813 16.7373C65.5813 18.2263 64.501 18.4881 63.322 18.4881H61.3254V14.9856ZM58.7561 24.675H61.3254V20.4847H64.026C66.9557 20.4847 68.0689 18.6358 68.0689 16.7373C68.0689 14.8386 66.9557 12.989 64.026 12.989H58.7561V24.675ZM48.1505 24.675H57.0213V22.5146H50.7204V19.6504H56.3831V17.6536H50.7204V15.1494H56.8899V12.989H48.1505V24.675ZM35.5156 18.8811C35.5156 22.2529 37.6594 24.9531 41.2605 24.9531C44.1405 24.9531 46.1372 23.1037 46.3996 20.174H43.9119C43.715 21.7286 42.8318 22.7929 41.2605 22.7929C38.9523 22.7929 38.0849 20.8286 38.0849 18.8811C38.0849 16.8352 38.9523 14.8711 41.2605 14.8711C42.5203 14.8711 43.6337 15.7551 43.8133 16.9169H46.301C45.9901 14.2163 43.8133 12.7107 41.2605 12.7107C37.6594 12.7107 35.5156 15.4111 35.5156 18.8811Z" fill="#8493AD"/>
<path d="M22.0795 24.6751H13.2093V12.9892H21.949V15.1496H15.7786V17.654H21.4412V19.6505H15.7786V22.5148H22.0795V24.6751ZM32.5927 23.8135C31.6675 24.5309 30.4737 24.9535 29.0514 24.9535C25.4512 24.9535 23.3074 22.253 23.3074 18.8812C23.3074 15.4113 25.4512 12.7108 29.0514 12.7108C31.2068 12.7108 32.8393 13.6786 33.8033 15.1995L35.2244 5.08822L4.34026 0.747919L2.61999 12.9892H3.63477L8.51225 20.8289H8.5446V12.9892H10.9501V24.6751H8.38101L3.52009 16.852H3.48692V24.6751H0.977679L0 31.632L30.8841 35.9731L32.5927 23.8135Z" fill="#8493AD"/>
<path d="M25.875 18.8812C25.875 20.829 26.7424 22.793 29.0498 22.793C31.358 22.793 32.2254 20.829 32.2254 18.8812C32.2254 16.8356 31.358 14.8713 29.0498 14.8713C26.7424 14.8713 25.875 16.8356 25.875 18.8812Z" fill="#8493AD"/>
</svg>
