<svg width="109" height="26" viewBox="0 0 109 26" fill="none" xmlns="http://www.w3.org/2000/svg">
<path d="M35.5179 19.3534C35.7748 18.7185 35.9996 18.1154 36.2244 17.544C37.3804 14.5916 38.5044 11.6711 39.4036 8.62353C39.4678 8.36956 39.5963 8.27433 39.8853 8.27433C40.7845 8.27433 40.7845 8.27433 41.0735 9.13145C42.1011 12.4647 43.2893 15.7027 44.6702 18.909C44.7344 19.036 44.7665 19.163 44.895 19.3852C45.184 18.2741 45.473 17.2583 45.7299 16.2424C46.5006 13.1314 47.1108 9.98857 47.7209 6.84579C47.7852 6.59183 47.8494 6.46484 48.1384 6.46484C49.2303 6.46484 49.2303 6.46484 49.0376 7.54418C48.299 11.7981 47.3998 16.0202 46.0189 20.1153C45.7299 21.0359 45.7299 21.0042 44.7665 21.0359C44.2848 21.0677 44.06 20.909 43.8673 20.4645C42.5507 17.2583 41.2662 14.052 40.2064 10.7505C40.0458 10.7822 40.078 10.9409 40.0458 11.0362C38.954 14.3059 37.7337 17.5122 36.3528 20.6867C36.2244 20.9725 36.0959 21.0359 35.8069 21.0359C34.6508 21.0359 34.6508 21.0359 34.2655 19.9566C33.0451 16.3694 32.2423 12.6552 31.5679 8.94098C31.4395 8.27433 31.3431 7.60768 31.2147 6.94102C31.1505 6.62357 31.1505 6.49659 31.5679 6.49659C32.6598 6.52833 32.6598 6.49659 32.8525 7.57593C33.559 11.4806 34.3618 15.3535 35.4858 19.163C35.4536 19.1947 35.4536 19.2265 35.5179 19.3534Z" fill="#8493AD"/>
<path d="M64.9023 19.3848C65.6088 17.5435 66.2831 15.8293 66.9575 14.115C67.6319 12.3373 68.242 10.5596 68.788 8.71835C68.8843 8.40089 69.0128 8.27391 69.366 8.27391C70.201 8.30566 70.201 8.27391 70.4258 9.0358C71.4534 12.3691 72.6416 15.6388 74.0224 18.8768C74.0867 19.0038 74.1509 19.1308 74.2472 19.353C74.6647 18.0197 74.9858 16.7182 75.2749 15.4166C75.9492 12.5913 76.5273 9.76594 77.0411 6.94061C77.1053 6.62316 77.2017 6.46443 77.587 6.49617C78.5825 6.52792 78.5825 6.49617 78.3899 7.48028C77.6191 11.9246 76.6557 16.3055 75.2106 20.5593C75.0822 20.9085 74.9537 21.0673 74.5684 21.0355C73.4765 21.0038 73.4765 21.0355 73.059 20.0514C71.7745 17.0674 70.6184 14.0198 69.6229 10.9405C69.5908 10.877 69.5908 10.8453 69.5266 10.6866C69.366 11.1627 69.2376 11.5754 69.077 11.9564C68.0815 14.9087 66.9575 17.8292 65.7051 20.7181C65.5766 20.972 65.4482 21.0673 65.1592 21.0673C63.971 21.0673 63.971 21.0673 63.5856 19.9562C62.3011 16.242 61.5304 12.4008 60.8239 8.52787C60.7275 7.95646 60.6312 7.38504 60.5027 6.78188C60.4706 6.55966 60.5027 6.49617 60.7275 6.52792H60.7596C61.9799 6.46443 61.9478 6.46443 62.1726 7.67075C62.847 11.4484 63.6177 15.2261 64.7096 18.9086C64.7738 19.0038 64.8059 19.1308 64.9023 19.3848Z" fill="#8493AD"/>
<path d="M99.6141 13.0042C99.6141 10.4646 99.6141 7.9567 99.6141 5.41707C99.6141 5.09962 99.6784 4.94089 100.032 4.94089C100.353 4.90915 100.77 4.68693 100.931 4.84566C101.156 5.03613 100.995 5.44882 100.995 5.79802C100.995 7.22656 101.027 8.62335 100.995 10.0519C100.995 10.4328 101.027 10.5598 101.445 10.4011C102.569 10.0201 103.725 9.92491 104.913 10.1154C106.679 10.4011 107.739 11.4804 108.028 13.2264C108.156 13.9566 108.221 14.6867 108.188 15.4169C108.188 17.1311 108.188 18.8771 108.188 20.5913C108.188 20.9088 108.156 21.0675 107.739 21.0675C106.743 21.0358 106.743 21.0675 106.743 20.0834C106.743 18.3374 106.743 16.5597 106.743 14.8137C106.743 14.274 106.679 13.7661 106.551 13.2582C106.262 12.0836 105.555 11.4487 104.335 11.3217C103.275 11.1947 102.28 11.3852 101.284 11.6709C100.995 11.7344 100.995 11.9249 100.995 12.1471C100.995 14.9724 100.995 17.7977 100.995 20.6231C100.995 21.004 100.899 21.0993 100.513 21.0993C99.582 21.0675 99.582 21.0993 99.582 20.1786C99.6141 17.7343 99.6141 15.3851 99.6141 13.0042Z" fill="#8493AD"/>
<path d="M55.4599 15.8931C54.3039 15.8931 53.1478 15.8931 51.9917 15.8931C51.7027 15.8931 51.5742 15.9883 51.6385 16.274C51.6706 16.4645 51.6706 16.6867 51.7027 16.909C52.1844 19.4168 53.6937 20.1787 56.327 19.9882C56.9371 19.9565 57.4831 19.7978 58.029 19.5438C58.2217 19.4486 58.318 19.4486 58.3501 19.7025C58.5428 20.8136 58.7997 20.5914 57.6758 20.9724C56.3912 21.385 55.0746 21.385 53.7579 21.0676C52.088 20.6549 50.932 19.639 50.4503 17.9565C49.9043 16.0518 49.9043 14.1789 50.8677 12.4011C51.9275 10.4012 54.1754 9.4488 56.3591 10.1155C58.0932 10.6551 58.9282 11.9249 59.2172 13.6074C59.3135 14.2106 59.3456 14.8138 59.3456 15.4169C59.3456 15.7661 59.2493 15.8931 58.8639 15.8931C57.74 15.8931 56.616 15.8931 55.4599 15.8931ZM54.7856 14.7185C55.7168 14.7185 56.6481 14.7185 57.5794 14.7185C57.8684 14.7185 57.9327 14.6233 57.9327 14.3693C57.9005 13.9566 57.8363 13.5757 57.7079 13.163C57.1941 11.6075 55.8453 10.8456 54.2396 11.2265C52.8909 11.544 51.6706 13.0995 51.7027 14.4646C51.7027 14.7503 51.8954 14.6868 52.0238 14.6868C52.923 14.7185 53.8543 14.7185 54.7856 14.7185Z" fill="#8493AD"/>
<path d="M87.2214 16.9092C87.2214 18.0838 87.2214 19.2901 87.2214 20.4647C87.2214 20.6234 87.2856 20.7822 87.0287 20.8456C85.2625 21.1631 83.5284 21.4805 81.73 21.1314C80.1244 20.8139 79.2252 19.7346 79.1289 18.1155C79.0325 16.5283 79.8354 15.3854 81.4089 14.8775C82.7577 14.4648 84.1064 14.4331 85.4552 14.7505C85.8084 14.8458 85.8727 14.7188 85.8405 14.4331C85.8405 14.0204 85.8084 13.6077 85.7763 13.2268C85.6158 12.0204 84.8129 11.2903 83.5926 11.2268C82.6613 11.1633 81.7622 11.2268 80.8951 11.5443C80.6382 11.6395 80.5418 11.576 80.4776 11.2903C80.3492 10.3697 80.3171 10.3379 81.2483 10.1475C82.3081 9.92525 83.3678 9.86176 84.4276 10.0522C86.1296 10.3697 87.1251 11.576 87.2214 13.4172C87.2535 14.5601 87.2214 15.7346 87.2214 16.9092ZM85.8405 17.9568C85.8405 17.4171 85.8405 16.8775 85.8405 16.3378C85.8405 16.1156 85.7763 16.0204 85.5515 15.9569C84.3633 15.6394 83.1751 15.6077 81.9869 15.9569C80.9593 16.2743 80.4455 17.0362 80.5418 18.0838C80.6382 19.1314 81.1841 19.7346 82.276 19.9568C83.3357 20.1472 84.4276 20.052 85.4873 19.925C85.7121 19.8933 85.8084 19.798 85.8084 19.5441C85.8084 19.0044 85.8405 18.4965 85.8405 17.9568Z" fill="#8493AD"/>
<path d="M92.6777 21.2899C91.8428 21.3216 90.9115 21.1629 90.0123 20.8137C89.7554 20.7185 89.6591 20.6232 89.7554 20.3693C89.8517 20.0836 89.8517 19.6709 90.0444 19.5439C90.2692 19.3852 90.5903 19.7026 90.8472 19.7661C92.0354 20.1153 93.2557 20.1788 94.4439 19.8296C95.0541 19.6391 95.5358 19.2899 95.6 18.5915C95.6643 17.8614 95.4395 17.29 94.7972 16.909C94.0907 16.4964 93.2879 16.2106 92.5171 15.8932C92.0354 15.671 91.5537 15.4805 91.1042 15.1948C89.2737 13.9885 89.4022 11.4171 91.3932 10.433C92.7419 9.76634 94.1228 9.89332 95.5358 10.179C95.5679 10.179 95.6 10.2108 95.6321 10.2108C96.5955 10.4647 96.6598 10.5917 96.2423 11.5441C96.1459 11.798 96.0175 11.6711 95.889 11.6393C95.022 11.2584 94.0907 11.1949 93.1594 11.2266C92.8062 11.2584 92.4529 11.3219 92.0997 11.5123C91.0399 12.0203 90.9115 13.3536 91.8106 14.0837C92.1318 14.3377 92.485 14.4964 92.8383 14.6551C93.6732 15.0043 94.5082 15.3218 95.311 15.7027C96.6598 16.3694 97.1736 17.3852 97.013 18.782C96.8846 19.7979 96.3065 20.4645 95.3752 20.8772C94.5724 21.1947 93.7053 21.2899 92.6777 21.2899Z" fill="#8493AD"/>
<path d="M10.5652 23.8929C10.5652 24.5913 9.98712 25.1627 9.31274 25.1627C8.60625 25.1627 8.02821 24.623 7.99609 23.9246C7.99609 23.1945 8.54202 22.623 9.28063 22.623C9.98712 22.623 10.533 23.1945 10.5652 23.8929Z" fill="#8493AD"/>
<path d="M10.5652 2.17922C10.5652 2.87762 9.95501 3.41729 9.28063 3.41729C8.57413 3.41729 7.99609 2.84587 7.99609 2.14748C7.99609 1.44908 8.60625 0.845919 9.31274 0.877664C9.98712 0.909409 10.5652 1.48082 10.5652 2.17922Z" fill="#8493AD"/>
<path d="M24.4056 11.7661C25.1121 11.7661 25.6902 12.3058 25.6902 13.0042C25.6902 13.7026 25.1442 14.274 24.4377 14.3057C23.7312 14.3057 23.1211 13.7343 23.1211 13.0359C23.1211 12.3375 23.6991 11.7661 24.4056 11.7661Z" fill="#8493AD"/>
<path d="M25.112 16.5276C25.112 17.226 24.5661 17.7974 23.8596 17.8292C23.1531 17.8292 22.543 17.2578 22.543 16.5276C22.543 15.8292 23.121 15.2578 23.8275 15.2578C24.534 15.2578 25.112 15.8292 25.112 16.5276Z" fill="#8493AD"/>
<path d="M1.79929 10.7821C1.0928 10.7504 0.546875 10.1789 0.546875 9.48054C0.578988 8.78214 1.15703 8.21073 1.86352 8.24247C2.57001 8.27422 3.14805 8.87738 3.11594 9.57578C3.08383 10.2424 2.47367 10.7821 1.79929 10.7821Z" fill="#8493AD"/>
<path d="M25.112 9.51272C25.112 10.2111 24.5661 10.7508 23.8275 10.7508C23.121 10.7508 22.543 10.1794 22.543 9.48097C22.543 8.78258 23.1531 8.17941 23.8596 8.21116C24.5661 8.24291 25.112 8.78258 25.112 9.51272Z" fill="#8493AD"/>
<path d="M3.11715 16.5276C3.11715 17.226 2.57123 17.7974 1.86473 17.7974C1.15824 17.7974 0.580201 17.2578 0.548088 16.5594C0.515975 15.8292 1.12613 15.2578 1.83262 15.2578C2.57123 15.2896 3.11715 15.8292 3.11715 16.5276Z" fill="#8493AD"/>
<path d="M0 13.0042C0 12.3058 0.545927 11.7344 1.25242 11.7344C1.95891 11.7344 2.53695 12.3058 2.53695 12.9724C2.53695 13.7026 1.95891 14.274 1.25242 14.274C0.545927 14.274 0 13.7343 0 13.0042Z" fill="#8493AD"/>
<path d="M15.1576 23.8611C15.1576 23.1627 15.7356 22.623 16.4421 22.623C17.1486 22.623 17.6945 23.1945 17.6945 23.8929C17.6945 24.5913 17.0844 25.1944 16.3779 25.1627C15.6714 25.1309 15.1255 24.5595 15.1576 23.8611Z" fill="#8493AD"/>
<path d="M20.905 22.2741C20.905 22.9725 20.3591 23.5439 19.6205 23.5439C18.914 23.5439 18.3359 22.9725 18.3359 22.3058C18.3359 21.5757 18.914 21.036 19.6526 21.036C20.3912 21.0043 20.9371 21.5439 20.905 22.2741Z" fill="#8493AD"/>
<path d="M23.4745 6.30595C23.4745 7.03609 22.8964 7.57576 22.1899 7.57576C21.4834 7.57576 20.9375 7.00434 20.9375 6.30595C20.9375 5.60755 21.4834 5.03613 22.1899 5.03613C22.8964 5.03613 23.4745 5.5758 23.4745 6.30595Z" fill="#8493AD"/>
<path d="M4.75394 6.30595C4.75394 7.00434 4.1759 7.54401 3.4694 7.57576C2.7308 7.57576 2.15276 7.00434 2.18487 6.2742C2.18487 5.5758 2.79502 5.03613 3.50152 5.03613C4.20801 5.03613 4.75394 5.60755 4.75394 6.30595Z" fill="#8493AD"/>
<path d="M6.0037 5.03621C5.2972 5.03621 4.71916 4.46479 4.75128 3.76639C4.75128 3.068 5.32932 2.49658 6.03581 2.49658C6.77442 2.49658 7.32034 3.068 7.32034 3.79814C7.28823 4.52828 6.7423 5.03621 6.0037 5.03621Z" fill="#8493AD"/>
<path d="M23.4753 19.7659C23.4753 20.4643 22.8973 21.004 22.1908 21.004C21.4843 21.004 20.9062 20.4326 20.9062 19.7342C20.9062 19.0358 21.4843 18.4644 22.2229 18.4644C22.9294 18.4961 23.4753 19.0358 23.4753 19.7659Z" fill="#8493AD"/>
<path d="M12.8444 2.87752C12.1379 2.87752 11.5599 2.3061 11.5599 1.6077C11.5278 0.909306 12.1058 0.337891 12.8123 0.337891C13.5509 0.337891 14.1289 0.877561 14.1289 1.6077C14.1289 2.27435 13.5509 2.84577 12.8444 2.87752Z" fill="#8493AD"/>
<path d="M20.905 3.79814C20.905 4.49654 20.327 5.03621 19.6205 5.03621C18.914 5.03621 18.3359 4.46479 18.3359 3.76639C18.3359 3.03625 18.914 2.49658 19.6526 2.49658C20.3912 2.52833 20.9371 3.09974 20.905 3.79814Z" fill="#8493AD"/>
<path d="M12.8462 25.7022C12.1397 25.7022 11.5938 25.1626 11.5938 24.4324C11.5938 23.734 12.1397 23.1626 12.8783 23.1626C13.5848 23.1626 14.1949 23.7658 14.1628 24.4642C14.1307 25.1626 13.5527 25.7022 12.8462 25.7022Z" fill="#8493AD"/>
<path d="M16.4408 3.41707C15.7343 3.41707 15.1562 2.8774 15.1562 2.179C15.1562 1.44886 15.7343 0.877441 16.4408 0.877441C17.1473 0.877441 17.7253 1.44886 17.7253 2.14725C17.6932 2.84565 17.1473 3.41707 16.4408 3.41707Z" fill="#8493AD"/>
<path d="M7.32297 22.2737C7.32297 22.9721 6.74493 23.5118 6.03844 23.5118C5.33195 23.5118 4.75391 22.9404 4.75391 22.242C4.75391 21.5436 5.33195 20.9722 6.07055 20.9722C6.77705 21.0039 7.32297 21.5753 7.32297 22.2737Z" fill="#8493AD"/>
<path d="M2.18359 19.7024C2.18359 19.004 2.76163 18.4644 3.50024 18.4644C4.23885 18.4644 4.78477 19.0358 4.75266 19.7659C4.72055 20.4643 4.14251 21.004 3.43601 20.9722C2.72952 20.9722 2.18359 20.4008 2.18359 19.7024Z" fill="#8493AD"/>
<path d="M7.09908 6.782C7.09908 7.35342 6.61738 7.8296 6.03934 7.79785C5.49342 7.79785 5.01172 7.32167 5.01172 6.782C5.01172 6.21058 5.49342 5.7344 6.07146 5.76615C6.6495 5.76615 7.09908 6.24233 7.09908 6.782Z" fill="#8493AD"/>
<path d="M6.51981 18.687C7.06574 18.687 7.54744 19.1314 7.54744 19.6711C7.57955 20.2425 7.09785 20.7187 6.51981 20.7187C5.97389 20.7187 5.49219 20.2743 5.49219 19.7346C5.49219 19.1949 5.97389 18.687 6.51981 18.687Z" fill="#8493AD"/>
<path d="M20.1646 6.33758C20.1646 6.87725 19.715 7.35343 19.1691 7.35343C18.6232 7.35343 18.1094 6.87725 18.1094 6.33758C18.1094 5.79791 18.6232 5.28998 19.1691 5.32173C19.7472 5.32173 20.1646 5.79791 20.1646 6.33758Z" fill="#8493AD"/>
<path d="M20.9386 7.57617C21.4846 7.57617 21.9663 8.02061 21.9663 8.56028C21.9663 9.09995 21.4846 9.60787 20.9065 9.60787C20.3285 9.60787 19.8789 9.13169 19.8789 8.56028C19.911 8.02061 20.3927 7.57617 20.9386 7.57617Z" fill="#8493AD"/>
<path d="M21.2283 15.8613C21.8063 15.8613 22.288 16.3375 22.2559 16.8772C22.2559 17.4168 21.7742 17.893 21.2283 17.893C20.6823 17.893 20.1685 17.4168 20.2006 16.8454C20.2006 16.3058 20.6823 15.8613 21.2283 15.8613Z" fill="#8493AD"/>
<path d="M20.649 19.2581C20.649 19.7977 20.1994 20.2739 19.6535 20.2739C19.0754 20.2739 18.5938 19.8295 18.5938 19.2581C18.5938 18.7184 19.0433 18.2422 19.5893 18.2422C20.1673 18.2105 20.649 18.6867 20.649 19.2581Z" fill="#8493AD"/>
<path d="M22.0315 15.1313C21.4535 15.1313 21.0039 14.6551 21.0039 14.0837C21.0039 13.544 21.4856 13.0996 22.0315 13.0996C22.5775 13.0996 23.0592 13.544 23.0592 14.0837C23.0592 14.6869 22.6096 15.1313 22.0315 15.1313Z" fill="#8493AD"/>
<path d="M17.7905 4.75037C17.7584 5.32178 17.2767 5.76622 16.6986 5.73447C16.1527 5.70273 15.7031 5.22655 15.7031 4.68688C15.7352 4.11546 16.2169 3.67103 16.795 3.70277C17.3409 3.73452 17.8226 4.24244 17.7905 4.75037Z" fill="#8493AD"/>
<path d="M5.49047 9.22632C5.45835 9.76599 5.00877 10.2104 4.43073 10.1787C3.85269 10.1469 3.4031 9.67075 3.43521 9.09934C3.46733 8.55967 3.94903 8.11523 4.49495 8.11523C5.07299 8.14698 5.49047 8.6549 5.49047 9.22632Z" fill="#8493AD"/>
<path d="M9.95369 21.2898C9.95369 21.8612 9.5041 22.3374 8.92606 22.3374C8.38014 22.3374 7.93055 21.893 7.89844 21.3533C7.89844 20.7819 8.34802 20.3057 8.92606 20.3057C9.5041 20.274 9.95369 20.7501 9.95369 21.2898Z" fill="#8493AD"/>
<path d="M11.0478 3.03613C11.6259 3.03613 12.1076 3.48057 12.1076 4.05198C12.1076 4.59165 11.658 5.06783 11.0799 5.06783C10.5019 5.06783 10.0202 4.59165 10.0523 4.05198C10.0523 3.48057 10.5019 3.03613 11.0478 3.03613Z" fill="#8493AD"/>
<path d="M4.75419 18.4648C4.17615 18.4648 3.72656 18.0204 3.72656 17.449C3.72656 16.9093 4.17615 16.4331 4.75419 16.4331C5.33223 16.4331 5.78182 16.9093 5.78182 17.4807C5.78182 18.0204 5.33223 18.4648 4.75419 18.4648Z" fill="#8493AD"/>
<path d="M11.7229 23.0991C11.1449 23.0991 10.6953 22.6229 10.6953 22.0515C10.6953 21.5118 11.1449 21.0674 11.7229 21.0674C12.301 21.0674 12.7827 21.5436 12.7506 22.0832C12.7506 22.6546 12.2689 23.0991 11.7229 23.0991Z" fill="#8493AD"/>
<path d="M3.7581 15.7661C3.18006 15.7661 2.73047 15.3216 2.73047 14.7502C2.73047 14.2105 3.21217 13.7661 3.7581 13.7661C4.30402 13.7661 4.78572 14.2105 4.78572 14.7502C4.78572 15.3216 4.33613 15.7661 3.7581 15.7661Z" fill="#8493AD"/>
<path d="M8.38005 6.05221C7.80201 6.05221 7.32031 5.60777 7.32031 5.03636C7.32031 4.49669 7.7699 4.05225 8.34794 4.02051C8.92598 4.02051 9.40768 4.46494 9.40768 5.03636C9.37557 5.57603 8.92598 6.02046 8.38005 6.05221Z" fill="#8493AD"/>
<path d="M22.9615 11.258C22.9615 11.8295 22.4798 12.2739 21.9018 12.2739C21.3558 12.2739 20.9062 11.8295 20.9062 11.258C20.9062 10.6866 21.3558 10.2422 21.966 10.2422C22.5119 10.2739 22.9615 10.7184 22.9615 11.258Z" fill="#8493AD"/>
<path d="M18.3678 21.0043C18.3678 21.5757 17.9503 22.0201 17.3722 22.0201C16.7942 22.0201 16.3125 21.6074 16.3125 21.036C16.3125 20.4963 16.7621 20.0202 17.308 20.0202C17.8861 19.9884 18.3678 20.4328 18.3678 21.0043Z" fill="#8493AD"/>
<path d="M2.63281 11.9251C2.63281 11.3537 3.0824 10.8775 3.66044 10.9092C4.23848 10.9092 4.65595 11.3537 4.68806 11.8933C4.68806 12.4647 4.27059 12.9092 3.72467 12.9409C3.11451 12.9409 2.63281 12.4965 2.63281 11.9251Z" fill="#8493AD"/>
<path d="M15.6373 21.9883C15.6373 22.5597 15.1877 23.0041 14.6097 23.0041C14.0316 23.0041 13.6141 22.5597 13.582 22.02C13.582 21.4486 13.9995 21.0042 14.5775 21.0042C15.1556 20.9724 15.6373 21.3851 15.6373 21.9883Z" fill="#8493AD"/>
<path d="M13.9699 2.94092C14.5479 2.94092 14.9975 3.38535 14.9975 3.95677C14.9975 4.52818 14.5479 4.94087 14.002 4.94087C13.424 4.94087 12.9744 4.52818 12.9744 3.98851C12.9423 3.38535 13.3597 2.94092 13.9699 2.94092Z" fill="#8493AD"/>
<path d="M21.0683 12.7185C21.0683 13.1629 20.683 13.5438 20.2013 13.5121C19.7517 13.5121 19.3984 13.1311 19.3984 12.6867C19.3984 12.2423 19.7838 11.8613 20.2334 11.8613C20.7151 11.9248 21.0683 12.3058 21.0683 12.7185Z" fill="#8493AD"/>
<path d="M9.57137 19.0993C9.57137 19.5438 9.18601 19.9247 8.73643 19.9247C8.28684 19.9247 7.93359 19.5755 7.93359 19.1311C7.93359 18.6867 8.25473 18.3375 8.73643 18.3057C9.1539 18.274 9.57137 18.6232 9.57137 19.0993Z" fill="#8493AD"/>
<path d="M11.1113 6.14716C11.1113 6.59159 10.6938 6.97253 10.2442 6.97253C9.79465 6.97253 9.44141 6.59159 9.44141 6.14716C9.44141 5.67098 9.82677 5.32178 10.2764 5.32178C10.7259 5.35352 11.1113 5.73447 11.1113 6.14716Z" fill="#8493AD"/>
<path d="M5.91003 14.7503C6.35961 14.7503 6.71286 15.1312 6.71286 15.5439C6.71286 15.9883 6.3275 16.3693 5.87791 16.3693C5.46044 16.3693 5.07508 15.9883 5.04297 15.5439C5.04297 15.1312 5.46044 14.7185 5.91003 14.7503Z" fill="#8493AD"/>
<path d="M6.55271 11.0675C6.55271 11.4802 6.16735 11.8611 5.71776 11.8611C5.26817 11.8611 4.88281 11.4802 4.88281 11.0357C4.88281 10.5913 5.30029 10.2103 5.74987 10.2421C6.19946 10.2421 6.55271 10.623 6.55271 11.0675Z" fill="#8493AD"/>
<path d="M13.1349 21.131C12.6853 21.131 12.332 20.7818 12.332 20.3374C12.332 19.8929 12.7174 19.4802 13.167 19.512C13.6166 19.512 13.9698 19.8929 14.0019 20.3056C13.9698 20.75 13.5845 21.131 13.1349 21.131Z" fill="#8493AD"/>
<path d="M13.3917 5.70271C13.3917 6.14715 13.0063 6.52809 12.5567 6.52809C12.1072 6.52809 11.7539 6.14715 11.7539 5.73446C11.7539 5.29002 12.1072 4.94082 12.5567 4.90908C12.9742 4.87733 13.3596 5.25828 13.3917 5.70271Z" fill="#8493AD"/>
<path d="M7.48153 8.94061C7.48153 9.41679 7.12828 9.76599 6.64658 9.76599C6.197 9.76599 5.84375 9.38505 5.84375 8.94061C5.84375 8.52792 6.22911 8.11523 6.64658 8.11523C7.09617 8.11523 7.48153 8.49618 7.48153 8.94061Z" fill="#8493AD"/>
<path d="M19.4932 8.49628C19.4932 8.94071 19.14 9.28991 18.6904 9.28991C18.2087 9.28991 17.8555 8.90897 17.8555 8.46453C17.8555 8.0201 18.2408 7.6709 18.6904 7.6709C19.1079 7.6709 19.4932 8.05184 19.4932 8.49628Z" fill="#8493AD"/>
<path d="M19.9727 14.1787C20.4223 14.1787 20.8076 14.5597 20.8076 15.0041C20.8076 15.4485 20.4223 15.7977 20.0048 15.7977C19.5231 15.7977 19.1698 15.4168 19.1698 14.9723C19.1377 14.5597 19.5231 14.1787 19.9727 14.1787Z" fill="#8493AD"/>
<path d="M5.49105 12.4963C5.94063 12.5281 6.29388 12.909 6.26177 13.3534C6.22965 13.7979 5.81218 14.1788 5.36259 14.1471C4.91301 14.1153 4.55976 13.7026 4.59187 13.2582C4.6561 12.782 5.04146 12.4646 5.49105 12.4963Z" fill="#8493AD"/>
<path d="M19.8144 17.0676C19.8144 17.512 19.4612 17.9247 18.9795 17.8929C18.562 17.8929 18.1766 17.512 18.1445 17.0993C18.1445 16.6549 18.5299 16.2739 18.9795 16.2739C19.4612 16.2739 19.8144 16.6231 19.8144 17.0676Z" fill="#8493AD"/>
<path d="M16.248 19.8931C16.248 20.3058 15.8627 20.6868 15.4131 20.6868C14.9635 20.6868 14.5781 20.3058 14.5781 19.8614C14.5781 19.417 14.9956 19.036 15.4452 19.0678C15.8948 19.0995 16.248 19.4805 16.248 19.8931Z" fill="#8493AD"/>
<path d="M15.6729 5.95672C15.6729 6.40115 15.2876 6.7821 14.838 6.7821C14.3884 6.7821 14.0352 6.40115 14.0352 5.98846C14.0352 5.54403 14.3563 5.16309 14.8059 5.16309C15.2876 5.16309 15.6729 5.51228 15.6729 5.95672Z" fill="#8493AD"/>
<path d="M7.41797 7.25838C7.45008 6.81394 7.83544 6.433 8.28503 6.46474C8.73461 6.49649 9.08786 6.87743 9.05575 7.29012C9.02363 7.73456 8.63827 8.1155 8.18869 8.08375C7.77121 8.05201 7.41797 7.67106 7.41797 7.25838Z" fill="#8493AD"/>
<path d="M16.9572 6.11523C17.4068 6.11523 17.7922 6.52792 17.7922 6.97236C17.76 7.41679 17.4068 7.76599 16.9572 7.76599C16.4755 7.76599 16.1223 7.38505 16.1544 6.94061C16.1544 6.46443 16.5076 6.11523 16.9572 6.11523Z" fill="#8493AD"/>
<path d="M7.86825 17.5437C7.86825 17.9881 7.48289 18.3691 7.0333 18.3691C6.58372 18.3691 6.23047 18.0199 6.23047 17.5754C6.23047 17.131 6.5516 16.7818 7.0333 16.75C7.48289 16.7183 7.83613 17.0675 7.86825 17.5437Z" fill="#8493AD"/>
<path d="M20.6182 10.4649C20.6182 10.9094 20.265 11.2903 19.8475 11.2903C19.3979 11.322 18.9805 10.9728 18.9805 10.4967C18.9805 10.0522 19.3016 9.67129 19.7512 9.67129C20.2008 9.63954 20.6182 10.0205 20.6182 10.4649Z" fill="#8493AD"/>
<path d="M11.6573 20.0518C11.6573 20.4963 11.3041 20.8455 10.8545 20.8772C10.3728 20.8772 10.0195 20.5598 10.0195 20.0836C10.0195 19.6391 10.3728 19.2582 10.7902 19.2582C11.2398 19.2265 11.6573 19.6074 11.6573 20.0518Z" fill="#8493AD"/>
<path d="M17.4365 17.957C17.8861 17.957 18.2393 18.338 18.2393 18.7507C18.2393 19.1951 17.854 19.576 17.4044 19.576C16.9548 19.576 16.6016 19.2268 16.6016 18.7824C16.6016 18.3062 16.9869 17.957 17.4365 17.957Z" fill="#8493AD"/>
</svg>
